<svg xmlns="http://www.w3.org/2000/svg" viewBox="1437.71 212.57 230.33 219.77">
  <g fill="none" stroke-width="2.00" stroke-linecap="butt">
  <path stroke="#8a8f9e" vector-effect="non-scaling-stroke" d="M 1647.36 310.75 Q 1654.54 307.44 1657.84 300.69 C 1660.04 296.20 1659.67 286.91 1658.75 282.24 A 4.87 4.71 28.1 0 0 1658.39 281.12 Q 1650.84 264.62 1635.89 231.44 Q 1631.03 220.68 1619.74 220.68 Q 1573.73 220.67 1493.18 220.58 Q 1482.65 220.57 1479.14 221.85 Q 1472.38 224.30 1469.03 231.28 Q 1461.86 246.21 1449.07 276.32 Q 1447.88 279.14 1446.64 282.80 A 7.09 6.89 -33.5 0 0 1446.32 284.27 C 1445.71 290.53 1446.76 299.44 1450.87 304.37 Q 1453.91 308.02 1457.79 310.27 A 1.11 1.11 0.0 0 1 1458.34 311.23 Q 1458.44 398.30 1458.36 401.82 Q 1458.06 413.90 1459.46 417.03 Q 1462.57 423.98 1472.00 424.04 Q 1524.01 424.34 1633.00 424.09 C 1638.63 424.07 1643.85 422.08 1646.23 416.95 Q 1647.06 415.16 1647.08 408.41 Q 1647.23 349.52 1646.95 311.40 A 0.73 0.72 -13.2 0 1 1647.36 310.75"
/>
  <path stroke="#8a8f9e" vector-effect="non-scaling-stroke" d="M 1500.45 225.81 Q 1492.95 225.22 1485.24 225.72 Q 1476.61 226.27 1473.57 233.36 Q 1460.98 262.66 1452.47 281.51 A 0.41 0.41 0.0 0 0 1452.84 282.09 L 1488.00 282.09 A 1.00 0.99 -84.3 0 0 1488.97 281.29 L 1500.59 226.00 A 0.16 0.15 -83.4 0 0 1500.45 225.81"
/>
  <path stroke="#8a8f9e" vector-effect="non-scaling-stroke" d="M 1506.28 225.62 A 0.50 0.50 0.0 0 0 1505.79 226.02 L 1494.16 281.39 A 0.50 0.50 0.0 0 0 1494.65 281.99 L 1529.76 281.99 A 0.50 0.50 0.0 0 0 1530.26 281.51 L 1532.89 226.14 A 0.50 0.50 0.0 0 0 1532.39 225.62 L 1506.28 225.62"
/>
  <path stroke="#8a8f9e" vector-effect="non-scaling-stroke" d="M 1538.41 225.63 A 0.50 0.50 0.0 0 0 1537.91 226.11 L 1535.28 281.46 A 0.50 0.50 0.0 0 0 1535.78 281.98 L 1570.09 281.98 A 0.50 0.50 0.0 0 0 1570.59 281.43 L 1565.53 226.08 A 0.50 0.50 0.0 0 0 1565.03 225.63 L 1538.41 225.63"
/>
  <path stroke="#8a8f9e" vector-effect="non-scaling-stroke" d="M 1570.91 225.70 A 0.59 0.59 0.0 0 0 1570.33 226.35 L 1576.06 281.51 A 0.59 0.59 0.0 0 0 1576.65 282.04 L 1612.16 282.04 A 0.59 0.59 0.0 0 0 1612.72 281.29 L 1596.76 226.13 A 0.59 0.59 0.0 0 0 1596.20 225.70 L 1570.91 225.70"
/>
  <path stroke="#8a8f9e" vector-effect="non-scaling-stroke" d="M 1652.94 281.29 Q 1637.79 248.84 1633.31 238.29 Q 1631.19 233.29 1630.50 231.73 C 1628.41 227.00 1621.99 225.58 1617.24 225.71 Q 1612.94 225.82 1602.37 225.73 A 0.37 0.37 0.0 0 0 1602.01 226.20 L 1618.02 281.53 A 0.68 0.68 0.0 0 0 1618.67 282.02 L 1652.47 282.02 A 0.52 0.51 -12.6 0 0 1652.94 281.29"
/>
  <path stroke="#8a8f9e" vector-effect="non-scaling-stroke" d="M 1488.17 287.08 L 1452.15 287.14 A 0.65 0.65 0.0 0 0 1451.50 287.79 L 1451.51 291.06 A 16.10 16.08 -0.1 0 0 1467.64 307.11 L 1472.76 307.11 A 16.10 16.08 -0.1 0 0 1488.83 291.00 L 1488.82 287.73 A 0.65 0.65 0.0 0 0 1488.17 287.08"
/>
  <path stroke="#8a8f9e" vector-effect="non-scaling-stroke" d="M 1611.65 287.07 L 1577.03 287.25 A 0.86 0.86 0.0 0 0 1576.17 288.12 L 1576.20 292.86 A 14.65 14.42 -0.3 0 0 1590.92 307.20 L 1597.96 307.16 A 14.65 14.42 -0.3 0 0 1612.54 292.66 L 1612.51 287.92 A 0.86 0.86 0.0 0 0 1611.65 287.07"
/>
  <path stroke="#8a8f9e" vector-effect="non-scaling-stroke" d="M 1653.19 287.04 L 1618.43 287.22 A 1.08 1.08 0.0 0 0 1617.35 288.31 L 1617.38 293.17 A 14.88 14.04 -0.3 0 0 1632.33 307.13 L 1639.49 307.09 A 14.88 14.04 -0.3 0 0 1654.30 292.97 L 1654.27 288.11 A 1.08 1.08 0.0 0 0 1653.19 287.04"
/>
  <path stroke="#8a8f9e" vector-effect="non-scaling-stroke" d="M 1530.08 287.24 L 1494.96 287.24 A 0.60 0.60 0.0 0 0 1494.36 287.84 L 1494.36 292.34 A 15.09 14.90 0.0 0 0 1509.45 307.24 L 1515.59 307.24 A 15.09 14.90 -0.0 0 0 1530.68 292.34 L 1530.68 287.84 A 0.60 0.60 0.0 0 0 1530.08 287.24"
/>
  <path stroke="#8a8f9e" vector-effect="non-scaling-stroke" d="M 1570.55 287.10 L 1535.93 287.28 A 0.48 0.48 0.0 0 0 1535.45 287.76 L 1535.48 293.51 A 13.71 12.85 89.7 0 0 1548.40 307.16 L 1558.28 307.10 A 13.71 12.85 89.7 0 0 1571.06 293.33 L 1571.03 287.58 A 0.48 0.48 0.0 0 0 1570.55 287.10"
/>
  <path stroke="#8a8f9e" vector-effect="non-scaling-stroke" d="M 1463.12 312.60 Q 1463.41 320.67 1463.31 411.47 C 1463.30 416.41 1466.43 418.65 1471.42 418.63 Q 1477.76 418.60 1480.10 418.50 A 0.42 0.41 88.6 0 0 1480.49 418.08 Q 1480.48 373.14 1480.45 334.53 Q 1480.44 329.86 1483.77 327.98 Q 1485.92 326.76 1491.29 326.77 Q 1518.26 326.79 1527.21 326.94 C 1533.76 327.05 1534.09 332.78 1534.12 337.76 Q 1534.43 384.16 1534.08 418.43 A 0.20 0.20 0.0 0 0 1534.28 418.63 Q 1579.13 418.56 1636.01 418.59 Q 1641.88 418.59 1641.89 412.80 Q 1642.00 366.78 1641.91 312.98 A 0.52 0.52 0.0 0 0 1641.40 312.46 Q 1639.81 312.42 1637.99 312.57 Q 1626.50 313.51 1617.60 306.29 C 1616.48 305.38 1615.93 304.17 1614.99 303.41 A 0.62 0.61 -52.6 0 0 1614.11 303.53 Q 1608.01 311.72 1597.51 312.28 C 1588.18 312.78 1580.08 311.82 1574.31 303.64 A 0.75 0.74 -49.8 0 0 1573.03 303.75 C 1569.84 310.37 1560.60 312.42 1553.76 312.45 C 1545.39 312.50 1538.10 311.97 1533.78 304.25 A 0.64 0.63 -42.1 0 0 1532.71 304.20 C 1528.74 309.82 1520.67 312.30 1514.03 312.49 C 1507.01 312.68 1500.52 311.76 1495.48 306.54 Q 1492.70 303.67 1491.73 301.90 A 0.49 0.49 0.0 0 0 1491.00 301.75 C 1490.32 302.28 1489.53 303.81 1488.86 304.52 C 1482.11 311.73 1473.62 313.39 1463.73 312.05 A 0.54 0.54 0.0 0 0 1463.12 312.60"
/>
  <path stroke="#8a8f9e" vector-effect="non-scaling-stroke" d="M 1485.68 418.68 L 1528.70 418.68 A 0.38 0.38 0.0 0 0 1529.08 418.30 L 1529.08 336.64 A 4.76 3.68 90.0 0 0 1525.40 331.88 L 1488.98 331.88 A 4.76 3.68 -90.0 0 0 1485.30 336.64 L 1485.30 418.30 A 0.38 0.38 0.0 0 0 1485.68 418.68"
/>
  <path stroke="#8a8f9e" vector-effect="non-scaling-stroke" d="M 1552.51 332.39 L 1552.51 376.69 A 5.63 5.63 0.0 0 0 1558.14 382.32 L 1617.67 382.32 A 7.26 6.50 -0.0 0 0 1624.93 375.82 L 1624.93 333.26 A 7.26 6.50 0.0 0 0 1617.67 326.76 L 1558.14 326.76 A 5.63 5.63 0.0 0 0 1552.51 332.39"
/>
  <path stroke="#8a8f9e" vector-effect="non-scaling-stroke" d="M 1619.84 332.80 A 0.89 0.89 0.0 0 0 1618.95 331.91 L 1558.43 331.91 A 0.89 0.89 0.0 0 0 1557.54 332.80 L 1557.54 376.04 A 0.89 0.89 0.0 0 0 1558.43 376.93 L 1618.95 376.93 A 0.89 0.89 0.0 0 0 1619.84 376.04 L 1619.84 332.80"
/>
  <path stroke="#dec393" vector-effect="non-scaling-stroke" d="M 1522.28 373.31 A 6.25 6.25 0.0 0 0 1516.03 367.06 A 6.25 6.25 0.0 0 0 1509.78 373.31 A 6.25 6.25 0.0 0 0 1516.03 379.56 A 6.25 6.25 0.0 0 0 1522.28 373.31"
/>
  <path stroke="#dec393" vector-effect="non-scaling-stroke" d="M 1611.2088 359.0918 A 2.05 2.05 0.0 0 0 1609.1517 357.0490 L 1568.4719 357.1910 A 2.05 2.05 0.0 0 0 1566.4291 359.2482 L 1566.4312 359.8482 A 2.05 2.05 0.0 0 0 1568.4883 361.8910 L 1609.1681 361.7490 A 2.05 2.05 0.0 0 0 1611.2109 359.6918 L 1611.2088 359.0918"
/>
  <path fill="#152142" d="M 1647.36 310.75 A 0.73 0.72 -13.2 0 0 1646.95 311.40 Q 1647.23 349.52 1647.08 408.41 Q 1647.06 415.16 1646.23 416.95 C 1643.85 422.08 1638.63 424.07 1633.00 424.09 Q 1524.01 424.34 1472.00 424.04 Q 1462.57 423.98 1459.46 417.03 Q 1458.06 413.90 1458.36 401.82 Q 1458.44 398.30 1458.34 311.23 A 1.11 1.11 0.0 0 0 1457.79 310.27 Q 1453.91 308.02 1450.87 304.37 C 1446.76 299.44 1445.71 290.53 1446.32 284.27 A 7.09 6.89 -33.5 0 1 1446.64 282.80 Q 1447.88 279.14 1449.07 276.32 Q 1461.86 246.21 1469.03 231.28 Q 1472.38 224.30 1479.14 221.85 Q 1482.65 220.57 1493.18 220.58 Q 1573.73 220.67 1619.74 220.68 Q 1631.03 220.68 1635.89 231.44 Q 1650.84 264.62 1658.39 281.12 A 4.87 4.71 28.1 0 1 1658.75 282.24 C 1659.67 286.91 1660.04 296.20 1657.84 300.69 Q 1654.54 307.44 1647.36 310.75 Z M 1500.45 225.81 Q 1492.95 225.22 1485.24 225.72 Q 1476.61 226.27 1473.57 233.36 Q 1460.98 262.66 1452.47 281.51 A 0.41 0.41 0.0 0 0 1452.84 282.09 L 1488.00 282.09 A 1.00 0.99 -84.3 0 0 1488.97 281.29 L 1500.59 226.00 A 0.16 0.15 -83.4 0 0 1500.45 225.81 Z M 1506.28 225.62 A 0.50 0.50 0.0 0 0 1505.79 226.02 L 1494.16 281.39 A 0.50 0.50 0.0 0 0 1494.65 281.99 L 1529.76 281.99 A 0.50 0.50 0.0 0 0 1530.26 281.51 L 1532.89 226.14 A 0.50 0.50 0.0 0 0 1532.39 225.62 L 1506.28 225.62 Z M 1538.41 225.63 A 0.50 0.50 0.0 0 0 1537.91 226.11 L 1535.28 281.46 A 0.50 0.50 0.0 0 0 1535.78 281.98 L 1570.09 281.98 A 0.50 0.50 0.0 0 0 1570.59 281.43 L 1565.53 226.08 A 0.50 0.50 0.0 0 0 1565.03 225.63 L 1538.41 225.63 Z M 1570.91 225.70 A 0.59 0.59 0.0 0 0 1570.33 226.35 L 1576.06 281.51 A 0.59 0.59 0.0 0 0 1576.65 282.04 L 1612.16 282.04 A 0.59 0.59 0.0 0 0 1612.72 281.29 L 1596.76 226.13 A 0.59 0.59 0.0 0 0 1596.20 225.70 L 1570.91 225.70 Z M 1652.94 281.29 Q 1637.79 248.84 1633.31 238.29 Q 1631.19 233.29 1630.50 231.73 C 1628.41 227.00 1621.99 225.58 1617.24 225.71 Q 1612.94 225.82 1602.37 225.73 A 0.37 0.37 0.0 0 0 1602.01 226.20 L 1618.02 281.53 A 0.68 0.68 0.0 0 0 1618.67 282.02 L 1652.47 282.02 A 0.52 0.51 -12.6 0 0 1652.94 281.29 Z M 1488.17 287.08 L 1452.15 287.14 A 0.65 0.65 0.0 0 0 1451.50 287.79 L 1451.51 291.06 A 16.10 16.08 -0.1 0 0 1467.64 307.11 L 1472.76 307.11 A 16.10 16.08 -0.1 0 0 1488.83 291.00 L 1488.82 287.73 A 0.65 0.65 0.0 0 0 1488.17 287.08 Z M 1611.65 287.07 L 1577.03 287.25 A 0.86 0.86 0.0 0 0 1576.17 288.12 L 1576.20 292.86 A 14.65 14.42 -0.3 0 0 1590.92 307.20 L 1597.96 307.16 A 14.65 14.42 -0.3 0 0 1612.54 292.66 L 1612.51 287.92 A 0.86 0.86 0.0 0 0 1611.65 287.07 Z M 1653.19 287.04 L 1618.43 287.22 A 1.08 1.08 0.0 0 0 1617.35 288.31 L 1617.38 293.17 A 14.88 14.04 -0.3 0 0 1632.33 307.13 L 1639.49 307.09 A 14.88 14.04 -0.3 0 0 1654.30 292.97 L 1654.27 288.11 A 1.08 1.08 0.0 0 0 1653.19 287.04 Z M 1530.08 287.24 L 1494.96 287.24 A 0.60 0.60 0.0 0 0 1494.36 287.84 L 1494.36 292.34 A 15.09 14.90 0.0 0 0 1509.45 307.24 L 1515.59 307.24 A 15.09 14.90 -0.0 0 0 1530.68 292.34 L 1530.68 287.84 A 0.60 0.60 0.0 0 0 1530.08 287.24 Z M 1570.55 287.10 L 1535.93 287.28 A 0.48 0.48 0.0 0 0 1535.45 287.76 L 1535.48 293.51 A 13.71 12.85 89.7 0 0 1548.40 307.16 L 1558.28 307.10 A 13.71 12.85 89.7 0 0 1571.06 293.33 L 1571.03 287.58 A 0.48 0.48 0.0 0 0 1570.55 287.10 Z M 1463.12 312.60 Q 1463.41 320.67 1463.31 411.47 C 1463.30 416.41 1466.43 418.65 1471.42 418.63 Q 1477.76 418.60 1480.10 418.50 A 0.42 0.41 88.6 0 0 1480.49 418.08 Q 1480.48 373.14 1480.45 334.53 Q 1480.44 329.86 1483.77 327.98 Q 1485.92 326.76 1491.29 326.77 Q 1518.26 326.79 1527.21 326.94 C 1533.76 327.05 1534.09 332.78 1534.12 337.76 Q 1534.43 384.16 1534.08 418.43 A 0.20 0.20 0.0 0 0 1534.28 418.63 Q 1579.13 418.56 1636.01 418.59 Q 1641.88 418.59 1641.89 412.80 Q 1642.00 366.78 1641.91 312.98 A 0.52 0.52 0.0 0 0 1641.40 312.46 Q 1639.81 312.42 1637.99 312.57 Q 1626.50 313.51 1617.60 306.29 C 1616.48 305.38 1615.93 304.17 1614.99 303.41 A 0.62 0.61 -52.6 0 0 1614.11 303.53 Q 1608.01 311.72 1597.51 312.28 C 1588.18 312.78 1580.08 311.82 1574.31 303.64 A 0.75 0.74 -49.8 0 0 1573.03 303.75 C 1569.84 310.37 1560.60 312.42 1553.76 312.45 C 1545.39 312.50 1538.10 311.97 1533.78 304.25 A 0.64 0.63 -42.1 0 0 1532.71 304.20 C 1528.74 309.82 1520.67 312.30 1514.03 312.49 C 1507.01 312.68 1500.52 311.76 1495.48 306.54 Q 1492.70 303.67 1491.73 301.90 A 0.49 0.49 0.0 0 0 1491.00 301.75 C 1490.32 302.28 1489.53 303.81 1488.86 304.52 C 1482.11 311.73 1473.62 313.39 1463.73 312.05 A 0.54 0.54 0.0 0 0 1463.12 312.60 Z M 1485.68 418.68 L 1528.70 418.68 A 0.38 0.38 0.0 0 0 1529.08 418.30 L 1529.08 336.64 A 4.76 3.68 90.0 0 0 1525.40 331.88 L 1488.98 331.88 A 4.76 3.68 -90.0 0 0 1485.30 336.64 L 1485.30 418.30 A 0.38 0.38 0.0 0 0 1485.68 418.68 Z"
/>
  <path fill="#fefdf9" d="M 1500.45 225.81 A 0.16 0.15 -83.4 0 1 1500.59 226.00 L 1488.97 281.29 A 1.00 0.99 -84.3 0 1 1488.00 282.09 L 1452.84 282.09 A 0.41 0.41 0.0 0 1 1452.47 281.51 Q 1460.98 262.66 1473.57 233.36 Q 1476.61 226.27 1485.24 225.72 Q 1492.95 225.22 1500.45 225.81 Z"
/>
  <path fill="#fefdf9" d="M 1506.28 225.62 L 1532.39 225.62 A 0.50 0.50 0.0 0 1 1532.89 226.14 L 1530.26 281.51 A 0.50 0.50 0.0 0 1 1529.76 281.99 L 1494.65 281.99 A 0.50 0.50 0.0 0 1 1494.16 281.39 L 1505.79 226.02 A 0.50 0.50 0.0 0 1 1506.28 225.62 Z"
/>
  <path fill="#fefdf9" d="M 1538.41 225.63 L 1565.03 225.63 A 0.50 0.50 0.0 0 1 1565.53 226.08 L 1570.59 281.43 A 0.50 0.50 0.0 0 1 1570.09 281.98 L 1535.78 281.98 A 0.50 0.50 0.0 0 1 1535.28 281.46 L 1537.91 226.11 A 0.50 0.50 0.0 0 1 1538.41 225.63 Z"
/>
  <path fill="#fefdf9" d="M 1570.91 225.70 L 1596.20 225.70 A 0.59 0.59 0.0 0 1 1596.76 226.13 L 1612.72 281.29 A 0.59 0.59 0.0 0 1 1612.16 282.04 L 1576.65 282.04 A 0.59 0.59 0.0 0 1 1576.06 281.51 L 1570.33 226.35 A 0.59 0.59 0.0 0 1 1570.91 225.70 Z"
/>
  <path fill="#fefdf9" d="M 1652.94 281.29 A 0.52 0.51 -12.6 0 1 1652.47 282.02 L 1618.67 282.02 A 0.68 0.68 0.0 0 1 1618.02 281.53 L 1602.01 226.20 A 0.37 0.37 0.0 0 1 1602.37 225.73 Q 1612.94 225.82 1617.24 225.71 C 1621.99 225.58 1628.41 227.00 1630.50 231.73 Q 1631.19 233.29 1633.31 238.29 Q 1637.79 248.84 1652.94 281.29 Z"
/>
  <path fill="#fefdf9" d="M 1488.17 287.08 A 0.65 0.65 0.0 0 1 1488.82 287.73 L 1488.83 291.00 A 16.10 16.08 -0.1 0 1 1472.76 307.11 L 1467.64 307.11 A 16.10 16.08 -0.1 0 1 1451.51 291.06 L 1451.50 287.79 A 0.65 0.65 0.0 0 1 1452.15 287.14 L 1488.17 287.08 Z"
/>
  <path fill="#fefdf9" d="M 1611.65 287.07 A 0.86 0.86 0.0 0 1 1612.51 287.92 L 1612.54 292.66 A 14.65 14.42 -0.3 0 1 1597.96 307.16 L 1590.92 307.20 A 14.65 14.42 -0.3 0 1 1576.20 292.86 L 1576.17 288.12 A 0.86 0.86 0.0 0 1 1577.03 287.25 L 1611.65 287.07 Z"
/>
  <path fill="#fefdf9" d="M 1653.19 287.04 A 1.08 1.08 0.0 0 1 1654.27 288.11 L 1654.30 292.97 A 14.88 14.04 -0.3 0 1 1639.49 307.09 L 1632.33 307.13 A 14.88 14.04 -0.3 0 1 1617.38 293.17 L 1617.35 288.31 A 1.08 1.08 0.0 0 1 1618.43 287.22 L 1653.19 287.04 Z"
/>
  <path fill="#fefdf9" d="M 1530.08 287.24 A 0.60 0.60 0.0 0 1 1530.68 287.84 L 1530.68 292.34 A 15.09 14.90 0.0 0 1 1515.59 307.24 L 1509.45 307.24 A 15.09 14.90 -0.0 0 1 1494.36 292.34 L 1494.36 287.84 A 0.60 0.60 0.0 0 1 1494.96 287.24 L 1530.08 287.24 Z"
/>
  <path fill="#fefdf9" d="M 1570.55 287.10 A 0.48 0.48 0.0 0 1 1571.03 287.58 L 1571.06 293.33 A 13.71 12.85 89.7 0 1 1558.28 307.10 L 1548.40 307.16 A 13.71 12.85 89.7 0 1 1535.48 293.51 L 1535.45 287.76 A 0.48 0.48 0.0 0 1 1535.93 287.28 L 1570.55 287.10 Z"
/>
  <path fill="#fefdf9" d="M 1463.73 312.05 C 1473.62 313.39 1482.11 311.73 1488.86 304.52 C 1489.53 303.81 1490.32 302.28 1491.00 301.75 A 0.49 0.49 0.0 0 1 1491.73 301.90 Q 1492.70 303.67 1495.48 306.54 C 1500.52 311.76 1507.01 312.68 1514.03 312.49 C 1520.67 312.30 1528.74 309.82 1532.71 304.20 A 0.64 0.63 -42.1 0 1 1533.78 304.25 C 1538.10 311.97 1545.39 312.50 1553.76 312.45 C 1560.60 312.42 1569.84 310.37 1573.03 303.75 A 0.75 0.74 -49.8 0 1 1574.31 303.64 C 1580.08 311.82 1588.18 312.78 1597.51 312.28 Q 1608.01 311.72 1614.11 303.53 A 0.62 0.61 -52.6 0 1 1614.99 303.41 C 1615.93 304.17 1616.48 305.38 1617.60 306.29 Q 1626.50 313.51 1637.99 312.57 Q 1639.81 312.42 1641.40 312.46 A 0.52 0.52 0.0 0 1 1641.91 312.98 Q 1642.00 366.78 1641.89 412.80 Q 1641.88 418.59 1636.01 418.59 Q 1579.13 418.56 1534.28 418.63 A 0.20 0.20 0.0 0 1 1534.08 418.43 Q 1534.43 384.16 1534.12 337.76 C 1534.09 332.78 1533.76 327.05 1527.21 326.94 Q 1518.26 326.79 1491.29 326.77 Q 1485.92 326.76 1483.77 327.98 Q 1480.44 329.86 1480.45 334.53 Q 1480.48 373.14 1480.49 418.08 A 0.42 0.41 88.6 0 1 1480.10 418.50 Q 1477.76 418.60 1471.42 418.63 C 1466.43 418.65 1463.30 416.41 1463.31 411.47 Q 1463.41 320.67 1463.12 312.60 A 0.54 0.54 0.0 0 1 1463.73 312.05 Z M 1552.51 332.39 L 1552.51 376.69 A 5.63 5.63 0.0 0 0 1558.14 382.32 L 1617.67 382.32 A 7.26 6.50 -0.0 0 0 1624.93 375.82 L 1624.93 333.26 A 7.26 6.50 0.0 0 0 1617.67 326.76 L 1558.14 326.76 A 5.63 5.63 0.0 0 0 1552.51 332.39 Z"
/>
  <path fill="#152142" d="M 1552.51 332.39 A 5.63 5.63 0.0 0 1 1558.14 326.76 L 1617.67 326.76 A 7.26 6.50 -0.0 0 1 1624.93 333.26 L 1624.93 375.82 A 7.26 6.50 -0.0 0 1 1617.67 382.32 L 1558.14 382.32 A 5.63 5.63 0.0 0 1 1552.51 376.69 L 1552.51 332.39 Z M 1619.84 332.80 A 0.89 0.89 0.0 0 0 1618.95 331.91 L 1558.43 331.91 A 0.89 0.89 0.0 0 0 1557.54 332.80 L 1557.54 376.04 A 0.89 0.89 0.0 0 0 1558.43 376.93 L 1618.95 376.93 A 0.89 0.89 0.0 0 0 1619.84 376.04 L 1619.84 332.80 Z"
/>
  <path fill="#fefdf9" d="M 1485.68 418.68 A 0.38 0.38 0.0 0 1 1485.30 418.30 L 1485.30 336.64 A 4.76 3.68 -90.0 0 1 1488.98 331.88 L 1525.40 331.88 A 4.76 3.68 -90.0 0 1 1529.08 336.64 L 1529.08 418.30 A 0.38 0.38 0.0 0 1 1528.70 418.68 L 1485.68 418.68 Z M 1522.28 373.31 A 6.25 6.25 0.0 0 0 1516.03 367.06 A 6.25 6.25 0.0 0 0 1509.78 373.31 A 6.25 6.25 0.0 0 0 1516.03 379.56 A 6.25 6.25 0.0 0 0 1522.28 373.31 Z"
/>
  <path fill="#fefdf9" d="M 1619.84 376.04 A 0.89 0.89 0.0 0 1 1618.95 376.93 L 1558.43 376.93 A 0.89 0.89 0.0 0 1 1557.54 376.04 L 1557.54 332.80 A 0.89 0.89 0.0 0 1 1558.43 331.91 L 1618.95 331.91 A 0.89 0.89 0.0 0 1 1619.84 332.80 L 1619.84 376.04 Z M 1611.2088 359.0918 A 2.05 2.05 0.0 0 0 1609.1517 357.0490 L 1568.4719 357.1910 A 2.05 2.05 0.0 0 0 1566.4291 359.2482 L 1566.4312 359.8482 A 2.05 2.05 0.0 0 0 1568.4883 361.8910 L 1609.1681 361.7490 A 2.05 2.05 0.0 0 0 1611.2109 359.6918 L 1611.2088 359.0918 Z"
/>
  </g>
</svg>
