<svg xmlns="http://www.w3.org/2000/svg" viewBox="63.06 404.22 100.20 103.25">
  <g fill="none" stroke-width="2.00" stroke-linecap="butt">
  <path stroke="#83939d" vector-effect="non-scaling-stroke" d="M 128.00 428.45 L 97.52 419.09 A 1.39 1.37 42.1 0 0 96.58 419.13 L 72.01 429.01 A 1.53 1.52 -11.2 0 0 71.06 430.42 L 71.06 498.35 A 1.07 1.07 0.0 0 0 72.52 499.34 L 95.80 489.97 A 3.16 3.12 42.2 0 1 97.88 489.88 L 129.10 499.47 A 1.90 1.89 -47.6 0 0 130.38 499.41 L 154.47 489.73 A 1.28 1.26 79.1 0 0 155.26 488.55 L 155.26 420.23 A 1.20 1.20 0.0 0 0 153.59 419.12 Q 140.89 424.59 133.87 427.63 Q 132.87 428.06 131.39 428.24"
/>
  <path stroke="#cbbd9f" vector-effect="non-scaling-stroke" d="M 131.39 428.24 Q 132.63 426.33 133.95 424.60 C 136.13 421.76 137.09 419.75 135.79 416.64 C 134.48 413.51 130.06 412.22 127.42 414.16 C 123.36 417.16 124.03 420.38 126.17 424.38 Q 127.19 426.30 128.00 428.45"
/>
  <path stroke="#555849" vector-effect="non-scaling-stroke" d="M 131.39 428.24 Q 130.62 428.52 130.03 429.21 A 0.63 0.62 34.1 0 1 129.27 429.35 Q 128.42 428.92 128.00 428.45"
/>
  <path stroke="#cbbd9f" vector-effect="non-scaling-stroke" d="M 129.7308 416.7348 A 2.54 2.30 -99.5 0 0 127.8815 419.6196 A 2.54 2.30 -99.5 0 0 130.5692 421.7452 A 2.54 2.30 -99.5 0 0 132.4185 418.8604 A 2.54 2.30 -99.5 0 0 129.7308 416.7348"
/>
  <path stroke="#555849" vector-effect="non-scaling-stroke" d="M 121.32 428.69 Q 120.70 428.11 119.87 428.21"
/>
  <path stroke="#83939d" vector-effect="non-scaling-stroke" d="M 119.87 428.21 L 98.69 421.65 A 0.44 0.44 0.0 0 0 98.12 422.07 L 98.12 435.92 A 0.71 0.71 0.0 0 1 97.41 436.63 L 97.09 436.63 A 1.03 1.03 0.0 0 1 96.06 435.60 L 96.06 422.03 A 0.41 0.41 0.0 0 0 95.49 421.65 L 74.37 430.15 A 1.87 1.85 79.5 0 0 73.20 431.87 Q 73.02 452.98 73.13 472.18 Q 73.14 472.99 73.55 473.15 Q 73.99 473.32 74.65 472.86"
/>
  <path stroke="#555849" vector-effect="non-scaling-stroke" d="M 74.65 472.86 Q 74.82 473.03 74.93 473.17 A 0.48 0.48 0.0 0 1 74.75 473.90 Q 74.40 474.05 74.20 474.29"
/>
  <path stroke="#83939d" vector-effect="non-scaling-stroke" d="M 74.20 474.29 Q 73.09 473.96 73.10 475.06 Q 73.22 486.91 73.08 496.39 A 0.38 0.38 0.0 0 0 73.61 496.75 L 95.60 487.91 A 0.93 0.92 79.4 0 0 96.17 487.07 L 96.46 463.19"
/>
  <path stroke="#555849" vector-effect="non-scaling-stroke" d="M 96.46 463.19 Q 97.65 463.54 98.09 464.55"
/>
  <path stroke="#83939d" vector-effect="non-scaling-stroke" d="M 98.09 464.55 L 98.10 487.21 A 0.82 0.82 0.0 0 0 98.70 488.00 L 107.52 490.46"
/>
  <path stroke="#555849" vector-effect="non-scaling-stroke" d="M 107.52 490.46 L 109.31 491.12"
/>
  <path stroke="#83939d" vector-effect="non-scaling-stroke" d="M 109.31 491.12 L 128.31 497.19 A 0.34 0.34 0.0 0 0 128.76 496.87 L 128.76 486.21 A 0.63 0.63 0.0 0 1 129.39 485.58 L 129.95 485.58 A 0.61 0.61 0.0 0 1 130.56 486.19 L 130.56 496.60 A 0.40 0.39 -11.1 0 0 131.11 496.96 L 153.02 488.15 A 0.31 0.30 -11.8 0 0 153.21 487.87 L 153.25 441.08"
/>
  <path stroke="#555849" vector-effect="non-scaling-stroke" d="M 153.25 441.08 Q 153.07 440.70 153.14 439.87"
/>
  <path stroke="#83939d" vector-effect="non-scaling-stroke" d="M 153.14 439.87 L 153.12 422.19 A 0.30 0.30 0.0 0 0 152.71 421.92 L 131.36 430.51 A 1.07 1.07 0.0 0 0 130.69 431.50 L 130.69 437.71 A 0.68 0.68 0.0 0 1 130.01 438.39 L 129.46 438.39 A 0.74 0.74 0.0 0 1 128.72 437.65 L 128.72 431.85 A 0.87 0.86 -80.6 0 0 128.14 431.03 L 121.32 428.69"
/>
  <path stroke="#cbbd9f" vector-effect="non-scaling-stroke" d="M 153.14 439.87 Q 148.04 440.64 145.50 444.29 C 141.31 450.32 139.23 459.57 138.52 466.74 A 4.78 4.74 -18.0 0 1 136.91 469.87 Q 134.12 472.30 130.68 472.93"
/>
  <path stroke="#989d85" vector-effect="non-scaling-stroke" d="M 130.68 472.93 Q 130.67 472.07 130.32 471.82 Q 129.72 471.36 129.14 471.83 Q 128.74 472.15 128.68 473.71"
/>
  <path stroke="#cbbd9f" vector-effect="non-scaling-stroke" d="M 128.68 473.71 L 115.49 474.81 A 0.90 0.90 0.0 0 1 114.62 474.34 Q 111.43 468.28 106.02 465.46 Q 101.01 462.85 98.77 462.08 A 0.83 0.82 9.4 0 1 98.21 461.30 L 98.21 454.91 A 0.83 0.82 -0.0 0 0 97.38 454.09 L 97.05 454.09 A 0.97 0.97 0.0 0 0 96.08 455.06 L 96.08 460.41 A 0.28 0.28 0.0 0 1 95.67 460.65 C 92.95 459.19 89.06 457.63 91.07 453.72 Q 92.37 451.19 95.35 450.46 A 0.65 0.65 0.0 0 1 96.12 450.91 L 96.38 451.80 A 0.89 0.89 0.0 0 0 98.12 451.55 Q 98.12 451.10 98.34 450.54 A 0.81 0.80 10.7 0 1 99.09 450.03 C 103.60 450.04 114.41 450.42 114.97 443.48 Q 115.19 440.67 115.33 439.42 A 4.04 4.04 0.0 0 1 115.94 437.72 Q 117.60 435.15 119.70 432.97 Q 121.70 430.89 121.32 428.69"
/>
  <path stroke="#cbbd9f" vector-effect="non-scaling-stroke" d="M 153.25 441.08 Q 146.89 443.78 144.62 449.60 Q 141.81 456.77 140.57 464.91 C 139.96 468.92 138.91 471.34 135.45 472.95 Q 133.02 474.08 130.60 475.03"
/>
  <path stroke="#6a6131" vector-effect="non-scaling-stroke" d="M 130.60 475.03 Q 130.07 473.37 130.68 472.93"
/>
  <path stroke="#6a6131" vector-effect="non-scaling-stroke" d="M 128.68 473.71 Q 128.93 474.16 128.69 475.49"
/>
  <path stroke="#cbbd9f" vector-effect="non-scaling-stroke" d="M 128.69 475.49 L 116.59 476.69 A 1.27 1.25 -74.6 0 0 115.67 477.22 Q 111.32 483.27 109.31 491.12"
/>
  <path stroke="#cbbd9f" vector-effect="non-scaling-stroke" d="M 107.52 490.46 Q 109.58 483.20 113.34 476.73 A 0.79 0.79 0.0 0 0 113.35 475.96 C 111.01 471.69 108.16 468.67 103.64 466.52 Q 101.63 465.57 98.72 464.02 A 0.40 0.39 27.5 0 0 98.19 464.18 Q 98.11 464.33 98.09 464.55"
/>
  <path stroke="#cbbd9f" vector-effect="non-scaling-stroke" d="M 96.46 463.19 L 90.41 459.90 A 0.47 0.47 0.0 0 0 89.72 460.21 C 88.89 463.97 87.88 468.50 84.67 470.68 Q 80.23 473.68 74.20 474.29"
/>
  <path stroke="#555849" vector-effect="non-scaling-stroke" d="M 96.05 447.81 Q 96.52 448.54 98.06 448.12"
/>
  <path stroke="#989d85" vector-effect="non-scaling-stroke" d="M 128.69 475.49 L 128.71 482.71 A 0.87 0.87 0.0 0 0 129.44 483.57 L 129.86 483.65 A 0.63 0.63 0.0 0 0 130.59 483.03 L 130.60 475.03"
/>
  <path stroke="#cbbd9f" vector-effect="non-scaling-stroke" d="M 119.87 428.21 Q 118.17 431.94 115.50 435.07 C 113.78 437.10 113.03 439.02 113.16 441.48 C 113.34 445.04 111.53 447.16 108.00 447.54 Q 102.32 448.16 98.06 448.12"
/>
  <path stroke="#83939d" vector-effect="non-scaling-stroke" d="M 98.06 448.12 L 98.12 440.11 A 0.89 0.89 0.0 0 0 97.23 439.21 L 96.93 439.21 A 0.90 0.90 0.0 0 0 96.03 440.11 L 96.05 447.81"
/>
  <path stroke="#cbbd9f" vector-effect="non-scaling-stroke" d="M 96.05 447.81 Q 96.19 448.40 95.50 448.60 Q 88.34 450.59 88.10 457.76 A 4.61 3.60 59.8 0 1 88.01 458.42 C 87.36 461.47 86.84 467.14 83.33 469.37 Q 79.71 471.67 74.65 472.86"
/>
  <path stroke="#83939d" vector-effect="non-scaling-stroke" d="M 130.5875 441.0768 A 0.62 0.62 0.0 0 0 129.9653 440.4590 L 129.3653 440.4611 A 0.62 0.62 0.0 0 0 128.7475 441.0832 L 128.7725 448.2632 A 0.62 0.62 0.0 0 0 129.3947 448.8810 L 129.9947 448.8789 A 0.62 0.62 0.0 0 0 130.6125 448.2568 L 130.5875 441.0768"
/>
  <path stroke="#83939d" vector-effect="non-scaling-stroke" d="M 130.4668 451.7315 A 0.60 0.60 0.0 0 0 129.8679 451.1304 L 129.4079 451.1296 A 0.60 0.60 0.0 0 0 128.8068 451.7286 L 128.7932 459.5485 A 0.60 0.60 0.0 0 0 129.3921 460.1496 L 129.8521 460.1504 A 0.60 0.60 0.0 0 0 130.4532 459.5514 L 130.4668 451.7315"
/>
  <path stroke="#83939d" vector-effect="non-scaling-stroke" d="M 130.6203 463.1534 A 0.77 0.77 0.0 0 0 129.8530 462.3808 L 129.4330 462.3793 A 0.77 0.77 0.0 0 0 128.6603 463.1466 L 128.6397 469.0666 A 0.77 0.77 0.0 0 0 129.4070 469.8392 L 129.8270 469.8407 A 0.77 0.77 0.0 0 0 130.5997 469.0734 L 130.6203 463.1534"
/>
  <path stroke="#cbbd9f" vector-effect="non-scaling-stroke" d="M 82.13 464.68 Q 82.67 464.68 82.87 464.35 Q 87.01 457.42 87.13 457.15 C 89.07 452.94 87.05 447.94 82.08 447.95 C 77.12 447.97 75.12 452.97 77.08 457.18 Q 77.21 457.45 81.39 464.35 Q 81.59 464.68 82.13 464.68"
/>
  <path stroke="#cbbd9f" vector-effect="non-scaling-stroke" d="M 83.6608 452.1646 A 2.65 2.43 -46.6 0 0 80.0744 452.4204 A 2.65 2.43 -46.6 0 0 80.0192 456.0154 A 2.65 2.43 -46.6 0 0 83.6056 455.7596 A 2.65 2.43 -46.6 0 0 83.6608 452.1646"
/>
  <path fill="#9c814a" d="M 131.39 428.24 Q 130.62 428.52 130.03 429.21 A 0.63 0.62 34.1 0 1 129.27 429.35 Q 128.42 428.92 128.00 428.45 Q 127.19 426.30 126.17 424.38 C 124.03 420.38 123.36 417.16 127.42 414.16 C 130.06 412.22 134.48 413.51 135.79 416.64 C 137.09 419.75 136.13 421.76 133.95 424.60 Q 132.63 426.33 131.39 428.24 Z M 129.7308 416.7348 A 2.54 2.30 -99.5 0 0 127.8815 419.6196 A 2.54 2.30 -99.5 0 0 130.5692 421.7452 A 2.54 2.30 -99.5 0 0 132.4185 418.8604 A 2.54 2.30 -99.5 0 0 129.7308 416.7348 Z"
/>
  <path fill="#0d2e47" d="M 128.00 428.45 Q 128.42 428.92 129.27 429.35 A 0.63 0.62 34.1 0 0 130.03 429.21 Q 130.62 428.52 131.39 428.24 Q 132.87 428.06 133.87 427.63 Q 140.89 424.59 153.59 419.12 A 1.20 1.20 0.0 0 1 155.26 420.23 L 155.26 488.55 A 1.28 1.26 79.1 0 1 154.47 489.73 L 130.38 499.41 A 1.90 1.89 -47.6 0 1 129.10 499.47 L 97.88 489.88 A 3.16 3.12 42.2 0 0 95.80 489.97 L 72.52 499.34 A 1.07 1.07 0.0 0 1 71.06 498.35 L 71.06 430.42 A 1.53 1.52 -11.2 0 1 72.01 429.01 L 96.58 419.13 A 1.39 1.37 42.1 0 1 97.52 419.09 L 128.00 428.45 Z M 121.32 428.69 Q 120.70 428.11 119.87 428.21 L 98.69 421.65 A 0.44 0.44 0.0 0 0 98.12 422.07 L 98.12 435.92 A 0.71 0.71 0.0 0 1 97.41 436.63 L 97.09 436.63 A 1.03 1.03 0.0 0 1 96.06 435.60 L 96.06 422.03 A 0.41 0.41 0.0 0 0 95.49 421.65 L 74.37 430.15 A 1.87 1.85 79.5 0 0 73.20 431.87 Q 73.02 452.98 73.13 472.18 Q 73.14 472.99 73.55 473.15 Q 73.99 473.32 74.65 472.86 Q 74.82 473.03 74.93 473.17 A 0.48 0.48 0.0 0 1 74.75 473.90 Q 74.40 474.05 74.20 474.29 Q 73.09 473.96 73.10 475.06 Q 73.22 486.91 73.08 496.39 A 0.38 0.38 0.0 0 0 73.61 496.75 L 95.60 487.91 A 0.93 0.92 79.4 0 0 96.17 487.07 L 96.46 463.19 Q 97.65 463.54 98.09 464.55 L 98.10 487.21 A 0.82 0.82 0.0 0 0 98.70 488.00 L 107.52 490.46 L 109.31 491.12 L 128.31 497.19 A 0.34 0.34 0.0 0 0 128.76 496.87 L 128.76 486.21 A 0.63 0.63 0.0 0 1 129.39 485.58 L 129.95 485.58 A 0.61 0.61 0.0 0 1 130.56 486.19 L 130.56 496.60 A 0.40 0.39 -11.1 0 0 131.11 496.96 L 153.02 488.15 A 0.31 0.30 -11.8 0 0 153.21 487.87 L 153.25 441.08 Q 153.07 440.70 153.14 439.87 L 153.12 422.19 A 0.30 0.30 0.0 0 0 152.71 421.92 L 131.36 430.51 A 1.07 1.07 0.0 0 0 130.69 431.50 L 130.69 437.71 A 0.68 0.68 0.0 0 1 130.01 438.39 L 129.46 438.39 A 0.74 0.74 0.0 0 1 128.72 437.65 L 128.72 431.85 A 0.87 0.86 -80.6 0 0 128.14 431.03 L 121.32 428.69 Z"
/>
  <path fill="#f9f8f3" d="M 153.14 439.87 Q 148.04 440.64 145.50 444.29 C 141.31 450.32 139.23 459.57 138.52 466.74 A 4.78 4.74 -18.0 0 1 136.91 469.87 Q 134.12 472.30 130.68 472.93 Q 130.67 472.07 130.32 471.82 Q 129.72 471.36 129.14 471.83 Q 128.74 472.15 128.68 473.71 L 115.49 474.81 A 0.90 0.90 0.0 0 1 114.62 474.34 Q 111.43 468.28 106.02 465.46 Q 101.01 462.85 98.77 462.08 A 0.83 0.82 9.4 0 1 98.21 461.30 L 98.21 454.91 A 0.83 0.82 -0.0 0 0 97.38 454.09 L 97.05 454.09 A 0.97 0.97 0.0 0 0 96.08 455.06 L 96.08 460.41 A 0.28 0.28 0.0 0 1 95.67 460.65 C 92.95 459.19 89.06 457.63 91.07 453.72 Q 92.37 451.19 95.35 450.46 A 0.65 0.65 0.0 0 1 96.12 450.91 L 96.38 451.80 A 0.89 0.89 0.0 0 0 98.12 451.55 Q 98.12 451.10 98.34 450.54 A 0.81 0.80 10.7 0 1 99.09 450.03 C 103.60 450.04 114.41 450.42 114.97 443.48 Q 115.19 440.67 115.33 439.42 A 4.04 4.04 0.0 0 1 115.94 437.72 Q 117.60 435.15 119.70 432.97 Q 121.70 430.89 121.32 428.69 L 128.14 431.03 A 0.87 0.86 -80.6 0 1 128.72 431.85 L 128.72 437.65 A 0.74 0.74 0.0 0 0 129.46 438.39 L 130.01 438.39 A 0.68 0.68 0.0 0 0 130.69 437.71 L 130.69 431.50 A 1.07 1.07 0.0 0 1 131.36 430.51 L 152.71 421.92 A 0.30 0.30 0.0 0 1 153.12 422.19 L 153.14 439.87 Z M 130.5875 441.0768 A 0.62 0.62 0.0 0 0 129.9653 440.4590 L 129.3653 440.4611 A 0.62 0.62 0.0 0 0 128.7475 441.0832 L 128.7725 448.2632 A 0.62 0.62 0.0 0 0 129.3947 448.8810 L 129.9947 448.8789 A 0.62 0.62 0.0 0 0 130.6125 448.2568 L 130.5875 441.0768 Z M 130.4668 451.7315 A 0.60 0.60 0.0 0 0 129.8679 451.1304 L 129.4079 451.1296 A 0.60 0.60 0.0 0 0 128.8068 451.7286 L 128.7932 459.5485 A 0.60 0.60 0.0 0 0 129.3921 460.1496 L 129.8521 460.1504 A 0.60 0.60 0.0 0 0 130.4532 459.5514 L 130.4668 451.7315 Z M 130.6203 463.1534 A 0.77 0.77 0.0 0 0 129.8530 462.3808 L 129.4330 462.3793 A 0.77 0.77 0.0 0 0 128.6603 463.1466 L 128.6397 469.0666 A 0.77 0.77 0.0 0 0 129.4070 469.8392 L 129.8270 469.8407 A 0.77 0.77 0.0 0 0 130.5997 469.0734 L 130.6203 463.1534 Z"
/>
  <path fill="#f9f8f3" d="M 119.87 428.21 Q 118.17 431.94 115.50 435.07 C 113.78 437.10 113.03 439.02 113.16 441.48 C 113.34 445.04 111.53 447.16 108.00 447.54 Q 102.32 448.16 98.06 448.12 L 98.12 440.11 A 0.89 0.89 0.0 0 0 97.23 439.21 L 96.93 439.21 A 0.90 0.90 0.0 0 0 96.03 440.11 L 96.05 447.81 Q 96.19 448.40 95.50 448.60 Q 88.34 450.59 88.10 457.76 A 4.61 3.60 59.8 0 1 88.01 458.42 C 87.36 461.47 86.84 467.14 83.33 469.37 Q 79.71 471.67 74.65 472.86 Q 73.99 473.32 73.55 473.15 Q 73.14 472.99 73.13 472.18 Q 73.02 452.98 73.20 431.87 A 1.87 1.85 79.5 0 1 74.37 430.15 L 95.49 421.65 A 0.41 0.41 0.0 0 1 96.06 422.03 L 96.06 435.60 A 1.03 1.03 0.0 0 0 97.09 436.63 L 97.41 436.63 A 0.71 0.71 0.0 0 0 98.12 435.92 L 98.12 422.07 A 0.44 0.44 0.0 0 1 98.69 421.65 L 119.87 428.21 Z M 82.13 464.68 Q 82.67 464.68 82.87 464.35 Q 87.01 457.42 87.13 457.15 C 89.07 452.94 87.05 447.94 82.08 447.95 C 77.12 447.97 75.12 452.97 77.08 457.18 Q 77.21 457.45 81.39 464.35 Q 81.59 464.68 82.13 464.68 Z"
/>
  <path fill="#9c814a" d="M 121.32 428.69 Q 121.70 430.89 119.70 432.97 Q 117.60 435.15 115.94 437.72 A 4.04 4.04 0.0 0 0 115.33 439.42 Q 115.19 440.67 114.97 443.48 C 114.41 450.42 103.60 450.04 99.09 450.03 A 0.81 0.80 10.7 0 0 98.34 450.54 Q 98.12 451.10 98.12 451.55 A 0.89 0.89 0.0 0 1 96.38 451.80 L 96.12 450.91 A 0.65 0.65 0.0 0 0 95.35 450.46 Q 92.37 451.19 91.07 453.72 C 89.06 457.63 92.95 459.19 95.67 460.65 A 0.28 0.28 0.0 0 0 96.08 460.41 L 96.08 455.06 A 0.97 0.97 0.0 0 1 97.05 454.09 L 97.38 454.09 A 0.83 0.82 0.0 0 1 98.21 454.91 L 98.21 461.30 A 0.83 0.82 9.4 0 0 98.77 462.08 Q 101.01 462.85 106.02 465.46 Q 111.43 468.28 114.62 474.34 A 0.90 0.90 0.0 0 0 115.49 474.81 L 128.68 473.71 Q 128.93 474.16 128.69 475.49 L 116.59 476.69 A 1.27 1.25 -74.6 0 0 115.67 477.22 Q 111.32 483.27 109.31 491.12 L 107.52 490.46 Q 109.58 483.20 113.34 476.73 A 0.79 0.79 0.0 0 0 113.35 475.96 C 111.01 471.69 108.16 468.67 103.64 466.52 Q 101.63 465.57 98.72 464.02 A 0.40 0.39 27.5 0 0 98.19 464.18 Q 98.11 464.33 98.09 464.55 Q 97.65 463.54 96.46 463.19 L 90.41 459.90 A 0.47 0.47 0.0 0 0 89.72 460.21 C 88.89 463.97 87.88 468.50 84.67 470.68 Q 80.23 473.68 74.20 474.29 Q 74.40 474.05 74.75 473.90 A 0.48 0.48 0.0 0 0 74.93 473.17 Q 74.82 473.03 74.65 472.86 Q 79.71 471.67 83.33 469.37 C 86.84 467.14 87.36 461.47 88.01 458.42 A 4.61 3.60 59.8 0 0 88.10 457.76 Q 88.34 450.59 95.50 448.60 Q 96.19 448.40 96.05 447.81 Q 96.52 448.54 98.06 448.12 Q 102.32 448.16 108.00 447.54 C 111.53 447.16 113.34 445.04 113.16 441.48 C 113.03 439.02 113.78 437.10 115.50 435.07 Q 118.17 431.94 119.87 428.21 Q 120.70 428.11 121.32 428.69 Z"
/>
  <path fill="#0d2e47" d="M 98.06 448.12 Q 96.52 448.54 96.05 447.81 L 96.03 440.11 A 0.90 0.90 0.0 0 1 96.93 439.21 L 97.23 439.21 A 0.89 0.89 0.0 0 1 98.12 440.11 L 98.06 448.12 Z"
/>
  <path fill="#9c814a" d="M 153.14 439.87 Q 153.07 440.70 153.25 441.08 Q 146.89 443.78 144.62 449.60 Q 141.81 456.77 140.57 464.91 C 139.96 468.92 138.91 471.34 135.45 472.95 Q 133.02 474.08 130.60 475.03 Q 130.07 473.37 130.68 472.93 Q 134.12 472.30 136.91 469.87 A 4.78 4.74 -18.0 0 0 138.52 466.74 C 139.23 459.57 141.31 450.32 145.50 444.29 Q 148.04 440.64 153.14 439.87 Z"
/>
  <path fill="#f9f8f3" d="M 153.25 441.08 L 153.21 487.87 A 0.31 0.30 -11.8 0 1 153.02 488.15 L 131.11 496.96 A 0.40 0.39 -11.1 0 1 130.56 496.60 L 130.56 486.19 A 0.61 0.61 0.0 0 0 129.95 485.58 L 129.39 485.58 A 0.63 0.63 0.0 0 0 128.76 486.21 L 128.76 496.87 A 0.34 0.34 0.0 0 1 128.31 497.19 L 109.31 491.12 Q 111.32 483.27 115.67 477.22 A 1.27 1.25 -74.6 0 1 116.59 476.69 L 128.69 475.49 L 128.71 482.71 A 0.87 0.87 0.0 0 0 129.44 483.57 L 129.86 483.65 A 0.63 0.63 0.0 0 0 130.59 483.03 L 130.60 475.03 Q 133.02 474.08 135.45 472.95 C 138.91 471.34 139.96 468.92 140.57 464.91 Q 141.81 456.77 144.62 449.60 Q 146.89 443.78 153.25 441.08 Z"
/>
  <path fill="#9c814a" d="M 82.08 447.95 C 87.05 447.94 89.07 452.94 87.13 457.15 Q 87.01 457.42 82.87 464.35 Q 82.67 464.68 82.13 464.68 Q 81.59 464.68 81.39 464.35 Q 77.21 457.45 77.08 457.18 C 75.12 452.97 77.12 447.97 82.08 447.95 Z M 83.6608 452.1646 A 2.65 2.43 -46.6 0 0 80.0744 452.4204 A 2.65 2.43 -46.6 0 0 80.0192 456.0154 A 2.65 2.43 -46.6 0 0 83.6056 455.7596 A 2.65 2.43 -46.6 0 0 83.6608 452.1646 Z"
/>
  <path fill="#f9f8f3" d="M 96.46 463.19 L 96.17 487.07 A 0.93 0.92 79.4 0 1 95.60 487.91 L 73.61 496.75 A 0.38 0.38 0.0 0 1 73.08 496.39 Q 73.22 486.91 73.10 475.06 Q 73.09 473.96 74.20 474.29 Q 80.23 473.68 84.67 470.68 C 87.88 468.50 88.89 463.97 89.72 460.21 A 0.47 0.47 0.0 0 1 90.41 459.90 L 96.46 463.19 Z"
/>
  <path fill="#f9f8f3" d="M 107.52 490.46 L 98.70 488.00 A 0.82 0.82 0.0 0 1 98.10 487.21 L 98.09 464.55 Q 98.11 464.33 98.19 464.18 A 0.40 0.39 27.5 0 1 98.72 464.02 Q 101.63 465.57 103.64 466.52 C 108.16 468.67 111.01 471.69 113.35 475.96 A 0.79 0.79 0.0 0 1 113.34 476.73 Q 109.58 483.20 107.52 490.46 Z"
/>
  <path fill="#374117" d="M 130.68 472.93 Q 130.07 473.37 130.60 475.03 L 130.59 483.03 A 0.63 0.63 0.0 0 1 129.86 483.65 L 129.44 483.57 A 0.87 0.87 0.0 0 1 128.71 482.71 L 128.69 475.49 Q 128.93 474.16 128.68 473.71 Q 128.74 472.15 129.14 471.83 Q 129.72 471.36 130.32 471.82 Q 130.67 472.07 130.68 472.93 Z"
/>
  </g>
</svg>
