<svg xmlns="http://www.w3.org/2000/svg" viewBox="233.13 404.62 112.78 103.02">
  <g fill="none" stroke-width="2.00" stroke-linecap="butt">
  <path stroke="#83939d" vector-effect="non-scaling-stroke" d="M 294.74 461.21 C 293.60 467.01 295.96 471.23 298.53 476.17 C 302.70 484.15 300.26 489.51 297.06 497.60 A 1.19 1.19 0.0 0 0 297.58 499.07 L 297.61 499.09 A 0.90 0.90 0.0 0 0 298.89 498.67 C 302.41 490.69 304.86 484.38 300.73 476.05 C 298.38 471.30 296.08 467.65 296.66 461.73"
/>
  <path stroke="#cbbd9f" vector-effect="non-scaling-stroke" d="M 296.66 461.73 Q 296.61 461.10 296.88 460.68 Q 297.22 460.14 297.78 460.29 Q 298.74 460.55 298.79 460.55 A 1.54 1.54 0.0 0 0 299.57 457.79 Q 298.43 456.94 298.11 456.10 A 0.51 0.50 65.5 0 1 298.34 455.47 C 309.27 449.50 313.53 434.73 307.57 423.61 C 303.61 416.21 294.11 412.62 286.62 416.90 C 277.81 421.94 275.45 431.98 278.69 441.09 C 280.83 447.09 285.48 453.52 291.70 455.69 A 0.82 0.82 0.0 0 1 292.08 456.96 Q 290.34 459.22 291.20 460.70 Q 291.50 461.21 292.93 461.08 Q 293.97 460.99 294.74 461.21"
/>
  <path stroke="#555849" vector-effect="non-scaling-stroke" d="M 296.66 461.73 Q 296.26 460.70 294.74 461.21"
/>
  <path stroke="#83939d" vector-effect="non-scaling-stroke" d="M 253.17 433.26 C 253.10 434.63 252.87 436.68 253.83 437.89 C 255.24 439.65 257.58 439.97 259.45 438.62 Q 261.10 437.43 260.83 433.75 A 0.59 0.59 0.0 0 1 261.42 433.11 L 274.19 433.11 A 0.71 0.70 90.0 0 0 274.89 432.40 L 274.89 431.72 A 0.76 0.76 0.0 0 0 274.13 430.96 L 261.44 430.96 A 0.67 0.66 -2.3 0 1 260.77 430.35 C 260.57 427.75 260.25 425.00 256.84 425.13 C 253.74 425.24 252.73 427.98 253.26 430.72 A 0.54 0.54 0.0 0 1 252.61 431.35 Q 250.49 430.86 246.97 431.10 C 242.76 431.39 241.19 434.88 241.16 439.05 Q 241.13 445.04 241.18 486.84 C 241.19 492.49 244.63 493.95 250.05 493.91 Q 270.04 493.78 293.78 494.00 A 1.10 1.09 6.9 0 0 294.86 493.16 L 294.95 492.79 A 0.78 0.78 0.0 0 0 294.19 491.83 Q 261.60 491.78 247.99 491.81 C 243.87 491.82 243.22 489.53 243.22 485.73 Q 243.17 448.69 243.17 447.13 A 0.65 0.65 0.0 0 1 243.82 446.48 L 277.49 446.48 A 0.62 0.62 0.0 0 0 278.09 445.70 L 277.97 445.28 A 1.00 0.99 82.4 0 0 277.01 444.54 L 243.80 444.54 A 0.55 0.55 0.0 0 1 243.25 444.03 Q 242.89 438.42 243.48 436.21 C 244.73 431.52 250.43 433.68 252.66 432.88 A 0.38 0.38 0.0 0 1 253.17 433.26"
/>
  <path stroke="#83939d" vector-effect="non-scaling-stroke" d="M 309.22 468.58 Q 308.32 469.23 307.60 470.62 Q 306.98 471.81 307.62 472.33 Q 308.24 472.83 309.47 472.86 A 0.84 0.84 0.0 0 1 310.21 474.06 C 308.44 477.80 308.35 480.51 309.02 484.74 C 309.94 490.56 309.26 494.24 304.66 498.43 A 0.68 0.68 0.0 0 0 304.85 499.55 L 305.05 499.64 A 1.62 1.61 -55.8 0 0 306.84 499.29 C 312.76 493.24 311.37 487.54 310.99 480.26 Q 310.89 478.38 312.58 474.65 A 0.92 0.91 20.5 0 1 313.69 474.15 L 315.36 474.66 A 1.14 1.14 0.0 0 0 316.80 473.27 L 315.93 470.09 A 0.57 0.57 0.0 0 1 316.35 469.38 C 329.03 466.61 337.91 448.70 330.47 437.55 Q 324.69 428.88 314.01 431.22 Q 312.37 431.58 311.87 432.99 A 0.67 0.67 0.0 0 0 312.74 433.83 C 320.36 430.93 328.70 435.08 330.52 443.03 C 332.56 451.93 327.84 460.29 320.51 465.31 C 312.00 471.13 306.20 462.55 304.12 455.43 A 0.65 0.64 -32.1 0 0 303.02 455.18 L 302.63 455.62 A 1.32 1.31 -31.8 0 0 302.34 456.83 Q 303.73 462.17 307.54 466.39 C 307.95 466.86 308.88 467.34 309.29 467.78 A 0.53 0.53 0.0 0 1 309.22 468.58"
/>
  <path stroke="#83939d" vector-effect="non-scaling-stroke" d="M 327.77 447.35 C 327.73 443.46 325.59 437.27 321.01 437.27 A 0.92 0.92 0.0 0 0 320.65 439.03 Q 325.93 441.29 325.60 447.29 A 0.92 0.92 0.0 0 0 326.36 448.24 L 326.67 448.29 A 0.94 0.94 0.0 0 0 327.77 447.35"
/>
  <path stroke="#cbbd9f" vector-effect="non-scaling-stroke" d="M 271.6872 453.2025 A 0.85 0.85 0.0 0 0 270.8417 452.3481 L 263.9618 452.3120 A 0.85 0.85 0.0 0 0 263.1073 453.1576 L 263.0728 459.7575 A 0.85 0.85 0.0 0 0 263.9183 460.6119 L 270.7982 460.6480 A 0.85 0.85 0.0 0 0 271.6527 459.8024 L 271.6872 453.2025"
/>
  <path stroke="#cbbd9f" vector-effect="non-scaling-stroke" d="M 283.60 457.05 Q 283.41 457.29 283.26 458.04 A 0.73 0.72 5.2 0 1 282.54 458.63 L 278.82 458.63 A 0.52 0.52 0.0 0 1 278.30 458.11 L 278.30 454.74 A 0.60 0.60 0.0 0 1 278.86 454.14 Q 279.68 454.09 280.13 453.83 A 0.78 0.78 0.0 0 0 279.79 452.37 L 277.32 452.20 A 0.95 0.95 0.0 0 0 276.30 453.15 L 276.30 459.85 A 0.82 0.81 -0.0 0 0 277.12 460.66 L 284.50 460.66 A 0.75 0.75 0.0 0 0 285.25 459.87 L 285.14 457.49 A 0.85 0.84 60.9 0 0 283.60 457.05"
/>
  <path stroke="#cbbd9f" vector-effect="non-scaling-stroke" d="M 258.2882 465.4649 A 0.94 0.94 0.0 0 0 257.3449 464.5282 L 250.5849 464.5518 A 0.94 0.94 0.0 0 0 249.6482 465.4951 L 249.6718 472.2551 A 0.94 0.94 0.0 0 0 250.6151 473.1918 L 257.3751 473.1682 A 0.94 0.94 0.0 0 0 258.3118 472.2249 L 258.2882 465.4649"
/>
  <path stroke="#cbbd9f" vector-effect="non-scaling-stroke" d="M 271.5242 465.4326 A 0.94 0.94 0.0 0 0 270.5826 464.4942 L 263.9626 464.5058 A 0.94 0.94 0.0 0 0 263.0242 465.4474 L 263.0358 472.0674 A 0.94 0.94 0.0 0 0 263.9774 473.0058 L 270.5974 472.9942 A 0.94 0.94 0.0 0 0 271.5358 472.0526 L 271.5242 465.4326"
/>
  <path stroke="#cbbd9f" vector-effect="non-scaling-stroke" d="M 284.8060 465.3673 A 0.77 0.77 0.0 0 0 284.0373 464.5960 L 277.1973 464.5840 A 0.77 0.77 0.0 0 0 276.4260 465.3527 L 276.4140 472.1927 A 0.77 0.77 0.0 0 0 277.1827 472.9640 L 284.0227 472.9760 A 0.77 0.77 0.0 0 0 284.7940 472.2073 L 284.8060 465.3673"
/>
  <path stroke="#cbbd9f" vector-effect="non-scaling-stroke" d="M 258.3641 477.8425 A 0.95 0.95 0.0 0 0 257.4125 476.8941 L 250.6925 476.9059 A 0.95 0.95 0.0 0 0 249.7441 477.8575 L 249.7559 484.5775 A 0.95 0.95 0.0 0 0 250.7075 485.5259 L 257.4275 485.5141 A 0.95 0.95 0.0 0 0 258.3759 484.5625 L 258.3641 477.8425"
/>
  <path stroke="#cbbd9f" vector-effect="non-scaling-stroke" d="M 271.6947 477.9654 A 0.98 0.98 0.0 0 0 270.7251 476.9752 L 264.0454 476.9053 A 0.98 0.98 0.0 0 0 263.0552 477.8749 L 262.9853 484.5546 A 0.98 0.98 0.0 0 0 263.9549 485.5448 L 270.6346 485.6147 A 0.98 0.98 0.0 0 0 271.6248 484.6451 L 271.6947 477.9654"
/>
  <path stroke="#cbbd9f" vector-effect="non-scaling-stroke" d="M 284.8046 477.8956 A 0.91 0.91 0.0 0 0 283.8851 476.9952 L 277.1855 477.0653 A 0.91 0.91 0.0 0 0 276.2850 477.9848 L 276.3554 484.7044 A 0.91 0.91 0.0 0 0 277.2749 485.6048 L 283.9745 485.5347 A 0.91 0.91 0.0 0 0 284.8750 484.6152 L 284.8046 477.8956"
/>
  <path stroke="#cbbd9f" vector-effect="non-scaling-stroke" d="M 294.92 454.03 Q 298.60 453.85 301.92 450.40 C 308.06 444.03 310.27 434.58 307.05 426.22 C 304.89 420.65 299.06 416.75 293.16 417.03 C 287.26 417.31 281.82 421.75 280.21 427.50 C 277.79 436.13 280.89 445.33 287.61 451.09 Q 291.24 454.20 294.92 454.03"
/>
  <path stroke="#cbbd9f" vector-effect="non-scaling-stroke" d="M 294.31 456.45 L 293.86 458.26 A 0.65 0.65 0.0 0 0 294.34 459.04 L 295.05 459.22 A 1.62 1.44 13.8 0 0 296.96 458.20 L 297.03 457.93 A 1.62 1.44 13.8 0 0 295.80 456.15 L 295.09 455.97 A 0.65 0.65 0.0 0 0 294.31 456.45"
/>
  <path stroke="#cbbd9f" vector-effect="non-scaling-stroke" d="M 293.71 421.71 A 0.73 0.73 0.0 0 0 294.19 422.90 Q 300.39 423.55 302.55 430.13 A 0.66 0.66 0.0 0 0 303.26 430.58 L 303.77 430.52 A 0.44 0.44 0.0 0 0 304.14 429.98 Q 302.33 422.59 295.31 420.98 A 1.42 1.41 25.9 0 0 293.91 421.46 L 293.71 421.71"
/>
  <path stroke="#83939d" vector-effect="non-scaling-stroke" d="M 258.7504 428.7154 A 1.67 1.67 0.0 0 0 257.0950 427.0309 L 256.9350 427.0295 A 1.67 1.67 0.0 0 0 255.2505 428.6849 L 255.1896 435.6646 A 1.67 1.67 0.0 0 0 256.8450 437.3491 L 257.0050 437.3505 A 1.67 1.67 0.0 0 0 258.6895 435.6951 L 258.7504 428.7154"
/>
  <path stroke="#83939d" vector-effect="non-scaling-stroke" d="M 310.80 471.42 L 313.59 471.71 A 0.26 0.26 0.0 0 0 313.87 471.48 L 313.90 471.27 A 1.75 1.52 -84.1 0 0 312.56 469.37 L 312.28 469.34 A 1.75 1.52 -84.1 0 0 310.59 470.93 L 310.57 471.13 A 0.26 0.26 0.0 0 0 310.80 471.42"
/>
  <path stroke="#cbbd9f" vector-effect="non-scaling-stroke" d="M 269.7654 454.6383 A 0.69 0.69 0.0 0 0 269.0694 453.9544 L 265.4696 453.9858 A 0.69 0.69 0.0 0 0 264.7856 454.6818 L 264.8146 458.0017 A 0.69 0.69 0.0 0 0 265.5106 458.6856 L 269.1104 458.6542 A 0.69 0.69 0.0 0 0 269.7944 457.9582 L 269.7654 454.6383"
/>
  <path stroke="#cbbd9f" vector-effect="non-scaling-stroke" d="M 256.2926 467.4043 A 0.78 0.78 0.0 0 0 255.5140 466.6229 L 252.1940 466.6171 A 0.78 0.78 0.0 0 0 251.4126 467.3957 L 251.4074 470.3957 A 0.78 0.78 0.0 0 0 252.1860 471.1771 L 255.5060 471.1829 A 0.78 0.78 0.0 0 0 256.2874 470.4043 L 256.2926 467.4043"
/>
  <path stroke="#cbbd9f" vector-effect="non-scaling-stroke" d="M 269.8139 467.2518 A 0.70 0.70 0.0 0 0 269.1200 466.5457 L 265.5401 466.5145 A 0.70 0.70 0.0 0 0 264.8341 467.2083 L 264.8061 470.4082 A 0.70 0.70 0.0 0 0 265.5000 471.1143 L 269.0799 471.1455 A 0.70 0.70 0.0 0 0 269.7859 470.4517 L 269.8139 467.2518"
/>
  <path stroke="#cbbd9f" vector-effect="non-scaling-stroke" d="M 283.0809 467.2008 A 0.72 0.72 0.0 0 0 282.3521 466.4896 L 278.9924 466.5307 A 0.72 0.72 0.0 0 0 278.2812 467.2594 L 278.3191 470.3592 A 0.72 0.72 0.0 0 0 279.0479 471.0704 L 282.4076 471.0293 A 0.72 0.72 0.0 0 0 283.1188 470.3006 L 283.0809 467.2008"
/>
  <path stroke="#cbbd9f" vector-effect="non-scaling-stroke" d="M 256.3831 479.5442 A 0.57 0.57 0.0 0 0 255.8141 478.9732 L 252.1141 478.9668 A 0.57 0.57 0.0 0 0 251.5431 479.5358 L 251.5369 483.0958 A 0.57 0.57 0.0 0 0 252.1059 483.6668 L 255.8059 483.6732 A 0.57 0.57 0.0 0 0 256.3769 483.1042 L 256.3831 479.5442"
/>
  <path stroke="#cbbd9f" vector-effect="non-scaling-stroke" d="M 269.8068 479.7450 A 0.64 0.64 0.0 0 0 269.1736 479.0983 L 265.6938 479.0619 A 0.64 0.64 0.0 0 0 265.0471 479.6952 L 265.0132 482.9350 A 0.64 0.64 0.0 0 0 265.6464 483.5817 L 269.1262 483.6181 A 0.64 0.64 0.0 0 0 269.7729 482.9848 L 269.8068 479.7450"
/>
  <path stroke="#cbbd9f" vector-effect="non-scaling-stroke" d="M 283.0236 479.6692 A 0.71 0.71 0.0 0 0 282.3286 478.9444 L 279.0894 478.8766 A 0.71 0.71 0.0 0 0 278.3646 479.5716 L 278.2964 482.8308 A 0.71 0.71 0.0 0 0 278.9914 483.5556 L 282.2306 483.6234 A 0.71 0.71 0.0 0 0 282.9554 482.9284 L 283.0236 479.6692"
/>
  <path fill="#9c814a" d="M 296.66 461.73 Q 296.26 460.70 294.74 461.21 Q 293.97 460.99 292.93 461.08 Q 291.50 461.21 291.20 460.70 Q 290.34 459.22 292.08 456.96 A 0.82 0.82 0.0 0 0 291.70 455.69 C 285.48 453.52 280.83 447.09 278.69 441.09 C 275.45 431.98 277.81 421.94 286.62 416.90 C 294.11 412.62 303.61 416.21 307.57 423.61 C 313.53 434.73 309.27 449.50 298.34 455.47 A 0.51 0.50 65.5 0 0 298.11 456.10 Q 298.43 456.94 299.57 457.79 A 1.54 1.54 0.0 0 1 298.79 460.55 Q 298.74 460.55 297.78 460.29 Q 297.22 460.14 296.88 460.68 Q 296.61 461.10 296.66 461.73 Z M 294.92 454.03 Q 298.60 453.85 301.92 450.40 C 308.06 444.03 310.27 434.58 307.05 426.22 C 304.89 420.65 299.06 416.75 293.16 417.03 C 287.26 417.31 281.82 421.75 280.21 427.50 C 277.79 436.13 280.89 445.33 287.61 451.09 Q 291.24 454.20 294.92 454.03 Z M 294.31 456.45 L 293.86 458.26 A 0.65 0.65 0.0 0 0 294.34 459.04 L 295.05 459.22 A 1.62 1.44 13.8 0 0 296.96 458.20 L 297.03 457.93 A 1.62 1.44 13.8 0 0 295.80 456.15 L 295.09 455.97 A 0.65 0.65 0.0 0 0 294.31 456.45 Z"
/>
  <path fill="#f9f8f3" d="M 293.16 417.03 C 299.06 416.75 304.89 420.65 307.05 426.22 C 310.27 434.58 308.06 444.03 301.92 450.40 Q 298.60 453.85 294.92 454.03 Q 291.24 454.20 287.61 451.09 C 280.89 445.33 277.79 436.13 280.21 427.50 C 281.82 421.75 287.26 417.31 293.16 417.03 Z M 293.71 421.71 A 0.73 0.73 0.0 0 0 294.19 422.90 Q 300.39 423.55 302.55 430.13 A 0.66 0.66 0.0 0 0 303.26 430.58 L 303.77 430.52 A 0.44 0.44 0.0 0 0 304.14 429.98 Q 302.33 422.59 295.31 420.98 A 1.42 1.41 25.9 0 0 293.91 421.46 L 293.71 421.71 Z"
/>
  <path fill="#9c814a" d="M 293.71 421.71 L 293.91 421.46 A 1.42 1.41 25.9 0 1 295.31 420.98 Q 302.33 422.59 304.14 429.98 A 0.44 0.44 0.0 0 1 303.77 430.52 L 303.26 430.58 A 0.66 0.66 0.0 0 1 302.55 430.13 Q 300.39 423.55 294.19 422.90 A 0.73 0.73 0.0 0 1 293.71 421.71 Z"
/>
  <path fill="#0d2e47" d="M 252.66 432.88 C 250.43 433.68 244.73 431.52 243.48 436.21 Q 242.89 438.42 243.25 444.03 A 0.55 0.55 0.0 0 0 243.80 444.54 L 277.01 444.54 A 1.00 0.99 82.4 0 1 277.97 445.28 L 278.09 445.70 A 0.62 0.62 0.0 0 1 277.49 446.48 L 243.82 446.48 A 0.65 0.65 0.0 0 0 243.17 447.13 Q 243.17 448.69 243.22 485.73 C 243.22 489.53 243.87 491.82 247.99 491.81 Q 261.60 491.78 294.19 491.83 A 0.78 0.78 0.0 0 1 294.95 492.79 L 294.86 493.16 A 1.10 1.09 6.9 0 1 293.78 494.00 Q 270.04 493.78 250.05 493.91 C 244.63 493.95 241.19 492.49 241.18 486.84 Q 241.13 445.04 241.16 439.05 C 241.19 434.88 242.76 431.39 246.97 431.10 Q 250.49 430.86 252.61 431.35 A 0.54 0.54 0.0 0 0 253.26 430.72 C 252.73 427.98 253.74 425.24 256.84 425.13 C 260.25 425.00 260.57 427.75 260.77 430.35 A 0.67 0.66 -2.3 0 0 261.44 430.96 L 274.13 430.96 A 0.76 0.76 0.0 0 1 274.89 431.72 L 274.89 432.40 A 0.71 0.70 90.0 0 1 274.19 433.11 L 261.42 433.11 A 0.59 0.59 0.0 0 0 260.83 433.75 Q 261.10 437.43 259.45 438.62 C 257.58 439.97 255.24 439.65 253.83 437.89 C 252.87 436.68 253.10 434.63 253.17 433.26 A 0.38 0.38 0.0 0 0 252.66 432.88 Z M 258.7504 428.7154 A 1.67 1.67 0.0 0 0 257.0950 427.0309 L 256.9350 427.0295 A 1.67 1.67 0.0 0 0 255.2505 428.6849 L 255.1896 435.6646 A 1.67 1.67 0.0 0 0 256.8450 437.3491 L 257.0050 437.3505 A 1.67 1.67 0.0 0 0 258.6895 435.6951 L 258.7504 428.7154 Z"
/>
  <path fill="#0d2e47" d="M 309.29 467.78 C 308.88 467.34 307.95 466.86 307.54 466.39 Q 303.73 462.17 302.34 456.83 A 1.32 1.31 -31.8 0 1 302.63 455.62 L 303.02 455.18 A 0.65 0.64 -32.1 0 1 304.12 455.43 C 306.20 462.55 312.00 471.13 320.51 465.31 C 327.84 460.29 332.56 451.93 330.52 443.03 C 328.70 435.08 320.36 430.93 312.74 433.83 A 0.67 0.67 0.0 0 1 311.87 432.99 Q 312.37 431.58 314.01 431.22 Q 324.69 428.88 330.47 437.55 C 337.91 448.70 329.03 466.61 316.35 469.38 A 0.57 0.57 0.0 0 0 315.93 470.09 L 316.80 473.27 A 1.14 1.14 0.0 0 1 315.36 474.66 L 313.69 474.15 A 0.92 0.91 20.5 0 0 312.58 474.65 Q 310.89 478.38 310.99 480.26 C 311.37 487.54 312.76 493.24 306.84 499.29 A 1.62 1.61 -55.8 0 1 305.05 499.64 L 304.85 499.55 A 0.68 0.68 0.0 0 1 304.66 498.43 C 309.26 494.24 309.94 490.56 309.02 484.74 C 308.35 480.51 308.44 477.80 310.21 474.06 A 0.84 0.84 0.0 0 0 309.47 472.86 Q 308.24 472.83 307.62 472.33 Q 306.98 471.81 307.60 470.62 Q 308.32 469.23 309.22 468.58 A 0.53 0.53 0.0 0 0 309.29 467.78 Z M 310.80 471.42 L 313.59 471.71 A 0.26 0.26 0.0 0 0 313.87 471.48 L 313.90 471.27 A 1.75 1.52 -84.1 0 0 312.56 469.37 L 312.28 469.34 A 1.75 1.52 -84.1 0 0 310.59 470.93 L 310.57 471.13 A 0.26 0.26 0.0 0 0 310.80 471.42 Z"
/>
  <path fill="#0d2e47" d="M 327.77 447.35 A 0.94 0.94 0.0 0 1 326.67 448.29 L 326.36 448.24 A 0.92 0.92 0.0 0 1 325.60 447.29 Q 325.93 441.29 320.65 439.03 A 0.92 0.92 0.0 0 1 321.01 437.27 C 325.59 437.27 327.73 443.46 327.77 447.35 Z"
/>
  <path fill="#9c814a" d="M 271.6527 459.8024 A 0.85 0.85 0.0 0 1 270.7982 460.6480 L 263.9183 460.6119 A 0.85 0.85 0.0 0 1 263.0728 459.7575 L 263.1073 453.1576 A 0.85 0.85 0.0 0 1 263.9618 452.3120 L 270.8417 452.3481 A 0.85 0.85 0.0 0 1 271.6872 453.2025 L 271.6527 459.8024 Z M 269.7654 454.6383 A 0.69 0.69 0.0 0 0 269.0694 453.9544 L 265.4696 453.9858 A 0.69 0.69 0.0 0 0 264.7856 454.6818 L 264.8146 458.0017 A 0.69 0.69 0.0 0 0 265.5106 458.6856 L 269.1104 458.6542 A 0.69 0.69 0.0 0 0 269.7944 457.9582 L 269.7654 454.6383 Z"
/>
  <path fill="#9c814a" d="M 283.60 457.05 A 0.85 0.84 60.9 0 1 285.14 457.49 L 285.25 459.87 A 0.75 0.75 0.0 0 1 284.50 460.66 L 277.12 460.66 A 0.82 0.81 -0.0 0 1 276.30 459.85 L 276.30 453.15 A 0.95 0.95 0.0 0 1 277.32 452.20 L 279.79 452.37 A 0.78 0.78 0.0 0 1 280.13 453.83 Q 279.68 454.09 278.86 454.14 A 0.60 0.60 0.0 0 0 278.30 454.74 L 278.30 458.11 A 0.52 0.52 0.0 0 0 278.82 458.63 L 282.54 458.63 A 0.73 0.72 5.2 0 0 283.26 458.04 Q 283.41 457.29 283.60 457.05 Z"
/>
  <path fill="#f9f8f3" d="M 294.31 456.45 A 0.65 0.65 0.0 0 1 295.09 455.97 L 295.80 456.15 A 1.62 1.44 13.8 0 1 297.03 457.93 L 296.96 458.20 A 1.62 1.44 13.8 0 1 295.05 459.22 L 294.34 459.04 A 0.65 0.65 0.0 0 1 293.86 458.26 L 294.31 456.45 Z"
/>
  <path fill="#0d2e47" d="M 296.66 461.73 C 296.08 467.65 298.38 471.30 300.73 476.05 C 304.86 484.38 302.41 490.69 298.89 498.67 A 0.90 0.90 0.0 0 1 297.61 499.09 L 297.58 499.07 A 1.19 1.19 0.0 0 1 297.06 497.60 C 300.26 489.51 302.70 484.15 298.53 476.17 C 295.96 471.23 293.60 467.01 294.74 461.21 Q 296.26 460.70 296.66 461.73 Z"
/>
  <path fill="#9c814a" d="M 258.3118 472.2249 A 0.94 0.94 0.0 0 1 257.3751 473.1682 L 250.6151 473.1918 A 0.94 0.94 0.0 0 1 249.6718 472.2551 L 249.6482 465.4951 A 0.94 0.94 0.0 0 1 250.5849 464.5518 L 257.3449 464.5282 A 0.94 0.94 0.0 0 1 258.2882 465.4649 L 258.3118 472.2249 Z M 256.2926 467.4043 A 0.78 0.78 0.0 0 0 255.5140 466.6229 L 252.1940 466.6171 A 0.78 0.78 0.0 0 0 251.4126 467.3957 L 251.4074 470.3957 A 0.78 0.78 0.0 0 0 252.1860 471.1771 L 255.5060 471.1829 A 0.78 0.78 0.0 0 0 256.2874 470.4043 L 256.2926 467.4043 Z"
/>
  <path fill="#9c814a" d="M 271.5358 472.0526 A 0.94 0.94 0.0 0 1 270.5974 472.9942 L 263.9774 473.0058 A 0.94 0.94 0.0 0 1 263.0358 472.0674 L 263.0242 465.4474 A 0.94 0.94 0.0 0 1 263.9626 464.5058 L 270.5826 464.4942 A 0.94 0.94 0.0 0 1 271.5242 465.4326 L 271.5358 472.0526 Z M 269.8139 467.2518 A 0.70 0.70 0.0 0 0 269.1200 466.5457 L 265.5401 466.5145 A 0.70 0.70 0.0 0 0 264.8341 467.2083 L 264.8061 470.4082 A 0.70 0.70 0.0 0 0 265.5000 471.1143 L 269.0799 471.1455 A 0.70 0.70 0.0 0 0 269.7859 470.4517 L 269.8139 467.2518 Z"
/>
  <path fill="#9c814a" d="M 284.7940 472.2073 A 0.77 0.77 0.0 0 1 284.0227 472.9760 L 277.1827 472.9640 A 0.77 0.77 0.0 0 1 276.4140 472.1927 L 276.4260 465.3527 A 0.77 0.77 0.0 0 1 277.1973 464.5840 L 284.0373 464.5960 A 0.77 0.77 0.0 0 1 284.8060 465.3673 L 284.7940 472.2073 Z M 283.0809 467.2008 A 0.72 0.72 0.0 0 0 282.3521 466.4896 L 278.9924 466.5307 A 0.72 0.72 0.0 0 0 278.2812 467.2594 L 278.3191 470.3592 A 0.72 0.72 0.0 0 0 279.0479 471.0704 L 282.4076 471.0293 A 0.72 0.72 0.0 0 0 283.1188 470.3006 L 283.0809 467.2008 Z"
/>
  <path fill="#f9f8f3" d="M 310.80 471.42 A 0.26 0.26 0.0 0 1 310.57 471.13 L 310.59 470.93 A 1.75 1.52 -84.1 0 1 312.28 469.34 L 312.56 469.37 A 1.75 1.52 -84.1 0 1 313.90 471.27 L 313.87 471.48 A 0.26 0.26 0.0 0 1 313.59 471.71 L 310.80 471.42 Z"
/>
  <path fill="#9c814a" d="M 258.3759 484.5625 A 0.95 0.95 0.0 0 1 257.4275 485.5141 L 250.7075 485.5259 A 0.95 0.95 0.0 0 1 249.7559 484.5775 L 249.7441 477.8575 A 0.95 0.95 0.0 0 1 250.6925 476.9059 L 257.4125 476.8941 A 0.95 0.95 0.0 0 1 258.3641 477.8425 L 258.3759 484.5625 Z M 256.3831 479.5442 A 0.57 0.57 0.0 0 0 255.8141 478.9732 L 252.1141 478.9668 A 0.57 0.57 0.0 0 0 251.5431 479.5358 L 251.5369 483.0958 A 0.57 0.57 0.0 0 0 252.1059 483.6668 L 255.8059 483.6732 A 0.57 0.57 0.0 0 0 256.3769 483.1042 L 256.3831 479.5442 Z"
/>
  <path fill="#9c814a" d="M 271.6248 484.6451 A 0.98 0.98 0.0 0 1 270.6346 485.6147 L 263.9549 485.5448 A 0.98 0.98 0.0 0 1 262.9853 484.5546 L 263.0552 477.8749 A 0.98 0.98 0.0 0 1 264.0454 476.9053 L 270.7251 476.9752 A 0.98 0.98 0.0 0 1 271.6947 477.9654 L 271.6248 484.6451 Z M 269.8068 479.7450 A 0.64 0.64 0.0 0 0 269.1736 479.0983 L 265.6938 479.0619 A 0.64 0.64 0.0 0 0 265.0471 479.6952 L 265.0132 482.9350 A 0.64 0.64 0.0 0 0 265.6464 483.5817 L 269.1262 483.6181 A 0.64 0.64 0.0 0 0 269.7729 482.9848 L 269.8068 479.7450 Z"
/>
  <path fill="#9c814a" d="M 284.8750 484.6152 A 0.91 0.91 0.0 0 1 283.9745 485.5347 L 277.2749 485.6048 A 0.91 0.91 0.0 0 1 276.3554 484.7044 L 276.2850 477.9848 A 0.91 0.91 0.0 0 1 277.1855 477.0653 L 283.8851 476.9952 A 0.91 0.91 0.0 0 1 284.8046 477.8956 L 284.8750 484.6152 Z M 283.0236 479.6692 A 0.71 0.71 0.0 0 0 282.3286 478.9444 L 279.0894 478.8766 A 0.71 0.71 0.0 0 0 278.3646 479.5716 L 278.2964 482.8308 A 0.71 0.71 0.0 0 0 278.9914 483.5556 L 282.2306 483.6234 A 0.71 0.71 0.0 0 0 282.9554 482.9284 L 283.0236 479.6692 Z"
/>
  </g>
</svg>
