<?xml version="1.0" encoding="UTF-8" standalone="no"?>
<!DOCTYPE svg PUBLIC "-//W3C//DTD SVG 1.1//EN" "http://www.w3.org/Graphics/SVG/1.1/DTD/svg11.dtd">
<svg xmlns="http://www.w3.org/2000/svg" version="1.1" viewBox="0.00 0.00 424.00 444.00">
<g stroke-width="2.00" fill="none" stroke-linecap="butt">
<path stroke="#ddcfac" vector-effect="non-scaling-stroke" d="M 199.83 63.53 C 203.55 63.54 205.63 59.93 205.01 56.55 Q 204.20 52.16 200.78 47.71 Q 200.23 46.99 199.87 46.99 Q 199.53 46.99 198.98 47.71 Q 195.53 52.13 194.70 56.51 C 194.06 59.90 196.11 63.52 199.83 63.53"
/>
<path stroke="#d1c4a7" vector-effect="non-scaling-stroke" d="M 123.64 70.27 C 127.37 70.28 129.45 66.66 128.83 63.26 Q 128.02 58.86 124.59 54.40 Q 124.03 53.68 123.68 53.68 Q 123.34 53.68 122.78 54.40 Q 119.32 58.84 118.49 63.24 C 117.85 66.63 119.91 70.26 123.64 70.27"
/>
<path stroke="#ddcfac" vector-effect="non-scaling-stroke" d="M 146.97 70.30 C 150.64 70.30 152.69 66.73 152.06 63.38 Q 151.25 59.04 147.86 54.65 Q 147.31 53.95 146.96 53.95 Q 146.62 53.95 146.07 54.65 Q 142.68 59.04 141.87 63.38 C 141.24 66.73 143.29 70.31 146.97 70.30"
/>
<path stroke="#ddcfac" vector-effect="non-scaling-stroke" d="M 170.35 70.32 C 174.07 70.31 176.12 66.69 175.48 63.31 Q 174.65 58.93 171.21 54.51 Q 170.65 53.79 170.31 53.80 Q 169.95 53.80 169.40 54.51 Q 165.99 58.96 165.18 63.34 C 164.56 66.73 166.64 70.33 170.35 70.32"
/>
<path stroke="#899ca6" vector-effect="non-scaling-stroke" d="M 257.28 88.64 C 269.26 73.83 281.92 61.74 301.82 59.65 A 1.20 1.19 87.1 0 0 302.89 58.46 L 302.89 56.20 A 0.95 0.95 0.0 0 0 301.94 55.25 L 253.86 55.25 A 0.82 0.81 -90.0 0 0 253.05 56.07 L 253.05 58.52 A 0.80 0.79 2.8 0 0 253.77 59.31 Q 255.85 59.49 258.30 60.43 C 267.18 63.86 256.96 75.40 252.67 80.59 A 0.46 0.45 -39.8 0 0 252.62 81.10 L 256.96 88.62 A 0.20 0.19 -40.7 0 0 257.28 88.64"
/>
<path stroke="#899ca6" vector-effect="non-scaling-stroke" d="M 200.06 99.11 Q 202.86 99.11 204.08 99.06 A 0.41 0.40 -1.5 0 0 204.47 98.66 Q 204.56 92.58 204.42 77.27 C 204.38 73.24 205.88 71.59 207.98 69.02 A 1.10 1.10 0.0 0 0 207.14 67.23 Q 206.50 67.22 200.07 67.22 Q 193.64 67.22 193.01 67.22 A 1.10 1.10 0.0 0 0 192.16 69.01 C 194.26 71.59 195.76 73.24 195.72 77.27 Q 195.57 92.58 195.65 98.66 A 0.41 0.40 1.5 0 0 196.04 99.06 Q 197.26 99.11 200.06 99.11"
/>
<path stroke="#899ca6" vector-effect="non-scaling-stroke" d="M 196.17 147.45 Q 200.51 138.75 204.05 133.33 Q 205.21 131.56 205.47 129.75 A 3.95 3.62 -46.9 0 0 205.48 128.76 Q 205.19 126.26 202.42 121.32 Q 198.16 113.71 194.17 107.12 C 193.31 105.70 192.06 103.29 190.55 102.96 C 181.41 100.94 174.37 90.92 174.85 81.46 C 174.97 79.15 177.13 77.73 178.15 75.78 A 1.16 1.16 0.0 0 0 177.12 74.09 L 164.16 74.09 A 1.41 1.40 -17.4 0 0 163.00 76.30 L 165.70 80.14 A 0.89 0.84 24.7 0 1 165.85 80.51 Q 166.08 82.08 166.57 86.44 C 168.23 101.24 180.44 111.22 194.44 112.88 A 1.40 1.39 3.5 0 1 195.67 114.26 L 195.67 126.86 A 0.46 0.46 0.0 0 1 195.19 127.32 C 174.88 126.35 159.89 113.88 153.47 94.79 Q 151.26 88.20 151.89 80.90 A 1.79 1.77 -28.3 0 1 152.12 80.15 L 154.80 75.51 A 0.98 0.97 -74.9 0 0 153.96 74.04 L 140.44 74.04 A 1.20 1.20 0.0 0 0 139.56 76.06 Q 141.39 78.04 142.17 79.67 Q 142.72 80.82 142.99 83.93 C 144.80 104.84 154.17 121.03 173.17 130.59 Q 183.41 135.74 195.02 136.00 A 0.69 0.69 0.0 0 1 195.69 136.69 L 195.69 147.34 A 0.25 0.25 0.0 0 0 196.17 147.45"
/>
<path stroke="#899ca6" vector-effect="non-scaling-stroke" d="M 194.40 150.03 Q 166.49 149.47 147.60 129.63 Q 129.53 110.64 128.31 84.22 C 128.21 82.03 128.27 79.97 129.99 78.15 Q 130.53 77.59 131.55 75.92 A 1.16 1.16 0.0 0 0 130.56 74.16 L 117.13 74.16 A 1.30 1.30 0.0 0 0 116.11 76.26 L 118.36 79.13 A 4.69 4.69 0.0 0 1 119.37 81.95 C 119.96 123.34 150.64 156.31 192.17 158.97 A 0.35 0.34 9.0 0 0 192.53 158.72 L 194.65 150.37 A 0.27 0.27 0.0 0 0 194.40 150.03"
/>
<path stroke="#ddcfac" vector-effect="non-scaling-stroke" d="M 292.91 102.50 Q 292.89 102.48 292.85 102.43 A 0.24 0.19 65.3 0 0 292.69 102.35 L 262.14 102.44 A 2.52 2.51 74.8 0 1 259.97 101.19 L 244.86 75.01 A 0.54 0.53 44.8 0 0 243.93 75.01 L 242.45 77.69 L 242.44 77.69 L 229.81 98.96 A 0.12 0.12 0.0 0 0 229.91 99.14 L 238.81 99.14 A 0.48 0.47 -73.7 0 0 239.21 98.92 L 244.23 91.10 A 0.37 0.37 0.0 0 1 244.86 91.12 L 265.59 127.03 A 0.50 0.50 0.0 0 0 266.45 127.03 L 270.31 120.33 A 1.45 1.43 45.3 0 0 270.31 118.90 L 265.91 111.28 A 0.56 0.56 0.0 0 1 266.39 110.44 L 278.78 110.44 A 0.19 0.18 15.5 0 1 278.94 110.72 L 258.41 146.29 A 0.44 0.44 0.0 0 0 258.79 146.95 L 265.73 146.95 A 2.58 2.56 15.0 0 0 267.95 145.68 L 292.99 102.93 A 0.33 0.33 0.0 0 0 292.91 102.50"
/>
<path stroke="#d1c4a7" vector-effect="non-scaling-stroke" d="M 210.34 111.09 A 0.46 0.46 0.0 0 1 210.74 110.40 L 251.31 110.40 A 0.46 0.46 0.0 0 0 251.71 109.71 L 247.66 102.70 A 0.46 0.46 0.0 0 0 247.26 102.47 L 196.55 102.47 A 0.46 0.46 0.0 0 0 196.15 103.16 L 208.84 125.15 A 0.46 0.46 0.0 0 0 209.62 125.19 L 214.37 118.61 A 0.46 0.46 0.0 0 0 214.39 118.11 L 210.34 111.09"
/>
<path stroke="#899ca6" vector-effect="non-scaling-stroke" d="M 195.20 188.71 Q 179.51 189.80 166.46 196.16 Q 160.98 198.83 159.46 203.51 A 0.88 0.88 0.0 0 0 160.30 204.66 L 240.16 204.66 A 0.83 0.83 0.0 0 0 240.96 203.59 Q 239.72 199.36 235.89 197.26 Q 221.74 189.47 205.05 188.67 A 0.58 0.58 0.0 0 1 204.49 188.11 Q 204.20 177.77 204.64 167.61 C 205.14 155.93 209.38 147.42 216.23 137.37 Q 217.28 135.83 231.09 114.81 A 0.79 0.78 16.6 0 0 230.43 113.60 L 223.07 113.60 A 2.98 2.97 16.7 0 0 220.59 114.93 Q 211.15 129.12 208.50 133.23 Q 203.10 141.60 200.15 148.17 C 194.54 160.68 195.58 174.96 195.73 188.14 A 0.57 0.56 88.4 0 1 195.20 188.71"
/>
<path stroke="#ddcfac" vector-effect="non-scaling-stroke" d="M 274.28 141.13 A 0.37 0.37 0.0 0 0 274.28 141.49 L 278.92 149.55 A 0.37 0.37 0.0 0 1 278.60 150.10 L 237.33 150.10 A 0.37 0.37 0.0 0 0 237.01 150.66 L 241.15 157.83 A 0.37 0.37 0.0 0 0 241.47 158.01 L 292.42 158.01 A 0.37 0.37 0.0 0 0 292.74 157.45 L 279.11 133.86 A 0.37 0.37 0.0 0 0 278.47 133.86 L 274.28 141.13"
/>
<path stroke="#899ca6" vector-effect="non-scaling-stroke" d="M 257.14 164.34 Q 259.21 165.90 260.01 167.00 Q 269.67 180.22 275.08 187.18 C 287.88 203.66 304.38 207.35 324.70 204.56 A 0.68 0.66 -4.0 0 0 325.29 203.90 L 325.29 201.48 A 0.75 0.75 0.0 0 0 324.64 200.74 C 302.16 197.62 290.18 179.67 277.86 162.77 A 2.62 2.60 71.7 0 0 275.73 161.69 L 253.33 161.79"
/>
<path stroke="#d1c4a7" vector-effect="non-scaling-stroke" d="M 253.33 161.79 Q 251.77 161.21 249.80 161.65 A 1.15 1.13 -81.1 0 0 249.07 162.19 L 245.10 169.08 A 0.69 0.69 0.0 0 1 243.91 169.08 L 223.93 134.47 A 0.97 0.97 0.0 0 0 222.25 134.47 L 219.18 139.79 A 2.65 2.65 0.0 0 0 219.18 142.45 L 223.09 149.21 A 0.57 0.57 0.0 0 1 222.60 150.06 L 214.44 150.06 A 2.17 2.16 10.1 0 0 212.41 151.47 L 210.38 156.88 A 0.92 0.92 0.0 0 0 211.24 158.13 L 226.85 158.13 A 2.43 2.42 75.0 0 1 228.95 159.35 L 243.97 185.35 A 0.57 0.57 0.0 0 0 244.96 185.36 L 257.14 164.34"
/>
<path stroke="#606658" vector-effect="non-scaling-stroke" d="M 253.33 161.79 L 257.14 164.34"
/>
<path stroke="#899ca6" vector-effect="non-scaling-stroke" d="M 219.86 273.87 L 219.86 236.38 A 0.32 0.32 0.0 0 0 219.47 236.07 L 202.61 239.55 A 1.21 1.21 0.0 0 0 202.78 241.94 C 206.87 242.17 208.61 243.74 208.61 247.98 Q 208.67 305.56 208.39 316.43 Q 208.28 320.89 203.33 321.62 A 1.50 1.50 0.0 0 0 202.06 323.00 L 202.06 323.04 A 1.16 1.16 0.0 0 0 203.22 324.27 L 225.79 324.25 A 1.03 1.03 0.0 0 0 226.82 323.22 L 226.82 322.81 A 1.21 1.19 2.1 0 0 225.70 321.62 C 219.46 321.16 219.93 316.64 219.89 311.01 Q 219.80 294.74 219.87 283.18 C 219.93 273.44 234.46 267.61 242.02 272.74 C 245.73 275.26 246.69 280.66 246.79 285.01 Q 246.85 287.80 246.81 322.91 A 1.43 1.43 0.0 0 0 248.24 324.34 L 263.52 324.34 A 1.37 1.36 52.9 0 0 263.89 321.66 C 262.75 321.33 261.03 321.19 259.99 320.27 Q 258.09 318.60 258.08 315.75 Q 258.05 297.55 258.04 284.51 C 258.04 274.45 253.94 265.58 242.91 264.24 Q 232.54 262.97 224.81 269.40 C 223.04 270.88 221.55 272.71 220.28 274.04 A 0.24 0.24 0.0 0 1 219.86 273.87"
/>
<path stroke="#899ca6" vector-effect="non-scaling-stroke" d="M 317.73 236.33 Q 317.50 236.01 317.12 236.10 Q 309.40 238.03 301.05 239.28 A 1.31 1.23 -16.6 0 0 300.02 241.05 Q 300.19 241.39 300.68 241.75 Q 301.13 242.08 301.53 242.12 C 307.11 242.69 306.40 246.50 306.44 251.59 Q 306.61 277.43 306.49 310.75 C 306.47 314.87 307.26 321.37 301.28 321.42 A 1.02 1.02 0.0 0 0 300.27 322.44 L 300.27 323.39 A 0.87 0.86 90.0 0 0 301.13 324.26 L 323.67 324.26 A 1.03 1.03 0.0 0 0 324.70 323.23 L 324.70 322.76 A 1.21 1.21 0.0 0 0 323.66 321.56 C 317.10 320.56 317.79 316.14 317.77 310.75 Q 317.62 258.59 317.90 237.05 Q 317.91 236.58 317.73 236.33"
/>
<path stroke="#899ca6" vector-effect="non-scaling-stroke" d="M 288.96 247.71 A 7.35 7.35 0.0 0 0 281.61 240.36 A 7.35 7.35 0.0 0 0 274.26 247.71 A 7.35 7.35 0.0 0 0 281.61 255.06 A 7.35 7.35 0.0 0 0 288.96 247.71"
/>
<path stroke="#899ca6" vector-effect="non-scaling-stroke" d="M 89.41 284.90 Q 89.48 260.54 89.50 251.53 C 89.51 247.38 92.55 246.00 96.14 245.65 A 1.15 1.15 0.0 0 0 97.17 244.51 L 97.17 243.87 A 0.98 0.98 0.0 0 0 96.19 242.89 L 71.29 242.89 A 0.89 0.89 0.0 0 0 70.40 243.78 L 70.40 244.58 A 0.94 0.93 3.1 0 0 71.24 245.51 C 74.50 245.83 78.08 246.70 78.10 250.76 Q 78.30 289.17 78.19 305.50 Q 78.14 313.54 77.71 316.97 C 77.28 320.36 74.40 321.35 71.49 321.45 A 1.01 1.01 0.0 0 0 70.51 322.46 L 70.51 323.36 A 0.91 0.91 0.0 0 0 71.42 324.27 L 95.63 324.27 A 1.43 1.43 0.0 0 0 95.85 321.43 C 91.82 320.80 89.54 320.00 89.48 315.00 Q 89.36 304.35 89.50 291.83 A 1.87 1.84 68.3 0 1 90.04 290.54 L 96.85 283.73 A 0.43 0.42 50.2 0 1 97.50 283.79 Q 109.08 300.69 117.35 312.93 C 124.25 323.13 130.27 325.49 142.74 324.33 A 1.31 1.31 0.0 0 0 142.93 321.75 C 136.34 320.17 133.34 315.72 129.68 310.58 Q 124.07 302.67 105.66 276.09 A 0.79 0.78 43.5 0 1 105.63 275.24 Q 106.59 273.65 108.17 272.17 Q 109.24 271.17 127.20 252.72 C 131.10 248.72 134.84 245.97 139.74 245.74 A 0.97 0.96 -1.2 0 0 140.67 244.78 L 140.67 243.73 A 0.92 0.92 0.0 0 0 139.75 242.81 L 118.38 242.81 A 1.07 1.07 0.0 0 0 117.31 243.88 L 117.31 244.52 A 1.07 1.07 0.0 0 0 118.34 245.59 Q 120.66 245.67 123.06 246.84 A 1.53 1.53 0.0 0 1 123.78 248.86 Q 122.94 250.67 121.10 252.61 Q 101.85 272.87 89.93 285.11 A 0.30 0.30 0.0 0 1 89.41 284.90"
/>
<path stroke="#899ca6" vector-effect="non-scaling-stroke" d="M 155.11 292.79 L 194.39 292.79 A 1.41 1.41 0.0 0 0 195.80 291.42 C 196.09 280.96 191.37 269.86 181.30 265.89 C 169.92 261.41 157.07 264.39 149.33 274.05 C 142.92 282.06 141.39 293.33 143.59 303.26 Q 146.65 317.11 159.00 322.93 C 171.86 329.00 187.33 325.26 194.68 313.13 A 1.65 1.65 0.0 0 0 192.08 311.14 Q 191.91 311.32 189.95 313.49 C 186.00 317.88 179.74 319.80 174.20 319.54 C 160.07 318.85 155.14 306.06 154.50 293.43 A 0.61 0.61 0.0 0 1 155.11 292.79"
/>
<path stroke="#899ca6" vector-effect="non-scaling-stroke" d="M 367.73 316.50 C 368.86 327.54 381.00 327.14 387.56 321.64 A 1.60 1.59 54.0 0 0 387.88 319.57 L 387.73 319.34 A 1.24 1.24 0.0 0 0 385.92 319.02 Q 383.34 321.06 380.62 319.15 A 2.04 1.98 -86.1 0 1 379.96 318.37 Q 378.94 316.27 378.90 313.50 Q 378.81 306.20 378.88 284.51 Q 378.90 278.48 377.06 274.15 C 371.18 260.26 346.95 261.74 337.56 270.75 C 334.30 273.88 332.44 279.60 337.55 281.97 Q 339.66 282.94 342.13 282.44 A 2.54 2.53 -88.5 0 0 344.10 280.56 Q 344.56 278.67 345.36 275.32 C 346.73 269.49 352.90 267.20 358.45 268.00 C 368.12 269.39 367.96 280.24 367.48 287.55 A 0.99 0.99 0.0 0 1 366.61 288.47 C 353.81 290.01 329.14 293.16 331.17 311.70 C 332.32 322.18 341.16 326.12 350.82 325.51 Q 360.90 324.87 367.30 316.37 A 0.24 0.24 0.0 0 1 367.73 316.50"
/>
<path stroke="#899ca6" vector-effect="non-scaling-stroke" d="M 270.88 324.27 L 293.65 324.27 A 1.35 1.35 0.0 0 0 293.94 321.61 C 291.14 320.98 288.94 320.60 288.26 317.23 Q 287.93 315.58 287.86 310.52 Q 287.64 294.01 287.85 265.28 A 1.03 1.02 -5.7 0 0 286.61 264.27 L 270.54 267.59 A 1.12 1.11 -39.4 0 0 270.33 269.71 Q 271.00 269.99 272.57 270.26 C 274.87 270.66 276.42 272.49 276.45 274.75 Q 276.81 297.31 276.54 315.24 Q 276.45 321.34 271.13 321.53 A 1.21 1.20 89.0 0 0 269.97 322.74 L 269.97 323.37 A 0.91 0.90 0.0 0 0 270.88 324.27"
/>
<path stroke="#899ca6" vector-effect="non-scaling-stroke" d="M 151.41 353.01 Q 154.40 358.47 155.27 359.70 A 1.25 1.25 0.0 0 0 157.55 359.00 L 157.69 346.03 A 0.91 0.91 0.0 0 0 156.79 345.12 L 156.37 345.11 A 0.75 0.75 0.0 0 0 155.61 345.85 L 155.51 355.49 A 0.28 0.28 0.0 0 1 154.99 355.63 Q 154.88 355.43 153.04 352.07 Q 149.98 346.65 149.11 345.41 A 1.25 1.25 0.0 0 0 146.83 346.12 L 146.69 359.08 A 0.91 0.91 0.0 0 0 147.59 360.00 L 148.01 360.00 A 0.75 0.75 0.0 0 0 148.77 359.26 L 148.87 349.62 A 0.28 0.28 0.0 0 1 149.39 349.49 Q 149.50 349.69 151.41 353.01"
/>
<path stroke="#899ca6" vector-effect="non-scaling-stroke" d="M 272.4536 344.7510 A 7.87 6.48 -89.1 0 0 265.8508 352.5182 A 7.87 6.48 -89.1 0 0 272.2064 360.4890 A 7.87 6.48 -89.1 0 0 278.8092 352.7218 A 7.87 6.48 -89.1 0 0 272.4536 344.7510"
/>
<path stroke="#899ca6" vector-effect="non-scaling-stroke" d="M 322.83 352.82 C 322.93 357.58 326.03 361.43 331.19 360.17 Q 332.92 359.75 333.67 358.31 A 0.75 0.74 4.5 0 0 332.77 357.26 C 332.00 357.52 331.22 358.24 330.30 358.40 C 326.70 359.00 325.09 355.90 325.02 352.78 C 324.96 349.65 326.43 346.49 330.05 346.94 C 330.98 347.05 331.79 347.74 332.57 347.96 A 0.75 0.74 -7.0 0 0 333.42 346.88 Q 332.61 345.47 330.86 345.12 C 325.66 344.09 322.73 348.08 322.83 352.82"
/>
<path stroke="#899ca6" vector-effect="non-scaling-stroke" d="M 69.93 352.80 C 70.04 357.53 73.13 361.36 78.27 360.10 Q 79.99 359.68 80.74 358.24 A 0.74 0.74 0.0 0 0 79.84 357.20 C 79.07 357.46 78.29 358.18 77.38 358.33 C 73.79 358.94 72.19 355.86 72.11 352.74 C 72.04 349.63 73.50 346.47 77.12 346.92 C 78.04 347.03 78.84 347.71 79.62 347.94 A 0.74 0.74 0.0 0 0 80.47 346.85 Q 79.66 345.45 77.92 345.11 C 72.73 344.09 69.82 348.06 69.93 352.80"
/>
<path stroke="#899ca6" vector-effect="non-scaling-stroke" d="M 88.9375 344.7900 A 7.88 6.46 -89.8 0 0 82.4500 352.6475 A 7.88 6.46 -89.8 0 0 88.8825 360.5500 A 7.88 6.46 -89.8 0 0 95.3700 352.6925 A 7.88 6.46 -89.8 0 0 88.9375 344.7900"
/>
<path stroke="#899ca6" vector-effect="non-scaling-stroke" d="M 100.60 350.83 A 0.35 0.35 0.0 0 1 101.28 350.70 L 104.22 358.41 A 0.79 0.78 44.9 0 0 105.69 358.41 L 109.02 349.52 A 0.16 0.15 -35.1 0 1 109.32 349.57 L 109.32 359.28 A 0.84 0.83 -90.0 0 0 110.15 360.12 L 110.42 360.12 A 0.75 0.75 0.0 0 0 111.17 359.37 L 111.17 346.38 A 1.32 1.32 0.0 0 0 108.61 345.92 L 105.28 354.81 A 0.38 0.37 -45.4 0 1 104.58 354.82 L 101.16 345.88 A 1.34 1.34 0.0 0 0 98.56 346.36 L 98.56 359.31 A 0.84 0.84 0.0 0 0 99.40 360.15 L 99.68 360.15 A 0.92 0.92 0.0 0 0 100.60 359.23 L 100.60 350.83"
/>
<path stroke="#899ca6" vector-effect="non-scaling-stroke" d="M 126.08 350.80 L 126.06 359.23 A 0.92 0.92 0.0 0 0 126.99 360.16 L 127.27 360.16 A 0.84 0.84 0.0 0 0 128.11 359.32 L 128.13 346.32 A 1.35 1.35 0.0 0 0 125.52 345.83 L 122.08 354.80 A 0.38 0.37 45.5 0 1 121.37 354.79 L 118.04 345.86 A 1.33 1.33 0.0 0 0 115.47 346.32 L 115.46 359.36 A 0.75 0.75 0.0 0 0 116.21 360.11 L 116.48 360.11 A 0.84 0.83 -89.9 0 0 117.31 359.27 L 117.33 349.52 A 0.16 0.15 35.1 0 1 117.63 349.48 L 120.96 358.40 A 0.79 0.79 0.0 0 0 122.43 358.40 L 125.39 350.67 A 0.35 0.35 0.0 0 1 126.08 350.80"
/>
<path stroke="#899ca6" vector-effect="non-scaling-stroke" d="M 137.57 358.37 Q 134.27 358.39 134.38 353.25 Q 134.45 349.76 134.34 345.99 A 0.91 0.91 0.0 0 0 133.43 345.11 L 133.16 345.11 A 1.06 1.06 0.0 0 0 132.10 346.20 Q 132.16 347.99 132.19 353.27 C 132.21 357.27 133.19 360.45 137.58 360.43 C 141.98 360.41 142.93 357.21 142.91 353.22 Q 142.88 347.93 142.92 346.14 A 1.06 1.06 0.0 0 0 141.85 345.07 L 141.58 345.07 A 0.91 0.91 0.0 0 0 140.68 345.96 Q 140.61 349.73 140.72 353.22 Q 140.87 358.36 137.57 358.37"
/>
<path stroke="#899ca6" vector-effect="non-scaling-stroke" d="M 163.8464 345.8462 A 0.84 0.84 0.0 0 0 163.0034 345.0092 L 162.5034 345.0109 A 0.84 0.84 0.0 0 0 161.6664 345.8538 L 161.7136 359.3938 A 0.84 0.84 0.0 0 0 162.5566 360.2308 L 163.0566 360.2291 A 0.84 0.84 0.0 0 0 163.8936 359.3862 L 163.8464 345.8462"
/>
<path stroke="#899ca6" vector-effect="non-scaling-stroke" d="M 172.32 360.16 Q 173.46 360.15 173.43 358.77 Q 173.28 351.14 173.36 347.89 A 0.83 0.83 0.0 0 1 174.18 347.08 L 176.77 347.06 A 0.99 0.98 0.9 0 0 177.75 346.12 L 177.75 346.08 A 0.97 0.96 -89.7 0 0 176.79 345.11 Q 174.49 345.09 172.25 345.07 Q 170.02 345.10 167.71 345.14 A 0.97 0.96 89.4 0 0 166.76 346.11 L 166.76 346.15 A 0.99 0.98 -1.3 0 0 167.75 347.09 L 170.34 347.09 A 0.83 0.83 0.0 0 1 171.16 347.90 Q 171.26 351.15 171.16 358.78 Q 171.14 360.16 172.32 360.16"
/>
<path stroke="#899ca6" vector-effect="non-scaling-stroke" d="M 184.01 360.31 Q 184.49 360.31 184.81 360.02 Q 185.19 359.68 185.19 359.26 Q 185.18 356.06 185.36 354.32 A 3.42 3.32 61.8 0 1 185.70 353.13 L 189.21 345.99 A 0.52 0.51 -64.7 0 0 188.97 345.30 L 188.73 345.18 A 1.14 1.14 0.0 0 0 187.22 345.68 Q 186.01 348.02 184.69 351.18 Q 184.59 351.42 184.44 351.51 Q 184.26 351.63 184.03 351.63 Q 183.80 351.63 183.61 351.51 Q 183.47 351.42 183.37 351.18 Q 182.06 348.01 180.85 345.67 A 1.14 1.14 0.0 0 0 179.34 345.17 L 179.10 345.29 A 0.52 0.51 64.8 0 0 178.86 345.97 L 182.35 353.13 A 3.42 3.32 -61.6 0 1 182.69 354.32 Q 182.86 356.06 182.84 359.26 Q 182.84 359.68 183.22 360.02 Q 183.54 360.31 184.01 360.31"
/>
<path stroke="#899ca6" vector-effect="non-scaling-stroke" d="M 209.87 359.24 A 0.82 0.82 0.0 0 0 209.05 358.36 L 204.15 358.35 A 0.75 0.74 -90.0 0 1 203.41 357.60 L 203.41 345.93 A 0.86 0.85 0.0 0 0 202.55 345.08 L 202.27 345.08 A 1.08 1.07 0.0 0 0 201.19 346.15 L 201.19 359.31 A 0.78 0.78 0.0 0 0 201.97 360.09 L 209.01 360.14 A 0.85 0.85 0.0 0 0 209.87 359.28 L 209.87 359.24"
/>
<path stroke="#899ca6" vector-effect="non-scaling-stroke" d="M 214.6684 346.0282 A 0.92 0.92 0.0 0 0 213.7468 345.1098 L 213.4868 345.1102 A 0.92 0.92 0.0 0 0 212.5684 346.0318 L 212.5916 359.3718 A 0.92 0.92 0.0 0 0 213.5132 360.2902 L 213.7732 360.2898 A 0.92 0.92 0.0 0 0 214.6916 359.3682 L 214.6684 346.0282"
/>
<path stroke="#899ca6" vector-effect="non-scaling-stroke" d="M 226.33 353.43 A 0.77 0.77 0.0 0 0 226.31 351.92 Q 225.08 351.71 222.23 351.94 A 1.03 1.02 -2.3 0 1 221.12 350.92 L 221.12 348.11 A 1.06 1.05 -90.0 0 1 222.17 347.05 L 226.78 347.05 A 1.09 1.08 6.7 0 0 227.84 346.22 L 227.93 345.86 A 0.58 0.58 0.0 0 0 227.37 345.15 L 219.99 345.15 A 0.97 0.97 0.0 0 0 219.02 346.12 L 219.02 359.16 A 1.07 1.07 0.0 0 0 219.85 360.20 L 220.13 360.26 A 0.82 0.82 0.0 0 0 221.14 359.46 L 221.14 354.37 A 0.88 0.88 0.0 0 1 222.16 353.50 Q 224.36 353.84 226.33 353.43"
/>
<path stroke="#899ca6" vector-effect="non-scaling-stroke" d="M 230.53 352.65 Q 230.54 357.88 230.60 359.18 A 1.05 1.04 -1.3 0 0 231.65 360.17 L 238.62 360.14 A 0.91 0.91 0.0 0 0 239.52 359.22 L 239.52 359.17 A 0.93 0.93 0.0 0 0 238.58 358.22 L 234.00 358.27 A 1.27 1.27 0.0 0 1 232.72 357.00 L 232.72 354.85 A 1.36 1.35 -87.3 0 1 234.20 353.50 Q 238.75 353.92 238.54 352.62 Q 238.75 351.34 234.19 351.79 A 1.36 1.35 87.0 0 1 232.71 350.44 L 232.70 348.29 A 1.27 1.27 0.0 0 1 233.97 347.02 L 238.55 347.04 A 0.93 0.93 0.0 0 0 239.48 346.09 L 239.48 346.04 A 0.91 0.91 0.0 0 0 238.58 345.12 L 231.61 345.13 A 1.05 1.04 1.0 0 0 230.57 346.13 Q 230.51 347.43 230.53 352.65"
/>
<path stroke="#899ca6" vector-effect="non-scaling-stroke" d="M 253.23 352.75 C 253.28 357.50 256.33 361.40 261.51 360.20 Q 263.25 359.80 264.01 358.36 A 0.75 0.74 5.2 0 0 263.13 357.30 C 262.35 357.55 261.56 358.26 260.64 358.41 C 257.03 358.98 255.46 355.85 255.43 352.72 C 255.40 349.60 256.91 346.44 260.53 346.94 C 261.46 347.06 262.26 347.76 263.04 348.00 A 0.75 0.74 -6.3 0 0 263.90 346.92 Q 263.11 345.50 261.36 345.13 C 256.17 344.04 253.19 347.99 253.23 352.75"
/>
<path stroke="#899ca6" vector-effect="non-scaling-stroke" d="M 286.39 353.11 Q 289.46 358.56 290.35 359.79 A 1.26 1.26 0.0 0 0 292.63 359.06 L 292.63 346.03 A 0.91 0.91 0.0 0 0 291.72 345.12 L 291.29 345.12 A 0.75 0.75 0.0 0 0 290.54 345.87 L 290.54 355.56 A 0.28 0.28 0.0 0 1 290.02 355.70 Q 289.90 355.50 288.02 352.15 Q 284.89 346.73 284.00 345.50 A 1.26 1.26 0.0 0 0 281.72 346.23 L 281.72 359.26 A 0.91 0.91 0.0 0 0 282.63 360.17 L 283.06 360.17 A 0.75 0.75 0.0 0 0 283.81 359.42 L 283.81 349.73 A 0.28 0.28 0.0 0 1 284.33 349.59 Q 284.44 349.79 286.39 353.11"
/>
<path stroke="#899ca6" vector-effect="non-scaling-stroke" d="M 301.18 353.07 Q 304.20 358.50 305.07 359.74 A 1.25 1.25 0.0 0 0 307.35 359.02 L 307.42 346.06 A 0.90 0.90 0.0 0 0 306.52 345.15 L 306.09 345.15 A 0.75 0.75 0.0 0 0 305.34 345.89 L 305.29 355.53 A 0.28 0.28 0.0 0 1 304.77 355.67 Q 304.66 355.47 302.80 352.12 Q 299.72 346.72 298.84 345.49 A 1.25 1.25 0.0 0 0 296.57 346.20 L 296.50 359.16 A 0.90 0.90 0.0 0 0 297.39 360.07 L 297.82 360.07 A 0.75 0.75 0.0 0 0 298.57 359.33 L 298.63 349.70 A 0.28 0.28 0.0 0 1 299.14 349.56 Q 299.26 349.76 301.18 353.07"
/>
<path stroke="#899ca6" vector-effect="non-scaling-stroke" d="M 311.34 352.61 Q 311.35 357.83 311.40 359.13 A 1.05 1.04 -1.2 0 0 312.45 360.13 L 319.41 360.11 A 0.91 0.91 0.0 0 0 320.32 359.19 L 320.32 359.14 A 0.93 0.93 0.0 0 0 319.38 358.19 L 314.80 358.23 A 1.27 1.27 0.0 0 1 313.52 356.96 L 313.53 354.81 A 1.36 1.35 -87.2 0 1 315.01 353.46 Q 319.56 353.90 319.35 352.59 Q 319.56 351.31 315.01 351.75 A 1.36 1.35 87.1 0 1 313.53 350.41 L 313.52 348.26 A 1.27 1.27 0.0 0 1 314.79 346.98 L 319.37 347.02 A 0.93 0.93 0.0 0 0 320.31 346.06 L 320.31 346.01 A 0.91 0.91 0.0 0 0 319.41 345.10 L 312.44 345.09 A 1.05 1.04 1.1 0 0 311.40 346.09 Q 311.34 347.38 311.34 352.61"
/>
<path stroke="#899ca6" vector-effect="non-scaling-stroke" d="M 340.83 360.30 Q 341.97 360.29 341.95 358.90 Q 341.79 351.21 341.87 347.93 A 0.84 0.84 0.0 0 1 342.70 347.12 L 345.31 347.10 A 1.00 0.99 0.9 0 0 346.29 346.15 L 346.29 346.11 A 0.98 0.97 -89.8 0 0 345.33 345.13 Q 343.01 345.11 340.75 345.09 Q 338.50 345.13 336.18 345.16 A 0.98 0.97 89.4 0 0 335.22 346.15 L 335.22 346.19 A 1.00 0.99 -1.3 0 0 336.21 347.13 L 338.82 347.13 A 0.84 0.84 0.0 0 1 339.66 347.94 Q 339.76 351.22 339.66 358.91 Q 339.64 360.30 340.83 360.30"
/>
<path stroke="#899ca6" vector-effect="non-scaling-stroke" d="M 351.3687 346.2881 A 1.09 1.09 0.0 0 0 350.2768 345.2000 L 350.2168 345.2001 A 1.09 1.09 0.0 0 0 349.1287 346.2920 L 349.1513 359.2519 A 1.09 1.09 0.0 0 0 350.2432 360.3400 L 350.3032 360.3399 A 1.09 1.09 0.0 0 0 351.3913 359.2480 L 351.3687 346.2881"
/>
<path stroke="#899ca6" vector-effect="non-scaling-stroke" d="M 361.2143 344.8248 A 7.86 6.53 -88.0 0 0 354.4140 352.4521 A 7.86 6.53 -88.0 0 0 360.6657 360.5352 A 7.86 6.53 -88.0 0 0 367.4660 352.9079 A 7.86 6.53 -88.0 0 0 361.2143 344.8248"
/>
<path stroke="#899ca6" vector-effect="non-scaling-stroke" d="M 375.09 353.07 Q 378.14 358.53 379.02 359.77 A 1.26 1.26 0.0 0 0 381.30 359.04 L 381.36 346.02 A 0.91 0.91 0.0 0 0 380.45 345.10 L 380.02 345.10 A 0.75 0.75 0.0 0 0 379.27 345.85 L 379.23 355.54 A 0.28 0.28 0.0 0 1 378.71 355.68 Q 378.59 355.48 376.72 352.12 Q 373.61 346.68 372.73 345.45 A 1.26 1.26 0.0 0 0 370.45 346.17 L 370.39 359.20 A 0.91 0.91 0.0 0 0 371.30 360.11 L 371.73 360.12 A 0.75 0.75 0.0 0 0 372.48 359.37 L 372.52 349.68 A 0.28 0.28 0.0 0 1 373.04 349.54 Q 373.16 349.74 375.09 353.07"
/>
<path stroke="#899ca6" vector-effect="non-scaling-stroke" d="M 245.29 358.83 A 1.45 1.45 0.0 0 0 243.84 357.38 A 1.45 1.45 0.0 0 0 242.39 358.83 A 1.45 1.45 0.0 0 0 243.84 360.28 A 1.45 1.45 0.0 0 0 245.29 358.83"
/>
<path stroke="#899ca6" vector-effect="non-scaling-stroke" d="M 387.96 358.91 A 1.46 1.46 0.0 0 0 386.50 357.45 A 1.46 1.46 0.0 0 0 385.04 358.91 A 1.46 1.46 0.0 0 0 386.50 360.37 A 1.46 1.46 0.0 0 0 387.96 358.91"
/>
<path stroke="#899ca6" vector-effect="non-scaling-stroke" d="M 192.65 358.87 A 1.42 1.42 0.0 0 0 191.23 357.45 A 1.42 1.42 0.0 0 0 189.81 358.87 A 1.42 1.42 0.0 0 0 191.23 360.29 A 1.42 1.42 0.0 0 0 192.65 358.87"
/>
<path stroke="#899ca6" vector-effect="non-scaling-stroke" d="M 155.24 288.59 L 184.08 288.69 A 0.20 0.20 0.0 0 0 184.28 288.49 L 184.29 287.57 A 19.44 13.86 -89.8 0 0 170.50 268.08 L 168.98 268.08 A 19.44 13.86 -89.8 0 0 155.05 287.47 L 155.04 288.39 A 0.20 0.20 0.0 0 0 155.24 288.59"
/>
<path stroke="#899ca6" vector-effect="non-scaling-stroke" d="M 367.09 291.95 Q 360.17 293.30 353.99 295.25 C 347.69 297.22 342.71 301.21 342.71 308.51 C 342.72 317.02 349.53 321.33 357.40 319.05 C 361.87 317.76 367.26 313.73 367.38 308.57 Q 367.56 300.92 367.63 292.40 A 0.45 0.45 0.0 0 0 367.09 291.95"
/>
<path stroke="#899ca6" vector-effect="non-scaling-stroke" d="M 272.1461 346.8020 A 5.88 4.34 -91.5 0 0 267.9615 352.7936 A 5.88 4.34 -91.5 0 0 272.4539 358.5580 A 5.88 4.34 -91.5 0 0 276.6385 352.5664 A 5.88 4.34 -91.5 0 0 272.1461 346.8020"
/>
<path stroke="#899ca6" vector-effect="non-scaling-stroke" d="M 88.9600 346.8600 A 5.77 4.20 -90.0 0 0 84.7600 352.6300 A 5.77 4.20 -90.0 0 0 88.9600 358.4000 A 5.77 4.20 -90.0 0 0 93.1600 352.6300 A 5.77 4.20 -90.0 0 0 88.9600 346.8600"
/>
<path stroke="#899ca6" vector-effect="non-scaling-stroke" d="M 360.8509 346.9625 A 5.70 4.16 -91.7 0 0 356.8618 352.7834 A 5.70 4.16 -91.7 0 0 361.1891 358.3575 A 5.70 4.16 -91.7 0 0 365.1782 352.5366 A 5.70 4.16 -91.7 0 0 360.8509 346.9625"
/>
</g>
<path fill="#fafaf5" d="M 424.00 0.00 L 424.00 444.00 L 0.00 444.00 L 0.00 0.00 L 424.00 0.00 Z M 199.83 63.53 C 203.55 63.54 205.63 59.93 205.01 56.55 Q 204.20 52.16 200.78 47.71 Q 200.23 46.99 199.87 46.99 Q 199.53 46.99 198.98 47.71 Q 195.53 52.13 194.70 56.51 C 194.06 59.90 196.11 63.52 199.83 63.53 Z M 123.64 70.27 C 127.37 70.28 129.45 66.66 128.83 63.26 Q 128.02 58.86 124.59 54.40 Q 124.03 53.68 123.68 53.68 Q 123.34 53.68 122.78 54.40 Q 119.32 58.84 118.49 63.24 C 117.85 66.63 119.91 70.26 123.64 70.27 Z M 146.97 70.30 C 150.64 70.30 152.69 66.73 152.06 63.38 Q 151.25 59.04 147.86 54.65 Q 147.31 53.95 146.96 53.95 Q 146.62 53.95 146.07 54.65 Q 142.68 59.04 141.87 63.38 C 141.24 66.73 143.29 70.31 146.97 70.30 Z M 170.35 70.32 C 174.07 70.31 176.12 66.69 175.48 63.31 Q 174.65 58.93 171.21 54.51 Q 170.65 53.79 170.31 53.80 Q 169.95 53.80 169.40 54.51 Q 165.99 58.96 165.18 63.34 C 164.56 66.73 166.64 70.33 170.35 70.32 Z M 257.28 88.64 C 269.26 73.83 281.92 61.74 301.82 59.65 A 1.20 1.19 87.1 0 0 302.89 58.46 L 302.89 56.20 A 0.95 0.95 0.0 0 0 301.94 55.25 L 253.86 55.25 A 0.82 0.81 -90.0 0 0 253.05 56.07 L 253.05 58.52 A 0.80 0.79 2.8 0 0 253.77 59.31 Q 255.85 59.49 258.30 60.43 C 267.18 63.86 256.96 75.40 252.67 80.59 A 0.46 0.45 -39.8 0 0 252.62 81.10 L 256.96 88.62 A 0.20 0.19 -40.7 0 0 257.28 88.64 Z M 200.06 99.11 Q 202.86 99.11 204.08 99.06 A 0.41 0.40 -1.5 0 0 204.47 98.66 Q 204.56 92.58 204.42 77.27 C 204.38 73.24 205.88 71.59 207.98 69.02 A 1.10 1.10 0.0 0 0 207.14 67.23 Q 206.50 67.22 200.07 67.22 Q 193.64 67.22 193.01 67.22 A 1.10 1.10 0.0 0 0 192.16 69.01 C 194.26 71.59 195.76 73.24 195.72 77.27 Q 195.57 92.58 195.65 98.66 A 0.41 0.40 1.5 0 0 196.04 99.06 Q 197.26 99.11 200.06 99.11 Z M 196.17 147.45 Q 200.51 138.75 204.05 133.33 Q 205.21 131.56 205.47 129.75 A 3.95 3.62 -46.9 0 0 205.48 128.76 Q 205.19 126.26 202.42 121.32 Q 198.16 113.71 194.17 107.12 C 193.31 105.70 192.06 103.29 190.55 102.96 C 181.41 100.94 174.37 90.92 174.85 81.46 C 174.97 79.15 177.13 77.73 178.15 75.78 A 1.16 1.16 0.0 0 0 177.12 74.09 L 164.16 74.09 A 1.41 1.40 -17.4 0 0 163.00 76.30 L 165.70 80.14 A 0.89 0.84 24.7 0 1 165.85 80.51 Q 166.08 82.08 166.57 86.44 C 168.23 101.24 180.44 111.22 194.44 112.88 A 1.40 1.39 3.5 0 1 195.67 114.26 L 195.67 126.86 A 0.46 0.46 0.0 0 1 195.19 127.32 C 174.88 126.35 159.89 113.88 153.47 94.79 Q 151.26 88.20 151.89 80.90 A 1.79 1.77 -28.3 0 1 152.12 80.15 L 154.80 75.51 A 0.98 0.97 -74.9 0 0 153.96 74.04 L 140.44 74.04 A 1.20 1.20 0.0 0 0 139.56 76.06 Q 141.39 78.04 142.17 79.67 Q 142.72 80.82 142.99 83.93 C 144.80 104.84 154.17 121.03 173.17 130.59 Q 183.41 135.74 195.02 136.00 A 0.69 0.69 0.0 0 1 195.69 136.69 L 195.69 147.34 A 0.25 0.25 0.0 0 0 196.17 147.45 Z M 194.40 150.03 Q 166.49 149.47 147.60 129.63 Q 129.53 110.64 128.31 84.22 C 128.21 82.03 128.27 79.97 129.99 78.15 Q 130.53 77.59 131.55 75.92 A 1.16 1.16 0.0 0 0 130.56 74.16 L 117.13 74.16 A 1.30 1.30 0.0 0 0 116.11 76.26 L 118.36 79.13 A 4.69 4.69 0.0 0 1 119.37 81.95 C 119.96 123.34 150.64 156.31 192.17 158.97 A 0.35 0.34 9.0 0 0 192.53 158.72 L 194.65 150.37 A 0.27 0.27 0.0 0 0 194.40 150.03 Z M 292.91 102.50 Q 292.89 102.48 292.85 102.43 A 0.24 0.19 65.3 0 0 292.69 102.35 L 262.14 102.44 A 2.52 2.51 74.8 0 1 259.97 101.19 L 244.86 75.01 A 0.54 0.53 44.8 0 0 243.93 75.01 L 242.45 77.69 L 242.44 77.69 L 229.81 98.96 A 0.12 0.12 0.0 0 0 229.91 99.14 L 238.81 99.14 A 0.48 0.47 -73.7 0 0 239.21 98.92 L 244.23 91.10 A 0.37 0.37 0.0 0 1 244.86 91.12 L 265.59 127.03 A 0.50 0.50 0.0 0 0 266.45 127.03 L 270.31 120.33 A 1.45 1.43 45.3 0 0 270.31 118.90 L 265.91 111.28 A 0.56 0.56 0.0 0 1 266.39 110.44 L 278.78 110.44 A 0.19 0.18 15.5 0 1 278.94 110.72 L 258.41 146.29 A 0.44 0.44 0.0 0 0 258.79 146.95 L 265.73 146.95 A 2.58 2.56 15.0 0 0 267.95 145.68 L 292.99 102.93 A 0.33 0.33 0.0 0 0 292.91 102.50 Z M 210.34 111.09 A 0.46 0.46 0.0 0 1 210.74 110.40 L 251.31 110.40 A 0.46 0.46 0.0 0 0 251.71 109.71 L 247.66 102.70 A 0.46 0.46 0.0 0 0 247.26 102.47 L 196.55 102.47 A 0.46 0.46 0.0 0 0 196.15 103.16 L 208.84 125.15 A 0.46 0.46 0.0 0 0 209.62 125.19 L 214.37 118.61 A 0.46 0.46 0.0 0 0 214.39 118.11 L 210.34 111.09 Z M 195.20 188.71 Q 179.51 189.80 166.46 196.16 Q 160.98 198.83 159.46 203.51 A 0.88 0.88 0.0 0 0 160.30 204.66 L 240.16 204.66 A 0.83 0.83 0.0 0 0 240.96 203.59 Q 239.72 199.36 235.89 197.26 Q 221.74 189.47 205.05 188.67 A 0.58 0.58 0.0 0 1 204.49 188.11 Q 204.20 177.77 204.64 167.61 C 205.14 155.93 209.38 147.42 216.23 137.37 Q 217.28 135.83 231.09 114.81 A 0.79 0.78 16.6 0 0 230.43 113.60 L 223.07 113.60 A 2.98 2.97 16.7 0 0 220.59 114.93 Q 211.15 129.12 208.50 133.23 Q 203.10 141.60 200.15 148.17 C 194.54 160.68 195.58 174.96 195.73 188.14 A 0.57 0.56 88.4 0 1 195.20 188.71 Z M 274.28 141.13 A 0.37 0.37 0.0 0 0 274.28 141.49 L 278.92 149.55 A 0.37 0.37 0.0 0 1 278.60 150.10 L 237.33 150.10 A 0.37 0.37 0.0 0 0 237.01 150.66 L 241.15 157.83 A 0.37 0.37 0.0 0 0 241.47 158.01 L 292.42 158.01 A 0.37 0.37 0.0 0 0 292.74 157.45 L 279.11 133.86 A 0.37 0.37 0.0 0 0 278.47 133.86 L 274.28 141.13 Z M 257.14 164.34 Q 259.21 165.90 260.01 167.00 Q 269.67 180.22 275.08 187.18 C 287.88 203.66 304.38 207.35 324.70 204.56 A 0.68 0.66 -4.0 0 0 325.29 203.90 L 325.29 201.48 A 0.75 0.75 0.0 0 0 324.64 200.74 C 302.16 197.62 290.18 179.67 277.86 162.77 A 2.62 2.60 71.7 0 0 275.73 161.69 L 253.33 161.79 Q 251.77 161.21 249.80 161.65 A 1.15 1.13 -81.1 0 0 249.07 162.19 L 245.10 169.08 A 0.69 0.69 0.0 0 1 243.91 169.08 L 223.93 134.47 A 0.97 0.97 0.0 0 0 222.25 134.47 L 219.18 139.79 A 2.65 2.65 0.0 0 0 219.18 142.45 L 223.09 149.21 A 0.57 0.57 0.0 0 1 222.60 150.06 L 214.44 150.06 A 2.17 2.16 10.1 0 0 212.41 151.47 L 210.38 156.88 A 0.92 0.92 0.0 0 0 211.24 158.13 L 226.85 158.13 A 2.43 2.42 75.0 0 1 228.95 159.35 L 243.97 185.35 A 0.57 0.57 0.0 0 0 244.96 185.36 L 257.14 164.34 Z M 219.86 273.87 L 219.86 236.38 A 0.32 0.32 0.0 0 0 219.47 236.07 L 202.61 239.55 A 1.21 1.21 0.0 0 0 202.78 241.94 C 206.87 242.17 208.61 243.74 208.61 247.98 Q 208.67 305.56 208.39 316.43 Q 208.28 320.89 203.33 321.62 A 1.50 1.50 0.0 0 0 202.06 323.00 L 202.06 323.04 A 1.16 1.16 0.0 0 0 203.22 324.27 L 225.79 324.25 A 1.03 1.03 0.0 0 0 226.82 323.22 L 226.82 322.81 A 1.21 1.19 2.1 0 0 225.70 321.62 C 219.46 321.16 219.93 316.64 219.89 311.01 Q 219.80 294.74 219.87 283.18 C 219.93 273.44 234.46 267.61 242.02 272.74 C 245.73 275.26 246.69 280.66 246.79 285.01 Q 246.85 287.80 246.81 322.91 A 1.43 1.43 0.0 0 0 248.24 324.34 L 263.52 324.34 A 1.37 1.36 52.9 0 0 263.89 321.66 C 262.75 321.33 261.03 321.19 259.99 320.27 Q 258.09 318.60 258.08 315.75 Q 258.05 297.55 258.04 284.51 C 258.04 274.45 253.94 265.58 242.91 264.24 Q 232.54 262.97 224.81 269.40 C 223.04 270.88 221.55 272.71 220.28 274.04 A 0.24 0.24 0.0 0 1 219.86 273.87 Z M 317.73 236.33 Q 317.50 236.01 317.12 236.10 Q 309.40 238.03 301.05 239.28 A 1.31 1.23 -16.6 0 0 300.02 241.05 Q 300.19 241.39 300.68 241.75 Q 301.13 242.08 301.53 242.12 C 307.11 242.69 306.40 246.50 306.44 251.59 Q 306.61 277.43 306.49 310.75 C 306.47 314.87 307.26 321.37 301.28 321.42 A 1.02 1.02 0.0 0 0 300.27 322.44 L 300.27 323.39 A 0.87 0.86 90.0 0 0 301.13 324.26 L 323.67 324.26 A 1.03 1.03 0.0 0 0 324.70 323.23 L 324.70 322.76 A 1.21 1.21 0.0 0 0 323.66 321.56 C 317.10 320.56 317.79 316.14 317.77 310.75 Q 317.62 258.59 317.90 237.05 Q 317.91 236.58 317.73 236.33 Z M 288.96 247.71 A 7.35 7.35 0.0 0 0 281.61 240.36 A 7.35 7.35 0.0 0 0 274.26 247.71 A 7.35 7.35 0.0 0 0 281.61 255.06 A 7.35 7.35 0.0 0 0 288.96 247.71 Z M 89.41 284.90 Q 89.48 260.54 89.50 251.53 C 89.51 247.38 92.55 246.00 96.14 245.65 A 1.15 1.15 0.0 0 0 97.17 244.51 L 97.17 243.87 A 0.98 0.98 0.0 0 0 96.19 242.89 L 71.29 242.89 A 0.89 0.89 0.0 0 0 70.40 243.78 L 70.40 244.58 A 0.94 0.93 3.1 0 0 71.24 245.51 C 74.50 245.83 78.08 246.70 78.10 250.76 Q 78.30 289.17 78.19 305.50 Q 78.14 313.54 77.71 316.97 C 77.28 320.36 74.40 321.35 71.49 321.45 A 1.01 1.01 0.0 0 0 70.51 322.46 L 70.51 323.36 A 0.91 0.91 0.0 0 0 71.42 324.27 L 95.63 324.27 A 1.43 1.43 0.0 0 0 95.85 321.43 C 91.82 320.80 89.54 320.00 89.48 315.00 Q 89.36 304.35 89.50 291.83 A 1.87 1.84 68.3 0 1 90.04 290.54 L 96.85 283.73 A 0.43 0.42 50.2 0 1 97.50 283.79 Q 109.08 300.69 117.35 312.93 C 124.25 323.13 130.27 325.49 142.74 324.33 A 1.31 1.31 0.0 0 0 142.93 321.75 C 136.34 320.17 133.34 315.72 129.68 310.58 Q 124.07 302.67 105.66 276.09 A 0.79 0.78 43.5 0 1 105.63 275.24 Q 106.59 273.65 108.17 272.17 Q 109.24 271.17 127.20 252.72 C 131.10 248.72 134.84 245.97 139.74 245.74 A 0.97 0.96 -1.2 0 0 140.67 244.78 L 140.67 243.73 A 0.92 0.92 0.0 0 0 139.75 242.81 L 118.38 242.81 A 1.07 1.07 0.0 0 0 117.31 243.88 L 117.31 244.52 A 1.07 1.07 0.0 0 0 118.34 245.59 Q 120.66 245.67 123.06 246.84 A 1.53 1.53 0.0 0 1 123.78 248.86 Q 122.94 250.67 121.10 252.61 Q 101.85 272.87 89.93 285.11 A 0.30 0.30 0.0 0 1 89.41 284.90 Z M 155.11 292.79 L 194.39 292.79 A 1.41 1.41 0.0 0 0 195.80 291.42 C 196.09 280.96 191.37 269.86 181.30 265.89 C 169.92 261.41 157.07 264.39 149.33 274.05 C 142.92 282.06 141.39 293.33 143.59 303.26 Q 146.65 317.11 159.00 322.93 C 171.86 329.00 187.33 325.26 194.68 313.13 A 1.65 1.65 0.0 0 0 192.08 311.14 Q 191.91 311.32 189.95 313.49 C 186.00 317.88 179.74 319.80 174.20 319.54 C 160.07 318.85 155.14 306.06 154.50 293.43 A 0.61 0.61 0.0 0 1 155.11 292.79 Z M 367.73 316.50 C 368.86 327.54 381.00 327.14 387.56 321.64 A 1.60 1.59 54.0 0 0 387.88 319.57 L 387.73 319.34 A 1.24 1.24 0.0 0 0 385.92 319.02 Q 383.34 321.06 380.62 319.15 A 2.04 1.98 -86.1 0 1 379.96 318.37 Q 378.94 316.27 378.90 313.50 Q 378.81 306.20 378.88 284.51 Q 378.90 278.48 377.06 274.15 C 371.18 260.26 346.95 261.74 337.56 270.75 C 334.30 273.88 332.44 279.60 337.55 281.97 Q 339.66 282.94 342.13 282.44 A 2.54 2.53 -88.5 0 0 344.10 280.56 Q 344.56 278.67 345.36 275.32 C 346.73 269.49 352.90 267.20 358.45 268.00 C 368.12 269.39 367.96 280.24 367.48 287.55 A 0.99 0.99 0.0 0 1 366.61 288.47 C 353.81 290.01 329.14 293.16 331.17 311.70 C 332.32 322.18 341.16 326.12 350.82 325.51 Q 360.90 324.87 367.30 316.37 A 0.24 0.24 0.0 0 1 367.73 316.50 Z M 270.88 324.27 L 293.65 324.27 A 1.35 1.35 0.0 0 0 293.94 321.61 C 291.14 320.98 288.94 320.60 288.26 317.23 Q 287.93 315.58 287.86 310.52 Q 287.64 294.01 287.85 265.28 A 1.03 1.02 -5.7 0 0 286.61 264.27 L 270.54 267.59 A 1.12 1.11 -39.4 0 0 270.33 269.71 Q 271.00 269.99 272.57 270.26 C 274.87 270.66 276.42 272.49 276.45 274.75 Q 276.81 297.31 276.54 315.24 Q 276.45 321.34 271.13 321.53 A 1.21 1.20 89.0 0 0 269.97 322.74 L 269.97 323.37 A 0.91 0.90 0.0 0 0 270.88 324.27 Z M 151.41 353.01 Q 154.40 358.47 155.27 359.70 A 1.25 1.25 0.0 0 0 157.55 359.00 L 157.69 346.03 A 0.91 0.91 0.0 0 0 156.79 345.12 L 156.37 345.11 A 0.75 0.75 0.0 0 0 155.61 345.85 L 155.51 355.49 A 0.28 0.28 0.0 0 1 154.99 355.63 Q 154.88 355.43 153.04 352.07 Q 149.98 346.65 149.11 345.41 A 1.25 1.25 0.0 0 0 146.83 346.12 L 146.69 359.08 A 0.91 0.91 0.0 0 0 147.59 360.00 L 148.01 360.00 A 0.75 0.75 0.0 0 0 148.77 359.26 L 148.87 349.62 A 0.28 0.28 0.0 0 1 149.39 349.49 Q 149.50 349.69 151.41 353.01 Z M 272.4536 344.7510 A 7.87 6.48 -89.1 0 0 265.8508 352.5182 A 7.87 6.48 -89.1 0 0 272.2064 360.4890 A 7.87 6.48 -89.1 0 0 278.8092 352.7218 A 7.87 6.48 -89.1 0 0 272.4536 344.7510 Z M 322.83 352.82 C 322.93 357.58 326.03 361.43 331.19 360.17 Q 332.92 359.75 333.67 358.31 A 0.75 0.74 4.5 0 0 332.77 357.26 C 332.00 357.52 331.22 358.24 330.30 358.40 C 326.70 359.00 325.09 355.90 325.02 352.78 C 324.96 349.65 326.43 346.49 330.05 346.94 C 330.98 347.05 331.79 347.74 332.57 347.96 A 0.75 0.74 -7.0 0 0 333.42 346.88 Q 332.61 345.47 330.86 345.12 C 325.66 344.09 322.73 348.08 322.83 352.82 Z M 69.93 352.80 C 70.04 357.53 73.13 361.36 78.27 360.10 Q 79.99 359.68 80.74 358.24 A 0.74 0.74 0.0 0 0 79.84 357.20 C 79.07 357.46 78.29 358.18 77.38 358.33 C 73.79 358.94 72.19 355.86 72.11 352.74 C 72.04 349.63 73.50 346.47 77.12 346.92 C 78.04 347.03 78.84 347.71 79.62 347.94 A 0.74 0.74 0.0 0 0 80.47 346.85 Q 79.66 345.45 77.92 345.11 C 72.73 344.09 69.82 348.06 69.93 352.80 Z M 88.9375 344.7900 A 7.88 6.46 -89.8 0 0 82.4500 352.6475 A 7.88 6.46 -89.8 0 0 88.8825 360.5500 A 7.88 6.46 -89.8 0 0 95.3700 352.6925 A 7.88 6.46 -89.8 0 0 88.9375 344.7900 Z M 100.60 350.83 A 0.35 0.35 0.0 0 1 101.28 350.70 L 104.22 358.41 A 0.79 0.78 44.9 0 0 105.69 358.41 L 109.02 349.52 A 0.16 0.15 -35.1 0 1 109.32 349.57 L 109.32 359.28 A 0.84 0.83 -90.0 0 0 110.15 360.12 L 110.42 360.12 A 0.75 0.75 0.0 0 0 111.17 359.37 L 111.17 346.38 A 1.32 1.32 0.0 0 0 108.61 345.92 L 105.28 354.81 A 0.38 0.37 -45.4 0 1 104.58 354.82 L 101.16 345.88 A 1.34 1.34 0.0 0 0 98.56 346.36 L 98.56 359.31 A 0.84 0.84 0.0 0 0 99.40 360.15 L 99.68 360.15 A 0.92 0.92 0.0 0 0 100.60 359.23 L 100.60 350.83 Z M 126.08 350.80 L 126.06 359.23 A 0.92 0.92 0.0 0 0 126.99 360.16 L 127.27 360.16 A 0.84 0.84 0.0 0 0 128.11 359.32 L 128.13 346.32 A 1.35 1.35 0.0 0 0 125.52 345.83 L 122.08 354.80 A 0.38 0.37 45.5 0 1 121.37 354.79 L 118.04 345.86 A 1.33 1.33 0.0 0 0 115.47 346.32 L 115.46 359.36 A 0.75 0.75 0.0 0 0 116.21 360.11 L 116.48 360.11 A 0.84 0.83 -89.9 0 0 117.31 359.27 L 117.33 349.52 A 0.16 0.15 35.1 0 1 117.63 349.48 L 120.96 358.40 A 0.79 0.79 0.0 0 0 122.43 358.40 L 125.39 350.67 A 0.35 0.35 0.0 0 1 126.08 350.80 Z M 137.57 358.37 Q 134.27 358.39 134.38 353.25 Q 134.45 349.76 134.34 345.99 A 0.91 0.91 0.0 0 0 133.43 345.11 L 133.16 345.11 A 1.06 1.06 0.0 0 0 132.10 346.20 Q 132.16 347.99 132.19 353.27 C 132.21 357.27 133.19 360.45 137.58 360.43 C 141.98 360.41 142.93 357.21 142.91 353.22 Q 142.88 347.93 142.92 346.14 A 1.06 1.06 0.0 0 0 141.85 345.07 L 141.58 345.07 A 0.91 0.91 0.0 0 0 140.68 345.96 Q 140.61 349.73 140.72 353.22 Q 140.87 358.36 137.57 358.37 Z M 163.8464 345.8462 A 0.84 0.84 0.0 0 0 163.0034 345.0092 L 162.5034 345.0109 A 0.84 0.84 0.0 0 0 161.6664 345.8538 L 161.7136 359.3938 A 0.84 0.84 0.0 0 0 162.5566 360.2308 L 163.0566 360.2291 A 0.84 0.84 0.0 0 0 163.8936 359.3862 L 163.8464 345.8462 Z M 172.32 360.16 Q 173.46 360.15 173.43 358.77 Q 173.28 351.14 173.36 347.89 A 0.83 0.83 0.0 0 1 174.18 347.08 L 176.77 347.06 A 0.99 0.98 0.9 0 0 177.75 346.12 L 177.75 346.08 A 0.97 0.96 -89.7 0 0 176.79 345.11 Q 174.49 345.09 172.25 345.07 Q 170.02 345.10 167.71 345.14 A 0.97 0.96 89.4 0 0 166.76 346.11 L 166.76 346.15 A 0.99 0.98 -1.3 0 0 167.75 347.09 L 170.34 347.09 A 0.83 0.83 0.0 0 1 171.16 347.90 Q 171.26 351.15 171.16 358.78 Q 171.14 360.16 172.32 360.16 Z M 184.01 360.31 Q 184.49 360.31 184.81 360.02 Q 185.19 359.68 185.19 359.26 Q 185.18 356.06 185.36 354.32 A 3.42 3.32 61.8 0 1 185.70 353.13 L 189.21 345.99 A 0.52 0.51 -64.7 0 0 188.97 345.30 L 188.73 345.18 A 1.14 1.14 0.0 0 0 187.22 345.68 Q 186.01 348.02 184.69 351.18 Q 184.59 351.42 184.44 351.51 Q 184.26 351.63 184.03 351.63 Q 183.80 351.63 183.61 351.51 Q 183.47 351.42 183.37 351.18 Q 182.06 348.01 180.85 345.67 A 1.14 1.14 0.0 0 0 179.34 345.17 L 179.10 345.29 A 0.52 0.51 64.8 0 0 178.86 345.97 L 182.35 353.13 A 3.42 3.32 -61.6 0 1 182.69 354.32 Q 182.86 356.06 182.84 359.26 Q 182.84 359.68 183.22 360.02 Q 183.54 360.31 184.01 360.31 Z M 209.87 359.24 A 0.82 0.82 0.0 0 0 209.05 358.36 L 204.15 358.35 A 0.75 0.74 -90.0 0 1 203.41 357.60 L 203.41 345.93 A 0.86 0.85 0.0 0 0 202.55 345.08 L 202.27 345.08 A 1.08 1.07 0.0 0 0 201.19 346.15 L 201.19 359.31 A 0.78 0.78 0.0 0 0 201.97 360.09 L 209.01 360.14 A 0.85 0.85 0.0 0 0 209.87 359.28 L 209.87 359.24 Z M 214.6684 346.0282 A 0.92 0.92 0.0 0 0 213.7468 345.1098 L 213.4868 345.1102 A 0.92 0.92 0.0 0 0 212.5684 346.0318 L 212.5916 359.3718 A 0.92 0.92 0.0 0 0 213.5132 360.2902 L 213.7732 360.2898 A 0.92 0.92 0.0 0 0 214.6916 359.3682 L 214.6684 346.0282 Z M 226.33 353.43 A 0.77 0.77 0.0 0 0 226.31 351.92 Q 225.08 351.71 222.23 351.94 A 1.03 1.02 -2.3 0 1 221.12 350.92 L 221.12 348.11 A 1.06 1.05 -90.0 0 1 222.17 347.05 L 226.78 347.05 A 1.09 1.08 6.7 0 0 227.84 346.22 L 227.93 345.86 A 0.58 0.58 0.0 0 0 227.37 345.15 L 219.99 345.15 A 0.97 0.97 0.0 0 0 219.02 346.12 L 219.02 359.16 A 1.07 1.07 0.0 0 0 219.85 360.20 L 220.13 360.26 A 0.82 0.82 0.0 0 0 221.14 359.46 L 221.14 354.37 A 0.88 0.88 0.0 0 1 222.16 353.50 Q 224.36 353.84 226.33 353.43 Z M 230.53 352.65 Q 230.54 357.88 230.60 359.18 A 1.05 1.04 -1.3 0 0 231.65 360.17 L 238.62 360.14 A 0.91 0.91 0.0 0 0 239.52 359.22 L 239.52 359.17 A 0.93 0.93 0.0 0 0 238.58 358.22 L 234.00 358.27 A 1.27 1.27 0.0 0 1 232.72 357.00 L 232.72 354.85 A 1.36 1.35 -87.3 0 1 234.20 353.50 Q 238.75 353.92 238.54 352.62 Q 238.75 351.34 234.19 351.79 A 1.36 1.35 87.0 0 1 232.71 350.44 L 232.70 348.29 A 1.27 1.27 0.0 0 1 233.97 347.02 L 238.55 347.04 A 0.93 0.93 0.0 0 0 239.48 346.09 L 239.48 346.04 A 0.91 0.91 0.0 0 0 238.58 345.12 L 231.61 345.13 A 1.05 1.04 1.0 0 0 230.57 346.13 Q 230.51 347.43 230.53 352.65 Z M 253.23 352.75 C 253.28 357.50 256.33 361.40 261.51 360.20 Q 263.25 359.80 264.01 358.36 A 0.75 0.74 5.2 0 0 263.13 357.30 C 262.35 357.55 261.56 358.26 260.64 358.41 C 257.03 358.98 255.46 355.85 255.43 352.72 C 255.40 349.60 256.91 346.44 260.53 346.94 C 261.46 347.06 262.26 347.76 263.04 348.00 A 0.75 0.74 -6.3 0 0 263.90 346.92 Q 263.11 345.50 261.36 345.13 C 256.17 344.04 253.19 347.99 253.23 352.75 Z M 286.39 353.11 Q 289.46 358.56 290.35 359.79 A 1.26 1.26 0.0 0 0 292.63 359.06 L 292.63 346.03 A 0.91 0.91 0.0 0 0 291.72 345.12 L 291.29 345.12 A 0.75 0.75 0.0 0 0 290.54 345.87 L 290.54 355.56 A 0.28 0.28 0.0 0 1 290.02 355.70 Q 289.90 355.50 288.02 352.15 Q 284.89 346.73 284.00 345.50 A 1.26 1.26 0.0 0 0 281.72 346.23 L 281.72 359.26 A 0.91 0.91 0.0 0 0 282.63 360.17 L 283.06 360.17 A 0.75 0.75 0.0 0 0 283.81 359.42 L 283.81 349.73 A 0.28 0.28 0.0 0 1 284.33 349.59 Q 284.44 349.79 286.39 353.11 Z M 301.18 353.07 Q 304.20 358.50 305.07 359.74 A 1.25 1.25 0.0 0 0 307.35 359.02 L 307.42 346.06 A 0.90 0.90 0.0 0 0 306.52 345.15 L 306.09 345.15 A 0.75 0.75 0.0 0 0 305.34 345.89 L 305.29 355.53 A 0.28 0.28 0.0 0 1 304.77 355.67 Q 304.66 355.47 302.80 352.12 Q 299.72 346.72 298.84 345.49 A 1.25 1.25 0.0 0 0 296.57 346.20 L 296.50 359.16 A 0.90 0.90 0.0 0 0 297.39 360.07 L 297.82 360.07 A 0.75 0.75 0.0 0 0 298.57 359.33 L 298.63 349.70 A 0.28 0.28 0.0 0 1 299.14 349.56 Q 299.26 349.76 301.18 353.07 Z M 311.34 352.61 Q 311.35 357.83 311.40 359.13 A 1.05 1.04 -1.2 0 0 312.45 360.13 L 319.41 360.11 A 0.91 0.91 0.0 0 0 320.32 359.19 L 320.32 359.14 A 0.93 0.93 0.0 0 0 319.38 358.19 L 314.80 358.23 A 1.27 1.27 0.0 0 1 313.52 356.96 L 313.53 354.81 A 1.36 1.35 -87.2 0 1 315.01 353.46 Q 319.56 353.90 319.35 352.59 Q 319.56 351.31 315.01 351.75 A 1.36 1.35 87.1 0 1 313.53 350.41 L 313.52 348.26 A 1.27 1.27 0.0 0 1 314.79 346.98 L 319.37 347.02 A 0.93 0.93 0.0 0 0 320.31 346.06 L 320.31 346.01 A 0.91 0.91 0.0 0 0 319.41 345.10 L 312.44 345.09 A 1.05 1.04 1.1 0 0 311.40 346.09 Q 311.34 347.38 311.34 352.61 Z M 340.83 360.30 Q 341.97 360.29 341.95 358.90 Q 341.79 351.21 341.87 347.93 A 0.84 0.84 0.0 0 1 342.70 347.12 L 345.31 347.10 A 1.00 0.99 0.9 0 0 346.29 346.15 L 346.29 346.11 A 0.98 0.97 -89.8 0 0 345.33 345.13 Q 343.01 345.11 340.75 345.09 Q 338.50 345.13 336.18 345.16 A 0.98 0.97 89.4 0 0 335.22 346.15 L 335.22 346.19 A 1.00 0.99 -1.3 0 0 336.21 347.13 L 338.82 347.13 A 0.84 0.84 0.0 0 1 339.66 347.94 Q 339.76 351.22 339.66 358.91 Q 339.64 360.30 340.83 360.30 Z M 351.3687 346.2881 A 1.09 1.09 0.0 0 0 350.2768 345.2000 L 350.2168 345.2001 A 1.09 1.09 0.0 0 0 349.1287 346.2920 L 349.1513 359.2519 A 1.09 1.09 0.0 0 0 350.2432 360.3400 L 350.3032 360.3399 A 1.09 1.09 0.0 0 0 351.3913 359.2480 L 351.3687 346.2881 Z M 361.2143 344.8248 A 7.86 6.53 -88.0 0 0 354.4140 352.4521 A 7.86 6.53 -88.0 0 0 360.6657 360.5352 A 7.86 6.53 -88.0 0 0 367.4660 352.9079 A 7.86 6.53 -88.0 0 0 361.2143 344.8248 Z M 375.09 353.07 Q 378.14 358.53 379.02 359.77 A 1.26 1.26 0.0 0 0 381.30 359.04 L 381.36 346.02 A 0.91 0.91 0.0 0 0 380.45 345.10 L 380.02 345.10 A 0.75 0.75 0.0 0 0 379.27 345.85 L 379.23 355.54 A 0.28 0.28 0.0 0 1 378.71 355.68 Q 378.59 355.48 376.72 352.12 Q 373.61 346.68 372.73 345.45 A 1.26 1.26 0.0 0 0 370.45 346.17 L 370.39 359.20 A 0.91 0.91 0.0 0 0 371.30 360.11 L 371.73 360.12 A 0.75 0.75 0.0 0 0 372.48 359.37 L 372.52 349.68 A 0.28 0.28 0.0 0 1 373.04 349.54 Q 373.16 349.74 375.09 353.07 Z M 245.29 358.83 A 1.45 1.45 0.0 0 0 243.84 357.38 A 1.45 1.45 0.0 0 0 242.39 358.83 A 1.45 1.45 0.0 0 0 243.84 360.28 A 1.45 1.45 0.0 0 0 245.29 358.83 Z M 387.96 358.91 A 1.46 1.46 0.0 0 0 386.50 357.45 A 1.46 1.46 0.0 0 0 385.04 358.91 A 1.46 1.46 0.0 0 0 386.50 360.37 A 1.46 1.46 0.0 0 0 387.96 358.91 Z M 192.65 358.87 A 1.42 1.42 0.0 0 0 191.23 357.45 A 1.42 1.42 0.0 0 0 189.81 358.87 A 1.42 1.42 0.0 0 0 191.23 360.29 A 1.42 1.42 0.0 0 0 192.65 358.87 Z"
/>
<path fill="#bfa363" d="M 199.83 63.53 C 196.11 63.52 194.06 59.90 194.70 56.51 Q 195.53 52.13 198.98 47.71 Q 199.53 46.99 199.87 46.99 Q 200.23 46.99 200.78 47.71 Q 204.20 52.16 205.01 56.55 C 205.63 59.93 203.55 63.54 199.83 63.53 Z"
/>
<path fill="#a88d58" d="M 123.68 53.68 Q 124.03 53.68 124.59 54.40 Q 128.02 58.86 128.83 63.26 C 129.45 66.66 127.37 70.28 123.64 70.27 C 119.91 70.26 117.85 66.63 118.49 63.24 Q 119.32 58.84 122.78 54.40 Q 123.34 53.68 123.68 53.68 Z"
/>
<path fill="#bfa363" d="M 146.97 70.30 C 143.29 70.31 141.24 66.73 141.87 63.38 Q 142.68 59.04 146.07 54.65 Q 146.62 53.95 146.96 53.95 Q 147.31 53.95 147.86 54.65 Q 151.25 59.04 152.06 63.38 C 152.69 66.73 150.64 70.30 146.97 70.30 Z"
/>
<path fill="#bfa363" d="M 170.35 70.32 C 166.64 70.33 164.56 66.73 165.18 63.34 Q 165.99 58.96 169.40 54.51 Q 169.95 53.80 170.31 53.80 Q 170.65 53.79 171.21 54.51 Q 174.65 58.93 175.48 63.31 C 176.12 66.69 174.07 70.31 170.35 70.32 Z"
/>
<path fill="#173e57" d="M 257.28 88.64 A 0.20 0.19 -40.7 0 1 256.96 88.62 L 252.62 81.10 A 0.46 0.45 -39.8 0 1 252.67 80.59 C 256.96 75.40 267.18 63.86 258.30 60.43 Q 255.85 59.49 253.77 59.31 A 0.80 0.79 2.8 0 1 253.05 58.52 L 253.05 56.07 A 0.82 0.81 90.0 0 1 253.86 55.25 L 301.94 55.25 A 0.95 0.95 0.0 0 1 302.89 56.20 L 302.89 58.46 A 1.20 1.19 87.1 0 1 301.82 59.65 C 281.92 61.74 269.26 73.83 257.28 88.64 Z"
/>
<path fill="#173e57" d="M 200.07 67.22 Q 206.50 67.22 207.14 67.23 A 1.10 1.10 0.0 0 1 207.98 69.02 C 205.88 71.59 204.38 73.24 204.42 77.27 Q 204.56 92.58 204.47 98.66 A 0.41 0.40 -1.5 0 1 204.08 99.06 Q 202.86 99.11 200.06 99.11 Q 197.26 99.11 196.04 99.06 A 0.41 0.40 1.5 0 1 195.65 98.66 Q 195.57 92.58 195.72 77.27 C 195.76 73.24 194.26 71.59 192.16 69.01 A 1.10 1.10 0.0 0 1 193.01 67.22 Q 193.64 67.22 200.07 67.22 Z"
/>
<path fill="#173e57" d="M 196.17 147.45 A 0.25 0.25 0.0 0 1 195.69 147.34 L 195.69 136.69 A 0.69 0.69 0.0 0 0 195.02 136.00 Q 183.41 135.74 173.17 130.59 C 154.17 121.03 144.80 104.84 142.99 83.93 Q 142.72 80.82 142.17 79.67 Q 141.39 78.04 139.56 76.06 A 1.20 1.20 0.0 0 1 140.44 74.04 L 153.96 74.04 A 0.98 0.97 -74.9 0 1 154.80 75.51 L 152.12 80.15 A 1.79 1.77 -28.3 0 0 151.89 80.90 Q 151.26 88.20 153.47 94.79 C 159.89 113.88 174.88 126.35 195.19 127.32 A 0.46 0.46 0.0 0 0 195.67 126.86 L 195.67 114.26 A 1.40 1.39 3.5 0 0 194.44 112.88 C 180.44 111.22 168.23 101.24 166.57 86.44 Q 166.08 82.08 165.85 80.51 A 0.89 0.84 24.7 0 0 165.70 80.14 L 163.00 76.30 A 1.41 1.40 -17.4 0 1 164.16 74.09 L 177.12 74.09 A 1.16 1.16 0.0 0 1 178.15 75.78 C 177.13 77.73 174.97 79.15 174.85 81.46 C 174.37 90.92 181.41 100.94 190.55 102.96 C 192.06 103.29 193.31 105.70 194.17 107.12 Q 198.16 113.71 202.42 121.32 Q 205.19 126.26 205.48 128.76 A 3.95 3.62 -46.9 0 1 205.47 129.75 Q 205.21 131.56 204.05 133.33 Q 200.51 138.75 196.17 147.45 Z"
/>
<path fill="#173e57" d="M 194.40 150.03 A 0.27 0.27 0.0 0 1 194.65 150.37 L 192.53 158.72 A 0.35 0.34 9.0 0 1 192.17 158.97 C 150.64 156.31 119.96 123.34 119.37 81.95 A 4.69 4.69 0.0 0 0 118.36 79.13 L 116.11 76.26 A 1.30 1.30 0.0 0 1 117.13 74.16 L 130.56 74.16 A 1.16 1.16 0.0 0 1 131.55 75.92 Q 130.53 77.59 129.99 78.15 C 128.27 79.97 128.21 82.03 128.31 84.22 Q 129.53 110.64 147.60 129.63 Q 166.49 149.47 194.40 150.03 Z"
/>
<path fill="#bfa363" d="M 292.91 102.50 A 0.33 0.33 0.0 0 1 292.99 102.93 L 267.95 145.68 A 2.58 2.56 15.0 0 1 265.73 146.95 L 258.79 146.95 A 0.44 0.44 0.0 0 1 258.41 146.29 L 278.94 110.72 A 0.19 0.18 15.5 0 0 278.78 110.44 L 266.39 110.44 A 0.56 0.56 0.0 0 0 265.91 111.28 L 270.31 118.90 A 1.45 1.43 45.3 0 1 270.31 120.33 L 266.45 127.03 A 0.50 0.50 0.0 0 1 265.59 127.03 L 244.86 91.12 A 0.37 0.37 0.0 0 0 244.23 91.10 L 239.21 98.92 A 0.48 0.47 -73.7 0 1 238.81 99.14 L 229.91 99.14 A 0.12 0.12 0.0 0 1 229.81 98.96 L 242.44 77.69 L 242.45 77.69 L 243.93 75.01 A 0.54 0.53 44.8 0 1 244.86 75.01 L 259.97 101.19 A 2.52 2.51 74.8 0 0 262.14 102.44 L 292.69 102.35 A 0.24 0.19 65.3 0 1 292.85 102.43 Q 292.89 102.48 292.91 102.50 Z"
/>
<path fill="#a88d58" d="M 210.34 111.09 L 214.39 118.11 A 0.46 0.46 0.0 0 1 214.37 118.61 L 209.62 125.19 A 0.46 0.46 0.0 0 1 208.84 125.15 L 196.15 103.16 A 0.46 0.46 0.0 0 1 196.55 102.47 L 247.26 102.47 A 0.46 0.46 0.0 0 1 247.66 102.70 L 251.71 109.71 A 0.46 0.46 0.0 0 1 251.31 110.40 L 210.74 110.40 A 0.46 0.46 0.0 0 0 210.34 111.09 Z"
/>
<path fill="#173e57" d="M 195.20 188.71 A 0.57 0.56 88.4 0 0 195.73 188.14 C 195.58 174.96 194.54 160.68 200.15 148.17 Q 203.10 141.60 208.50 133.23 Q 211.15 129.12 220.59 114.93 A 2.98 2.97 16.7 0 1 223.07 113.60 L 230.43 113.60 A 0.79 0.78 16.6 0 1 231.09 114.81 Q 217.28 135.83 216.23 137.37 C 209.38 147.42 205.14 155.93 204.64 167.61 Q 204.20 177.77 204.49 188.11 A 0.58 0.58 0.0 0 0 205.05 188.67 Q 221.74 189.47 235.89 197.26 Q 239.72 199.36 240.96 203.59 A 0.83 0.83 0.0 0 1 240.16 204.66 L 160.30 204.66 A 0.88 0.88 0.0 0 1 159.46 203.51 Q 160.98 198.83 166.46 196.16 Q 179.51 189.80 195.20 188.71 Z"
/>
<path fill="#bfa363" d="M 274.28 141.13 L 278.47 133.86 A 0.37 0.37 0.0 0 1 279.11 133.86 L 292.74 157.45 A 0.37 0.37 0.0 0 1 292.42 158.01 L 241.47 158.01 A 0.37 0.37 0.0 0 1 241.15 157.83 L 237.01 150.66 A 0.37 0.37 0.0 0 1 237.33 150.10 L 278.60 150.10 A 0.37 0.37 0.0 0 0 278.92 149.55 L 274.28 141.49 A 0.37 0.37 0.0 0 1 274.28 141.13 Z"
/>
<path fill="#a88d58" d="M 253.33 161.79 L 257.14 164.34 L 244.96 185.36 A 0.57 0.57 0.0 0 1 243.97 185.35 L 228.95 159.35 A 2.43 2.42 75.0 0 0 226.85 158.13 L 211.24 158.13 A 0.92 0.92 0.0 0 1 210.38 156.88 L 212.41 151.47 A 2.17 2.16 10.1 0 1 214.44 150.06 L 222.60 150.06 A 0.57 0.57 0.0 0 0 223.09 149.21 L 219.18 142.45 A 2.65 2.65 0.0 0 1 219.18 139.79 L 222.25 134.47 A 0.97 0.97 0.0 0 1 223.93 134.47 L 243.91 169.08 A 0.69 0.69 0.0 0 0 245.10 169.08 L 249.07 162.19 A 1.15 1.13 -81.1 0 1 249.80 161.65 Q 251.77 161.21 253.33 161.79 Z"
/>
<path fill="#173e57" d="M 257.14 164.34 L 253.33 161.79 L 275.73 161.69 A 2.62 2.60 71.7 0 1 277.86 162.77 C 290.18 179.67 302.16 197.62 324.64 200.74 A 0.75 0.75 0.0 0 1 325.29 201.48 L 325.29 203.90 A 0.68 0.66 -4.0 0 1 324.70 204.56 C 304.38 207.35 287.88 203.66 275.08 187.18 Q 269.67 180.22 260.01 167.00 Q 259.21 165.90 257.14 164.34 Z"
/>
<path fill="#173e57" d="M 220.28 274.04 C 221.55 272.71 223.04 270.88 224.81 269.40 Q 232.54 262.97 242.91 264.24 C 253.94 265.58 258.04 274.45 258.04 284.51 Q 258.05 297.55 258.08 315.75 Q 258.09 318.60 259.99 320.27 C 261.03 321.19 262.75 321.33 263.89 321.66 A 1.37 1.36 52.9 0 1 263.52 324.34 L 248.24 324.34 A 1.43 1.43 0.0 0 1 246.81 322.91 Q 246.85 287.80 246.79 285.01 C 246.69 280.66 245.73 275.26 242.02 272.74 C 234.46 267.61 219.93 273.44 219.87 283.18 Q 219.80 294.74 219.89 311.01 C 219.93 316.64 219.46 321.16 225.70 321.62 A 1.21 1.19 2.1 0 1 226.82 322.81 L 226.82 323.22 A 1.03 1.03 0.0 0 1 225.79 324.25 L 203.22 324.27 A 1.16 1.16 0.0 0 1 202.06 323.04 L 202.06 323.00 A 1.50 1.50 0.0 0 1 203.33 321.62 Q 208.28 320.89 208.39 316.43 Q 208.67 305.56 208.61 247.98 C 208.61 243.74 206.87 242.17 202.78 241.94 A 1.21 1.21 0.0 0 1 202.61 239.55 L 219.47 236.07 A 0.32 0.32 0.0 0 1 219.86 236.38 L 219.86 273.87 A 0.24 0.24 0.0 0 0 220.28 274.04 Z"
/>
<path fill="#173e57" d="M 317.73 236.33 Q 317.91 236.58 317.90 237.05 Q 317.62 258.59 317.77 310.75 C 317.79 316.14 317.10 320.56 323.66 321.56 A 1.21 1.21 0.0 0 1 324.70 322.76 L 324.70 323.23 A 1.03 1.03 0.0 0 1 323.67 324.26 L 301.13 324.26 A 0.87 0.86 -90.0 0 1 300.27 323.39 L 300.27 322.44 A 1.02 1.02 0.0 0 1 301.28 321.42 C 307.26 321.37 306.47 314.87 306.49 310.75 Q 306.61 277.43 306.44 251.59 C 306.40 246.50 307.11 242.69 301.53 242.12 Q 301.13 242.08 300.68 241.75 Q 300.19 241.39 300.02 241.05 A 1.31 1.23 -16.6 0 1 301.05 239.28 Q 309.40 238.03 317.12 236.10 Q 317.50 236.01 317.73 236.33 Z"
/>
<circle fill="#173e57" cx="281.61" cy="247.71" r="7.35"/>
<path fill="#173e57" d="M 89.41 284.90 A 0.30 0.30 0.0 0 0 89.93 285.11 Q 101.85 272.87 121.10 252.61 Q 122.94 250.67 123.78 248.86 A 1.53 1.53 0.0 0 0 123.06 246.84 Q 120.66 245.67 118.34 245.59 A 1.07 1.07 0.0 0 1 117.31 244.52 L 117.31 243.88 A 1.07 1.07 0.0 0 1 118.38 242.81 L 139.75 242.81 A 0.92 0.92 0.0 0 1 140.67 243.73 L 140.67 244.78 A 0.97 0.96 -1.2 0 1 139.74 245.74 C 134.84 245.97 131.10 248.72 127.20 252.72 Q 109.24 271.17 108.17 272.17 Q 106.59 273.65 105.63 275.24 A 0.79 0.78 43.5 0 0 105.66 276.09 Q 124.07 302.67 129.68 310.58 C 133.34 315.72 136.34 320.17 142.93 321.75 A 1.31 1.31 0.0 0 1 142.74 324.33 C 130.27 325.49 124.25 323.13 117.35 312.93 Q 109.08 300.69 97.50 283.79 A 0.43 0.42 50.2 0 0 96.85 283.73 L 90.04 290.54 A 1.87 1.84 68.3 0 0 89.50 291.83 Q 89.36 304.35 89.48 315.00 C 89.54 320.00 91.82 320.80 95.85 321.43 A 1.43 1.43 0.0 0 1 95.63 324.27 L 71.42 324.27 A 0.91 0.91 0.0 0 1 70.51 323.36 L 70.51 322.46 A 1.01 1.01 0.0 0 1 71.49 321.45 C 74.40 321.35 77.28 320.36 77.71 316.97 Q 78.14 313.54 78.19 305.50 Q 78.30 289.17 78.10 250.76 C 78.08 246.70 74.50 245.83 71.24 245.51 A 0.94 0.93 3.1 0 1 70.40 244.58 L 70.40 243.78 A 0.89 0.89 0.0 0 1 71.29 242.89 L 96.19 242.89 A 0.98 0.98 0.0 0 1 97.17 243.87 L 97.17 244.51 A 1.15 1.15 0.0 0 1 96.14 245.65 C 92.55 246.00 89.51 247.38 89.50 251.53 Q 89.48 260.54 89.41 284.90 Z"
/>
<path fill="#173e57" d="M 154.50 293.43 C 155.14 306.06 160.07 318.85 174.20 319.54 C 179.74 319.80 186.00 317.88 189.95 313.49 Q 191.91 311.32 192.08 311.14 A 1.65 1.65 0.0 0 1 194.68 313.13 C 187.33 325.26 171.86 329.00 159.00 322.93 Q 146.65 317.11 143.59 303.26 C 141.39 293.33 142.92 282.06 149.33 274.05 C 157.07 264.39 169.92 261.41 181.30 265.89 C 191.37 269.86 196.09 280.96 195.80 291.42 A 1.41 1.41 0.0 0 1 194.39 292.79 L 155.11 292.79 A 0.61 0.61 0.0 0 0 154.50 293.43 Z M 155.24 288.59 L 184.08 288.69 A 0.20 0.20 0.0 0 0 184.28 288.49 L 184.29 287.57 A 19.44 13.86 -89.8 0 0 170.50 268.08 L 168.98 268.08 A 19.44 13.86 -89.8 0 0 155.05 287.47 L 155.04 288.39 A 0.20 0.20 0.0 0 0 155.24 288.59 Z"
/>
<path fill="#173e57" d="M 367.73 316.50 A 0.24 0.24 0.0 0 0 367.30 316.37 Q 360.90 324.87 350.82 325.51 C 341.16 326.12 332.32 322.18 331.17 311.70 C 329.14 293.16 353.81 290.01 366.61 288.47 A 0.99 0.99 0.0 0 0 367.48 287.55 C 367.96 280.24 368.12 269.39 358.45 268.00 C 352.90 267.20 346.73 269.49 345.36 275.32 Q 344.56 278.67 344.10 280.56 A 2.54 2.53 -88.5 0 1 342.13 282.44 Q 339.66 282.94 337.55 281.97 C 332.44 279.60 334.30 273.88 337.56 270.75 C 346.95 261.74 371.18 260.26 377.06 274.15 Q 378.90 278.48 378.88 284.51 Q 378.81 306.20 378.90 313.50 Q 378.94 316.27 379.96 318.37 A 2.04 1.98 -86.1 0 0 380.62 319.15 Q 383.34 321.06 385.92 319.02 A 1.24 1.24 0.0 0 1 387.73 319.34 L 387.88 319.57 A 1.60 1.59 54.0 0 1 387.56 321.64 C 381.00 327.14 368.86 327.54 367.73 316.50 Z M 367.09 291.95 Q 360.17 293.30 353.99 295.25 C 347.69 297.22 342.71 301.21 342.71 308.51 C 342.72 317.02 349.53 321.33 357.40 319.05 C 361.87 317.76 367.26 313.73 367.38 308.57 Q 367.56 300.92 367.63 292.40 A 0.45 0.45 0.0 0 0 367.09 291.95 Z"
/>
<path fill="#173e57" d="M 270.88 324.27 A 0.91 0.90 -0.0 0 1 269.97 323.37 L 269.97 322.74 A 1.21 1.20 89.0 0 1 271.13 321.53 Q 276.45 321.34 276.54 315.24 Q 276.81 297.31 276.45 274.75 C 276.42 272.49 274.87 270.66 272.57 270.26 Q 271.00 269.99 270.33 269.71 A 1.12 1.11 -39.4 0 1 270.54 267.59 L 286.61 264.27 A 1.03 1.02 -5.7 0 1 287.85 265.28 Q 287.64 294.01 287.86 310.52 Q 287.93 315.58 288.26 317.23 C 288.94 320.60 291.14 320.98 293.94 321.61 A 1.35 1.35 0.0 0 1 293.65 324.27 L 270.88 324.27 Z"
/>
<path fill="#fafaf5" d="M 155.24 288.59 A 0.20 0.20 0.0 0 1 155.04 288.39 L 155.05 287.47 A 19.44 13.86 -89.8 0 1 168.98 268.08 L 170.50 268.08 A 19.44 13.86 -89.8 0 1 184.29 287.57 L 184.28 288.49 A 0.20 0.20 0.0 0 1 184.08 288.69 L 155.24 288.59 Z"
/>
<path fill="#fafaf5" d="M 367.09 291.95 A 0.45 0.45 0.0 0 1 367.63 292.40 Q 367.56 300.92 367.38 308.57 C 367.26 313.73 361.87 317.76 357.40 319.05 C 349.53 321.33 342.72 317.02 342.71 308.51 C 342.71 301.21 347.69 297.22 353.99 295.25 Q 360.17 293.30 367.09 291.95 Z"
/>
<path fill="#173e57" d="M 151.41 353.01 Q 149.50 349.69 149.39 349.49 A 0.28 0.28 0.0 0 0 148.87 349.62 L 148.77 359.26 A 0.75 0.75 0.0 0 1 148.01 360.00 L 147.59 360.00 A 0.91 0.91 0.0 0 1 146.69 359.08 L 146.83 346.12 A 1.25 1.25 0.0 0 1 149.11 345.41 Q 149.98 346.65 153.04 352.07 Q 154.88 355.43 154.99 355.63 A 0.28 0.28 0.0 0 0 155.51 355.49 L 155.61 345.85 A 0.75 0.75 0.0 0 1 156.37 345.11 L 156.79 345.12 A 0.91 0.91 0.0 0 1 157.69 346.03 L 157.55 359.00 A 1.25 1.25 0.0 0 1 155.27 359.70 Q 154.40 358.47 151.41 353.01 Z"
/>
<path fill="#173e57" d="M 272.4536 344.7510 A 7.87 6.48 -89.1 0 1 278.8092 352.7218 A 7.87 6.48 -89.1 0 1 272.2064 360.4890 A 7.87 6.48 -89.1 0 1 265.8508 352.5182 A 7.87 6.48 -89.1 0 1 272.4536 344.7510 Z M 272.1461 346.8020 A 5.88 4.34 -91.5 0 0 267.9615 352.7936 A 5.88 4.34 -91.5 0 0 272.4539 358.5580 A 5.88 4.34 -91.5 0 0 276.6385 352.5664 A 5.88 4.34 -91.5 0 0 272.1461 346.8020 Z"
/>
<path fill="#173e57" d="M 325.02 352.78 C 325.09 355.90 326.70 359.00 330.30 358.40 C 331.22 358.24 332.00 357.52 332.77 357.26 A 0.75 0.74 4.5 0 1 333.67 358.31 Q 332.92 359.75 331.19 360.17 C 326.03 361.43 322.93 357.58 322.83 352.82 C 322.73 348.08 325.66 344.09 330.86 345.12 Q 332.61 345.47 333.42 346.88 A 0.75 0.74 -7.0 0 1 332.57 347.96 C 331.79 347.74 330.98 347.05 330.05 346.94 C 326.43 346.49 324.96 349.65 325.02 352.78 Z"
/>
<path fill="#173e57" d="M 69.93 352.80 C 69.82 348.06 72.73 344.09 77.92 345.11 Q 79.66 345.45 80.47 346.85 A 0.74 0.74 0.0 0 1 79.62 347.94 C 78.84 347.71 78.04 347.03 77.12 346.92 C 73.50 346.47 72.04 349.63 72.11 352.74 C 72.19 355.86 73.79 358.94 77.38 358.33 C 78.29 358.18 79.07 357.46 79.84 357.20 A 0.74 0.74 0.0 0 1 80.74 358.24 Q 79.99 359.68 78.27 360.10 C 73.13 361.36 70.04 357.53 69.93 352.80 Z"
/>
<path fill="#173e57" d="M 88.9375 344.7900 A 7.88 6.46 -89.8 0 1 95.3700 352.6925 A 7.88 6.46 -89.8 0 1 88.8825 360.5500 A 7.88 6.46 -89.8 0 1 82.4500 352.6475 A 7.88 6.46 -89.8 0 1 88.9375 344.7900 Z M 88.9600 346.8600 A 5.77 4.20 -90.0 0 0 84.7600 352.6300 A 5.77 4.20 -90.0 0 0 88.9600 358.4000 A 5.77 4.20 -90.0 0 0 93.1600 352.6300 A 5.77 4.20 -90.0 0 0 88.9600 346.8600 Z"
/>
<path fill="#173e57" d="M 100.60 350.83 L 100.60 359.23 A 0.92 0.92 0.0 0 1 99.68 360.15 L 99.40 360.15 A 0.84 0.84 0.0 0 1 98.56 359.31 L 98.56 346.36 A 1.34 1.34 0.0 0 1 101.16 345.88 L 104.58 354.82 A 0.38 0.37 -45.4 0 0 105.28 354.81 L 108.61 345.92 A 1.32 1.32 0.0 0 1 111.17 346.38 L 111.17 359.37 A 0.75 0.75 0.0 0 1 110.42 360.12 L 110.15 360.12 A 0.84 0.83 -90.0 0 1 109.32 359.28 L 109.32 349.57 A 0.16 0.15 -35.1 0 0 109.02 349.52 L 105.69 358.41 A 0.79 0.78 44.9 0 1 104.22 358.41 L 101.28 350.70 A 0.35 0.35 0.0 0 0 100.60 350.83 Z"
/>
<path fill="#173e57" d="M 126.08 350.80 A 0.35 0.35 0.0 0 0 125.39 350.67 L 122.43 358.40 A 0.79 0.79 0.0 0 1 120.96 358.40 L 117.63 349.48 A 0.16 0.15 35.1 0 0 117.33 349.52 L 117.31 359.27 A 0.84 0.83 -89.9 0 1 116.48 360.11 L 116.21 360.11 A 0.75 0.75 0.0 0 1 115.46 359.36 L 115.47 346.32 A 1.33 1.33 0.0 0 1 118.04 345.86 L 121.37 354.79 A 0.38 0.37 45.5 0 0 122.08 354.80 L 125.52 345.83 A 1.35 1.35 0.0 0 1 128.13 346.32 L 128.11 359.32 A 0.84 0.84 0.0 0 1 127.27 360.16 L 126.99 360.16 A 0.92 0.92 0.0 0 1 126.06 359.23 L 126.08 350.80 Z"
/>
<path fill="#173e57" d="M 137.58 360.43 C 133.19 360.45 132.21 357.27 132.19 353.27 Q 132.16 347.99 132.10 346.20 A 1.06 1.06 0.0 0 1 133.16 345.11 L 133.43 345.11 A 0.91 0.91 0.0 0 1 134.34 345.99 Q 134.45 349.76 134.38 353.25 Q 134.27 358.39 137.57 358.37 Q 140.87 358.36 140.72 353.22 Q 140.61 349.73 140.68 345.96 A 0.91 0.91 0.0 0 1 141.58 345.07 L 141.85 345.07 A 1.06 1.06 0.0 0 1 142.92 346.14 Q 142.88 347.93 142.91 353.22 C 142.93 357.21 141.98 360.41 137.58 360.43 Z"
/>
<rect fill="#173e57" x="-1.09" y="-7.61" transform="translate(162.78,352.62) rotate(-0.2)" width="2.18" height="15.22" rx="0.84"/>
<path fill="#173e57" d="M 172.25 345.07 Q 174.49 345.09 176.79 345.11 A 0.97 0.96 -89.7 0 1 177.75 346.08 L 177.75 346.12 A 0.99 0.98 0.9 0 1 176.77 347.06 L 174.18 347.08 A 0.83 0.83 0.0 0 0 173.36 347.89 Q 173.28 351.14 173.43 358.77 Q 173.46 360.15 172.32 360.16 Q 171.14 360.16 171.16 358.78 Q 171.26 351.15 171.16 347.90 A 0.83 0.83 0.0 0 0 170.34 347.09 L 167.75 347.09 A 0.99 0.98 -1.3 0 1 166.76 346.15 L 166.76 346.11 A 0.97 0.96 89.4 0 1 167.71 345.14 Q 170.02 345.10 172.25 345.07 Z"
/>
<path fill="#173e57" d="M 184.03 351.63 Q 184.26 351.63 184.44 351.51 Q 184.59 351.42 184.69 351.18 Q 186.01 348.02 187.22 345.68 A 1.14 1.14 0.0 0 1 188.73 345.18 L 188.97 345.30 A 0.52 0.51 -64.7 0 1 189.21 345.99 L 185.70 353.13 A 3.42 3.32 61.8 0 0 185.36 354.32 Q 185.18 356.06 185.19 359.26 Q 185.19 359.68 184.81 360.02 Q 184.49 360.31 184.01 360.31 Q 183.54 360.31 183.22 360.02 Q 182.84 359.68 182.84 359.26 Q 182.86 356.06 182.69 354.32 A 3.42 3.32 -61.6 0 0 182.35 353.13 L 178.86 345.97 A 0.52 0.51 64.8 0 1 179.10 345.29 L 179.34 345.17 A 1.14 1.14 0.0 0 1 180.85 345.67 Q 182.06 348.01 183.37 351.18 Q 183.47 351.42 183.61 351.51 Q 183.80 351.63 184.03 351.63 Z"
/>
<path fill="#173e57" d="M 209.87 359.24 L 209.87 359.28 A 0.85 0.85 0.0 0 1 209.01 360.14 L 201.97 360.09 A 0.78 0.78 0.0 0 1 201.19 359.31 L 201.19 346.15 A 1.08 1.07 -0.0 0 1 202.27 345.08 L 202.55 345.08 A 0.86 0.85 -0.0 0 1 203.41 345.93 L 203.41 357.60 A 0.75 0.74 -90.0 0 0 204.15 358.35 L 209.05 358.36 A 0.82 0.82 0.0 0 1 209.87 359.24 Z"
/>
<rect fill="#173e57" x="-1.05" y="-7.59" transform="translate(213.63,352.70) rotate(-0.1)" width="2.10" height="15.18" rx="0.92"/>
<path fill="#173e57" d="M 226.33 353.43 Q 224.36 353.84 222.16 353.50 A 0.88 0.88 0.0 0 0 221.14 354.37 L 221.14 359.46 A 0.82 0.82 0.0 0 1 220.13 360.26 L 219.85 360.20 A 1.07 1.07 0.0 0 1 219.02 359.16 L 219.02 346.12 A 0.97 0.97 0.0 0 1 219.99 345.15 L 227.37 345.15 A 0.58 0.58 0.0 0 1 227.93 345.86 L 227.84 346.22 A 1.09 1.08 6.7 0 1 226.78 347.05 L 222.17 347.05 A 1.06 1.05 90.0 0 0 221.12 348.11 L 221.12 350.92 A 1.03 1.02 -2.3 0 0 222.23 351.94 Q 225.08 351.71 226.31 351.92 A 0.77 0.77 0.0 0 1 226.33 353.43 Z"
/>
<path fill="#173e57" d="M 238.54 352.62 Q 238.75 353.92 234.20 353.50 A 1.36 1.35 -87.3 0 0 232.72 354.85 L 232.72 357.00 A 1.27 1.27 0.0 0 0 234.00 358.27 L 238.58 358.22 A 0.93 0.93 0.0 0 1 239.52 359.17 L 239.52 359.22 A 0.91 0.91 0.0 0 1 238.62 360.14 L 231.65 360.17 A 1.05 1.04 -1.3 0 1 230.60 359.18 Q 230.54 357.88 230.53 352.65 Q 230.51 347.43 230.57 346.13 A 1.05 1.04 1.0 0 1 231.61 345.13 L 238.58 345.12 A 0.91 0.91 0.0 0 1 239.48 346.04 L 239.48 346.09 A 0.93 0.93 0.0 0 1 238.55 347.04 L 233.97 347.02 A 1.27 1.27 0.0 0 0 232.70 348.29 L 232.71 350.44 A 1.36 1.35 87.0 0 0 234.19 351.79 Q 238.75 351.34 238.54 352.62 Z"
/>
<path fill="#173e57" d="M 253.23 352.75 C 253.19 347.99 256.17 344.04 261.36 345.13 Q 263.11 345.50 263.90 346.92 A 0.75 0.74 -6.3 0 1 263.04 348.00 C 262.26 347.76 261.46 347.06 260.53 346.94 C 256.91 346.44 255.40 349.60 255.43 352.72 C 255.46 355.85 257.03 358.98 260.64 358.41 C 261.56 358.26 262.35 357.55 263.13 357.30 A 0.75 0.74 5.2 0 1 264.01 358.36 Q 263.25 359.80 261.51 360.20 C 256.33 361.40 253.28 357.50 253.23 352.75 Z"
/>
<path fill="#173e57" d="M 286.39 353.11 Q 284.44 349.79 284.33 349.59 A 0.28 0.28 0.0 0 0 283.81 349.73 L 283.81 359.42 A 0.75 0.75 0.0 0 1 283.06 360.17 L 282.63 360.17 A 0.91 0.91 0.0 0 1 281.72 359.26 L 281.72 346.23 A 1.26 1.26 0.0 0 1 284.00 345.50 Q 284.89 346.73 288.02 352.15 Q 289.90 355.50 290.02 355.70 A 0.28 0.28 0.0 0 0 290.54 355.56 L 290.54 345.87 A 0.75 0.75 0.0 0 1 291.29 345.12 L 291.72 345.12 A 0.91 0.91 0.0 0 1 292.63 346.03 L 292.63 359.06 A 1.26 1.26 0.0 0 1 290.35 359.79 Q 289.46 358.56 286.39 353.11 Z"
/>
<path fill="#173e57" d="M 301.18 353.07 Q 299.26 349.76 299.14 349.56 A 0.28 0.28 0.0 0 0 298.63 349.70 L 298.57 359.33 A 0.75 0.75 0.0 0 1 297.82 360.07 L 297.39 360.07 A 0.90 0.90 0.0 0 1 296.50 359.16 L 296.57 346.20 A 1.25 1.25 0.0 0 1 298.84 345.49 Q 299.72 346.72 302.80 352.12 Q 304.66 355.47 304.77 355.67 A 0.28 0.28 0.0 0 0 305.29 355.53 L 305.34 345.89 A 0.75 0.75 0.0 0 1 306.09 345.15 L 306.52 345.15 A 0.90 0.90 0.0 0 1 307.42 346.06 L 307.35 359.02 A 1.25 1.25 0.0 0 1 305.07 359.74 Q 304.20 358.50 301.18 353.07 Z"
/>
<path fill="#173e57" d="M 311.34 352.61 Q 311.34 347.38 311.40 346.09 A 1.05 1.04 1.1 0 1 312.44 345.09 L 319.41 345.10 A 0.91 0.91 0.0 0 1 320.31 346.01 L 320.31 346.06 A 0.93 0.93 0.0 0 1 319.37 347.02 L 314.79 346.98 A 1.27 1.27 0.0 0 0 313.52 348.26 L 313.53 350.41 A 1.36 1.35 87.1 0 0 315.01 351.75 Q 319.56 351.31 319.35 352.59 Q 319.56 353.90 315.01 353.46 A 1.36 1.35 -87.2 0 0 313.53 354.81 L 313.52 356.96 A 1.27 1.27 0.0 0 0 314.80 358.23 L 319.38 358.19 A 0.93 0.93 0.0 0 1 320.32 359.14 L 320.32 359.19 A 0.91 0.91 0.0 0 1 319.41 360.11 L 312.45 360.13 A 1.05 1.04 -1.2 0 1 311.40 359.13 Q 311.35 357.83 311.34 352.61 Z"
/>
<path fill="#173e57" d="M 340.83 360.30 Q 339.64 360.30 339.66 358.91 Q 339.76 351.22 339.66 347.94 A 0.84 0.84 0.0 0 0 338.82 347.13 L 336.21 347.13 A 1.00 0.99 -1.3 0 1 335.22 346.19 L 335.22 346.15 A 0.98 0.97 89.4 0 1 336.18 345.16 Q 338.50 345.13 340.75 345.09 Q 343.01 345.11 345.33 345.13 A 0.98 0.97 -89.8 0 1 346.29 346.11 L 346.29 346.15 A 1.00 0.99 0.9 0 1 345.31 347.10 L 342.70 347.12 A 0.84 0.84 0.0 0 0 341.87 347.93 Q 341.79 351.21 341.95 358.90 Q 341.97 360.29 340.83 360.30 Z"
/>
<rect fill="#173e57" x="-1.12" y="-7.57" transform="translate(350.26,352.77) rotate(-0.1)" width="2.24" height="15.14" rx="1.09"/>
<path fill="#173e57" d="M 361.2143 344.8248 A 7.86 6.53 -88.0 0 1 367.4660 352.9079 A 7.86 6.53 -88.0 0 1 360.6657 360.5352 A 7.86 6.53 -88.0 0 1 354.4140 352.4521 A 7.86 6.53 -88.0 0 1 361.2143 344.8248 Z M 360.8509 346.9625 A 5.70 4.16 -91.7 0 0 356.8618 352.7834 A 5.70 4.16 -91.7 0 0 361.1891 358.3575 A 5.70 4.16 -91.7 0 0 365.1782 352.5366 A 5.70 4.16 -91.7 0 0 360.8509 346.9625 Z"
/>
<path fill="#173e57" d="M 375.09 353.07 Q 373.16 349.74 373.04 349.54 A 0.28 0.28 0.0 0 0 372.52 349.68 L 372.48 359.37 A 0.75 0.75 0.0 0 1 371.73 360.12 L 371.30 360.11 A 0.91 0.91 0.0 0 1 370.39 359.20 L 370.45 346.17 A 1.26 1.26 0.0 0 1 372.73 345.45 Q 373.61 346.68 376.72 352.12 Q 378.59 355.48 378.71 355.68 A 0.28 0.28 0.0 0 0 379.23 355.54 L 379.27 345.85 A 0.75 0.75 0.0 0 1 380.02 345.10 L 380.45 345.10 A 0.91 0.91 0.0 0 1 381.36 346.02 L 381.30 359.04 A 1.26 1.26 0.0 0 1 379.02 359.77 Q 378.14 358.53 375.09 353.07 Z"
/>
<ellipse fill="#fafaf5" cx="0.00" cy="0.00" transform="translate(272.30,352.68) rotate(-91.5)" rx="5.88" ry="4.34"/>
<ellipse fill="#fafaf5" cx="0.00" cy="0.00" transform="translate(88.96,352.63) rotate(-90.0)" rx="5.77" ry="4.20"/>
<ellipse fill="#fafaf5" cx="0.00" cy="0.00" transform="translate(361.02,352.66) rotate(-91.7)" rx="5.70" ry="4.16"/>
<circle fill="#173e57" cx="243.84" cy="358.83" r="1.45"/>
<circle fill="#173e57" cx="386.50" cy="358.91" r="1.46"/>
<circle fill="#173e57" cx="191.23" cy="358.87" r="1.42"/>
</svg>
