<svg xmlns="http://www.w3.org/2000/svg" viewBox="1278.08 1113.18 226.89 235.25">
  <g fill="none" stroke-width="2.00" stroke-linecap="butt">
  <path stroke="#dec393" vector-effect="non-scaling-stroke" d="M 1391.43 1133.49 Q 1390.92 1132.87 1388.26 1130.73 C 1376.38 1121.18 1360.68 1128.74 1358.59 1143.22 Q 1357.00 1154.20 1365.58 1163.04 Q 1376.85 1174.66 1387.52 1185.33 Q 1389.63 1187.45 1391.37 1188.66 Q 1393.13 1189.89 1394.76 1188.28 Q 1409.13 1174.15 1419.42 1162.70 C 1428.05 1153.10 1429.00 1138.65 1418.54 1130.40 C 1411.70 1125.01 1401.56 1125.81 1395.14 1131.36 Q 1393.43 1132.84 1392.49 1133.60 A 0.76 0.75 50.7 0 1 1391.43 1133.49"
/>
  <path stroke="#8a8f9e" vector-effect="non-scaling-stroke" d="M 1347.13 1260.95 C 1341.62 1255.71 1338.85 1251.06 1333.55 1242.70 Q 1328.55 1234.80 1319.13 1236.46 A 0.73 0.73 0.0 0 1 1318.28 1235.79 C 1317.66 1224.30 1317.96 1212.04 1315.92 1200.40 C 1315.06 1195.47 1314.73 1191.13 1313.20 1187.57 C 1311.57 1183.77 1308.41 1179.51 1304.20 1178.96 Q 1289.67 1177.05 1288.21 1191.50 Q 1287.73 1196.27 1287.60 1209.16 C 1287.43 1225.70 1286.08 1245.18 1286.24 1259.25 C 1286.27 1262.57 1288.32 1266.98 1288.91 1270.96 Q 1290.30 1280.20 1296.81 1290.21 Q 1299.77 1294.77 1310.98 1312.29 Q 1315.98 1320.12 1317.75 1324.75 C 1319.82 1330.17 1319.61 1333.83 1319.00 1339.55 A 0.71 0.70 -87.1 0 0 1319.70 1340.33 L 1323.49 1340.33 A 0.84 0.83 5.4 0 0 1324.31 1339.66 C 1326.36 1329.77 1323.14 1321.48 1318.24 1313.25 C 1312.24 1303.21 1305.11 1293.41 1298.61 1282.20 C 1297.31 1279.95 1295.88 1276.25 1295.50 1274.46 Q 1294.06 1267.54 1292.81 1262.49 Q 1292.07 1259.48 1292.11 1258.19 Q 1293.16 1222.51 1293.46 1197.77 C 1293.53 1192.22 1293.04 1184.45 1300.88 1184.21 Q 1307.01 1184.02 1308.40 1190.83 Q 1310.45 1200.92 1311.32 1209.50 Q 1311.81 1214.33 1311.98 1234.83 C 1311.99 1236.27 1312.33 1237.48 1312.42 1238.50 A 1.54 1.53 63.0 0 1 1312.07 1239.58 Q 1308.80 1243.45 1309.38 1248.04 C 1311.31 1263.26 1317.75 1276.64 1326.63 1289.96 A 3.33 3.32 -29.8 0 0 1330.86 1291.10 L 1331.03 1291.01 A 2.55 2.55 0.0 0 0 1331.99 1287.25 C 1324.19 1276.22 1316.93 1262.42 1315.16 1249.18 C 1314.79 1246.41 1315.25 1244.92 1317.25 1243.18 C 1321.45 1239.52 1326.88 1241.97 1329.38 1246.17 Q 1332.32 1251.10 1334.38 1254.10 C 1338.11 1259.51 1343.47 1264.84 1347.17 1269.51 C 1350.68 1273.95 1356.13 1277.62 1359.63 1281.87 Q 1363.67 1286.77 1365.16 1290.12 C 1371.90 1305.28 1371.36 1323.37 1368.37 1339.25 A 1.00 1.00 0.0 0 0 1369.35 1340.43 L 1372.38 1340.43 A 1.49 1.48 5.4 0 0 1373.84 1339.23 Q 1377.72 1319.54 1374.02 1300.12 C 1372.81 1293.75 1370.02 1286.37 1366.34 1281.65 Q 1361.76 1275.78 1355.42 1270.27 A 0.40 0.40 0.0 0 1 1355.59 1269.58 Q 1356.46 1269.37 1357.50 1269.36 Q 1425.43 1269.29 1425.75 1269.29 Q 1427.62 1269.31 1428.73 1269.79 A 0.34 0.33 38.2 0 1 1428.80 1270.36 Q 1423.89 1274.27 1419.39 1279.66 C 1412.51 1287.91 1409.09 1300.22 1408.64 1310.94 Q 1408.03 1325.51 1410.26 1338.92 A 1.60 1.60 0.0 0 0 1411.84 1340.26 L 1415.08 1340.26 A 1.14 1.14 0.0 0 0 1416.20 1338.88 Q 1412.85 1323.31 1414.58 1306.80 C 1416.01 1293.10 1421.52 1283.51 1431.70 1275.22 Q 1434.07 1273.30 1437.33 1269.34 Q 1439.02 1267.30 1446.32 1258.82 Q 1448.10 1256.75 1452.54 1248.50 Q 1455.04 1243.85 1456.74 1242.69 C 1460.62 1240.02 1468.14 1240.42 1468.28 1246.84 Q 1468.37 1250.98 1466.81 1256.82 Q 1462.74 1272.10 1451.86 1287.30 A 2.53 2.52 -58.9 0 0 1452.78 1291.02 L 1452.92 1291.09 A 3.40 3.39 -59.3 0 0 1457.23 1289.99 C 1464.72 1279.12 1470.14 1267.94 1472.63 1255.36 C 1473.69 1249.96 1475.00 1244.60 1472.90 1239.82 A 2.70 2.68 33.0 0 1 1472.66 1238.71 C 1472.57 1223.17 1473.00 1206.93 1476.10 1191.58 C 1476.93 1187.46 1479.27 1184.12 1483.83 1184.28 C 1489.86 1184.50 1490.64 1189.71 1490.73 1195.16 Q 1491.26 1225.49 1490.90 1259.94 A 10.44 10.15 -39.2 0 1 1490.65 1262.10 Q 1489.83 1265.75 1488.51 1272.53 Q 1487.02 1280.18 1482.22 1287.98 Q 1475.29 1299.23 1467.97 1310.72 C 1461.80 1320.43 1458.43 1327.97 1458.67 1339.11 A 1.24 1.24 0.0 0 0 1459.91 1340.32 L 1463.24 1340.32 A 1.19 1.18 1.3 0 0 1464.43 1339.19 L 1464.87 1330.04 A 7.61 7.53 -32.3 0 1 1465.49 1327.35 Q 1468.98 1319.38 1475.25 1309.74 Q 1484.93 1294.88 1489.20 1286.71 C 1493.18 1279.09 1494.20 1273.12 1496.04 1264.13 Q 1496.97 1259.58 1496.85 1253.32 Q 1496.71 1246.59 1496.43 1193.66 C 1496.40 1188.27 1493.14 1179.96 1486.76 1178.92 Q 1478.90 1177.64 1474.20 1182.63 Q 1471.11 1185.91 1469.66 1194.78 C 1467.46 1208.28 1466.70 1223.29 1467.15 1236.21 A 0.48 0.48 0.0 0 1 1466.59 1236.70 Q 1464.15 1236.29 1463.78 1236.23 C 1453.11 1234.54 1448.64 1242.37 1445.21 1250.70 A 1.69 1.56 -16.1 0 1 1445.07 1250.93 L 1437.72 1260.62 A 0.48 0.48 0.0 0 1 1436.89 1260.47 Q 1436.74 1259.96 1436.79 1258.99 Q 1438.01 1237.02 1437.44 1213.16 A 1.22 1.22 0.0 0 1 1438.61 1211.91 C 1443.67 1211.68 1443.15 1207.95 1440.99 1204.54 Q 1439.78 1202.63 1437.57 1198.35 C 1436.67 1196.59 1435.59 1194.43 1433.49 1194.43 Q 1397.94 1194.33 1353.75 1194.48 C 1350.02 1194.50 1348.79 1194.12 1346.85 1197.61 Q 1345.65 1199.78 1342.59 1206.11 C 1340.85 1209.70 1342.87 1212.43 1346.63 1212.11 A 0.84 0.83 -2.5 0 1 1347.54 1212.94 L 1347.54 1260.77 A 0.24 0.24 0.0 0 1 1347.13 1260.95"
/>
  <path stroke="#dec393" vector-effect="non-scaling-stroke" d="M 1392.41 1181.64 Q 1393.19 1181.64 1394.27 1180.51 Q 1401.10 1173.33 1412.73 1161.25 C 1417.25 1156.56 1420.32 1152.03 1420.22 1145.80 Q 1420.12 1139.21 1416.43 1136.00 C 1409.84 1130.26 1402.67 1131.69 1396.92 1137.49 Q 1394.64 1139.80 1392.99 1141.73 Q 1392.76 1142.00 1392.28 1142.00 Q 1391.79 1142.00 1391.56 1141.73 Q 1389.90 1139.82 1387.60 1137.52 C 1381.82 1131.76 1374.64 1130.38 1368.08 1136.16 Q 1364.42 1139.39 1364.36 1145.98 C 1364.30 1152.21 1367.40 1156.72 1371.95 1161.38 Q 1383.66 1173.39 1390.54 1180.52 Q 1391.62 1181.65 1392.41 1181.64"
/>
  <path stroke="#8a8f9e" vector-effect="non-scaling-stroke" d="M 1432.66 1200.08 A 0.34 0.34 0.0 0 0 1432.36 1199.91 L 1351.79 1199.91 A 0.34 0.34 0.0 0 0 1351.49 1200.09 L 1348.12 1206.26 A 0.34 0.34 0.0 0 0 1348.42 1206.76 L 1435.92 1206.76 A 0.34 0.34 0.0 0 0 1436.22 1206.25 L 1432.66 1200.08"
/>
  <path stroke="#8a8f9e" vector-effect="non-scaling-stroke" d="M 1431.90 1212.47 A 0.43 0.43 0.0 0 0 1431.47 1212.04 L 1353.47 1212.04 A 0.43 0.43 0.0 0 0 1353.04 1212.47 L 1353.04 1263.43 A 0.43 0.43 0.0 0 0 1353.47 1263.86 L 1431.47 1263.86 A 0.43 0.43 0.0 0 0 1431.90 1263.43 L 1431.90 1212.47"
/>
  <path stroke="#dec393" vector-effect="non-scaling-stroke" d="M 1395.1515 1220.8747 A 2.32 2.32 0.0 0 0 1392.8356 1218.5507 L 1392.0956 1218.5494 A 2.32 2.32 0.0 0 0 1389.7715 1220.8653 L 1389.7085 1256.9853 A 2.32 2.32 0.0 0 0 1392.0244 1259.3093 L 1392.7644 1259.3106 A 2.32 2.32 0.0 0 0 1395.0885 1256.9947 L 1395.1515 1220.8747"
/>
  <path fill="#be882c" d="M 1392.49 1133.60 Q 1393.43 1132.84 1395.14 1131.36 C 1401.56 1125.81 1411.70 1125.01 1418.54 1130.40 C 1429.00 1138.65 1428.05 1153.10 1419.42 1162.70 Q 1409.13 1174.15 1394.76 1188.28 Q 1393.13 1189.89 1391.37 1188.66 Q 1389.63 1187.45 1387.52 1185.33 Q 1376.85 1174.66 1365.58 1163.04 Q 1357.00 1154.20 1358.59 1143.22 C 1360.68 1128.74 1376.38 1121.18 1388.26 1130.73 Q 1390.92 1132.87 1391.43 1133.49 A 0.76 0.75 50.7 0 0 1392.49 1133.60 Z M 1392.41 1181.64 Q 1393.19 1181.64 1394.27 1180.51 Q 1401.10 1173.33 1412.73 1161.25 C 1417.25 1156.56 1420.32 1152.03 1420.22 1145.80 Q 1420.12 1139.21 1416.43 1136.00 C 1409.84 1130.26 1402.67 1131.69 1396.92 1137.49 Q 1394.64 1139.80 1392.99 1141.73 Q 1392.76 1142.00 1392.28 1142.00 Q 1391.79 1142.00 1391.56 1141.73 Q 1389.90 1139.82 1387.60 1137.52 C 1381.82 1131.76 1374.64 1130.38 1368.08 1136.16 Q 1364.42 1139.39 1364.36 1145.98 C 1364.30 1152.21 1367.40 1156.72 1371.95 1161.38 Q 1383.66 1173.39 1390.54 1180.52 Q 1391.62 1181.65 1392.41 1181.64 Z"
/>
  <path fill="#fefdf9" d="M 1392.28 1142.00 Q 1392.76 1142.00 1392.99 1141.73 Q 1394.64 1139.80 1396.92 1137.49 C 1402.67 1131.69 1409.84 1130.26 1416.43 1136.00 Q 1420.12 1139.21 1420.22 1145.80 C 1420.32 1152.03 1417.25 1156.56 1412.73 1161.25 Q 1401.10 1173.33 1394.27 1180.51 Q 1393.19 1181.64 1392.41 1181.64 Q 1391.62 1181.65 1390.54 1180.52 Q 1383.66 1173.39 1371.95 1161.38 C 1367.40 1156.72 1364.30 1152.21 1364.36 1145.98 Q 1364.42 1139.39 1368.08 1136.16 C 1374.64 1130.38 1381.82 1131.76 1387.60 1137.52 Q 1389.90 1139.82 1391.56 1141.73 Q 1391.79 1142.00 1392.28 1142.00 Z"
/>
  <path fill="#152142" d="M 1347.13 1260.95 A 0.24 0.24 0.0 0 0 1347.54 1260.77 L 1347.54 1212.94 A 0.84 0.83 -2.5 0 0 1346.63 1212.11 C 1342.87 1212.43 1340.85 1209.70 1342.59 1206.11 Q 1345.65 1199.78 1346.85 1197.61 C 1348.79 1194.12 1350.02 1194.50 1353.75 1194.48 Q 1397.94 1194.33 1433.49 1194.43 C 1435.59 1194.43 1436.67 1196.59 1437.57 1198.35 Q 1439.78 1202.63 1440.99 1204.54 C 1443.15 1207.95 1443.67 1211.68 1438.61 1211.91 A 1.22 1.22 0.0 0 0 1437.44 1213.16 Q 1438.01 1237.02 1436.79 1258.99 Q 1436.74 1259.96 1436.89 1260.47 A 0.48 0.48 0.0 0 0 1437.72 1260.62 L 1445.07 1250.93 A 1.69 1.56 -16.1 0 0 1445.21 1250.70 C 1448.64 1242.37 1453.11 1234.54 1463.78 1236.23 Q 1464.15 1236.29 1466.59 1236.70 A 0.48 0.48 0.0 0 0 1467.15 1236.21 C 1466.70 1223.29 1467.46 1208.28 1469.66 1194.78 Q 1471.11 1185.91 1474.20 1182.63 Q 1478.90 1177.64 1486.76 1178.92 C 1493.14 1179.96 1496.40 1188.27 1496.43 1193.66 Q 1496.71 1246.59 1496.85 1253.32 Q 1496.97 1259.58 1496.04 1264.13 C 1494.20 1273.12 1493.18 1279.09 1489.20 1286.71 Q 1484.93 1294.88 1475.25 1309.74 Q 1468.98 1319.38 1465.49 1327.35 A 7.61 7.53 -32.3 0 0 1464.87 1330.04 L 1464.43 1339.19 A 1.19 1.18 1.3 0 1 1463.24 1340.32 L 1459.91 1340.32 A 1.24 1.24 0.0 0 1 1458.67 1339.11 C 1458.43 1327.97 1461.80 1320.43 1467.97 1310.72 Q 1475.29 1299.23 1482.22 1287.98 Q 1487.02 1280.18 1488.51 1272.53 Q 1489.83 1265.75 1490.65 1262.10 A 10.44 10.15 -39.2 0 0 1490.90 1259.94 Q 1491.26 1225.49 1490.73 1195.16 C 1490.64 1189.71 1489.86 1184.50 1483.83 1184.28 C 1479.27 1184.12 1476.93 1187.46 1476.10 1191.58 C 1473.00 1206.93 1472.57 1223.17 1472.66 1238.71 A 2.70 2.68 33.0 0 0 1472.90 1239.82 C 1475.00 1244.60 1473.69 1249.96 1472.63 1255.36 C 1470.14 1267.94 1464.72 1279.12 1457.23 1289.99 A 3.40 3.39 -59.3 0 1 1452.92 1291.09 L 1452.78 1291.02 A 2.53 2.52 -58.9 0 1 1451.86 1287.30 Q 1462.74 1272.10 1466.81 1256.82 Q 1468.37 1250.98 1468.28 1246.84 C 1468.14 1240.42 1460.62 1240.02 1456.74 1242.69 Q 1455.04 1243.85 1452.54 1248.50 Q 1448.10 1256.75 1446.32 1258.82 Q 1439.02 1267.30 1437.33 1269.34 Q 1434.07 1273.30 1431.70 1275.22 C 1421.52 1283.51 1416.01 1293.10 1414.58 1306.80 Q 1412.85 1323.31 1416.20 1338.88 A 1.14 1.14 0.0 0 1 1415.08 1340.26 L 1411.84 1340.26 A 1.60 1.60 0.0 0 1 1410.26 1338.92 Q 1408.03 1325.51 1408.64 1310.94 C 1409.09 1300.22 1412.51 1287.91 1419.39 1279.66 Q 1423.89 1274.27 1428.80 1270.36 A 0.34 0.33 38.2 0 0 1428.73 1269.79 Q 1427.62 1269.31 1425.75 1269.29 Q 1425.43 1269.29 1357.50 1269.36 Q 1356.46 1269.37 1355.59 1269.58 A 0.40 0.40 0.0 0 0 1355.42 1270.27 Q 1361.76 1275.78 1366.34 1281.65 C 1370.02 1286.37 1372.81 1293.75 1374.02 1300.12 Q 1377.72 1319.54 1373.84 1339.23 A 1.49 1.48 5.4 0 1 1372.38 1340.43 L 1369.35 1340.43 A 1.00 1.00 0.0 0 1 1368.37 1339.25 C 1371.36 1323.37 1371.90 1305.28 1365.16 1290.12 Q 1363.67 1286.77 1359.63 1281.87 C 1356.13 1277.62 1350.68 1273.95 1347.17 1269.51 C 1343.47 1264.84 1338.11 1259.51 1334.38 1254.10 Q 1332.32 1251.10 1329.38 1246.17 C 1326.88 1241.97 1321.45 1239.52 1317.25 1243.18 C 1315.25 1244.92 1314.79 1246.41 1315.16 1249.18 C 1316.93 1262.42 1324.19 1276.22 1331.99 1287.25 A 2.55 2.55 0.0 0 1 1331.03 1291.01 L 1330.86 1291.10 A 3.33 3.32 -29.8 0 1 1326.63 1289.96 C 1317.75 1276.64 1311.31 1263.26 1309.38 1248.04 Q 1308.80 1243.45 1312.07 1239.58 A 1.54 1.53 63.0 0 0 1312.42 1238.50 C 1312.33 1237.48 1311.99 1236.27 1311.98 1234.83 Q 1311.81 1214.33 1311.32 1209.50 Q 1310.45 1200.92 1308.40 1190.83 Q 1307.01 1184.02 1300.88 1184.21 C 1293.04 1184.45 1293.53 1192.22 1293.46 1197.77 Q 1293.16 1222.51 1292.11 1258.19 Q 1292.07 1259.48 1292.81 1262.49 Q 1294.06 1267.54 1295.50 1274.46 C 1295.88 1276.25 1297.31 1279.95 1298.61 1282.20 C 1305.11 1293.41 1312.24 1303.21 1318.24 1313.25 C 1323.14 1321.48 1326.36 1329.77 1324.31 1339.66 A 0.84 0.83 5.4 0 1 1323.49 1340.33 L 1319.70 1340.33 A 0.71 0.70 -87.1 0 1 1319.00 1339.55 C 1319.61 1333.83 1319.82 1330.17 1317.75 1324.75 Q 1315.98 1320.12 1310.98 1312.29 Q 1299.77 1294.77 1296.81 1290.21 Q 1290.30 1280.20 1288.91 1270.96 C 1288.32 1266.98 1286.27 1262.57 1286.24 1259.25 C 1286.08 1245.18 1287.43 1225.70 1287.60 1209.16 Q 1287.73 1196.27 1288.21 1191.50 Q 1289.67 1177.05 1304.20 1178.96 C 1308.41 1179.51 1311.57 1183.77 1313.20 1187.57 C 1314.73 1191.13 1315.06 1195.47 1315.92 1200.40 C 1317.96 1212.04 1317.66 1224.30 1318.28 1235.79 A 0.73 0.73 0.0 0 0 1319.13 1236.46 Q 1328.55 1234.80 1333.55 1242.70 C 1338.85 1251.06 1341.62 1255.71 1347.13 1260.95 Z M 1432.66 1200.08 A 0.34 0.34 0.0 0 0 1432.36 1199.91 L 1351.79 1199.91 A 0.34 0.34 0.0 0 0 1351.49 1200.09 L 1348.12 1206.26 A 0.34 0.34 0.0 0 0 1348.42 1206.76 L 1435.92 1206.76 A 0.34 0.34 0.0 0 0 1436.22 1206.25 L 1432.66 1200.08 Z M 1431.90 1212.47 A 0.43 0.43 0.0 0 0 1431.47 1212.04 L 1353.47 1212.04 A 0.43 0.43 0.0 0 0 1353.04 1212.47 L 1353.04 1263.43 A 0.43 0.43 0.0 0 0 1353.47 1263.86 L 1431.47 1263.86 A 0.43 0.43 0.0 0 0 1431.90 1263.43 L 1431.90 1212.47 Z"
/>
  <path fill="#fefdf9" d="M 1432.66 1200.08 L 1436.22 1206.25 A 0.34 0.34 0.0 0 1 1435.92 1206.76 L 1348.42 1206.76 A 0.34 0.34 0.0 0 1 1348.12 1206.26 L 1351.49 1200.09 A 0.34 0.34 0.0 0 1 1351.79 1199.91 L 1432.36 1199.91 A 0.34 0.34 0.0 0 1 1432.66 1200.08 Z"
/>
  <path fill="#fefdf9" d="M 1431.90 1263.43 A 0.43 0.43 0.0 0 1 1431.47 1263.86 L 1353.47 1263.86 A 0.43 0.43 0.0 0 1 1353.04 1263.43 L 1353.04 1212.47 A 0.43 0.43 0.0 0 1 1353.47 1212.04 L 1431.47 1212.04 A 0.43 0.43 0.0 0 1 1431.90 1212.47 L 1431.90 1263.43 Z M 1395.1515 1220.8747 A 2.32 2.32 0.0 0 0 1392.8356 1218.5507 L 1392.0956 1218.5494 A 2.32 2.32 0.0 0 0 1389.7715 1220.8653 L 1389.7085 1256.9853 A 2.32 2.32 0.0 0 0 1392.0244 1259.3093 L 1392.7644 1259.3106 A 2.32 2.32 0.0 0 0 1395.0885 1256.9947 L 1395.1515 1220.8747 Z"
/>
  </g>
</svg>
