<svg xmlns="http://www.w3.org/2000/svg" viewBox="108.78 656.97 224.46 232.33">
  <g fill="none" stroke-width="2.00" stroke-linecap="butt">
  <path stroke="#8a8f9e" vector-effect="non-scaling-stroke" d="M 319.90 774.13 A 3.28 3.24 -36.3 0 1 320.29 771.68 C 322.84 767.51 323.99 763.09 322.90 758.34 C 322.10 754.82 318.81 750.90 316.73 747.70 A 4.29 4.29 0.0 0 1 316.13 744.56 C 317.38 738.17 318.11 732.21 313.40 727.23 C 310.68 724.35 306.17 723.19 305.27 718.98 C 304.81 716.83 304.91 713.67 304.28 711.54 Q 302.47 705.43 296.35 702.12 C 294.62 701.18 288.76 699.99 287.52 696.96 C 284.75 690.15 282.61 684.95 275.45 683.08 C 272.76 682.37 269.70 682.59 266.64 682.57 A 4.64 4.63 69.7 0 1 263.15 680.96 C 261.48 679.03 259.98 676.48 258.17 674.85 Q 252.71 669.93 244.72 670.96 C 242.81 671.20 237.12 673.97 234.30 671.93 C 228.12 667.44 225.01 664.97 217.51 666.48 C 214.64 667.05 211.45 669.95 208.96 671.85 A 3.95 3.93 -58.8 0 1 205.92 672.61 Q 203.72 672.24 201.20 671.61 C 193.18 669.63 186.74 672.28 182.39 679.68 Q 180.96 682.12 178.96 682.20 C 170.45 682.57 163.37 682.61 159.01 691.03 Q 157.80 693.35 156.18 697.13 A 4.88 4.87 1.3 0 1 153.42 699.76 Q 152.83 699.98 149.59 700.99 C 141.68 703.45 137.95 709.68 137.72 717.76 C 137.56 723.40 130.01 725.26 127.20 729.86 C 124.25 734.68 124.83 739.60 125.99 745.01 A 5.21 5.20 -33.9 0 1 125.19 749.05 Q 123.72 751.20 122.11 753.35 C 118.53 758.17 118.31 763.53 120.84 768.99 Q 121.90 771.26 122.29 772.58 A 3.11 3.11 0.0 0 1 121.94 775.14 Q 116.78 783.22 120.35 791.67 C 122.09 795.79 126.91 798.18 126.81 803.01 C 126.72 808.13 125.05 815.01 129.22 818.97 Q 132.35 821.94 134.79 824.30 C 136.83 826.28 137.06 829.86 137.75 833.50 C 138.63 838.10 141.35 841.69 145.67 843.50 C 148.86 844.84 154.70 846.85 155.72 849.07 C 158.52 855.13 161.78 861.47 167.90 864.36 C 172.53 866.55 175.99 864.50 180.03 865.96 A 3.62 3.52 -10.4 0 1 181.52 866.96 C 186.16 872.25 190.02 877.24 197.39 877.03 C 201.26 876.91 206.83 873.06 210.32 875.44 C 215.62 879.06 218.90 881.30 224.65 880.14 C 229.85 879.10 233.07 872.77 238.70 874.95 C 246.06 877.79 251.83 877.79 257.56 872.00 Q 261.25 868.26 263.41 866.02 A 2.95 2.93 -64.8 0 1 265.83 865.14 Q 268.86 865.45 271.62 865.37 C 279.08 865.14 283.47 857.22 286.19 850.94 C 288.06 846.63 291.53 845.90 296.06 843.80 C 303.65 840.30 304.55 834.01 306.35 826.70 A 6.16 6.15 78.0 0 1 308.54 823.32 C 315.32 818.05 317.02 814.81 315.79 806.02 C 315.28 802.40 316.67 799.68 319.74 796.32 Q 325.24 790.29 322.87 780.95 C 322.23 778.40 320.33 775.90 319.90 774.13"
/>
  <path stroke="#8a8f9e" vector-effect="non-scaling-stroke" d="M 317.89 759.35 C 314.54 754.11 309.62 749.20 310.82 742.40 C 311.30 739.67 312.37 737.09 311.62 734.69 Q 310.69 731.75 309.38 730.82 C 305.81 728.28 300.68 725.54 300.20 720.76 Q 299.61 714.94 299.49 714.03 C 298.85 709.03 293.39 706.28 288.78 705.30 Q 286.20 704.75 283.19 701.20 A 3.27 3.26 -74.9 0 1 282.60 700.17 C 280.50 694.22 279.35 688.80 272.97 688.27 Q 272.13 688.20 266.82 688.13 C 261.27 688.06 258.38 684.06 255.29 679.60 A 4.32 4.29 1.7 0 0 254.35 678.61 Q 250.49 675.66 245.28 676.38 A 3.57 3.21 -56.2 0 0 244.61 676.55 C 240.01 678.27 236.46 679.87 232.32 677.12 C 229.06 674.95 225.98 671.12 220.91 671.40 C 217.31 671.59 215.20 673.48 212.04 676.33 C 209.82 678.33 205.87 678.98 202.79 677.92 C 196.75 675.84 191.88 675.00 187.96 681.04 C 185.64 684.62 182.81 687.87 178.48 687.95 C 172.49 688.07 168.70 687.50 165.02 691.72 C 163.18 693.82 162.32 698.14 160.88 700.38 C 156.34 707.38 147.65 704.39 143.89 712.53 C 141.90 716.83 143.73 722.64 139.84 726.13 Q 137.69 728.05 134.43 730.44 C 126.77 736.04 132.39 740.95 131.63 747.18 C 131.20 750.77 128.39 754.11 126.06 757.03 C 122.78 761.16 125.02 764.32 127.12 769.40 Q 128.20 772.04 127.21 776.14 A 2.96 2.91 66.3 0 1 126.93 776.88 Q 124.71 781.08 124.37 782.81 C 123.27 788.31 126.20 790.80 129.97 794.95 C 132.38 797.59 132.53 805.22 132.11 808.48 Q 131.62 812.27 132.27 813.54 C 134.12 817.20 137.58 818.17 139.67 821.01 C 143.82 826.68 140.07 835.85 148.50 838.78 C 151.24 839.74 154.52 840.34 156.39 841.97 C 161.18 846.11 162.67 852.18 166.37 856.63 C 169.89 860.86 173.35 860.58 178.42 859.96 A 3.50 3.47 51.0 0 1 180.06 860.14 Q 184.48 861.71 186.14 863.75 C 190.09 868.63 193.54 873.80 200.01 871.01 C 203.61 869.46 207.19 867.79 210.83 869.49 C 215.55 871.69 217.99 876.11 224.02 874.54 C 226.29 873.95 230.14 870.65 232.26 869.46 A 3.81 3.66 -63.7 0 1 233.40 869.05 Q 237.04 868.41 238.56 868.95 C 243.38 870.65 247.97 873.89 252.88 869.12 Q 255.33 866.74 256.67 864.89 C 260.77 859.27 265.20 859.82 271.44 860.08 C 274.33 860.20 277.43 856.22 278.72 853.99 C 280.06 851.68 281.76 847.12 284.21 844.39 Q 286.52 841.82 287.46 841.42 C 293.23 838.97 297.70 838.32 299.48 831.68 Q 300.92 826.32 301.83 822.95 A 4.25 3.81 -26.6 0 1 302.18 822.06 C 303.67 819.24 306.18 818.05 308.43 816.18 Q 311.06 813.99 310.99 811.96 C 310.83 807.64 309.59 800.91 312.61 795.71 A 3.32 3.13 83.1 0 1 313.03 795.14 L 316.97 790.86 A 1.57 1.35 -79.9 0 0 317.10 790.69 C 320.60 784.98 316.56 781.14 314.86 775.75 A 7.64 7.64 0.0 0 1 315.08 770.53 C 316.84 766.27 318.47 763.62 318.20 760.27 A 2.00 1.99 -63.9 0 0 317.89 759.35"
/>
  <path stroke="#dec393" vector-effect="non-scaling-stroke" d="M 224.9109 689.7397 A 83.70 82.33 -87.5 0 0 139.0084 769.7688 A 83.70 82.33 -87.5 0 0 217.6091 856.9803 A 83.70 82.33 -87.5 0 0 303.5116 776.9512 A 83.70 82.33 -87.5 0 0 224.9109 689.7397"
/>
  <path stroke="#dec393" vector-effect="non-scaling-stroke" d="M 224.3444 694.7333 A 78.60 77.22 -87.7 0 0 144.0322 770.1710 A 78.60 77.22 -87.7 0 0 218.0356 851.8067 A 78.60 77.22 -87.7 0 0 298.3478 776.3690 A 78.60 77.22 -87.7 0 0 224.3444 694.7333"
/>
  <path stroke="#8a8f9e" vector-effect="non-scaling-stroke" d="M 217.84 755.98 Q 217.94 767.57 216.46 777.20 A 3.16 3.16 0.0 0 1 213.63 779.87 L 210.31 780.17 A 1.02 1.01 -5.1 0 1 209.20 779.25 L 207.05 755.68 A 0.44 0.44 0.0 0 0 206.61 755.28 L 201.84 755.28 A 0.65 0.65 0.0 0 0 201.19 755.96 Q 201.64 767.15 202.89 779.42 Q 203.77 788.01 206.80 796.23 A 2.26 2.24 -5.9 0 0 208.60 797.68 C 219.65 799.21 232.50 799.77 237.73 788.15 Q 239.86 783.43 240.11 780.35 Q 241.18 767.46 241.19 755.92 A 0.50 0.49 0.0 0 0 240.69 755.43 L 235.20 755.43 A 0.37 0.36 -0.0 0 0 234.83 755.79 Q 234.71 764.15 234.33 773.00 C 233.98 781.36 233.14 790.26 223.25 791.91 Q 218.89 792.64 212.04 792.07 A 0.40 0.39 88.1 0 1 211.69 791.74 L 210.58 784.41 A 0.07 0.07 0.0 0 1 210.65 784.33 C 216.76 784.86 221.80 783.36 222.82 776.54 Q 224.40 765.96 224.22 755.99 A 0.62 0.61 -0.5 0 0 223.60 755.39 L 218.43 755.39 A 0.59 0.59 0.0 0 0 217.84 755.98"
/>
  <path stroke="#8a8f9e" vector-effect="non-scaling-stroke" d="M 166.09 762.32 Q 170.87 762.29 176.74 762.14 C 183.67 761.97 186.49 764.13 186.57 771.01 Q 186.66 779.62 186.55 797.71 A 0.60 0.60 0.0 0 0 187.15 798.31 L 192.40 798.31 A 0.64 0.64 0.0 0 0 193.04 797.67 Q 193.13 775.78 193.12 773.50 Q 193.07 766.68 192.17 764.12 Q 189.17 755.61 179.20 755.52 Q 173.65 755.47 166.08 755.91 A 0.66 0.66 0.0 0 0 165.46 756.57 L 165.46 761.69 A 0.63 0.63 0.0 0 0 166.09 762.32"
/>
  <path stroke="#8a8f9e" vector-effect="non-scaling-stroke" d="M 247.99 756.87 L 247.99 762.29 A 0.25 0.25 0.0 0 0 248.26 762.54 Q 256.66 761.87 261.77 762.42 Q 268.83 763.19 269.70 769.76 Q 270.19 773.48 270.10 782.73 Q 270.02 790.95 262.27 792.21 Q 257.29 793.03 248.21 791.86 A 0.94 0.94 0.0 0 0 247.17 792.60 L 246.33 796.61 A 0.92 0.92 0.0 0 0 247.04 797.70 Q 253.01 798.95 260.62 798.62 C 268.56 798.28 275.17 793.62 276.02 785.79 Q 276.80 778.66 276.19 771.15 Q 275.64 764.51 272.78 761.07 C 266.49 753.53 257.92 755.66 248.24 756.59 A 0.28 0.27 87.8 0 0 247.99 756.87"
/>
  <path fill="#152142" d="M 319.90 774.13 C 320.33 775.90 322.23 778.40 322.87 780.95 Q 325.24 790.29 319.74 796.32 C 316.67 799.68 315.28 802.40 315.79 806.02 C 317.02 814.81 315.32 818.05 308.54 823.32 A 6.16 6.15 78.0 0 0 306.35 826.70 C 304.55 834.01 303.65 840.30 296.06 843.80 C 291.53 845.90 288.06 846.63 286.19 850.94 C 283.47 857.22 279.08 865.14 271.62 865.37 Q 268.86 865.45 265.83 865.14 A 2.95 2.93 -64.8 0 0 263.41 866.02 Q 261.25 868.26 257.56 872.00 C 251.83 877.79 246.06 877.79 238.70 874.95 C 233.07 872.77 229.85 879.10 224.65 880.14 C 218.90 881.30 215.62 879.06 210.32 875.44 C 206.83 873.06 201.26 876.91 197.39 877.03 C 190.02 877.24 186.16 872.25 181.52 866.96 A 3.62 3.52 -10.4 0 0 180.03 865.96 C 175.99 864.50 172.53 866.55 167.90 864.36 C 161.78 861.47 158.52 855.13 155.72 849.07 C 154.70 846.85 148.86 844.84 145.67 843.50 C 141.35 841.69 138.63 838.10 137.75 833.50 C 137.06 829.86 136.83 826.28 134.79 824.30 Q 132.35 821.94 129.22 818.97 C 125.05 815.01 126.72 808.13 126.81 803.01 C 126.91 798.18 122.09 795.79 120.35 791.67 Q 116.78 783.22 121.94 775.14 A 3.11 3.11 0.0 0 0 122.29 772.58 Q 121.90 771.26 120.84 768.99 C 118.31 763.53 118.53 758.17 122.11 753.35 Q 123.72 751.20 125.19 749.05 A 5.21 5.20 -33.9 0 0 125.99 745.01 C 124.83 739.60 124.25 734.68 127.20 729.86 C 130.01 725.26 137.56 723.40 137.72 717.76 C 137.95 709.68 141.68 703.45 149.59 700.99 Q 152.83 699.98 153.42 699.76 A 4.88 4.87 1.3 0 0 156.18 697.13 Q 157.80 693.35 159.01 691.03 C 163.37 682.61 170.45 682.57 178.96 682.20 Q 180.96 682.12 182.39 679.68 C 186.74 672.28 193.18 669.63 201.20 671.61 Q 203.72 672.24 205.92 672.61 A 3.95 3.93 -58.8 0 0 208.96 671.85 C 211.45 669.95 214.64 667.05 217.51 666.48 C 225.01 664.97 228.12 667.44 234.30 671.93 C 237.12 673.97 242.81 671.20 244.72 670.96 Q 252.71 669.93 258.17 674.85 C 259.98 676.48 261.48 679.03 263.15 680.96 A 4.64 4.63 69.7 0 0 266.64 682.57 C 269.70 682.59 272.76 682.37 275.45 683.08 C 282.61 684.95 284.75 690.15 287.52 696.96 C 288.76 699.99 294.62 701.18 296.35 702.12 Q 302.47 705.43 304.28 711.54 C 304.91 713.67 304.81 716.83 305.27 718.98 C 306.17 723.19 310.68 724.35 313.40 727.23 C 318.11 732.21 317.38 738.17 316.13 744.56 A 4.29 4.29 0.0 0 0 316.73 747.70 C 318.81 750.90 322.10 754.82 322.90 758.34 C 323.99 763.09 322.84 767.51 320.29 771.68 A 3.28 3.24 -36.3 0 0 319.90 774.13 Z M 317.89 759.35 C 314.54 754.11 309.62 749.20 310.82 742.40 C 311.30 739.67 312.37 737.09 311.62 734.69 Q 310.69 731.75 309.38 730.82 C 305.81 728.28 300.68 725.54 300.20 720.76 Q 299.61 714.94 299.49 714.03 C 298.85 709.03 293.39 706.28 288.78 705.30 Q 286.20 704.75 283.19 701.20 A 3.27 3.26 -74.9 0 1 282.60 700.17 C 280.50 694.22 279.35 688.80 272.97 688.27 Q 272.13 688.20 266.82 688.13 C 261.27 688.06 258.38 684.06 255.29 679.60 A 4.32 4.29 1.7 0 0 254.35 678.61 Q 250.49 675.66 245.28 676.38 A 3.57 3.21 -56.2 0 0 244.61 676.55 C 240.01 678.27 236.46 679.87 232.32 677.12 C 229.06 674.95 225.98 671.12 220.91 671.40 C 217.31 671.59 215.20 673.48 212.04 676.33 C 209.82 678.33 205.87 678.98 202.79 677.92 C 196.75 675.84 191.88 675.00 187.96 681.04 C 185.64 684.62 182.81 687.87 178.48 687.95 C 172.49 688.07 168.70 687.50 165.02 691.72 C 163.18 693.82 162.32 698.14 160.88 700.38 C 156.34 707.38 147.65 704.39 143.89 712.53 C 141.90 716.83 143.73 722.64 139.84 726.13 Q 137.69 728.05 134.43 730.44 C 126.77 736.04 132.39 740.95 131.63 747.18 C 131.20 750.77 128.39 754.11 126.06 757.03 C 122.78 761.16 125.02 764.32 127.12 769.40 Q 128.20 772.04 127.21 776.14 A 2.96 2.91 66.3 0 1 126.93 776.88 Q 124.71 781.08 124.37 782.81 C 123.27 788.31 126.20 790.80 129.97 794.95 C 132.38 797.59 132.53 805.22 132.11 808.48 Q 131.62 812.27 132.27 813.54 C 134.12 817.20 137.58 818.17 139.67 821.01 C 143.82 826.68 140.07 835.85 148.50 838.78 C 151.24 839.74 154.52 840.34 156.39 841.97 C 161.18 846.11 162.67 852.18 166.37 856.63 C 169.89 860.86 173.35 860.58 178.42 859.96 A 3.50 3.47 51.0 0 1 180.06 860.14 Q 184.48 861.71 186.14 863.75 C 190.09 868.63 193.54 873.80 200.01 871.01 C 203.61 869.46 207.19 867.79 210.83 869.49 C 215.55 871.69 217.99 876.11 224.02 874.54 C 226.29 873.95 230.14 870.65 232.26 869.46 A 3.81 3.66 -63.7 0 1 233.40 869.05 Q 237.04 868.41 238.56 868.95 C 243.38 870.65 247.97 873.89 252.88 869.12 Q 255.33 866.74 256.67 864.89 C 260.77 859.27 265.20 859.82 271.44 860.08 C 274.33 860.20 277.43 856.22 278.72 853.99 C 280.06 851.68 281.76 847.12 284.21 844.39 Q 286.52 841.82 287.46 841.42 C 293.23 838.97 297.70 838.32 299.48 831.68 Q 300.92 826.32 301.83 822.95 A 4.25 3.81 -26.6 0 1 302.18 822.06 C 303.67 819.24 306.18 818.05 308.43 816.18 Q 311.06 813.99 310.99 811.96 C 310.83 807.64 309.59 800.91 312.61 795.71 A 3.32 3.13 83.1 0 1 313.03 795.14 L 316.97 790.86 A 1.57 1.35 -79.9 0 0 317.10 790.69 C 320.60 784.98 316.56 781.14 314.86 775.75 A 7.64 7.64 0.0 0 1 315.08 770.53 C 316.84 766.27 318.47 763.62 318.20 760.27 A 2.00 1.99 -63.9 0 0 317.89 759.35 Z"
/>
  <path fill="#fefdf9" d="M 318.20 760.27 C 318.47 763.62 316.84 766.27 315.08 770.53 A 7.64 7.64 0.0 0 0 314.86 775.75 C 316.56 781.14 320.60 784.98 317.10 790.69 A 1.57 1.35 -79.9 0 1 316.97 790.86 L 313.03 795.14 A 3.32 3.13 83.1 0 0 312.61 795.71 C 309.59 800.91 310.83 807.64 310.99 811.96 Q 311.06 813.99 308.43 816.18 C 306.18 818.05 303.67 819.24 302.18 822.06 A 4.25 3.81 -26.6 0 0 301.83 822.95 Q 300.92 826.32 299.48 831.68 C 297.70 838.32 293.23 838.97 287.46 841.42 Q 286.52 841.82 284.21 844.39 C 281.76 847.12 280.06 851.68 278.72 853.99 C 277.43 856.22 274.33 860.20 271.44 860.08 C 265.20 859.82 260.77 859.27 256.67 864.89 Q 255.33 866.74 252.88 869.12 C 247.97 873.89 243.38 870.65 238.56 868.95 Q 237.04 868.41 233.40 869.05 A 3.81 3.66 -63.7 0 0 232.26 869.46 C 230.14 870.65 226.29 873.95 224.02 874.54 C 217.99 876.11 215.55 871.69 210.83 869.49 C 207.19 867.79 203.61 869.46 200.01 871.01 C 193.54 873.80 190.09 868.63 186.14 863.75 Q 184.48 861.71 180.06 860.14 A 3.50 3.47 51.0 0 0 178.42 859.96 C 173.35 860.58 169.89 860.86 166.37 856.63 C 162.67 852.18 161.18 846.11 156.39 841.97 C 154.52 840.34 151.24 839.74 148.50 838.78 C 140.07 835.85 143.82 826.68 139.67 821.01 C 137.58 818.17 134.12 817.20 132.27 813.54 Q 131.62 812.27 132.11 808.48 C 132.53 805.22 132.38 797.59 129.97 794.95 C 126.20 790.80 123.27 788.31 124.37 782.81 Q 124.71 781.08 126.93 776.88 A 2.96 2.91 66.3 0 0 127.21 776.14 Q 128.20 772.04 127.12 769.40 C 125.02 764.32 122.78 761.16 126.06 757.03 C 128.39 754.11 131.20 750.77 131.63 747.18 C 132.39 740.95 126.77 736.04 134.43 730.44 Q 137.69 728.05 139.84 726.13 C 143.73 722.64 141.90 716.83 143.89 712.53 C 147.65 704.39 156.34 707.38 160.88 700.38 C 162.32 698.14 163.18 693.82 165.02 691.72 C 168.70 687.50 172.49 688.07 178.48 687.95 C 182.81 687.87 185.64 684.62 187.96 681.04 C 191.88 675.00 196.75 675.84 202.79 677.92 C 205.87 678.98 209.82 678.33 212.04 676.33 C 215.20 673.48 217.31 671.59 220.91 671.40 C 225.98 671.12 229.06 674.95 232.32 677.12 C 236.46 679.87 240.01 678.27 244.61 676.55 A 3.57 3.21 -56.2 0 1 245.28 676.38 Q 250.49 675.66 254.35 678.61 A 4.32 4.29 1.7 0 1 255.29 679.60 C 258.38 684.06 261.27 688.06 266.82 688.13 Q 272.13 688.20 272.97 688.27 C 279.35 688.80 280.50 694.22 282.60 700.17 A 3.27 3.26 -74.9 0 0 283.19 701.20 Q 286.20 704.75 288.78 705.30 C 293.39 706.28 298.85 709.03 299.49 714.03 Q 299.61 714.94 300.20 720.76 C 300.68 725.54 305.81 728.28 309.38 730.82 Q 310.69 731.75 311.62 734.69 C 312.37 737.09 311.30 739.67 310.82 742.40 C 309.62 749.20 314.54 754.11 317.89 759.35 A 2.00 1.99 -63.9 0 1 318.20 760.27 Z M 224.9109 689.7397 A 83.70 82.33 -87.5 0 0 139.0084 769.7688 A 83.70 82.33 -87.5 0 0 217.6091 856.9803 A 83.70 82.33 -87.5 0 0 303.5116 776.9512 A 83.70 82.33 -87.5 0 0 224.9109 689.7397 Z"
/>
  <path fill="#be882c" d="M 224.9109 689.7397 A 83.70 82.33 -87.5 0 1 303.5116 776.9512 A 83.70 82.33 -87.5 0 1 217.6091 856.9803 A 83.70 82.33 -87.5 0 1 139.0084 769.7688 A 83.70 82.33 -87.5 0 1 224.9109 689.7397 Z M 224.3444 694.7333 A 78.60 77.22 -87.7 0 0 144.0322 770.1710 A 78.60 77.22 -87.7 0 0 218.0356 851.8067 A 78.60 77.22 -87.7 0 0 298.3478 776.3690 A 78.60 77.22 -87.7 0 0 224.3444 694.7333 Z"
/>
  <path fill="#fefdf9" d="M 224.3444 694.7333 A 78.60 77.22 -87.7 0 1 298.3478 776.3690 A 78.60 77.22 -87.7 0 1 218.0356 851.8067 A 78.60 77.22 -87.7 0 1 144.0322 770.1710 A 78.60 77.22 -87.7 0 1 224.3444 694.7333 Z M 217.84 755.98 Q 217.94 767.57 216.46 777.20 A 3.16 3.16 0.0 0 1 213.63 779.87 L 210.31 780.17 A 1.02 1.01 -5.1 0 1 209.20 779.25 L 207.05 755.68 A 0.44 0.44 0.0 0 0 206.61 755.28 L 201.84 755.28 A 0.65 0.65 0.0 0 0 201.19 755.96 Q 201.64 767.15 202.89 779.42 Q 203.77 788.01 206.80 796.23 A 2.26 2.24 -5.9 0 0 208.60 797.68 C 219.65 799.21 232.50 799.77 237.73 788.15 Q 239.86 783.43 240.11 780.35 Q 241.18 767.46 241.19 755.92 A 0.50 0.49 0.0 0 0 240.69 755.43 L 235.20 755.43 A 0.37 0.36 -0.0 0 0 234.83 755.79 Q 234.71 764.15 234.33 773.00 C 233.98 781.36 233.14 790.26 223.25 791.91 Q 218.89 792.64 212.04 792.07 A 0.40 0.39 88.1 0 1 211.69 791.74 L 210.58 784.41 A 0.07 0.07 0.0 0 1 210.65 784.33 C 216.76 784.86 221.80 783.36 222.82 776.54 Q 224.40 765.96 224.22 755.99 A 0.62 0.61 -0.5 0 0 223.60 755.39 L 218.43 755.39 A 0.59 0.59 0.0 0 0 217.84 755.98 Z M 166.09 762.32 Q 170.87 762.29 176.74 762.14 C 183.67 761.97 186.49 764.13 186.57 771.01 Q 186.66 779.62 186.55 797.71 A 0.60 0.60 0.0 0 0 187.15 798.31 L 192.40 798.31 A 0.64 0.64 0.0 0 0 193.04 797.67 Q 193.13 775.78 193.12 773.50 Q 193.07 766.68 192.17 764.12 Q 189.17 755.61 179.20 755.52 Q 173.65 755.47 166.08 755.91 A 0.66 0.66 0.0 0 0 165.46 756.57 L 165.46 761.69 A 0.63 0.63 0.0 0 0 166.09 762.32 Z M 247.99 756.87 L 247.99 762.29 A 0.25 0.25 0.0 0 0 248.26 762.54 Q 256.66 761.87 261.77 762.42 Q 268.83 763.19 269.70 769.76 Q 270.19 773.48 270.10 782.73 Q 270.02 790.95 262.27 792.21 Q 257.29 793.03 248.21 791.86 A 0.94 0.94 0.0 0 0 247.17 792.60 L 246.33 796.61 A 0.92 0.92 0.0 0 0 247.04 797.70 Q 253.01 798.95 260.62 798.62 C 268.56 798.28 275.17 793.62 276.02 785.79 Q 276.80 778.66 276.19 771.15 Q 275.64 764.51 272.78 761.07 C 266.49 753.53 257.92 755.66 248.24 756.59 A 0.28 0.27 87.8 0 0 247.99 756.87 Z"
/>
  <path fill="#152142" d="M 217.84 755.98 A 0.59 0.59 0.0 0 1 218.43 755.39 L 223.60 755.39 A 0.62 0.61 -0.5 0 1 224.22 755.99 Q 224.40 765.96 222.82 776.54 C 221.80 783.36 216.76 784.86 210.65 784.33 A 0.07 0.07 0.0 0 0 210.58 784.41 L 211.69 791.74 A 0.40 0.39 88.1 0 0 212.04 792.07 Q 218.89 792.64 223.25 791.91 C 233.14 790.26 233.98 781.36 234.33 773.00 Q 234.71 764.15 234.83 755.79 A 0.37 0.36 0.0 0 1 235.20 755.43 L 240.69 755.43 A 0.50 0.49 0.0 0 1 241.19 755.92 Q 241.18 767.46 240.11 780.35 Q 239.86 783.43 237.73 788.15 C 232.50 799.77 219.65 799.21 208.60 797.68 A 2.26 2.24 -5.9 0 1 206.80 796.23 Q 203.77 788.01 202.89 779.42 Q 201.64 767.15 201.19 755.96 A 0.65 0.65 0.0 0 1 201.84 755.28 L 206.61 755.28 A 0.44 0.44 0.0 0 1 207.05 755.68 L 209.20 779.25 A 1.02 1.01 -5.1 0 0 210.31 780.17 L 213.63 779.87 A 3.16 3.16 0.0 0 0 216.46 777.20 Q 217.94 767.57 217.84 755.98 Z"
/>
  <path fill="#152142" d="M 166.09 762.32 A 0.63 0.63 0.0 0 1 165.46 761.69 L 165.46 756.57 A 0.66 0.66 0.0 0 1 166.08 755.91 Q 173.65 755.47 179.20 755.52 Q 189.17 755.61 192.17 764.12 Q 193.07 766.68 193.12 773.50 Q 193.13 775.78 193.04 797.67 A 0.64 0.64 0.0 0 1 192.40 798.31 L 187.15 798.31 A 0.60 0.60 0.0 0 1 186.55 797.71 Q 186.66 779.62 186.57 771.01 C 186.49 764.13 183.67 761.97 176.74 762.14 Q 170.87 762.29 166.09 762.32 Z"
/>
  <path fill="#152142" d="M 248.24 756.59 C 257.92 755.66 266.49 753.53 272.78 761.07 Q 275.64 764.51 276.19 771.15 Q 276.80 778.66 276.02 785.79 C 275.17 793.62 268.56 798.28 260.62 798.62 Q 253.01 798.95 247.04 797.70 A 0.92 0.92 0.0 0 1 246.33 796.61 L 247.17 792.60 A 0.94 0.94 0.0 0 1 248.21 791.86 Q 257.29 793.03 262.27 792.21 Q 270.02 790.95 270.10 782.73 Q 270.19 773.48 269.70 769.76 Q 268.83 763.19 261.77 762.42 Q 256.66 761.87 248.26 762.54 A 0.25 0.25 0.0 0 1 247.99 762.29 L 247.99 756.87 A 0.28 0.27 87.8 0 1 248.24 756.59 Z"
/>
  </g>
</svg>
