<svg xmlns="http://www.w3.org/2000/svg" viewBox="108.11 38.99 225.18 176.36">
  <path stroke="#ddcfac" vector-effect="non-scaling-stroke" d="M 199.83 63.53 C 203.55 63.54 205.63 59.93 205.01 56.55 Q 204.20 52.16 200.78 47.71 Q 200.23 46.99 199.87 46.99 Q 199.53 46.99 198.98 47.71 Q 195.53 52.13 194.70 56.51 C 194.06 59.90 196.11 63.52 199.83 63.53"
/>
  <path stroke="#d1c4a7" vector-effect="non-scaling-stroke" d="M 123.64 70.27 C 127.37 70.28 129.45 66.66 128.83 63.26 Q 128.02 58.86 124.59 54.40 Q 124.03 53.68 123.68 53.68 Q 123.34 53.68 122.78 54.40 Q 119.32 58.84 118.49 63.24 C 117.85 66.63 119.91 70.26 123.64 70.27"
/>
  <path stroke="#ddcfac" vector-effect="non-scaling-stroke" d="M 146.97 70.30 C 150.64 70.30 152.69 66.73 152.06 63.38 Q 151.25 59.04 147.86 54.65 Q 147.31 53.95 146.96 53.95 Q 146.62 53.95 146.07 54.65 Q 142.68 59.04 141.87 63.38 C 141.24 66.73 143.29 70.31 146.97 70.30"
/>
  <path stroke="#ddcfac" vector-effect="non-scaling-stroke" d="M 170.35 70.32 C 174.07 70.31 176.12 66.69 175.48 63.31 Q 174.65 58.93 171.21 54.51 Q 170.65 53.79 170.31 53.80 Q 169.95 53.80 169.40 54.51 Q 165.99 58.96 165.18 63.34 C 164.56 66.73 166.64 70.33 170.35 70.32"
/>
  <path stroke="#899ca6" vector-effect="non-scaling-stroke" d="M 257.28 88.64 C 269.26 73.83 281.92 61.74 301.82 59.65 A 1.20 1.19 87.1 0 0 302.89 58.46 L 302.89 56.20 A 0.95 0.95 0.0 0 0 301.94 55.25 L 253.86 55.25 A 0.82 0.81 -90.0 0 0 253.05 56.07 L 253.05 58.52 A 0.80 0.79 2.8 0 0 253.77 59.31 Q 255.85 59.49 258.30 60.43 C 267.18 63.86 256.96 75.40 252.67 80.59 A 0.46 0.45 -39.8 0 0 252.62 81.10 L 256.96 88.62 A 0.20 0.19 -40.7 0 0 257.28 88.64"
/>
  <path stroke="#899ca6" vector-effect="non-scaling-stroke" d="M 200.06 99.11 Q 202.86 99.11 204.08 99.06 A 0.41 0.40 -1.5 0 0 204.47 98.66 Q 204.56 92.58 204.42 77.27 C 204.38 73.24 205.88 71.59 207.98 69.02 A 1.10 1.10 0.0 0 0 207.14 67.23 Q 206.50 67.22 200.07 67.22 Q 193.64 67.22 193.01 67.22 A 1.10 1.10 0.0 0 0 192.16 69.01 C 194.26 71.59 195.76 73.24 195.72 77.27 Q 195.57 92.58 195.65 98.66 A 0.41 0.40 1.5 0 0 196.04 99.06 Q 197.26 99.11 200.06 99.11"
/>
  <path stroke="#899ca6" vector-effect="non-scaling-stroke" d="M 196.17 147.45 Q 200.51 138.75 204.05 133.33 Q 205.21 131.56 205.47 129.75 A 3.95 3.62 -46.9 0 0 205.48 128.76 Q 205.19 126.26 202.42 121.32 Q 198.16 113.71 194.17 107.12 C 193.31 105.70 192.06 103.29 190.55 102.96 C 181.41 100.94 174.37 90.92 174.85 81.46 C 174.97 79.15 177.13 77.73 178.15 75.78 A 1.16 1.16 0.0 0 0 177.12 74.09 L 164.16 74.09 A 1.41 1.40 -17.4 0 0 163.00 76.30 L 165.70 80.14 A 0.89 0.84 24.7 0 1 165.85 80.51 Q 166.08 82.08 166.57 86.44 C 168.23 101.24 180.44 111.22 194.44 112.88 A 1.40 1.39 3.5 0 1 195.67 114.26 L 195.67 126.86 A 0.46 0.46 0.0 0 1 195.19 127.32 C 174.88 126.35 159.89 113.88 153.47 94.79 Q 151.26 88.20 151.89 80.90 A 1.79 1.77 -28.3 0 1 152.12 80.15 L 154.80 75.51 A 0.98 0.97 -74.9 0 0 153.96 74.04 L 140.44 74.04 A 1.20 1.20 0.0 0 0 139.56 76.06 Q 141.39 78.04 142.17 79.67 Q 142.72 80.82 142.99 83.93 C 144.80 104.84 154.17 121.03 173.17 130.59 Q 183.41 135.74 195.02 136.00 A 0.69 0.69 0.0 0 1 195.69 136.69 L 195.69 147.34 A 0.25 0.25 0.0 0 0 196.17 147.45"
/>
  <path stroke="#899ca6" vector-effect="non-scaling-stroke" d="M 194.40 150.03 Q 166.49 149.47 147.60 129.63 Q 129.53 110.64 128.31 84.22 C 128.21 82.03 128.27 79.97 129.99 78.15 Q 130.53 77.59 131.55 75.92 A 1.16 1.16 0.0 0 0 130.56 74.16 L 117.13 74.16 A 1.30 1.30 0.0 0 0 116.11 76.26 L 118.36 79.13 A 4.69 4.69 0.0 0 1 119.37 81.95 C 119.96 123.34 150.64 156.31 192.17 158.97 A 0.35 0.34 9.0 0 0 192.53 158.72 L 194.65 150.37 A 0.27 0.27 0.0 0 0 194.40 150.03"
/>
  <path stroke="#ddcfac" vector-effect="non-scaling-stroke" d="M 292.91 102.50 Q 292.89 102.48 292.85 102.43 A 0.24 0.19 65.3 0 0 292.69 102.35 L 262.14 102.44 A 2.52 2.51 74.8 0 1 259.97 101.19 L 244.86 75.01 A 0.54 0.53 44.8 0 0 243.93 75.01 L 242.45 77.69 L 242.44 77.69 L 229.81 98.96 A 0.12 0.12 0.0 0 0 229.91 99.14 L 238.81 99.14 A 0.48 0.47 -73.7 0 0 239.21 98.92 L 244.23 91.10 A 0.37 0.37 0.0 0 1 244.86 91.12 L 265.59 127.03 A 0.50 0.50 0.0 0 0 266.45 127.03 L 270.31 120.33 A 1.45 1.43 45.3 0 0 270.31 118.90 L 265.91 111.28 A 0.56 0.56 0.0 0 1 266.39 110.44 L 278.78 110.44 A 0.19 0.18 15.5 0 1 278.94 110.72 L 258.41 146.29 A 0.44 0.44 0.0 0 0 258.79 146.95 L 265.73 146.95 A 2.58 2.56 15.0 0 0 267.95 145.68 L 292.99 102.93 A 0.33 0.33 0.0 0 0 292.91 102.50"
/>
  <path stroke="#d1c4a7" vector-effect="non-scaling-stroke" d="M 210.34 111.09 A 0.46 0.46 0.0 0 1 210.74 110.40 L 251.31 110.40 A 0.46 0.46 0.0 0 0 251.71 109.71 L 247.66 102.70 A 0.46 0.46 0.0 0 0 247.26 102.47 L 196.55 102.47 A 0.46 0.46 0.0 0 0 196.15 103.16 L 208.84 125.15 A 0.46 0.46 0.0 0 0 209.62 125.19 L 214.37 118.61 A 0.46 0.46 0.0 0 0 214.39 118.11 L 210.34 111.09"
/>
  <path stroke="#899ca6" vector-effect="non-scaling-stroke" d="M 195.20 188.71 Q 179.51 189.80 166.46 196.16 Q 160.98 198.83 159.46 203.51 A 0.88 0.88 0.0 0 0 160.30 204.66 L 240.16 204.66 A 0.83 0.83 0.0 0 0 240.96 203.59 Q 239.72 199.36 235.89 197.26 Q 221.74 189.47 205.05 188.67 A 0.58 0.58 0.0 0 1 204.49 188.11 Q 204.20 177.77 204.64 167.61 C 205.14 155.93 209.38 147.42 216.23 137.37 Q 217.28 135.83 231.09 114.81 A 0.79 0.78 16.6 0 0 230.43 113.60 L 223.07 113.60 A 2.98 2.97 16.7 0 0 220.59 114.93 Q 211.15 129.12 208.50 133.23 Q 203.10 141.60 200.15 148.17 C 194.54 160.68 195.58 174.96 195.73 188.14 A 0.57 0.56 88.4 0 1 195.20 188.71"
/>
  <path stroke="#ddcfac" vector-effect="non-scaling-stroke" d="M 274.28 141.13 A 0.37 0.37 0.0 0 0 274.28 141.49 L 278.92 149.55 A 0.37 0.37 0.0 0 1 278.60 150.10 L 237.33 150.10 A 0.37 0.37 0.0 0 0 237.01 150.66 L 241.15 157.83 A 0.37 0.37 0.0 0 0 241.47 158.01 L 292.42 158.01 A 0.37 0.37 0.0 0 0 292.74 157.45 L 279.11 133.86 A 0.37 0.37 0.0 0 0 278.47 133.86 L 274.28 141.13"
/>
  <path stroke="#899ca6" vector-effect="non-scaling-stroke" d="M 257.14 164.34 Q 259.21 165.90 260.01 167.00 Q 269.67 180.22 275.08 187.18 C 287.88 203.66 304.38 207.35 324.70 204.56 A 0.68 0.66 -4.0 0 0 325.29 203.90 L 325.29 201.48 A 0.75 0.75 0.0 0 0 324.64 200.74 C 302.16 197.62 290.18 179.67 277.86 162.77 A 2.62 2.60 71.7 0 0 275.73 161.69 L 253.33 161.79"
/>
  <path stroke="#d1c4a7" vector-effect="non-scaling-stroke" d="M 253.33 161.79 Q 251.77 161.21 249.80 161.65 A 1.15 1.13 -81.1 0 0 249.07 162.19 L 245.10 169.08 A 0.69 0.69 0.0 0 1 243.91 169.08 L 223.93 134.47 A 0.97 0.97 0.0 0 0 222.25 134.47 L 219.18 139.79 A 2.65 2.65 0.0 0 0 219.18 142.45 L 223.09 149.21 A 0.57 0.57 0.0 0 1 222.60 150.06 L 214.44 150.06 A 2.17 2.16 10.1 0 0 212.41 151.47 L 210.38 156.88 A 0.92 0.92 0.0 0 0 211.24 158.13 L 226.85 158.13 A 2.43 2.42 75.0 0 1 228.95 159.35 L 243.97 185.35 A 0.57 0.57 0.0 0 0 244.96 185.36 L 257.14 164.34"
/>
  <path stroke="#606658" vector-effect="non-scaling-stroke" d="M 253.33 161.79 L 257.14 164.34"
/>
  <path fill="#bfa363" d="M 199.83 63.53 C 196.11 63.52 194.06 59.90 194.70 56.51 Q 195.53 52.13 198.98 47.71 Q 199.53 46.99 199.87 46.99 Q 200.23 46.99 200.78 47.71 Q 204.20 52.16 205.01 56.55 C 205.63 59.93 203.55 63.54 199.83 63.53 Z"
/>
  <path fill="#a88d58" d="M 123.68 53.68 Q 124.03 53.68 124.59 54.40 Q 128.02 58.86 128.83 63.26 C 129.45 66.66 127.37 70.28 123.64 70.27 C 119.91 70.26 117.85 66.63 118.49 63.24 Q 119.32 58.84 122.78 54.40 Q 123.34 53.68 123.68 53.68 Z"
/>
  <path fill="#bfa363" d="M 146.97 70.30 C 143.29 70.31 141.24 66.73 141.87 63.38 Q 142.68 59.04 146.07 54.65 Q 146.62 53.95 146.96 53.95 Q 147.31 53.95 147.86 54.65 Q 151.25 59.04 152.06 63.38 C 152.69 66.73 150.64 70.30 146.97 70.30 Z"
/>
  <path fill="#bfa363" d="M 170.35 70.32 C 166.64 70.33 164.56 66.73 165.18 63.34 Q 165.99 58.96 169.40 54.51 Q 169.95 53.80 170.31 53.80 Q 170.65 53.79 171.21 54.51 Q 174.65 58.93 175.48 63.31 C 176.12 66.69 174.07 70.31 170.35 70.32 Z"
/>
  <path fill="#173e57" d="M 257.28 88.64 A 0.20 0.19 -40.7 0 1 256.96 88.62 L 252.62 81.10 A 0.46 0.45 -39.8 0 1 252.67 80.59 C 256.96 75.40 267.18 63.86 258.30 60.43 Q 255.85 59.49 253.77 59.31 A 0.80 0.79 2.8 0 1 253.05 58.52 L 253.05 56.07 A 0.82 0.81 90.0 0 1 253.86 55.25 L 301.94 55.25 A 0.95 0.95 0.0 0 1 302.89 56.20 L 302.89 58.46 A 1.20 1.19 87.1 0 1 301.82 59.65 C 281.92 61.74 269.26 73.83 257.28 88.64 Z"
/>
  <path fill="#173e57" d="M 200.07 67.22 Q 206.50 67.22 207.14 67.23 A 1.10 1.10 0.0 0 1 207.98 69.02 C 205.88 71.59 204.38 73.24 204.42 77.27 Q 204.56 92.58 204.47 98.66 A 0.41 0.40 -1.5 0 1 204.08 99.06 Q 202.86 99.11 200.06 99.11 Q 197.26 99.11 196.04 99.06 A 0.41 0.40 1.5 0 1 195.65 98.66 Q 195.57 92.58 195.72 77.27 C 195.76 73.24 194.26 71.59 192.16 69.01 A 1.10 1.10 0.0 0 1 193.01 67.22 Q 193.64 67.22 200.07 67.22 Z"
/>
  <path fill="#173e57" d="M 196.17 147.45 A 0.25 0.25 0.0 0 1 195.69 147.34 L 195.69 136.69 A 0.69 0.69 0.0 0 0 195.02 136.00 Q 183.41 135.74 173.17 130.59 C 154.17 121.03 144.80 104.84 142.99 83.93 Q 142.72 80.82 142.17 79.67 Q 141.39 78.04 139.56 76.06 A 1.20 1.20 0.0 0 1 140.44 74.04 L 153.96 74.04 A 0.98 0.97 -74.9 0 1 154.80 75.51 L 152.12 80.15 A 1.79 1.77 -28.3 0 0 151.89 80.90 Q 151.26 88.20 153.47 94.79 C 159.89 113.88 174.88 126.35 195.19 127.32 A 0.46 0.46 0.0 0 0 195.67 126.86 L 195.67 114.26 A 1.40 1.39 3.5 0 0 194.44 112.88 C 180.44 111.22 168.23 101.24 166.57 86.44 Q 166.08 82.08 165.85 80.51 A 0.89 0.84 24.7 0 0 165.70 80.14 L 163.00 76.30 A 1.41 1.40 -17.4 0 1 164.16 74.09 L 177.12 74.09 A 1.16 1.16 0.0 0 1 178.15 75.78 C 177.13 77.73 174.97 79.15 174.85 81.46 C 174.37 90.92 181.41 100.94 190.55 102.96 C 192.06 103.29 193.31 105.70 194.17 107.12 Q 198.16 113.71 202.42 121.32 Q 205.19 126.26 205.48 128.76 A 3.95 3.62 -46.9 0 1 205.47 129.75 Q 205.21 131.56 204.05 133.33 Q 200.51 138.75 196.17 147.45 Z"
/>
  <path fill="#173e57" d="M 194.40 150.03 A 0.27 0.27 0.0 0 1 194.65 150.37 L 192.53 158.72 A 0.35 0.34 9.0 0 1 192.17 158.97 C 150.64 156.31 119.96 123.34 119.37 81.95 A 4.69 4.69 0.0 0 0 118.36 79.13 L 116.11 76.26 A 1.30 1.30 0.0 0 1 117.13 74.16 L 130.56 74.16 A 1.16 1.16 0.0 0 1 131.55 75.92 Q 130.53 77.59 129.99 78.15 C 128.27 79.97 128.21 82.03 128.31 84.22 Q 129.53 110.64 147.60 129.63 Q 166.49 149.47 194.40 150.03 Z"
/>
  <path fill="#bfa363" d="M 292.91 102.50 A 0.33 0.33 0.0 0 1 292.99 102.93 L 267.95 145.68 A 2.58 2.56 15.0 0 1 265.73 146.95 L 258.79 146.95 A 0.44 0.44 0.0 0 1 258.41 146.29 L 278.94 110.72 A 0.19 0.18 15.5 0 0 278.78 110.44 L 266.39 110.44 A 0.56 0.56 0.0 0 0 265.91 111.28 L 270.31 118.90 A 1.45 1.43 45.3 0 1 270.31 120.33 L 266.45 127.03 A 0.50 0.50 0.0 0 1 265.59 127.03 L 244.86 91.12 A 0.37 0.37 0.0 0 0 244.23 91.10 L 239.21 98.92 A 0.48 0.47 -73.7 0 1 238.81 99.14 L 229.91 99.14 A 0.12 0.12 0.0 0 1 229.81 98.96 L 242.44 77.69 L 242.45 77.69 L 243.93 75.01 A 0.54 0.53 44.8 0 1 244.86 75.01 L 259.97 101.19 A 2.52 2.51 74.8 0 0 262.14 102.44 L 292.69 102.35 A 0.24 0.19 65.3 0 1 292.85 102.43 Q 292.89 102.48 292.91 102.50 Z"
/>
  <path fill="#a88d58" d="M 210.34 111.09 L 214.39 118.11 A 0.46 0.46 0.0 0 1 214.37 118.61 L 209.62 125.19 A 0.46 0.46 0.0 0 1 208.84 125.15 L 196.15 103.16 A 0.46 0.46 0.0 0 1 196.55 102.47 L 247.26 102.47 A 0.46 0.46 0.0 0 1 247.66 102.70 L 251.71 109.71 A 0.46 0.46 0.0 0 1 251.31 110.40 L 210.74 110.40 A 0.46 0.46 0.0 0 0 210.34 111.09 Z"
/>
  <path fill="#173e57" d="M 195.20 188.71 A 0.57 0.56 88.4 0 0 195.73 188.14 C 195.58 174.96 194.54 160.68 200.15 148.17 Q 203.10 141.60 208.50 133.23 Q 211.15 129.12 220.59 114.93 A 2.98 2.97 16.7 0 1 223.07 113.60 L 230.43 113.60 A 0.79 0.78 16.6 0 1 231.09 114.81 Q 217.28 135.83 216.23 137.37 C 209.38 147.42 205.14 155.93 204.64 167.61 Q 204.20 177.77 204.49 188.11 A 0.58 0.58 0.0 0 0 205.05 188.67 Q 221.74 189.47 235.89 197.26 Q 239.72 199.36 240.96 203.59 A 0.83 0.83 0.0 0 1 240.16 204.66 L 160.30 204.66 A 0.88 0.88 0.0 0 1 159.46 203.51 Q 160.98 198.83 166.46 196.16 Q 179.51 189.80 195.20 188.71 Z"
/>
  <path fill="#bfa363" d="M 274.28 141.13 L 278.47 133.86 A 0.37 0.37 0.0 0 1 279.11 133.86 L 292.74 157.45 A 0.37 0.37 0.0 0 1 292.42 158.01 L 241.47 158.01 A 0.37 0.37 0.0 0 1 241.15 157.83 L 237.01 150.66 A 0.37 0.37 0.0 0 1 237.33 150.10 L 278.60 150.10 A 0.37 0.37 0.0 0 0 278.92 149.55 L 274.28 141.49 A 0.37 0.37 0.0 0 1 274.28 141.13 Z"
/>
  <path fill="#a88d58" d="M 253.33 161.79 L 257.14 164.34 L 244.96 185.36 A 0.57 0.57 0.0 0 1 243.97 185.35 L 228.95 159.35 A 2.43 2.42 75.0 0 0 226.85 158.13 L 211.24 158.13 A 0.92 0.92 0.0 0 1 210.38 156.88 L 212.41 151.47 A 2.17 2.16 10.1 0 1 214.44 150.06 L 222.60 150.06 A 0.57 0.57 0.0 0 0 223.09 149.21 L 219.18 142.45 A 2.65 2.65 0.0 0 1 219.18 139.79 L 222.25 134.47 A 0.97 0.97 0.0 0 1 223.93 134.47 L 243.91 169.08 A 0.69 0.69 0.0 0 0 245.10 169.08 L 249.07 162.19 A 1.15 1.13 -81.1 0 1 249.80 161.65 Q 251.77 161.21 253.33 161.79 Z"
/>
  <path fill="#173e57" d="M 257.14 164.34 L 253.33 161.79 L 275.73 161.69 A 2.62 2.60 71.7 0 1 277.86 162.77 C 290.18 179.67 302.16 197.62 324.64 200.74 A 0.75 0.75 0.0 0 1 325.29 201.48 L 325.29 203.90 A 0.68 0.66 -4.0 0 1 324.70 204.56 C 304.38 207.35 287.88 203.66 275.08 187.18 Q 269.67 180.22 260.01 167.00 Q 259.21 165.90 257.14 164.34 Z"
/>
</svg>
