<svg xmlns="http://www.w3.org/2000/svg" viewBox="1120.85 197.27 192.82 231.10">
  <g fill="none" stroke-width="2.00" stroke-linecap="butt">
  <path stroke="#8a8f9e" vector-effect="non-scaling-stroke" d="M 1133.72 420.37 L 1300.80 420.37 A 4.87 4.87 0.0 0 0 1305.67 415.50 L 1305.67 299.77 A 94.50 87.45 90.0 0 0 1218.22 205.27 L 1216.30 205.27 A 94.50 87.45 -90.0 0 0 1128.85 299.77 L 1128.85 415.50 A 4.87 4.87 0.0 0 0 1133.72 420.37"
/>
  <path stroke="#8a8f9e" vector-effect="non-scaling-stroke" d="M 1300.08 348.70 A 0.33 0.33 0.0 0 0 1300.43 348.37 Q 1300.47 337.61 1300.52 312.32 Q 1300.55 293.30 1300.25 290.19 C 1297.96 267.01 1286.38 245.28 1269.00 230.05 Q 1245.90 209.81 1215.02 210.48 C 1185.41 211.13 1159.70 227.16 1146.08 253.36 Q 1139.09 266.82 1135.93 282.45 Q 1133.87 292.63 1133.99 310.67 Q 1134.12 328.72 1134.12 338.99 A 0.53 0.53 0.0 0 0 1134.91 339.46 Q 1141.73 335.82 1148.51 333.29 C 1156.63 330.26 1168.91 328.94 1177.58 331.85 Q 1185.10 334.38 1189.16 336.81 Q 1197.31 341.69 1201.98 343.63 Q 1220.96 351.51 1237.84 341.86 Q 1239.93 340.67 1250.58 334.32 C 1264.58 325.98 1277.66 334.20 1289.49 342.27 C 1293.66 345.11 1298.04 348.55 1300.08 348.70"
/>
  <path stroke="#8a8f9e" vector-effect="non-scaling-stroke" d="M 1135.27 354.73 Q 1139.20 352.74 1144.01 350.77 Q 1168.71 340.70 1190.11 355.87 Q 1193.55 358.31 1205.01 366.97 C 1218.20 376.94 1230.71 369.76 1243.51 364.30 Q 1259.42 357.53 1276.24 363.59 C 1282.44 365.83 1292.30 372.25 1299.36 371.68 A 1.19 1.18 -2.4 0 0 1300.45 370.50 L 1300.45 355.09 A 0.78 0.76 11.5 0 0 1299.97 354.38 Q 1293.24 351.71 1291.20 350.04 Q 1282.51 342.96 1272.00 338.53 C 1264.82 335.50 1258.97 335.18 1252.39 338.89 C 1246.90 341.98 1240.95 346.60 1235.29 348.94 Q 1215.37 357.17 1195.67 346.52 Q 1188.35 342.57 1183.70 340.06 C 1169.73 332.53 1152.41 335.91 1138.49 343.54 Q 1137.95 343.84 1135.40 344.65 A 1.77 1.77 0.0 0 0 1134.16 346.34 L 1134.16 354.05 A 0.77 0.76 -13.4 0 0 1135.27 354.73"
/>
  <path stroke="#8a8f9e" vector-effect="non-scaling-stroke" d="M 1299.83 376.36 Q 1292.98 376.66 1288.70 374.80 Q 1280.52 371.23 1275.64 369.09 Q 1259.78 362.14 1244.49 369.51 Q 1235.96 373.62 1230.24 375.52 C 1215.40 380.46 1204.97 374.53 1193.96 365.14 C 1185.47 357.91 1174.19 351.70 1162.98 352.06 C 1152.88 352.39 1143.60 355.51 1134.96 360.98 A 1.87 1.87 0.0 0 0 1134.09 362.56 L 1134.09 377.22 A 0.50 0.50 0.0 0 0 1134.92 377.60 C 1140.77 372.52 1147.57 368.17 1155.02 367.04 C 1163.52 365.77 1172.84 366.83 1181.37 370.13 Q 1185.68 371.80 1191.89 376.41 C 1202.96 384.62 1215.26 393.77 1229.98 391.18 Q 1231.74 390.87 1233.38 390.15 C 1242.69 386.06 1254.28 378.08 1266.53 380.71 C 1274.11 382.33 1279.07 385.68 1287.73 390.23 Q 1293.17 393.09 1299.88 390.81 A 0.87 0.86 -9.4 0 0 1300.47 389.99 L 1300.47 376.98 A 0.62 0.61 88.7 0 0 1299.83 376.36"
/>
  <path stroke="#8a8f9e" vector-effect="non-scaling-stroke" d="M 1300.56 412.52 L 1300.56 396.28 A 0.53 0.52 83.1 0 0 1299.91 395.77 C 1294.27 397.14 1289.75 397.35 1284.44 394.56 C 1273.30 388.71 1264.62 381.62 1251.33 387.37 C 1241.77 391.51 1233.57 397.58 1221.43 396.60 C 1209.70 395.66 1199.48 388.63 1190.05 381.24 C 1186.49 378.46 1183.39 376.41 1179.72 375.04 C 1171.43 371.95 1159.97 370.51 1151.80 373.33 Q 1141.67 376.82 1134.86 384.94 A 2.91 2.88 -25.2 0 0 1134.18 386.80 L 1134.18 414.25 A 0.85 0.85 0.0 0 0 1135.03 415.10 L 1208.25 415.10 A 8.43 8.38 -58.5 0 0 1212.09 414.17 C 1225.48 407.29 1238.91 401.22 1254.24 401.01 Q 1265.92 400.84 1271.19 401.38 Q 1282.07 402.49 1291.77 407.99 Q 1294.64 409.62 1299.93 412.87 A 0.42 0.41 15.7 0 0 1300.56 412.52"
/>
  <path stroke="#8a8f9e" vector-effect="non-scaling-stroke" d="M 1223.14 415.12 L 1293.39 415.12 A 0.13 0.12 -28.4 0 0 1293.46 414.89 Q 1286.89 410.71 1278.95 408.06 C 1271.05 405.42 1260.69 405.77 1251.75 406.09 C 1241.73 406.44 1232.33 410.12 1222.97 414.34 A 0.41 0.41 0.0 0 0 1223.14 415.12"
/>
  <path stroke="#dec393" vector-effect="non-scaling-stroke" d="M 1217.37 252.53 A 2.07 1.91 -68.0 0 0 1215.03 253.63 Q 1208.74 266.32 1201.73 279.13 C 1196.77 288.20 1196.35 299.34 1204.57 306.44 C 1209.96 311.10 1219.13 311.79 1225.35 308.63 C 1238.04 302.19 1238.79 289.25 1232.24 277.77 Q 1224.75 264.64 1219.89 254.88 C 1219.38 253.85 1218.43 252.86 1217.37 252.53"
/>
  <path stroke="#dec393" vector-effect="non-scaling-stroke" d="M 1217.00 305.35 Q 1221.37 305.34 1223.76 303.56 Q 1234.97 295.22 1228.14 282.58 Q 1220.70 268.81 1216.97 261.41 A 0.08 0.07 66.0 0 0 1216.92 261.39 Q 1216.91 261.39 1216.90 261.39 Q 1216.88 261.39 1216.87 261.39 A 0.08 0.07 -66.3 0 0 1216.82 261.41 Q 1213.13 268.83 1205.76 282.64 Q 1198.99 295.31 1210.24 303.59 Q 1212.64 305.36 1217.00 305.35"
/>
  <path fill="#152142" d="M 1133.72 420.37 A 4.87 4.87 0.0 0 1 1128.85 415.50 L 1128.85 299.77 A 94.50 87.45 -90.0 0 1 1216.30 205.27 L 1218.22 205.27 A 94.50 87.45 -90.0 0 1 1305.67 299.77 L 1305.67 415.50 A 4.87 4.87 0.0 0 1 1300.80 420.37 L 1133.72 420.37 Z M 1300.08 348.70 A 0.33 0.33 0.0 0 0 1300.43 348.37 Q 1300.47 337.61 1300.52 312.32 Q 1300.55 293.30 1300.25 290.19 C 1297.96 267.01 1286.38 245.28 1269.00 230.05 Q 1245.90 209.81 1215.02 210.48 C 1185.41 211.13 1159.70 227.16 1146.08 253.36 Q 1139.09 266.82 1135.93 282.45 Q 1133.87 292.63 1133.99 310.67 Q 1134.12 328.72 1134.12 338.99 A 0.53 0.53 0.0 0 0 1134.91 339.46 Q 1141.73 335.82 1148.51 333.29 C 1156.63 330.26 1168.91 328.94 1177.58 331.85 Q 1185.10 334.38 1189.16 336.81 Q 1197.31 341.69 1201.98 343.63 Q 1220.96 351.51 1237.84 341.86 Q 1239.93 340.67 1250.58 334.32 C 1264.58 325.98 1277.66 334.20 1289.49 342.27 C 1293.66 345.11 1298.04 348.55 1300.08 348.70 Z M 1135.27 354.73 Q 1139.20 352.74 1144.01 350.77 Q 1168.71 340.70 1190.11 355.87 Q 1193.55 358.31 1205.01 366.97 C 1218.20 376.94 1230.71 369.76 1243.51 364.30 Q 1259.42 357.53 1276.24 363.59 C 1282.44 365.83 1292.30 372.25 1299.36 371.68 A 1.19 1.18 -2.4 0 0 1300.45 370.50 L 1300.45 355.09 A 0.78 0.76 11.5 0 0 1299.97 354.38 Q 1293.24 351.71 1291.20 350.04 Q 1282.51 342.96 1272.00 338.53 C 1264.82 335.50 1258.97 335.18 1252.39 338.89 C 1246.90 341.98 1240.95 346.60 1235.29 348.94 Q 1215.37 357.17 1195.67 346.52 Q 1188.35 342.57 1183.70 340.06 C 1169.73 332.53 1152.41 335.91 1138.49 343.54 Q 1137.95 343.84 1135.40 344.65 A 1.77 1.77 0.0 0 0 1134.16 346.34 L 1134.16 354.05 A 0.77 0.76 -13.4 0 0 1135.27 354.73 Z M 1299.83 376.36 Q 1292.98 376.66 1288.70 374.80 Q 1280.52 371.23 1275.64 369.09 Q 1259.78 362.14 1244.49 369.51 Q 1235.96 373.62 1230.24 375.52 C 1215.40 380.46 1204.97 374.53 1193.96 365.14 C 1185.47 357.91 1174.19 351.70 1162.98 352.06 C 1152.88 352.39 1143.60 355.51 1134.96 360.98 A 1.87 1.87 0.0 0 0 1134.09 362.56 L 1134.09 377.22 A 0.50 0.50 0.0 0 0 1134.92 377.60 C 1140.77 372.52 1147.57 368.17 1155.02 367.04 C 1163.52 365.77 1172.84 366.83 1181.37 370.13 Q 1185.68 371.80 1191.89 376.41 C 1202.96 384.62 1215.26 393.77 1229.98 391.18 Q 1231.74 390.87 1233.38 390.15 C 1242.69 386.06 1254.28 378.08 1266.53 380.71 C 1274.11 382.33 1279.07 385.68 1287.73 390.23 Q 1293.17 393.09 1299.88 390.81 A 0.87 0.86 -9.4 0 0 1300.47 389.99 L 1300.47 376.98 A 0.62 0.61 88.7 0 0 1299.83 376.36 Z M 1300.56 412.52 L 1300.56 396.28 A 0.53 0.52 83.1 0 0 1299.91 395.77 C 1294.27 397.14 1289.75 397.35 1284.44 394.56 C 1273.30 388.71 1264.62 381.62 1251.33 387.37 C 1241.77 391.51 1233.57 397.58 1221.43 396.60 C 1209.70 395.66 1199.48 388.63 1190.05 381.24 C 1186.49 378.46 1183.39 376.41 1179.72 375.04 C 1171.43 371.95 1159.97 370.51 1151.80 373.33 Q 1141.67 376.82 1134.86 384.94 A 2.91 2.88 -25.2 0 0 1134.18 386.80 L 1134.18 414.25 A 0.85 0.85 0.0 0 0 1135.03 415.10 L 1208.25 415.10 A 8.43 8.38 -58.5 0 0 1212.09 414.17 C 1225.48 407.29 1238.91 401.22 1254.24 401.01 Q 1265.92 400.84 1271.19 401.38 Q 1282.07 402.49 1291.77 407.99 Q 1294.64 409.62 1299.93 412.87 A 0.42 0.41 15.7 0 0 1300.56 412.52 Z M 1223.14 415.12 L 1293.39 415.12 A 0.13 0.12 -28.4 0 0 1293.46 414.89 Q 1286.89 410.71 1278.95 408.06 C 1271.05 405.42 1260.69 405.77 1251.75 406.09 C 1241.73 406.44 1232.33 410.12 1222.97 414.34 A 0.41 0.41 0.0 0 0 1223.14 415.12 Z"
/>
  <path fill="#fefdf9" d="M 1300.08 348.70 C 1298.04 348.55 1293.66 345.11 1289.49 342.27 C 1277.66 334.20 1264.58 325.98 1250.58 334.32 Q 1239.93 340.67 1237.84 341.86 Q 1220.96 351.51 1201.98 343.63 Q 1197.31 341.69 1189.16 336.81 Q 1185.10 334.38 1177.58 331.85 C 1168.91 328.94 1156.63 330.26 1148.51 333.29 Q 1141.73 335.82 1134.91 339.46 A 0.53 0.53 0.0 0 1 1134.12 338.99 Q 1134.12 328.72 1133.99 310.67 Q 1133.87 292.63 1135.93 282.45 Q 1139.09 266.82 1146.08 253.36 C 1159.70 227.16 1185.41 211.13 1215.02 210.48 Q 1245.90 209.81 1269.00 230.05 C 1286.38 245.28 1297.96 267.01 1300.25 290.19 Q 1300.55 293.30 1300.52 312.32 Q 1300.47 337.61 1300.43 348.37 A 0.33 0.33 0.0 0 1 1300.08 348.70 Z M 1217.37 252.53 A 2.07 1.91 -68.0 0 0 1215.03 253.63 Q 1208.74 266.32 1201.73 279.13 C 1196.77 288.20 1196.35 299.34 1204.57 306.44 C 1209.96 311.10 1219.13 311.79 1225.35 308.63 C 1238.04 302.19 1238.79 289.25 1232.24 277.77 Q 1224.75 264.64 1219.89 254.88 C 1219.38 253.85 1218.43 252.86 1217.37 252.53 Z"
/>
  <path fill="#be882c" d="M 1217.37 252.53 C 1218.43 252.86 1219.38 253.85 1219.89 254.88 Q 1224.75 264.64 1232.24 277.77 C 1238.79 289.25 1238.04 302.19 1225.35 308.63 C 1219.13 311.79 1209.96 311.10 1204.57 306.44 C 1196.35 299.34 1196.77 288.20 1201.73 279.13 Q 1208.74 266.32 1215.03 253.63 A 2.07 1.91 -68.0 0 1 1217.37 252.53 Z M 1217.00 305.35 Q 1221.37 305.34 1223.76 303.56 Q 1234.97 295.22 1228.14 282.58 Q 1220.70 268.81 1216.97 261.41 A 0.08 0.07 66.0 0 0 1216.92 261.39 Q 1216.91 261.39 1216.90 261.39 Q 1216.88 261.39 1216.87 261.39 A 0.08 0.07 -66.3 0 0 1216.82 261.41 Q 1213.13 268.83 1205.76 282.64 Q 1198.99 295.31 1210.24 303.59 Q 1212.64 305.36 1217.00 305.35 Z"
/>
  <path fill="#fefdf9" d="M 1216.90 261.39 Q 1216.91 261.39 1216.92 261.39 A 0.08 0.07 66.0 0 1 1216.97 261.41 Q 1220.70 268.81 1228.14 282.58 Q 1234.97 295.22 1223.76 303.56 Q 1221.37 305.34 1217.00 305.35 Q 1212.64 305.36 1210.24 303.59 Q 1198.99 295.31 1205.76 282.64 Q 1213.13 268.83 1216.82 261.41 A 0.08 0.07 -66.3 0 1 1216.87 261.39 Q 1216.88 261.39 1216.90 261.39 Z"
/>
  <path fill="#fefdf9" d="M 1135.27 354.73 A 0.77 0.76 -13.4 0 1 1134.16 354.05 L 1134.16 346.34 A 1.77 1.77 0.0 0 1 1135.40 344.65 Q 1137.95 343.84 1138.49 343.54 C 1152.41 335.91 1169.73 332.53 1183.70 340.06 Q 1188.35 342.57 1195.67 346.52 Q 1215.37 357.17 1235.29 348.94 C 1240.95 346.60 1246.90 341.98 1252.39 338.89 C 1258.97 335.18 1264.82 335.50 1272.00 338.53 Q 1282.51 342.96 1291.20 350.04 Q 1293.24 351.71 1299.97 354.38 A 0.78 0.76 11.5 0 1 1300.45 355.09 L 1300.45 370.50 A 1.19 1.18 -2.4 0 1 1299.36 371.68 C 1292.30 372.25 1282.44 365.83 1276.24 363.59 Q 1259.42 357.53 1243.51 364.30 C 1230.71 369.76 1218.20 376.94 1205.01 366.97 Q 1193.55 358.31 1190.11 355.87 Q 1168.71 340.70 1144.01 350.77 Q 1139.20 352.74 1135.27 354.73 Z"
/>
  <path fill="#fefdf9" d="M 1300.47 376.98 L 1300.47 389.99 A 0.87 0.86 -9.4 0 1 1299.88 390.81 Q 1293.17 393.09 1287.73 390.23 C 1279.07 385.68 1274.11 382.33 1266.53 380.71 C 1254.28 378.08 1242.69 386.06 1233.38 390.15 Q 1231.74 390.87 1229.98 391.18 C 1215.26 393.77 1202.96 384.62 1191.89 376.41 Q 1185.68 371.80 1181.37 370.13 C 1172.84 366.83 1163.52 365.77 1155.02 367.04 C 1147.57 368.17 1140.77 372.52 1134.92 377.60 A 0.50 0.50 0.0 0 1 1134.09 377.22 L 1134.09 362.56 A 1.87 1.87 0.0 0 1 1134.96 360.98 C 1143.60 355.51 1152.88 352.39 1162.98 352.06 C 1174.19 351.70 1185.47 357.91 1193.96 365.14 C 1204.97 374.53 1215.40 380.46 1230.24 375.52 Q 1235.96 373.62 1244.49 369.51 Q 1259.78 362.14 1275.64 369.09 Q 1280.52 371.23 1288.70 374.80 Q 1292.98 376.66 1299.83 376.36 A 0.62 0.61 88.7 0 1 1300.47 376.98 Z"
/>
  <path fill="#fefdf9" d="M 1299.93 412.87 Q 1294.64 409.62 1291.77 407.99 Q 1282.07 402.49 1271.19 401.38 Q 1265.92 400.84 1254.24 401.01 C 1238.91 401.22 1225.48 407.29 1212.09 414.17 A 8.43 8.38 -58.5 0 1 1208.25 415.10 L 1135.03 415.10 A 0.85 0.85 0.0 0 1 1134.18 414.25 L 1134.18 386.80 A 2.91 2.88 -25.2 0 1 1134.86 384.94 Q 1141.67 376.82 1151.80 373.33 C 1159.97 370.51 1171.43 371.95 1179.72 375.04 C 1183.39 376.41 1186.49 378.46 1190.05 381.24 C 1199.48 388.63 1209.70 395.66 1221.43 396.60 C 1233.57 397.58 1241.77 391.51 1251.33 387.37 C 1264.62 381.62 1273.30 388.71 1284.44 394.56 C 1289.75 397.35 1294.27 397.14 1299.91 395.77 A 0.53 0.52 83.1 0 1 1300.56 396.28 L 1300.56 412.52 A 0.42 0.41 15.7 0 1 1299.93 412.87 Z"
/>
  <path fill="#fefdf9" d="M 1223.14 415.12 A 0.41 0.41 0.0 0 1 1222.97 414.34 C 1232.33 410.12 1241.73 406.44 1251.75 406.09 C 1260.69 405.77 1271.05 405.42 1278.95 408.06 Q 1286.89 410.71 1293.46 414.89 A 0.13 0.12 -28.4 0 1 1293.39 415.12 L 1223.14 415.12 Z"
/>
  </g>
</svg>
