<svg xmlns="http://www.w3.org/2000/svg" viewBox="404.28 60.18 96.29 111.73">
  <g fill="none" stroke-width="2.00" stroke-linecap="butt">
  <path stroke="#83939d" vector-effect="non-scaling-stroke" d="M 476.58 116.01 Q 476.52 114.48 475.42 114.33 A 1.18 1.14 33.7 0 0 474.71 114.46 C 470.00 116.97 467.93 124.42 468.28 129.25 A 1.20 1.19 -21.3 0 1 467.83 130.26 Q 462.30 134.67 457.71 142.04 A 0.49 0.48 53.1 0 1 456.83 141.91 L 451.26 121.57 A 0.39 0.38 87.0 0 1 451.69 121.09 Q 456.09 121.70 457.53 117.39 Q 458.91 113.31 460.97 109.93 A 1.41 1.37 6.2 0 1 461.75 109.32 Q 462.35 109.12 462.78 109.17 C 466.16 109.54 465.18 102.75 465.13 101.30 A 2.77 2.74 59.7 0 1 465.52 99.78 C 467.23 96.92 466.90 94.15 468.50 91.36 C 471.21 86.61 466.07 82.04 463.91 79.00 Q 461.94 76.23 459.84 74.84 Q 449.85 68.18 439.72 75.81 A 6.23 6.02 1.0 0 0 438.81 76.66 Q 436.42 79.42 434.65 84.10 C 432.99 88.50 433.33 94.18 432.01 98.81 A 0.70 0.70 0.0 0 1 431.09 99.28 Q 430.32 99.00 429.56 99.22 A 2.34 2.31 17.6 0 0 428.68 99.67 C 426.85 101.11 421.98 107.16 421.27 110.70 A 3.72 3.58 -21.3 0 1 420.57 112.21 Q 412.57 122.49 412.43 134.53 Q 412.28 147.74 412.34 163.11 A 0.79 0.79 0.0 0 0 413.26 163.89 L 413.34 163.88 A 1.12 1.12 0.0 0 0 414.27 162.78 Q 414.25 139.01 414.33 135.26 Q 414.55 123.62 421.48 114.24 A 0.45 0.45 0.0 0 1 422.14 114.17 L 441.07 130.99 A 0.57 0.57 0.0 0 1 440.97 131.91 C 430.90 137.39 424.76 152.37 423.20 163.24 A 0.60 0.59 0.7 0 0 423.86 163.91 L 424.53 163.82 A 0.89 0.88 1.3 0 0 425.30 163.09 C 427.22 151.31 432.00 140.50 441.83 133.40 A 0.86 0.85 -38.4 0 1 442.97 133.53 L 444.24 134.96 A 0.81 0.81 0.0 0 1 444.15 136.13 Q 431.63 146.44 429.16 163.18 A 0.55 0.55 0.0 0 0 429.77 163.81 L 430.10 163.77 A 1.22 1.21 -87.7 0 0 431.15 162.79 C 433.14 152.65 437.13 144.12 445.37 137.80 A 0.65 0.65 0.0 0 1 446.25 137.88 L 447.79 139.62 A 0.71 0.71 0.0 0 1 447.73 140.63 Q 437.49 149.35 435.01 163.07 A 0.69 0.69 0.0 0 0 435.89 163.86 L 436.06 163.81 A 1.54 1.52 86.9 0 0 437.11 162.62 Q 439.32 150.46 448.44 142.31 A 0.80 0.80 0.0 0 1 449.69 142.56 Q 450.66 144.57 451.99 145.73 A 0.73 0.72 -51.8 0 1 452.10 146.70 Q 447.12 153.61 446.55 163.03 A 0.82 0.82 0.0 0 0 447.44 163.89 L 447.48 163.88 A 1.09 1.09 0.0 0 0 448.46 162.88 Q 449.09 155.05 453.32 148.39 A 0.34 0.34 0.0 0 1 453.95 148.60 Q 453.89 149.68 454.73 149.79 A 0.40 0.40 0.0 0 0 455.17 149.53 L 455.82 147.62 A 3.52 3.40 -17.5 0 1 456.38 146.59 L 466.82 133.50 A 0.79 0.78 38.0 0 1 467.92 133.37 Q 473.57 137.83 477.99 143.45 A 0.87 0.87 0.0 0 1 477.98 144.54 L 463.57 162.20 A 0.99 0.98 40.7 0 0 463.68 163.55 L 463.89 163.74 A 0.76 0.76 0.0 0 0 464.98 163.65 L 479.99 145.26 A 2.27 2.27 0.0 0 0 479.93 142.32 L 477.03 139.06 A 0.78 0.78 0.0 0 1 477.17 137.90 C 481.63 134.83 484.81 133.27 488.02 128.02 Q 489.89 124.96 492.23 120.80 A 2.86 2.79 -33.7 0 0 492.57 119.21 L 492.07 113.76 A 0.60 0.49 -65.7 0 0 492.03 113.61 C 490.94 111.13 489.16 108.53 486.20 109.46 A 0.99 0.98 -35.4 0 1 485.30 109.31 Q 483.80 108.23 482.15 109.94 Q 479.95 112.21 477.06 116.16 A 0.27 0.27 0.0 0 1 476.58 116.01"
/>
  <path stroke="#83939d" vector-effect="non-scaling-stroke" d="M 450.22 81.75 Q 455.03 81.50 461.53 80.14 A 0.47 0.47 0.0 0 0 461.79 79.37 Q 456.61 73.46 449.81 73.81 Q 443.02 74.15 438.46 80.55 A 0.47 0.47 0.0 0 0 438.80 81.30 Q 445.40 81.99 450.22 81.75"
/>
  <path stroke="#83939d" vector-effect="non-scaling-stroke" d="M 434.06 101.54 L 439.95 99.17 A 1.30 1.29 76.3 0 0 440.75 97.85 C 440.49 94.93 442.47 87.96 446.93 90.61 C 449.35 92.04 449.31 94.34 448.43 96.96 Q 447.08 101.02 445.90 103.60 C 443.77 108.27 443.18 112.55 446.88 116.14 C 449.04 118.24 450.99 120.21 453.95 118.95 A 1.43 1.40 -88.5 0 0 454.67 118.25 L 458.82 109.28 A 0.48 0.48 0.0 0 0 458.25 108.62 Q 457.25 108.91 455.50 110.15 A 2.85 2.85 0.0 0 1 451.93 109.94 Q 448.26 106.62 448.90 101.31 Q 449.62 95.37 450.91 94.48 A 0.34 0.22 -83.4 0 0 451.01 94.36 Q 451.35 93.62 455.12 91.28 A 4.22 4.07 2.8 0 0 456.16 90.37 L 457.85 88.30 A 2.73 2.73 0.0 0 1 461.44 87.73 L 465.45 90.33 A 1.00 1.00 0.0 0 0 466.68 90.22 C 468.66 88.33 465.21 83.68 463.77 81.98 A 1.24 1.24 0.0 0 0 462.46 81.60 C 454.44 84.10 446.08 84.11 437.72 83.26 A 0.77 0.76 -77.3 0 0 436.91 83.78 Q 434.84 89.92 434.54 95.75 Q 434.44 97.96 433.43 100.94 A 0.48 0.48 0.0 0 0 434.06 101.54"
/>
  <path stroke="#83939d" vector-effect="non-scaling-stroke" d="M 463.14 105.99 L 463.14 100.39 A 2.28 2.10 -35.9 0 1 463.31 99.55 L 465.41 94.29 A 1.69 1.69 0.0 0 0 464.76 92.24 L 460.97 89.78 A 1.53 1.53 0.0 0 0 458.78 90.38 Q 457.82 92.31 456.68 92.93 Q 452.94 94.98 452.47 96.02 Q 449.92 101.61 451.84 107.14 A 1.90 1.90 0.0 0 0 454.93 107.91 Q 457.16 105.83 461.97 106.93 A 0.96 0.96 0.0 0 0 463.14 105.99"
/>
  <path stroke="#83939d" vector-effect="non-scaling-stroke" d="M 435.22 103.48 L 442.50 114.94 A 0.43 0.43 0.0 0 0 443.01 115.11 L 443.02 115.10 A 0.50 0.50 0.0 0 0 443.26 114.46 C 439.82 105.94 446.68 101.71 446.95 94.14 A 1.72 1.52 82.5 0 0 444.92 92.37 C 442.52 93.24 442.62 96.43 442.84 98.89 A 1.62 1.61 -13.6 0 1 441.84 100.52 L 435.33 103.13 A 0.24 0.24 0.0 0 0 435.22 103.48"
/>
  <path stroke="#83939d" vector-effect="non-scaling-stroke" d="M 450.25 139.59 Q 450.46 139.32 450.29 138.99 Q 450.10 138.64 450.07 138.55 Q 444.80 121.01 434.34 105.65 Q 432.07 102.30 430.95 101.15 A 0.72 0.72 0.0 0 0 429.92 101.14 Q 425.56 105.46 423.51 110.45 A 2.79 2.79 0.0 0 0 424.32 113.67 C 434.65 122.18 443.46 129.18 449.78 139.56 A 0.29 0.28 48.1 0 0 450.25 139.59"
/>
  <path stroke="#83939d" vector-effect="non-scaling-stroke" d="M 475.50 137.15 Q 475.94 136.40 480.80 133.06 C 485.10 130.10 488.30 123.87 490.78 119.05 A 0.43 0.41 30.4 0 0 490.63 118.51 L 490.40 118.36 A 0.27 0.26 -56.0 0 0 490.04 118.44 L 485.88 124.87 A 0.54 0.53 -52.6 0 1 485.08 124.98 L 484.81 124.74 A 1.13 1.12 37.5 0 1 484.61 123.28 L 490.28 114.53 A 0.37 0.37 0.0 0 0 490.21 114.05 L 489.99 113.85 A 0.24 0.23 39.2 0 0 489.65 113.88 L 482.36 122.82 A 0.31 0.30 40.5 0 1 481.92 122.85 L 481.57 122.54 A 1.13 1.12 40.5 0 1 481.44 120.99 L 488.32 112.55 A 0.61 0.60 36.3 0 0 488.18 111.66 L 487.77 111.39 A 0.62 0.60 -54.6 0 0 486.95 111.54 L 479.92 120.80 A 0.70 0.70 0.0 0 1 478.90 120.90 L 478.88 120.88 A 0.82 0.81 37.2 0 1 478.72 119.76 L 484.81 111.32 A 0.14 0.14 0.0 0 0 484.79 111.14 L 484.55 110.93 A 0.34 0.33 43.0 0 0 484.09 110.94 Q 479.00 116.13 475.54 121.70 A 1.03 1.03 0.0 0 1 474.18 122.06 L 474.14 122.04 A 0.98 0.98 0.0 0 1 473.75 120.70 L 475.52 117.48 A 0.46 0.46 0.0 0 0 474.80 116.92 C 471.06 120.47 469.98 124.54 470.19 129.67 A 2.09 2.05 64.5 0 1 469.70 131.09 Q 469.56 131.27 469.44 131.33 A 0.34 0.34 0.0 0 0 469.36 131.88 L 475.10 137.20 A 0.26 0.25 36.8 0 0 475.50 137.15"
/>
  <path stroke="#83939d" vector-effect="non-scaling-stroke" d="M 444.83 116.89 A 0.64 0.64 0.0 0 0 443.82 117.64 C 448.19 127.12 451.10 134.08 453.52 144.02 A 1.58 1.57 -87.3 0 0 454.54 145.15 L 454.70 145.24 A 0.48 0.48 0.0 0 0 455.40 144.70 L 448.88 120.88 A 1.81 1.78 -77.1 0 0 448.35 120.02 L 444.83 116.89"
/>
  <path fill="#0d2e47" d="M 476.58 116.01 A 0.27 0.27 0.0 0 0 477.06 116.16 Q 479.95 112.21 482.15 109.94 Q 483.80 108.23 485.30 109.31 A 0.99 0.98 -35.4 0 0 486.20 109.46 C 489.16 108.53 490.94 111.13 492.03 113.61 A 0.60 0.49 -65.7 0 1 492.07 113.76 L 492.57 119.21 A 2.86 2.79 -33.7 0 1 492.23 120.80 Q 489.89 124.96 488.02 128.02 C 484.81 133.27 481.63 134.83 477.17 137.90 A 0.78 0.78 0.0 0 0 477.03 139.06 L 479.93 142.32 A 2.27 2.27 0.0 0 1 479.99 145.26 L 464.98 163.65 A 0.76 0.76 0.0 0 1 463.89 163.74 L 463.68 163.55 A 0.99 0.98 40.7 0 1 463.57 162.20 L 477.98 144.54 A 0.87 0.87 0.0 0 0 477.99 143.45 Q 473.57 137.83 467.92 133.37 A 0.79 0.78 38.0 0 0 466.82 133.50 L 456.38 146.59 A 3.52 3.40 -17.5 0 0 455.82 147.62 L 455.17 149.53 A 0.40 0.40 0.0 0 1 454.73 149.79 Q 453.89 149.68 453.95 148.60 A 0.34 0.34 0.0 0 0 453.32 148.39 Q 449.09 155.05 448.46 162.88 A 1.09 1.09 0.0 0 1 447.48 163.88 L 447.44 163.89 A 0.82 0.82 0.0 0 1 446.55 163.03 Q 447.12 153.61 452.10 146.70 A 0.73 0.72 -51.8 0 0 451.99 145.73 Q 450.66 144.57 449.69 142.56 A 0.80 0.80 0.0 0 0 448.44 142.31 Q 439.32 150.46 437.11 162.62 A 1.54 1.52 86.9 0 1 436.06 163.81 L 435.89 163.86 A 0.69 0.69 0.0 0 1 435.01 163.07 Q 437.49 149.35 447.73 140.63 A 0.71 0.71 0.0 0 0 447.79 139.62 L 446.25 137.88 A 0.65 0.65 0.0 0 0 445.37 137.80 C 437.13 144.12 433.14 152.65 431.15 162.79 A 1.22 1.21 -87.7 0 1 430.10 163.77 L 429.77 163.81 A 0.55 0.55 0.0 0 1 429.16 163.18 Q 431.63 146.44 444.15 136.13 A 0.81 0.81 0.0 0 0 444.24 134.96 L 442.97 133.53 A 0.86 0.85 -38.4 0 0 441.83 133.40 C 432.00 140.50 427.22 151.31 425.30 163.09 A 0.89 0.88 1.3 0 1 424.53 163.82 L 423.86 163.91 A 0.60 0.59 0.7 0 1 423.20 163.24 C 424.76 152.37 430.90 137.39 440.97 131.91 A 0.57 0.57 0.0 0 0 441.07 130.99 L 422.14 114.17 A 0.45 0.45 0.0 0 0 421.48 114.24 Q 414.55 123.62 414.33 135.26 Q 414.25 139.01 414.27 162.78 A 1.12 1.12 0.0 0 1 413.34 163.88 L 413.26 163.89 A 0.79 0.79 0.0 0 1 412.34 163.11 Q 412.28 147.74 412.43 134.53 Q 412.57 122.49 420.57 112.21 A 3.72 3.58 -21.3 0 0 421.27 110.70 C 421.98 107.16 426.85 101.11 428.68 99.67 A 2.34 2.31 17.6 0 1 429.56 99.22 Q 430.32 99.00 431.09 99.28 A 0.70 0.70 0.0 0 0 432.01 98.81 C 433.33 94.18 432.99 88.50 434.65 84.10 Q 436.42 79.42 438.81 76.66 A 6.23 6.02 1.0 0 1 439.72 75.81 Q 449.85 68.18 459.84 74.84 Q 461.94 76.23 463.91 79.00 C 466.07 82.04 471.21 86.61 468.50 91.36 C 466.90 94.15 467.23 96.92 465.52 99.78 A 2.77 2.74 59.7 0 0 465.13 101.30 C 465.18 102.75 466.16 109.54 462.78 109.17 Q 462.35 109.12 461.75 109.32 A 1.41 1.37 6.2 0 0 460.97 109.93 Q 458.91 113.31 457.53 117.39 Q 456.09 121.70 451.69 121.09 A 0.39 0.38 87.0 0 0 451.26 121.57 L 456.83 141.91 A 0.49 0.48 53.1 0 0 457.71 142.04 Q 462.30 134.67 467.83 130.26 A 1.20 1.19 -21.3 0 0 468.28 129.25 C 467.93 124.42 470.00 116.97 474.71 114.46 A 1.18 1.14 33.7 0 1 475.42 114.33 Q 476.52 114.48 476.58 116.01 Z M 450.22 81.75 Q 455.03 81.50 461.53 80.14 A 0.47 0.47 0.0 0 0 461.79 79.37 Q 456.61 73.46 449.81 73.81 Q 443.02 74.15 438.46 80.55 A 0.47 0.47 0.0 0 0 438.80 81.30 Q 445.40 81.99 450.22 81.75 Z M 434.06 101.54 L 439.95 99.17 A 1.30 1.29 76.3 0 0 440.75 97.85 C 440.49 94.93 442.47 87.96 446.93 90.61 C 449.35 92.04 449.31 94.34 448.43 96.96 Q 447.08 101.02 445.90 103.60 C 443.77 108.27 443.18 112.55 446.88 116.14 C 449.04 118.24 450.99 120.21 453.95 118.95 A 1.43 1.40 -88.5 0 0 454.67 118.25 L 458.82 109.28 A 0.48 0.48 0.0 0 0 458.25 108.62 Q 457.25 108.91 455.50 110.15 A 2.85 2.85 0.0 0 1 451.93 109.94 Q 448.26 106.62 448.90 101.31 Q 449.62 95.37 450.91 94.48 A 0.34 0.22 -83.4 0 0 451.01 94.36 Q 451.35 93.62 455.12 91.28 A 4.22 4.07 2.8 0 0 456.16 90.37 L 457.85 88.30 A 2.73 2.73 0.0 0 1 461.44 87.73 L 465.45 90.33 A 1.00 1.00 0.0 0 0 466.68 90.22 C 468.66 88.33 465.21 83.68 463.77 81.98 A 1.24 1.24 0.0 0 0 462.46 81.60 C 454.44 84.10 446.08 84.11 437.72 83.26 A 0.77 0.76 -77.3 0 0 436.91 83.78 Q 434.84 89.92 434.54 95.75 Q 434.44 97.96 433.43 100.94 A 0.48 0.48 0.0 0 0 434.06 101.54 Z M 463.14 105.99 L 463.14 100.39 A 2.28 2.10 -35.9 0 1 463.31 99.55 L 465.41 94.29 A 1.69 1.69 0.0 0 0 464.76 92.24 L 460.97 89.78 A 1.53 1.53 0.0 0 0 458.78 90.38 Q 457.82 92.31 456.68 92.93 Q 452.94 94.98 452.47 96.02 Q 449.92 101.61 451.84 107.14 A 1.90 1.90 0.0 0 0 454.93 107.91 Q 457.16 105.83 461.97 106.93 A 0.96 0.96 0.0 0 0 463.14 105.99 Z M 435.22 103.48 L 442.50 114.94 A 0.43 0.43 0.0 0 0 443.01 115.11 L 443.02 115.10 A 0.50 0.50 0.0 0 0 443.26 114.46 C 439.82 105.94 446.68 101.71 446.95 94.14 A 1.72 1.52 82.5 0 0 444.92 92.37 C 442.52 93.24 442.62 96.43 442.84 98.89 A 1.62 1.61 -13.6 0 1 441.84 100.52 L 435.33 103.13 A 0.24 0.24 0.0 0 0 435.22 103.48 Z M 450.25 139.59 Q 450.46 139.32 450.29 138.99 Q 450.10 138.64 450.07 138.55 Q 444.80 121.01 434.34 105.65 Q 432.07 102.30 430.95 101.15 A 0.72 0.72 0.0 0 0 429.92 101.14 Q 425.56 105.46 423.51 110.45 A 2.79 2.79 0.0 0 0 424.32 113.67 C 434.65 122.18 443.46 129.18 449.78 139.56 A 0.29 0.28 48.1 0 0 450.25 139.59 Z M 475.50 137.15 Q 475.94 136.40 480.80 133.06 C 485.10 130.10 488.30 123.87 490.78 119.05 A 0.43 0.41 30.4 0 0 490.63 118.51 L 490.40 118.36 A 0.27 0.26 -56.0 0 0 490.04 118.44 L 485.88 124.87 A 0.54 0.53 -52.6 0 1 485.08 124.98 L 484.81 124.74 A 1.13 1.12 37.5 0 1 484.61 123.28 L 490.28 114.53 A 0.37 0.37 0.0 0 0 490.21 114.05 L 489.99 113.85 A 0.24 0.23 39.2 0 0 489.65 113.88 L 482.36 122.82 A 0.31 0.30 40.5 0 1 481.92 122.85 L 481.57 122.54 A 1.13 1.12 40.5 0 1 481.44 120.99 L 488.32 112.55 A 0.61 0.60 36.3 0 0 488.18 111.66 L 487.77 111.39 A 0.62 0.60 -54.6 0 0 486.95 111.54 L 479.92 120.80 A 0.70 0.70 0.0 0 1 478.90 120.90 L 478.88 120.88 A 0.82 0.81 37.2 0 1 478.72 119.76 L 484.81 111.32 A 0.14 0.14 0.0 0 0 484.79 111.14 L 484.55 110.93 A 0.34 0.33 43.0 0 0 484.09 110.94 Q 479.00 116.13 475.54 121.70 A 1.03 1.03 0.0 0 1 474.18 122.06 L 474.14 122.04 A 0.98 0.98 0.0 0 1 473.75 120.70 L 475.52 117.48 A 0.46 0.46 0.0 0 0 474.80 116.92 C 471.06 120.47 469.98 124.54 470.19 129.67 A 2.09 2.05 64.5 0 1 469.70 131.09 Q 469.56 131.27 469.44 131.33 A 0.34 0.34 0.0 0 0 469.36 131.88 L 475.10 137.20 A 0.26 0.25 36.8 0 0 475.50 137.15 Z M 444.83 116.89 A 0.64 0.64 0.0 0 0 443.82 117.64 C 448.19 127.12 451.10 134.08 453.52 144.02 A 1.58 1.57 -87.3 0 0 454.54 145.15 L 454.70 145.24 A 0.48 0.48 0.0 0 0 455.40 144.70 L 448.88 120.88 A 1.81 1.78 -77.1 0 0 448.35 120.02 L 444.83 116.89 Z"
/>
  <path fill="#f9f8f3" d="M 449.81 73.81 Q 456.61 73.46 461.79 79.37 A 0.47 0.47 0.0 0 1 461.53 80.14 Q 455.03 81.50 450.22 81.75 Q 445.40 81.99 438.80 81.30 A 0.47 0.47 0.0 0 1 438.46 80.55 Q 443.02 74.15 449.81 73.81 Z"
/>
  <path fill="#f9f8f3" d="M 434.06 101.54 A 0.48 0.48 0.0 0 1 433.43 100.94 Q 434.44 97.96 434.54 95.75 Q 434.84 89.92 436.91 83.78 A 0.77 0.76 -77.3 0 1 437.72 83.26 C 446.08 84.11 454.44 84.10 462.46 81.60 A 1.24 1.24 0.0 0 1 463.77 81.98 C 465.21 83.68 468.66 88.33 466.68 90.22 A 1.00 1.00 0.0 0 1 465.45 90.33 L 461.44 87.73 A 2.73 2.73 0.0 0 0 457.85 88.30 L 456.16 90.37 A 4.22 4.07 2.8 0 1 455.12 91.28 Q 451.35 93.62 451.01 94.36 A 0.34 0.22 -83.4 0 1 450.91 94.48 Q 449.62 95.37 448.90 101.31 Q 448.26 106.62 451.93 109.94 A 2.85 2.85 0.0 0 0 455.50 110.15 Q 457.25 108.91 458.25 108.62 A 0.48 0.48 0.0 0 1 458.82 109.28 L 454.67 118.25 A 1.43 1.40 -88.5 0 1 453.95 118.95 C 450.99 120.21 449.04 118.24 446.88 116.14 C 443.18 112.55 443.77 108.27 445.90 103.60 Q 447.08 101.02 448.43 96.96 C 449.31 94.34 449.35 92.04 446.93 90.61 C 442.47 87.96 440.49 94.93 440.75 97.85 A 1.30 1.29 76.3 0 1 439.95 99.17 L 434.06 101.54 Z"
/>
  <path fill="#f9f8f3" d="M 463.14 105.99 A 0.96 0.96 0.0 0 1 461.97 106.93 Q 457.16 105.83 454.93 107.91 A 1.90 1.90 0.0 0 1 451.84 107.14 Q 449.92 101.61 452.47 96.02 Q 452.94 94.98 456.68 92.93 Q 457.82 92.31 458.78 90.38 A 1.53 1.53 0.0 0 1 460.97 89.78 L 464.76 92.24 A 1.69 1.69 0.0 0 1 465.41 94.29 L 463.31 99.55 A 2.28 2.10 -35.9 0 0 463.14 100.39 L 463.14 105.99 Z"
/>
  <path fill="#f9f8f3" d="M 435.33 103.13 L 441.84 100.52 A 1.62 1.61 -13.6 0 0 442.84 98.89 C 442.62 96.43 442.52 93.24 444.92 92.37 A 1.72 1.52 82.5 0 1 446.95 94.14 C 446.68 101.71 439.82 105.94 443.26 114.46 A 0.50 0.50 0.0 0 1 443.02 115.10 L 443.01 115.11 A 0.43 0.43 0.0 0 1 442.50 114.94 L 435.22 103.48 A 0.24 0.24 0.0 0 1 435.33 103.13 Z"
/>
  <path fill="#f9f8f3" d="M 450.25 139.59 A 0.29 0.28 48.1 0 1 449.78 139.56 C 443.46 129.18 434.65 122.18 424.32 113.67 A 2.79 2.79 0.0 0 1 423.51 110.45 Q 425.56 105.46 429.92 101.14 A 0.72 0.72 0.0 0 1 430.95 101.15 Q 432.07 102.30 434.34 105.65 Q 444.80 121.01 450.07 138.55 Q 450.10 138.64 450.29 138.99 Q 450.46 139.32 450.25 139.59 Z"
/>
  <path fill="#f9f8f3" d="M 475.50 137.15 A 0.26 0.25 36.8 0 1 475.10 137.20 L 469.36 131.88 A 0.34 0.34 0.0 0 1 469.44 131.33 Q 469.56 131.27 469.70 131.09 A 2.09 2.05 64.5 0 0 470.19 129.67 C 469.98 124.54 471.06 120.47 474.80 116.92 A 0.46 0.46 0.0 0 1 475.52 117.48 L 473.75 120.70 A 0.98 0.98 0.0 0 0 474.14 122.04 L 474.18 122.06 A 1.03 1.03 0.0 0 0 475.54 121.70 Q 479.00 116.13 484.09 110.94 A 0.34 0.33 43.0 0 1 484.55 110.93 L 484.79 111.14 A 0.14 0.14 0.0 0 1 484.81 111.32 L 478.72 119.76 A 0.82 0.81 37.2 0 0 478.88 120.88 L 478.90 120.90 A 0.70 0.70 0.0 0 0 479.92 120.80 L 486.95 111.54 A 0.62 0.60 -54.6 0 1 487.77 111.39 L 488.18 111.66 A 0.61 0.60 36.3 0 1 488.32 112.55 L 481.44 120.99 A 1.13 1.12 40.5 0 0 481.57 122.54 L 481.92 122.85 A 0.31 0.30 40.5 0 0 482.36 122.82 L 489.65 113.88 A 0.24 0.23 39.2 0 1 489.99 113.85 L 490.21 114.05 A 0.37 0.37 0.0 0 1 490.28 114.53 L 484.61 123.28 A 1.13 1.12 37.5 0 0 484.81 124.74 L 485.08 124.98 A 0.54 0.53 -52.6 0 0 485.88 124.87 L 490.04 118.44 A 0.27 0.26 -56.0 0 1 490.40 118.36 L 490.63 118.51 A 0.43 0.41 30.4 0 1 490.78 119.05 C 488.30 123.87 485.10 130.10 480.80 133.06 Q 475.94 136.40 475.50 137.15 Z"
/>
  <path fill="#f9f8f3" d="M 444.83 116.89 L 448.35 120.02 A 1.81 1.78 -77.1 0 1 448.88 120.88 L 455.40 144.70 A 0.48 0.48 0.0 0 1 454.70 145.24 L 454.54 145.15 A 1.58 1.57 -87.3 0 1 453.52 144.02 C 451.10 134.08 448.19 127.12 443.82 117.64 A 0.64 0.64 0.0 0 1 444.83 116.89 Z"
/>
  </g>
</svg>
