<svg xmlns="http://www.w3.org/2000/svg" viewBox="58.44 64.63 109.69 107.29">
  <g fill="none" stroke-width="2.00" stroke-linecap="butt">
  <path stroke="#83939d" vector-effect="non-scaling-stroke" d="M 113.28 163.92 Q 116.99 163.92 159.26 163.83 Q 160.13 163.83 159.96 162.54 A 0.73 0.72 86.4 0 0 159.24 161.90 L 155.35 161.90 A 0.65 0.65 0.0 0 1 154.70 161.25 L 154.70 108.41 A 0.76 0.76 0.0 0 1 155.46 107.65 L 158.01 107.65 A 0.77 0.77 0.0 0 0 158.78 106.91 Q 158.86 104.71 158.89 102.50 Q 158.91 100.42 157.47 99.53 Q 135.15 85.82 113.76 72.72 Q 113.62 72.63 113.35 72.63 Q 113.07 72.63 112.93 72.72 Q 91.52 85.79 69.19 99.47 Q 67.74 100.36 67.76 102.44 Q 67.79 104.65 67.87 106.85 A 0.77 0.77 0.0 0 0 68.63 107.59 L 71.18 107.59 A 0.76 0.76 0.0 0 1 71.94 108.35 L 71.87 161.19 A 0.65 0.65 0.0 0 1 71.22 161.84 L 67.33 161.84 A 0.73 0.72 -86.3 0 0 66.61 162.48 Q 66.44 163.77 67.31 163.77 Q 109.58 163.92 113.28 163.92"
/>
  <path stroke="#83939d" vector-effect="non-scaling-stroke" d="M 113.32 120.64 Q 113.69 120.64 113.76 120.67 C 118.16 122.71 121.84 124.98 123.70 129.97 Q 124.29 131.56 124.24 136.09 Q 124.11 145.85 124.23 161.16 A 0.68 0.68 0.0 0 0 124.91 161.83 L 130.26 161.83 A 0.69 0.69 0.0 0 0 130.95 161.15 Q 131.09 145.79 131.01 137.46 Q 130.96 132.80 134.53 130.38 C 136.36 129.13 138.10 127.92 140.16 128.80 Q 145.66 131.16 146.66 136.26 A 2.56 1.75 -60.9 0 1 146.70 136.70 L 146.49 161.11 A 0.84 0.84 0.0 0 0 147.33 161.95 L 151.93 161.95 A 0.80 0.80 0.0 0 0 152.73 161.15 L 152.73 108.59 A 0.87 0.86 90.0 0 0 151.87 107.72 L 133.01 107.72 A 0.81 0.80 -0.0 0 1 132.20 106.92 L 132.20 106.51 A 0.83 0.83 0.0 0 1 133.03 105.68 L 156.13 105.68 A 0.81 0.81 0.0 0 0 156.94 104.87 L 156.94 102.61 A 1.66 1.64 16.5 0 0 156.17 101.22 Q 134.16 87.27 113.46 74.92 Q 113.42 74.89 113.38 74.89 Q 113.33 74.89 113.29 74.92 Q 92.56 87.21 70.51 101.10 A 1.66 1.64 -16.3 0 0 69.74 102.49 L 69.73 104.75 A 0.81 0.81 0.0 0 0 70.54 105.56 L 93.64 105.63 A 0.83 0.83 0.0 0 1 94.47 106.46 L 94.47 106.87 A 0.81 0.80 0.2 0 1 93.66 107.67 L 74.80 107.61 A 0.87 0.86 -89.8 0 0 73.93 108.48 L 73.79 161.04 A 0.80 0.80 0.0 0 0 74.59 161.84 L 79.19 161.86 A 0.84 0.84 0.0 0 0 80.03 161.02 L 79.89 136.61 A 2.56 1.75 61.0 0 1 79.93 136.17 Q 80.94 131.07 86.45 128.73 C 88.51 127.85 90.25 129.07 92.07 130.32 Q 95.64 132.75 95.58 137.41 Q 95.47 145.74 95.57 161.10 A 0.69 0.69 0.0 0 0 96.26 161.78 L 101.61 161.80 A 0.68 0.68 0.0 0 0 102.29 161.13 Q 102.45 145.82 102.35 136.06 Q 102.31 131.53 102.91 129.94 C 104.78 124.96 108.47 122.70 112.87 120.67 Q 112.94 120.64 113.32 120.64"
/>
  <path stroke="#83939d" vector-effect="non-scaling-stroke" d="M 105.22 161.81 L 121.64 161.81 A 0.77 0.77 0.0 0 0 122.41 161.04 L 122.41 135.85 A 12.42 8.91 90.0 0 0 113.50 123.43 L 113.36 123.43 A 12.42 8.91 -90.0 0 0 104.45 135.85 L 104.45 161.04 A 0.77 0.77 0.0 0 0 105.22 161.81"
/>
  <path stroke="#83939d" vector-effect="non-scaling-stroke" d="M 133.87 161.87 L 143.81 161.83 A 0.73 0.73 0.0 0 0 144.54 161.10 L 144.46 138.15 A 7.46 5.67 89.8 0 0 138.77 130.71 L 138.71 130.71 A 7.46 5.67 89.8 0 0 133.06 138.19 L 133.14 161.14 A 0.73 0.73 0.0 0 0 133.87 161.87"
/>
  <path stroke="#83939d" vector-effect="non-scaling-stroke" d="M 82.43 161.88 L 93.03 161.90 A 0.56 0.56 0.0 0 0 93.59 161.34 L 93.63 137.86 A 7.12 5.82 -89.9 0 0 87.83 130.73 L 87.75 130.73 A 7.12 5.82 -89.9 0 0 81.91 137.84 L 81.87 161.32 A 0.56 0.56 0.0 0 0 82.43 161.88"
/>
  <path stroke="#cbbd9f" vector-effect="non-scaling-stroke" d="M 117.94 92.61 A 0.31 0.31 0.0 0 1 117.66 92.45 L 113.61 85.20 A 0.31 0.31 0.0 0 0 113.07 85.20 L 109.02 92.45 A 0.31 0.31 0.0 0 1 108.74 92.61 L 100.44 92.49 A 0.31 0.31 0.0 0 0 100.17 92.96 L 104.43 100.09 A 0.31 0.31 0.0 0 1 104.43 100.41 L 100.17 107.54 A 0.31 0.31 0.0 0 0 100.44 108.01 L 108.74 107.89 A 0.31 0.31 0.0 0 1 109.02 108.05 L 113.07 115.30 A 0.31 0.31 0.0 0 0 113.61 115.30 L 117.66 108.05 A 0.31 0.31 0.0 0 1 117.94 107.89 L 126.24 108.01 A 0.31 0.31 0.0 0 0 126.51 107.54 L 122.25 100.41 A 0.31 0.31 0.0 0 1 122.25 100.09 L 126.51 92.96 A 0.31 0.31 0.0 0 0 126.24 92.49 L 117.94 92.61"
/>
  <path stroke="#cbbd9f" vector-effect="non-scaling-stroke" d="M 113.24 88.85 Q 113.21 88.85 113.18 88.86 A 0.17 0.04 -5.1 0 0 113.05 88.90 L 111.07 91.90 A 0.51 0.48 26.4 0 0 111.34 92.63 Q 111.37 92.63 113.21 92.65 Q 115.05 92.67 115.08 92.66 A 0.51 0.48 -25.3 0 0 115.36 91.94 L 113.45 88.91 A 0.17 0.04 6.3 0 0 113.32 88.86 Q 113.29 88.86 113.24 88.85"
/>
  <path stroke="#cbbd9f" vector-effect="non-scaling-stroke" d="M 107.97 94.76 A 0.42 0.42 0.0 0 0 107.62 94.11 L 103.30 94.07 A 0.42 0.42 0.0 0 0 102.95 94.72 L 105.08 97.98 A 0.42 0.42 0.0 0 0 105.78 97.99 L 107.97 94.76"
/>
  <path stroke="#cbbd9f" vector-effect="non-scaling-stroke" d="M 109.96 94.52 Q 109.73 94.65 108.21 97.32 Q 106.69 100.00 106.69 100.26 Q 106.69 100.52 108.25 103.18 Q 109.81 105.83 110.04 105.96 Q 110.26 106.09 113.34 106.07 Q 116.42 106.05 116.64 105.91 Q 116.87 105.78 118.39 103.10 Q 119.91 100.43 119.91 100.17 Q 119.91 99.91 118.35 97.25 Q 116.79 94.60 116.56 94.47 Q 116.34 94.34 113.26 94.36 Q 110.18 94.38 109.96 94.52"
/>
  <path stroke="#cbbd9f" vector-effect="non-scaling-stroke" d="M 123.65 94.89 A 0.35 0.35 0.0 0 0 123.36 94.35 L 119.11 94.30 A 0.35 0.35 0.0 0 0 118.81 94.83 L 120.90 98.15 A 0.35 0.35 0.0 0 0 121.48 98.15 L 123.65 94.89"
/>
  <path stroke="#cbbd9f" vector-effect="non-scaling-stroke" d="M 105.27 102.15 Q 105.24 102.15 105.21 102.16 A 0.17 0.04 -7.6 0 0 105.08 102.21 L 103.23 105.29 A 0.51 0.48 23.9 0 0 103.53 106.02 Q 103.55 106.02 105.40 105.96 Q 107.25 105.90 107.28 105.89 A 0.51 0.48 -27.7 0 0 107.53 105.15 L 105.48 102.19 A 0.17 0.04 3.8 0 0 105.35 102.15 Q 105.32 102.15 105.27 102.15"
/>
  <path stroke="#cbbd9f" vector-effect="non-scaling-stroke" d="M 121.13 102.30 Q 121.10 102.30 121.07 102.30 A 0.16 0.04 -5.9 0 0 120.94 102.34 L 119.09 105.24 A 0.49 0.46 25.6 0 0 119.36 105.93 Q 119.38 105.94 121.15 105.93 Q 122.92 105.93 122.94 105.92 A 0.49 0.46 -26.0 0 0 123.20 105.22 L 121.33 102.34 A 0.16 0.04 5.5 0 0 121.21 102.30 Q 121.17 102.30 121.13 102.30"
/>
  <path stroke="#cbbd9f" vector-effect="non-scaling-stroke" d="M 113.34 111.67 Q 113.37 111.67 113.40 111.67 A 0.18 0.04 -6.2 0 0 113.54 111.62 L 115.55 108.45 A 0.53 0.50 25.4 0 0 115.25 107.69 Q 115.23 107.68 113.30 107.70 Q 111.37 107.71 111.34 107.72 A 0.53 0.50 -26.3 0 0 111.06 108.49 L 113.12 111.62 A 0.18 0.04 5.2 0 0 113.25 111.67 Q 113.29 111.67 113.34 111.67"
/>
  <path fill="#0d2e47" d="M 113.35 72.63 Q 113.62 72.63 113.76 72.72 Q 135.15 85.82 157.47 99.53 Q 158.91 100.42 158.89 102.50 Q 158.86 104.71 158.78 106.91 A 0.77 0.77 0.0 0 1 158.01 107.65 L 155.46 107.65 A 0.76 0.76 0.0 0 0 154.70 108.41 L 154.70 161.25 A 0.65 0.65 0.0 0 0 155.35 161.90 L 159.24 161.90 A 0.73 0.72 86.4 0 1 159.96 162.54 Q 160.13 163.83 159.26 163.83 Q 116.99 163.92 113.28 163.92 Q 109.58 163.92 67.31 163.77 Q 66.44 163.77 66.61 162.48 A 0.73 0.72 -86.3 0 1 67.33 161.84 L 71.22 161.84 A 0.65 0.65 0.0 0 0 71.87 161.19 L 71.94 108.35 A 0.76 0.76 0.0 0 0 71.18 107.59 L 68.63 107.59 A 0.77 0.77 0.0 0 1 67.87 106.85 Q 67.79 104.65 67.76 102.44 Q 67.74 100.36 69.19 99.47 Q 91.52 85.79 112.93 72.72 Q 113.07 72.63 113.35 72.63 Z M 113.32 120.64 Q 113.69 120.64 113.76 120.67 C 118.16 122.71 121.84 124.98 123.70 129.97 Q 124.29 131.56 124.24 136.09 Q 124.11 145.85 124.23 161.16 A 0.68 0.68 0.0 0 0 124.91 161.83 L 130.26 161.83 A 0.69 0.69 0.0 0 0 130.95 161.15 Q 131.09 145.79 131.01 137.46 Q 130.96 132.80 134.53 130.38 C 136.36 129.13 138.10 127.92 140.16 128.80 Q 145.66 131.16 146.66 136.26 A 2.56 1.75 -60.9 0 1 146.70 136.70 L 146.49 161.11 A 0.84 0.84 0.0 0 0 147.33 161.95 L 151.93 161.95 A 0.80 0.80 0.0 0 0 152.73 161.15 L 152.73 108.59 A 0.87 0.86 90.0 0 0 151.87 107.72 L 133.01 107.72 A 0.81 0.80 -0.0 0 1 132.20 106.92 L 132.20 106.51 A 0.83 0.83 0.0 0 1 133.03 105.68 L 156.13 105.68 A 0.81 0.81 0.0 0 0 156.94 104.87 L 156.94 102.61 A 1.66 1.64 16.5 0 0 156.17 101.22 Q 134.16 87.27 113.46 74.92 Q 113.42 74.89 113.38 74.89 Q 113.33 74.89 113.29 74.92 Q 92.56 87.21 70.51 101.10 A 1.66 1.64 -16.3 0 0 69.74 102.49 L 69.73 104.75 A 0.81 0.81 0.0 0 0 70.54 105.56 L 93.64 105.63 A 0.83 0.83 0.0 0 1 94.47 106.46 L 94.47 106.87 A 0.81 0.80 0.2 0 1 93.66 107.67 L 74.80 107.61 A 0.87 0.86 -89.8 0 0 73.93 108.48 L 73.79 161.04 A 0.80 0.80 0.0 0 0 74.59 161.84 L 79.19 161.86 A 0.84 0.84 0.0 0 0 80.03 161.02 L 79.89 136.61 A 2.56 1.75 61.0 0 1 79.93 136.17 Q 80.94 131.07 86.45 128.73 C 88.51 127.85 90.25 129.07 92.07 130.32 Q 95.64 132.75 95.58 137.41 Q 95.47 145.74 95.57 161.10 A 0.69 0.69 0.0 0 0 96.26 161.78 L 101.61 161.80 A 0.68 0.68 0.0 0 0 102.29 161.13 Q 102.45 145.82 102.35 136.06 Q 102.31 131.53 102.91 129.94 C 104.78 124.96 108.47 122.70 112.87 120.67 Q 112.94 120.64 113.32 120.64 Z M 105.22 161.81 L 121.64 161.81 A 0.77 0.77 0.0 0 0 122.41 161.04 L 122.41 135.85 A 12.42 8.91 90.0 0 0 113.50 123.43 L 113.36 123.43 A 12.42 8.91 -90.0 0 0 104.45 135.85 L 104.45 161.04 A 0.77 0.77 0.0 0 0 105.22 161.81 Z M 133.87 161.87 L 143.81 161.83 A 0.73 0.73 0.0 0 0 144.54 161.10 L 144.46 138.15 A 7.46 5.67 89.8 0 0 138.77 130.71 L 138.71 130.71 A 7.46 5.67 89.8 0 0 133.06 138.19 L 133.14 161.14 A 0.73 0.73 0.0 0 0 133.87 161.87 Z M 82.43 161.88 L 93.03 161.90 A 0.56 0.56 0.0 0 0 93.59 161.34 L 93.63 137.86 A 7.12 5.82 -89.9 0 0 87.83 130.73 L 87.75 130.73 A 7.12 5.82 -89.9 0 0 81.91 137.84 L 81.87 161.32 A 0.56 0.56 0.0 0 0 82.43 161.88 Z"
/>
  <path fill="#f9f8f3" d="M 113.38 74.89 Q 113.42 74.89 113.46 74.92 Q 134.16 87.27 156.17 101.22 A 1.66 1.64 16.5 0 1 156.94 102.61 L 156.94 104.87 A 0.81 0.81 0.0 0 1 156.13 105.68 L 133.03 105.68 A 0.83 0.83 0.0 0 0 132.20 106.51 L 132.20 106.92 A 0.81 0.80 -0.0 0 0 133.01 107.72 L 151.87 107.72 A 0.87 0.86 -90.0 0 1 152.73 108.59 L 152.73 161.15 A 0.80 0.80 0.0 0 1 151.93 161.95 L 147.33 161.95 A 0.84 0.84 0.0 0 1 146.49 161.11 L 146.70 136.70 A 2.56 1.75 -60.9 0 0 146.66 136.26 Q 145.66 131.16 140.16 128.80 C 138.10 127.92 136.36 129.13 134.53 130.38 Q 130.96 132.80 131.01 137.46 Q 131.09 145.79 130.95 161.15 A 0.69 0.69 0.0 0 1 130.26 161.83 L 124.91 161.83 A 0.68 0.68 0.0 0 1 124.23 161.16 Q 124.11 145.85 124.24 136.09 Q 124.29 131.56 123.70 129.97 C 121.84 124.98 118.16 122.71 113.76 120.67 Q 113.69 120.64 113.32 120.64 Q 112.94 120.64 112.87 120.67 C 108.47 122.70 104.78 124.96 102.91 129.94 Q 102.31 131.53 102.35 136.06 Q 102.45 145.82 102.29 161.13 A 0.68 0.68 0.0 0 1 101.61 161.80 L 96.26 161.78 A 0.69 0.69 0.0 0 1 95.57 161.10 Q 95.47 145.74 95.58 137.41 Q 95.64 132.75 92.07 130.32 C 90.25 129.07 88.51 127.85 86.45 128.73 Q 80.94 131.07 79.93 136.17 A 2.56 1.75 61.0 0 0 79.89 136.61 L 80.03 161.02 A 0.84 0.84 0.0 0 1 79.19 161.86 L 74.59 161.84 A 0.80 0.80 0.0 0 1 73.79 161.04 L 73.93 108.48 A 0.87 0.86 -89.8 0 1 74.80 107.61 L 93.66 107.67 A 0.81 0.80 0.2 0 0 94.47 106.87 L 94.47 106.46 A 0.83 0.83 0.0 0 0 93.64 105.63 L 70.54 105.56 A 0.81 0.81 0.0 0 1 69.73 104.75 L 69.74 102.49 A 1.66 1.64 -16.3 0 1 70.51 101.10 Q 92.56 87.21 113.29 74.92 Q 113.33 74.89 113.38 74.89 Z M 117.94 92.61 A 0.31 0.31 0.0 0 1 117.66 92.45 L 113.61 85.20 A 0.31 0.31 0.0 0 0 113.07 85.20 L 109.02 92.45 A 0.31 0.31 0.0 0 1 108.74 92.61 L 100.44 92.49 A 0.31 0.31 0.0 0 0 100.17 92.96 L 104.43 100.09 A 0.31 0.31 0.0 0 1 104.43 100.41 L 100.17 107.54 A 0.31 0.31 0.0 0 0 100.44 108.01 L 108.74 107.89 A 0.31 0.31 0.0 0 1 109.02 108.05 L 113.07 115.30 A 0.31 0.31 0.0 0 0 113.61 115.30 L 117.66 108.05 A 0.31 0.31 0.0 0 1 117.94 107.89 L 126.24 108.01 A 0.31 0.31 0.0 0 0 126.51 107.54 L 122.25 100.41 A 0.31 0.31 0.0 0 1 122.25 100.09 L 126.51 92.96 A 0.31 0.31 0.0 0 0 126.24 92.49 L 117.94 92.61 Z"
/>
  <path fill="#9c814a" d="M 117.94 92.61 L 126.24 92.49 A 0.31 0.31 0.0 0 1 126.51 92.96 L 122.25 100.09 A 0.31 0.31 0.0 0 0 122.25 100.41 L 126.51 107.54 A 0.31 0.31 0.0 0 1 126.24 108.01 L 117.94 107.89 A 0.31 0.31 0.0 0 0 117.66 108.05 L 113.61 115.30 A 0.31 0.31 0.0 0 1 113.07 115.30 L 109.02 108.05 A 0.31 0.31 0.0 0 0 108.74 107.89 L 100.44 108.01 A 0.31 0.31 0.0 0 1 100.17 107.54 L 104.43 100.41 A 0.31 0.31 0.0 0 0 104.43 100.09 L 100.17 92.96 A 0.31 0.31 0.0 0 1 100.44 92.49 L 108.74 92.61 A 0.31 0.31 0.0 0 0 109.02 92.45 L 113.07 85.20 A 0.31 0.31 0.0 0 1 113.61 85.20 L 117.66 92.45 A 0.31 0.31 0.0 0 0 117.94 92.61 Z M 113.24 88.85 Q 113.21 88.85 113.18 88.86 A 0.17 0.04 -5.1 0 0 113.05 88.90 L 111.07 91.90 A 0.51 0.48 26.4 0 0 111.34 92.63 Q 111.37 92.63 113.21 92.65 Q 115.05 92.67 115.08 92.66 A 0.51 0.48 -25.3 0 0 115.36 91.94 L 113.45 88.91 A 0.17 0.04 6.3 0 0 113.32 88.86 Q 113.29 88.86 113.24 88.85 Z M 107.97 94.76 A 0.42 0.42 0.0 0 0 107.62 94.11 L 103.30 94.07 A 0.42 0.42 0.0 0 0 102.95 94.72 L 105.08 97.98 A 0.42 0.42 0.0 0 0 105.78 97.99 L 107.97 94.76 Z M 109.96 94.52 Q 109.73 94.65 108.21 97.32 Q 106.69 100.00 106.69 100.26 Q 106.69 100.52 108.25 103.18 Q 109.81 105.83 110.04 105.96 Q 110.26 106.09 113.34 106.07 Q 116.42 106.05 116.64 105.91 Q 116.87 105.78 118.39 103.10 Q 119.91 100.43 119.91 100.17 Q 119.91 99.91 118.35 97.25 Q 116.79 94.60 116.56 94.47 Q 116.34 94.34 113.26 94.36 Q 110.18 94.38 109.96 94.52 Z M 123.65 94.89 A 0.35 0.35 0.0 0 0 123.36 94.35 L 119.11 94.30 A 0.35 0.35 0.0 0 0 118.81 94.83 L 120.90 98.15 A 0.35 0.35 0.0 0 0 121.48 98.15 L 123.65 94.89 Z M 105.27 102.15 Q 105.24 102.15 105.21 102.16 A 0.17 0.04 -7.6 0 0 105.08 102.21 L 103.23 105.29 A 0.51 0.48 23.9 0 0 103.53 106.02 Q 103.55 106.02 105.40 105.96 Q 107.25 105.90 107.28 105.89 A 0.51 0.48 -27.7 0 0 107.53 105.15 L 105.48 102.19 A 0.17 0.04 3.8 0 0 105.35 102.15 Q 105.32 102.15 105.27 102.15 Z M 121.13 102.30 Q 121.10 102.30 121.07 102.30 A 0.16 0.04 -5.9 0 0 120.94 102.34 L 119.09 105.24 A 0.49 0.46 25.6 0 0 119.36 105.93 Q 119.38 105.94 121.15 105.93 Q 122.92 105.93 122.94 105.92 A 0.49 0.46 -26.0 0 0 123.20 105.22 L 121.33 102.34 A 0.16 0.04 5.5 0 0 121.21 102.30 Q 121.17 102.30 121.13 102.30 Z M 113.34 111.67 Q 113.37 111.67 113.40 111.67 A 0.18 0.04 -6.2 0 0 113.54 111.62 L 115.55 108.45 A 0.53 0.50 25.4 0 0 115.25 107.69 Q 115.23 107.68 113.30 107.70 Q 111.37 107.71 111.34 107.72 A 0.53 0.50 -26.3 0 0 111.06 108.49 L 113.12 111.62 A 0.18 0.04 5.2 0 0 113.25 111.67 Q 113.29 111.67 113.34 111.67 Z"
/>
  <path fill="#f9f8f3" d="M 113.24 88.85 Q 113.29 88.86 113.32 88.86 A 0.17 0.04 6.3 0 1 113.45 88.91 L 115.36 91.94 A 0.51 0.48 -25.3 0 1 115.08 92.66 Q 115.05 92.67 113.21 92.65 Q 111.37 92.63 111.34 92.63 A 0.51 0.48 26.4 0 1 111.07 91.90 L 113.05 88.90 A 0.17 0.04 -5.1 0 1 113.18 88.86 Q 113.21 88.85 113.24 88.85 Z"
/>
  <path fill="#f9f8f3" d="M 107.97 94.76 L 105.78 97.99 A 0.42 0.42 0.0 0 1 105.08 97.98 L 102.95 94.72 A 0.42 0.42 0.0 0 1 103.30 94.07 L 107.62 94.11 A 0.42 0.42 0.0 0 1 107.97 94.76 Z"
/>
  <path fill="#f9f8f3" d="M 113.26 94.36 Q 116.34 94.34 116.56 94.47 Q 116.79 94.60 118.35 97.25 Q 119.91 99.91 119.91 100.17 Q 119.91 100.43 118.39 103.10 Q 116.87 105.78 116.64 105.91 Q 116.42 106.05 113.34 106.07 Q 110.26 106.09 110.04 105.96 Q 109.81 105.83 108.25 103.18 Q 106.69 100.52 106.69 100.26 Q 106.69 100.00 108.21 97.32 Q 109.73 94.65 109.96 94.52 Q 110.18 94.38 113.26 94.36 Z"
/>
  <path fill="#f9f8f3" d="M 123.65 94.89 L 121.48 98.15 A 0.35 0.35 0.0 0 1 120.90 98.15 L 118.81 94.83 A 0.35 0.35 0.0 0 1 119.11 94.30 L 123.36 94.35 A 0.35 0.35 0.0 0 1 123.65 94.89 Z"
/>
  <path fill="#f9f8f3" d="M 105.27 102.15 Q 105.32 102.15 105.35 102.15 A 0.17 0.04 3.8 0 1 105.48 102.19 L 107.53 105.15 A 0.51 0.48 -27.7 0 1 107.28 105.89 Q 107.25 105.90 105.40 105.96 Q 103.55 106.02 103.53 106.02 A 0.51 0.48 23.9 0 1 103.23 105.29 L 105.08 102.21 A 0.17 0.04 -7.6 0 1 105.21 102.16 Q 105.24 102.15 105.27 102.15 Z"
/>
  <path fill="#f9f8f3" d="M 121.13 102.30 Q 121.17 102.30 121.21 102.30 A 0.16 0.04 5.5 0 1 121.33 102.34 L 123.20 105.22 A 0.49 0.46 -26.0 0 1 122.94 105.92 Q 122.92 105.93 121.15 105.93 Q 119.38 105.94 119.36 105.93 A 0.49 0.46 25.6 0 1 119.09 105.24 L 120.94 102.34 A 0.16 0.04 -5.9 0 1 121.07 102.30 Q 121.10 102.30 121.13 102.30 Z"
/>
  <path fill="#f9f8f3" d="M 113.30 107.70 Q 115.23 107.68 115.25 107.69 A 0.53 0.50 25.4 0 1 115.55 108.45 L 113.54 111.62 A 0.18 0.04 -6.2 0 1 113.40 111.67 Q 113.37 111.67 113.34 111.67 Q 113.29 111.67 113.25 111.67 A 0.18 0.04 5.2 0 1 113.12 111.62 L 111.06 108.49 A 0.53 0.50 -26.3 0 1 111.34 107.72 Q 111.37 107.71 113.30 107.70 Z"
/>
  <path fill="#f9f8f3" d="M 105.22 161.81 A 0.77 0.77 0.0 0 1 104.45 161.04 L 104.45 135.85 A 12.42 8.91 -90.0 0 1 113.36 123.43 L 113.50 123.43 A 12.42 8.91 90.0 0 1 122.41 135.85 L 122.41 161.04 A 0.77 0.77 0.0 0 1 121.64 161.81 L 105.22 161.81 Z"
/>
  <path fill="#f9f8f3" d="M 133.87 161.87 A 0.73 0.73 0.0 0 1 133.14 161.14 L 133.06 138.19 A 7.46 5.67 89.8 0 1 138.71 130.71 L 138.77 130.71 A 7.46 5.67 89.8 0 1 144.46 138.15 L 144.54 161.10 A 0.73 0.73 0.0 0 1 143.81 161.83 L 133.87 161.87 Z"
/>
  <path fill="#f9f8f3" d="M 82.43 161.88 A 0.56 0.56 0.0 0 1 81.87 161.32 L 81.91 137.84 A 7.12 5.82 -89.9 0 1 87.75 130.73 L 87.83 130.73 A 7.12 5.82 -89.9 0 1 93.63 137.86 L 93.59 161.34 A 0.56 0.56 0.0 0 1 93.03 161.90 L 82.43 161.88 Z"
/>
  </g>
</svg>
