<svg xmlns="http://www.w3.org/2000/svg" viewBox="226.47 60.45 112.71 113.47">
  <g fill="none" stroke-width="2.00" stroke-linecap="butt">
  <path stroke="#cbbd9f" vector-effect="non-scaling-stroke" d="M 287.71 78.25 L 287.54 74.60 A 0.79 0.75 28.2 0 0 287.41 74.21 L 283.76 68.45 A 1.37 1.37 0.0 0 0 281.41 68.51 Q 280.02 70.95 279.16 71.87 C 277.48 73.66 277.36 75.84 277.38 78.04 A 0.40 0.40 0.0 0 1 276.71 78.33 Q 274.61 76.32 273.78 74.40 A 1.54 1.54 0.0 0 0 270.85 74.76 L 270.05 79.48 A 0.50 0.50 0.0 0 1 269.28 79.82 L 264.11 76.48 A 1.33 1.33 0.0 0 0 262.21 78.21 Q 266.26 85.99 268.54 95.58 A 1.51 1.50 78.3 0 0 270.27 96.72 Q 282.83 94.47 295.26 96.79 A 0.91 0.90 -78.0 0 0 296.31 96.10 C 297.78 89.82 299.58 83.31 302.94 77.97 A 1.04 1.04 0.0 0 0 302.36 76.42 C 300.57 75.86 297.58 78.26 296.09 79.04 A 0.73 0.72 -19.2 0 1 295.05 78.54 Q 294.91 77.87 294.40 74.36 A 1.55 1.52 79.5 0 0 292.55 73.06 Q 291.62 73.27 291.31 73.83 Q 289.87 76.36 288.28 78.43 A 0.32 0.32 0.0 0 1 287.71 78.25"
/>
  <path stroke="#83939d" vector-effect="non-scaling-stroke" d="M 310.40 146.97 Q 307.48 148.07 308.13 151.08 A 3.02 2.48 -0.4 0 0 310.59 153.07 Q 312.33 153.31 314.94 153.04 A 0.68 0.67 0.7 0 1 315.68 153.79 L 314.89 160.39 A 0.65 0.50 -55.7 0 0 314.90 160.58 C 315.84 165.92 323.18 165.15 322.43 159.25 Q 321.97 155.61 321.84 153.83 A 0.63 0.63 0.0 0 1 322.46 153.15 C 324.95 153.14 328.07 153.70 329.45 151.13 A 2.69 2.65 -29.0 0 0 329.73 150.18 C 329.94 148.14 328.59 147.69 327.11 146.94 A 0.94 0.91 13.8 0 1 326.60 146.12 L 326.69 102.17 A 0.51 0.44 59.2 0 1 326.72 102.00 Q 326.92 101.38 327.72 101.11 C 331.18 99.93 330.03 95.48 326.63 95.07 Q 324.93 94.86 322.19 95.05 A 0.43 0.42 1.1 0 1 321.74 94.59 Q 322.06 91.48 322.40 89.39 C 323.27 84.16 318.04 82.43 315.21 86.22 Q 314.54 87.13 314.98 89.83 Q 315.47 92.80 315.64 94.59 A 0.48 0.48 0.0 0 1 315.15 95.12 Q 311.98 95.04 310.74 95.13 A 3.14 3.13 4.9 0 0 307.93 97.49 Q 307.15 100.55 310.49 101.30 A 0.40 0.40 0.0 0 1 310.80 101.76 L 310.76 102.01 A 0.66 0.65 -82.9 0 1 310.06 102.56 Q 304.40 102.12 296.25 102.02 Q 288.30 101.93 283.00 104.88 A 1.01 0.99 -45.6 0 1 282.06 104.90 C 273.92 100.81 266.03 101.98 254.92 102.36 A 0.62 0.62 0.0 0 1 254.64 101.17 C 255.71 100.68 256.87 100.00 257.16 98.73 C 258.01 94.96 252.53 94.77 250.22 95.19 A 0.67 0.67 0.0 0 1 249.43 94.60 C 249.13 91.68 252.29 85.24 247.45 84.22 C 243.73 83.43 241.99 86.60 242.84 90.01 Q 243.71 93.51 243.92 94.48 A 0.45 0.44 83.9 0 1 243.48 95.03 C 240.50 95.02 235.76 94.14 235.54 98.19 C 235.45 99.73 236.35 100.94 237.76 101.27 A 0.72 0.71 -83.4 0 1 238.31 101.97 L 238.37 146.09 A 1.22 1.18 -33.6 0 1 238.26 146.59 Q 238.11 146.81 237.61 146.94 C 234.47 147.79 234.71 152.58 238.10 153.03 Q 240.35 153.33 242.68 153.05 A 0.70 0.70 0.0 0 1 243.46 153.77 Q 243.37 155.92 242.92 157.96 Q 242.30 160.83 242.99 162.01 C 243.98 163.69 245.97 164.84 247.84 163.85 C 251.76 161.77 249.80 157.54 249.34 154.04 A 0.77 0.77 0.0 0 1 250.12 153.17 Q 252.16 153.21 253.61 153.20 C 256.59 153.19 257.95 150.77 256.79 148.16 A 1.50 1.44 -90.0 0 0 256.10 147.44 L 254.56 146.65 A 0.39 0.39 0.0 0 1 254.71 145.91 Q 264.48 145.38 273.52 146.18 Q 278.13 146.59 281.90 148.72 A 0.67 0.67 0.0 0 0 282.48 148.76 Q 288.31 146.39 293.11 146.08 Q 301.50 145.53 310.24 145.96 A 0.52 0.52 0.0 0 1 310.40 146.97"
/>
  <path stroke="#cbbd9f" vector-effect="non-scaling-stroke" d="M 292.05 76.71 L 288.36 81.23 A 1.29 1.29 0.0 0 1 286.18 80.94 Q 285.40 79.19 285.54 76.41 A 3.62 3.60 -57.7 0 0 285.14 74.60 L 283.15 70.81 A 0.69 0.69 0.0 0 0 281.85 71.18 Q 282.01 73.39 280.32 73.87 A 1.40 1.34 73.3 0 0 279.43 75.61 Q 280.48 79.01 278.90 81.48 A 1.23 1.23 0.0 0 1 276.95 81.64 L 272.90 77.08 A 0.09 0.09 0.0 0 0 272.75 77.11 L 270.87 81.81 A 1.14 1.14 0.0 0 1 269.06 82.24 L 265.84 79.38 A 0.31 0.31 0.0 0 0 265.35 79.73 L 269.59 90.26 A 0.63 0.62 -17.7 0 0 270.32 90.63 Q 279.62 88.29 289.48 89.66 Q 290.44 89.79 295.01 90.38 A 0.36 0.35 14.0 0 0 295.38 90.16 L 299.60 79.62 A 0.43 0.42 80.3 0 0 298.93 79.14 L 295.34 82.33 A 0.96 0.96 0.0 0 1 293.78 81.86 L 292.39 76.78 A 0.20 0.19 -33.1 0 0 292.05 76.71"
/>
  <path stroke="#cbbd9f" vector-effect="non-scaling-stroke" d="M 282.52 93.72 Q 288.37 93.71 294.15 94.59 A 0.91 0.91 0.0 0 0 295.19 93.71 Q 295.20 92.71 294.64 92.53 Q 290.05 91.07 282.51 91.09 Q 274.98 91.10 270.39 92.58 Q 269.83 92.76 269.84 93.76 A 0.91 0.91 0.0 0 0 270.89 94.63 Q 276.67 93.73 282.52 93.72"
/>
  <path stroke="#83939d" vector-effect="non-scaling-stroke" d="M 247.37 94.64 Q 247.24 92.10 248.17 88.28 A 1.82 1.80 86.3 0 0 245.77 86.14 Q 244.35 86.71 244.73 89.04 Q 245.48 93.60 246.00 94.93 A 0.71 0.71 0.0 0 0 247.37 94.64"
/>
  <path stroke="#83939d" vector-effect="non-scaling-stroke" d="M 319.74 86.13 L 317.58 86.11 A 0.71 0.71 0.0 0 0 316.87 86.82 L 316.87 86.95 A 8.22 1.17 -89.6 0 0 317.98 95.18 L 319.22 95.18 A 8.22 1.17 -89.6 0 0 320.45 86.97 L 320.45 86.84 A 0.71 0.71 0.0 0 0 319.74 86.13"
/>
  <path stroke="#83939d" vector-effect="non-scaling-stroke" d="M 255.2397 98.2230 A 1.16 1.16 0.0 0 0 254.0737 97.0691 L 238.4339 97.1510 A 1.16 1.16 0.0 0 0 237.2800 98.3170 L 237.2803 98.3770 A 1.16 1.16 0.0 0 0 238.4463 99.5309 L 254.0861 99.4490 A 1.16 1.16 0.0 0 0 255.2400 98.2830 L 255.2397 98.2230"
/>
  <path stroke="#83939d" vector-effect="non-scaling-stroke" d="M 327.6998 98.1888 A 1.16 1.16 0.0 0 0 326.5358 97.0329 L 310.9959 97.0871 A 1.16 1.16 0.0 0 0 309.8399 98.2512 L 309.8402 98.3112 A 1.16 1.16 0.0 0 0 311.0042 99.4671 L 326.5441 99.4129 A 1.16 1.16 0.0 0 0 327.7001 98.2488 L 327.6998 98.1888"
/>
  <path stroke="#83939d" vector-effect="non-scaling-stroke" d="M 252.6589 101.8108 A 0.46 0.46 0.0 0 0 252.1997 101.3500 L 240.7798 101.3301 A 0.46 0.46 0.0 0 0 240.3190 101.7893 L 240.2411 146.4292 A 0.46 0.46 0.0 0 0 240.7003 146.8900 L 252.1202 146.9099 A 0.46 0.46 0.0 0 0 252.5810 146.4507 L 252.6589 101.8108"
/>
  <path stroke="#83939d" vector-effect="non-scaling-stroke" d="M 324.7112 101.8793 A 0.52 0.52 0.0 0 0 324.1903 101.3602 L 312.9303 101.3799 A 0.52 0.52 0.0 0 0 312.4112 101.9008 L 312.4888 146.3407 A 0.52 0.52 0.0 0 0 313.0097 146.8598 L 324.2697 146.8401 A 0.52 0.52 0.0 0 0 324.7888 146.3192 L 324.7112 101.8793"
/>
  <path stroke="#83939d" vector-effect="non-scaling-stroke" d="M 281.55 145.65 L 281.55 107.95 A 1.76 1.75 -77.1 0 0 280.57 106.37 C 273.63 102.96 263.06 103.90 255.00 104.62 A 0.43 0.43 0.0 0 0 254.60 105.05 L 254.60 143.59 A 0.48 0.48 0.0 0 0 255.12 144.07 C 263.78 143.45 272.94 143.19 281.04 146.02 A 0.39 0.38 -80.4 0 0 281.55 145.65"
/>
  <path stroke="#83939d" vector-effect="non-scaling-stroke" d="M 283.49 145.69 A 0.39 0.38 80.5 0 0 284.00 146.06 C 292.12 143.23 301.31 143.50 309.99 144.13 A 0.48 0.48 0.0 0 0 310.51 143.65 L 310.54 105.02 A 0.43 0.43 0.0 0 0 310.14 104.59 C 302.06 103.86 291.47 102.91 284.51 106.32 A 1.77 1.75 77.1 0 0 283.53 107.90 L 283.49 145.69"
/>
  <path stroke="#83939d" vector-effect="non-scaling-stroke" d="M 255.3195 149.8572 A 1.18 1.18 0.0 0 0 254.1313 148.6855 L 238.5117 148.7946 A 1.18 1.18 0.0 0 0 237.3399 149.9828 L 237.3405 150.0628 A 1.18 1.18 0.0 0 0 238.5287 151.2345 L 254.1483 151.1254 A 1.18 1.18 0.0 0 0 255.3201 149.9372 L 255.3195 149.8572"
/>
  <path stroke="#83939d" vector-effect="non-scaling-stroke" d="M 327.5198 149.8796 A 1.17 1.17 0.0 0 0 326.3458 148.7137 L 311.2459 148.7664 A 1.17 1.17 0.0 0 0 310.0799 149.9404 L 310.0802 150.0004 A 1.17 1.17 0.0 0 0 311.2542 151.1663 L 326.3541 151.1136 A 1.17 1.17 0.0 0 0 327.5201 149.9396 L 327.5198 149.8796"
/>
  <path stroke="#83939d" vector-effect="non-scaling-stroke" d="M 246.39 162.20 Q 247.45 162.18 248.05 160.82 A 0.98 0.96 53.8 0 0 248.12 160.32 L 247.30 153.69 A 0.61 0.60 1.2 0 0 246.78 153.16 Q 246.59 153.14 246.30 153.14 Q 246.01 153.14 245.82 153.17 A 0.61 0.60 -2.4 0 0 245.31 153.71 L 244.63 160.36 A 0.98 0.96 -55.0 0 0 244.71 160.85 Q 245.33 162.21 246.39 162.20"
/>
  <path stroke="#83939d" vector-effect="non-scaling-stroke" d="M 319.9892 154.2448 A 1.08 1.08 0.0 0 0 318.8813 153.1934 L 318.2615 153.2097 A 1.08 1.08 0.0 0 0 317.2102 154.3176 L 317.3908 161.2152 A 1.08 1.08 0.0 0 0 318.4987 162.2666 L 319.1185 162.2503 A 1.08 1.08 0.0 0 0 320.1698 161.1424 L 319.9892 154.2448"
/>
  <path stroke="#cbbd9f" vector-effect="non-scaling-stroke" d="M 276.64 110.47 L 259.47 110.05 A 0.28 0.28 0.0 0 0 259.18 110.32 L 259.16 111.15 A 0.85 0.73 1.4 0 0 259.99 111.90 L 276.03 112.30 A 0.85 0.73 1.4 0 0 276.89 111.59 L 276.91 110.76 A 0.28 0.28 0.0 0 0 276.64 110.47"
/>
  <path stroke="#cbbd9f" vector-effect="non-scaling-stroke" d="M 276.6883 116.0280 A 0.27 0.27 0.0 0 0 276.4226 115.7538 L 259.4047 115.4864 A 0.27 0.27 0.0 0 0 259.1305 115.7522 L 259.1117 116.9520 A 0.27 0.27 0.0 0 0 259.3774 117.2262 L 276.3953 117.4936 A 0.27 0.27 0.0 0 0 276.6695 117.2278 L 276.6883 116.0280"
/>
  <path stroke="#cbbd9f" vector-effect="non-scaling-stroke" d="M 276.7500 121.2461 A 0.27 0.27 0.0 0 0 276.4857 120.9705 L 259.2695 120.6099 A 0.27 0.27 0.0 0 0 258.9939 120.8742 L 258.9700 122.0139 A 0.27 0.27 0.0 0 0 259.2343 122.2895 L 276.4505 122.6501 A 0.27 0.27 0.0 0 0 276.7261 122.3858 L 276.7500 121.2461"
/>
  <path stroke="#cbbd9f" vector-effect="non-scaling-stroke" d="M 276.5676 126.3372 A 0.27 0.27 0.0 0 0 276.3018 126.0630 L 259.3839 125.7972 A 0.27 0.27 0.0 0 0 259.1097 126.0629 L 259.0924 127.1628 A 0.27 0.27 0.0 0 0 259.3582 127.4370 L 276.2761 127.7028 A 0.27 0.27 0.0 0 0 276.5503 127.4371 L 276.5676 126.3372"
/>
  <path stroke="#cbbd9f" vector-effect="non-scaling-stroke" d="M 276.6893 131.4798 A 0.27 0.27 0.0 0 0 276.4245 131.2047 L 259.2877 130.8756 A 0.27 0.27 0.0 0 0 259.0126 131.1404 L 258.9907 132.2802 A 0.27 0.27 0.0 0 0 259.2555 132.5553 L 276.3923 132.8844 A 0.27 0.27 0.0 0 0 276.6674 132.6196 L 276.6893 131.4798"
/>
  <path stroke="#cbbd9f" vector-effect="non-scaling-stroke" d="M 276.7572 136.6340 A 0.27 0.27 0.0 0 0 276.4910 136.3603 L 259.2727 136.1199 A 0.27 0.27 0.0 0 0 258.9990 136.3861 L 258.9828 137.5460 A 0.27 0.27 0.0 0 0 259.2490 137.8197 L 276.4673 138.0601 A 0.27 0.27 0.0 0 0 276.7410 137.7939 L 276.7572 136.6340"
/>
  <path stroke="#cbbd9f" vector-effect="non-scaling-stroke" d="M 288.02 112.26 L 305.68 111.86 A 0.13 0.13 0.0 0 0 305.81 111.73 L 305.80 111.60 A 3.37 1.54 -1.3 0 0 302.40 110.13 L 291.22 110.39 A 3.37 1.54 -1.3 0 0 287.89 112.00 L 287.89 112.13 A 0.13 0.13 0.0 0 0 288.02 112.26"
/>
  <path stroke="#cbbd9f" vector-effect="non-scaling-stroke" d="M 305.5439 115.8300 A 0.27 0.27 0.0 0 0 305.2711 115.5628 L 288.6120 115.7373 A 0.27 0.27 0.0 0 0 288.3448 116.0101 L 288.3561 117.0900 A 0.27 0.27 0.0 0 0 288.6289 117.3572 L 305.2880 117.1827 A 0.27 0.27 0.0 0 0 305.5552 116.9099 L 305.5439 115.8300"
/>
  <path stroke="#cbbd9f" vector-effect="non-scaling-stroke" d="M 305.6440 120.9893 A 0.26 0.26 0.0 0 0 305.3813 120.7321 L 288.5822 120.9080 A 0.26 0.26 0.0 0 0 288.3249 121.1707 L 288.3360 122.2307 A 0.26 0.26 0.0 0 0 288.5987 122.4879 L 305.3978 122.3120 A 0.26 0.26 0.0 0 0 305.6551 122.0493 L 305.6440 120.9893"
/>
  <path stroke="#cbbd9f" vector-effect="non-scaling-stroke" d="M 305.6518 126.1789 A 0.26 0.26 0.0 0 0 305.3881 125.9225 L 288.5498 126.1576 A 0.26 0.26 0.0 0 0 288.2934 126.4212 L 288.3082 127.4811 A 0.26 0.26 0.0 0 0 288.5719 127.7375 L 305.4102 127.5024 A 0.26 0.26 0.0 0 0 305.6666 127.2388 L 305.6518 126.1789"
/>
  <path stroke="#cbbd9f" vector-effect="non-scaling-stroke" d="M 305.7001 131.2945 A 0.27 0.27 0.0 0 0 305.4259 131.0288 L 288.7080 131.2914 A 0.27 0.27 0.0 0 0 288.4423 131.5656 L 288.4599 132.6855 A 0.27 0.27 0.0 0 0 288.7341 132.9512 L 305.4520 132.6886 A 0.27 0.27 0.0 0 0 305.7177 132.4144 L 305.7001 131.2945"
/>
  <path stroke="#cbbd9f" vector-effect="non-scaling-stroke" d="M 305.7319 136.4725 A 0.27 0.27 0.0 0 0 305.4586 136.2059 L 288.3999 136.4143 A 0.27 0.27 0.0 0 0 288.1332 136.6876 L 288.1481 137.9075 A 0.27 0.27 0.0 0 0 288.4214 138.1741 L 305.4801 137.9657 A 0.27 0.27 0.0 0 0 305.7468 137.6924 L 305.7319 136.4725"
/>
  <path fill="#9c814a" d="M 287.71 78.25 A 0.32 0.32 0.0 0 0 288.28 78.43 Q 289.87 76.36 291.31 73.83 Q 291.62 73.27 292.55 73.06 A 1.55 1.52 79.5 0 1 294.40 74.36 Q 294.91 77.87 295.05 78.54 A 0.73 0.72 -19.2 0 0 296.09 79.04 C 297.58 78.26 300.57 75.86 302.36 76.42 A 1.04 1.04 0.0 0 1 302.94 77.97 C 299.58 83.31 297.78 89.82 296.31 96.10 A 0.91 0.90 -78.0 0 1 295.26 96.79 Q 282.83 94.47 270.27 96.72 A 1.51 1.50 78.3 0 1 268.54 95.58 Q 266.26 85.99 262.21 78.21 A 1.33 1.33 0.0 0 1 264.11 76.48 L 269.28 79.82 A 0.50 0.50 0.0 0 0 270.05 79.48 L 270.85 74.76 A 1.54 1.54 0.0 0 1 273.78 74.40 Q 274.61 76.32 276.71 78.33 A 0.40 0.40 0.0 0 0 277.38 78.04 C 277.36 75.84 277.48 73.66 279.16 71.87 Q 280.02 70.95 281.41 68.51 A 1.37 1.37 0.0 0 1 283.76 68.45 L 287.41 74.21 A 0.79 0.75 28.2 0 1 287.54 74.60 L 287.71 78.25 Z M 292.05 76.71 L 288.36 81.23 A 1.29 1.29 0.0 0 1 286.18 80.94 Q 285.40 79.19 285.54 76.41 A 3.62 3.60 -57.7 0 0 285.14 74.60 L 283.15 70.81 A 0.69 0.69 0.0 0 0 281.85 71.18 Q 282.01 73.39 280.32 73.87 A 1.40 1.34 73.3 0 0 279.43 75.61 Q 280.48 79.01 278.90 81.48 A 1.23 1.23 0.0 0 1 276.95 81.64 L 272.90 77.08 A 0.09 0.09 0.0 0 0 272.75 77.11 L 270.87 81.81 A 1.14 1.14 0.0 0 1 269.06 82.24 L 265.84 79.38 A 0.31 0.31 0.0 0 0 265.35 79.73 L 269.59 90.26 A 0.63 0.62 -17.7 0 0 270.32 90.63 Q 279.62 88.29 289.48 89.66 Q 290.44 89.79 295.01 90.38 A 0.36 0.35 14.0 0 0 295.38 90.16 L 299.60 79.62 A 0.43 0.42 80.3 0 0 298.93 79.14 L 295.34 82.33 A 0.96 0.96 0.0 0 1 293.78 81.86 L 292.39 76.78 A 0.20 0.19 -33.1 0 0 292.05 76.71 Z M 282.52 93.72 Q 288.37 93.71 294.15 94.59 A 0.91 0.91 0.0 0 0 295.19 93.71 Q 295.20 92.71 294.64 92.53 Q 290.05 91.07 282.51 91.09 Q 274.98 91.10 270.39 92.58 Q 269.83 92.76 269.84 93.76 A 0.91 0.91 0.0 0 0 270.89 94.63 Q 276.67 93.73 282.52 93.72 Z"
/>
  <path fill="#f9f8f3" d="M 292.05 76.71 A 0.20 0.19 -33.1 0 1 292.39 76.78 L 293.78 81.86 A 0.96 0.96 0.0 0 0 295.34 82.33 L 298.93 79.14 A 0.43 0.42 80.3 0 1 299.60 79.62 L 295.38 90.16 A 0.36 0.35 14.0 0 1 295.01 90.38 Q 290.44 89.79 289.48 89.66 Q 279.62 88.29 270.32 90.63 A 0.63 0.62 -17.7 0 1 269.59 90.26 L 265.35 79.73 A 0.31 0.31 0.0 0 1 265.84 79.38 L 269.06 82.24 A 1.14 1.14 0.0 0 0 270.87 81.81 L 272.75 77.11 A 0.09 0.09 0.0 0 1 272.90 77.08 L 276.95 81.64 A 1.23 1.23 0.0 0 0 278.90 81.48 Q 280.48 79.01 279.43 75.61 A 1.40 1.34 73.3 0 1 280.32 73.87 Q 282.01 73.39 281.85 71.18 A 0.69 0.69 0.0 0 1 283.15 70.81 L 285.14 74.60 A 3.62 3.60 -57.7 0 1 285.54 76.41 Q 285.40 79.19 286.18 80.94 A 1.29 1.29 0.0 0 0 288.36 81.23 L 292.05 76.71 Z"
/>
  <path fill="#0d2e47" d="M 310.40 146.97 A 0.52 0.52 0.0 0 0 310.24 145.96 Q 301.50 145.53 293.11 146.08 Q 288.31 146.39 282.48 148.76 A 0.67 0.67 0.0 0 1 281.90 148.72 Q 278.13 146.59 273.52 146.18 Q 264.48 145.38 254.71 145.91 A 0.39 0.39 0.0 0 0 254.56 146.65 L 256.10 147.44 A 1.50 1.44 -90.0 0 1 256.79 148.16 C 257.95 150.77 256.59 153.19 253.61 153.20 Q 252.16 153.21 250.12 153.17 A 0.77 0.77 0.0 0 0 249.34 154.04 C 249.80 157.54 251.76 161.77 247.84 163.85 C 245.97 164.84 243.98 163.69 242.99 162.01 Q 242.30 160.83 242.92 157.96 Q 243.37 155.92 243.46 153.77 A 0.70 0.70 0.0 0 0 242.68 153.05 Q 240.35 153.33 238.10 153.03 C 234.71 152.58 234.47 147.79 237.61 146.94 Q 238.11 146.81 238.26 146.59 A 1.22 1.18 -33.6 0 0 238.37 146.09 L 238.31 101.97 A 0.72 0.71 -83.4 0 0 237.76 101.27 C 236.35 100.94 235.45 99.73 235.54 98.19 C 235.76 94.14 240.50 95.02 243.48 95.03 A 0.45 0.44 83.9 0 0 243.92 94.48 Q 243.71 93.51 242.84 90.01 C 241.99 86.60 243.73 83.43 247.45 84.22 C 252.29 85.24 249.13 91.68 249.43 94.60 A 0.67 0.67 0.0 0 0 250.22 95.19 C 252.53 94.77 258.01 94.96 257.16 98.73 C 256.87 100.00 255.71 100.68 254.64 101.17 A 0.62 0.62 0.0 0 0 254.92 102.36 C 266.03 101.98 273.92 100.81 282.06 104.90 A 1.01 0.99 -45.6 0 0 283.00 104.88 Q 288.30 101.93 296.25 102.02 Q 304.40 102.12 310.06 102.56 A 0.66 0.65 -82.9 0 0 310.76 102.01 L 310.80 101.76 A 0.40 0.40 0.0 0 0 310.49 101.30 Q 307.15 100.55 307.93 97.49 A 3.14 3.13 4.9 0 1 310.74 95.13 Q 311.98 95.04 315.15 95.12 A 0.48 0.48 0.0 0 0 315.64 94.59 Q 315.47 92.80 314.98 89.83 Q 314.54 87.13 315.21 86.22 C 318.04 82.43 323.27 84.16 322.40 89.39 Q 322.06 91.48 321.74 94.59 A 0.43 0.42 1.1 0 0 322.19 95.05 Q 324.93 94.86 326.63 95.07 C 330.03 95.48 331.18 99.93 327.72 101.11 Q 326.92 101.38 326.72 102.00 A 0.51 0.44 59.2 0 0 326.69 102.17 L 326.60 146.12 A 0.94 0.91 13.8 0 0 327.11 146.94 C 328.59 147.69 329.94 148.14 329.73 150.18 A 2.69 2.65 -29.0 0 1 329.45 151.13 C 328.07 153.70 324.95 153.14 322.46 153.15 A 0.63 0.63 0.0 0 0 321.84 153.83 Q 321.97 155.61 322.43 159.25 C 323.18 165.15 315.84 165.92 314.90 160.58 A 0.65 0.50 -55.7 0 1 314.89 160.39 L 315.68 153.79 A 0.68 0.67 0.7 0 0 314.94 153.04 Q 312.33 153.31 310.59 153.07 A 3.02 2.48 -0.4 0 1 308.13 151.08 Q 307.48 148.07 310.40 146.97 Z M 247.37 94.64 Q 247.24 92.10 248.17 88.28 A 1.82 1.80 86.3 0 0 245.77 86.14 Q 244.35 86.71 244.73 89.04 Q 245.48 93.60 246.00 94.93 A 0.71 0.71 0.0 0 0 247.37 94.64 Z M 319.74 86.13 L 317.58 86.11 A 0.71 0.71 0.0 0 0 316.87 86.82 L 316.87 86.95 A 8.22 1.17 -89.6 0 0 317.98 95.18 L 319.22 95.18 A 8.22 1.17 -89.6 0 0 320.45 86.97 L 320.45 86.84 A 0.71 0.71 0.0 0 0 319.74 86.13 Z M 255.2397 98.2230 A 1.16 1.16 0.0 0 0 254.0737 97.0691 L 238.4339 97.1510 A 1.16 1.16 0.0 0 0 237.2800 98.3170 L 237.2803 98.3770 A 1.16 1.16 0.0 0 0 238.4463 99.5309 L 254.0861 99.4490 A 1.16 1.16 0.0 0 0 255.2400 98.2830 L 255.2397 98.2230 Z M 327.6998 98.1888 A 1.16 1.16 0.0 0 0 326.5358 97.0329 L 310.9959 97.0871 A 1.16 1.16 0.0 0 0 309.8399 98.2512 L 309.8402 98.3112 A 1.16 1.16 0.0 0 0 311.0042 99.4671 L 326.5441 99.4129 A 1.16 1.16 0.0 0 0 327.7001 98.2488 L 327.6998 98.1888 Z M 252.6589 101.8108 A 0.46 0.46 0.0 0 0 252.1997 101.3500 L 240.7798 101.3301 A 0.46 0.46 0.0 0 0 240.3190 101.7893 L 240.2411 146.4292 A 0.46 0.46 0.0 0 0 240.7003 146.8900 L 252.1202 146.9099 A 0.46 0.46 0.0 0 0 252.5810 146.4507 L 252.6589 101.8108 Z M 324.7112 101.8793 A 0.52 0.52 0.0 0 0 324.1903 101.3602 L 312.9303 101.3799 A 0.52 0.52 0.0 0 0 312.4112 101.9008 L 312.4888 146.3407 A 0.52 0.52 0.0 0 0 313.0097 146.8598 L 324.2697 146.8401 A 0.52 0.52 0.0 0 0 324.7888 146.3192 L 324.7112 101.8793 Z M 281.55 145.65 L 281.55 107.95 A 1.76 1.75 -77.1 0 0 280.57 106.37 C 273.63 102.96 263.06 103.90 255.00 104.62 A 0.43 0.43 0.0 0 0 254.60 105.05 L 254.60 143.59 A 0.48 0.48 0.0 0 0 255.12 144.07 C 263.78 143.45 272.94 143.19 281.04 146.02 A 0.39 0.38 -80.4 0 0 281.55 145.65 Z M 283.49 145.69 A 0.39 0.38 80.5 0 0 284.00 146.06 C 292.12 143.23 301.31 143.50 309.99 144.13 A 0.48 0.48 0.0 0 0 310.51 143.65 L 310.54 105.02 A 0.43 0.43 0.0 0 0 310.14 104.59 C 302.06 103.86 291.47 102.91 284.51 106.32 A 1.77 1.75 77.1 0 0 283.53 107.90 L 283.49 145.69 Z M 255.3195 149.8572 A 1.18 1.18 0.0 0 0 254.1313 148.6855 L 238.5117 148.7946 A 1.18 1.18 0.0 0 0 237.3399 149.9828 L 237.3405 150.0628 A 1.18 1.18 0.0 0 0 238.5287 151.2345 L 254.1483 151.1254 A 1.18 1.18 0.0 0 0 255.3201 149.9372 L 255.3195 149.8572 Z M 327.5198 149.8796 A 1.17 1.17 0.0 0 0 326.3458 148.7137 L 311.2459 148.7664 A 1.17 1.17 0.0 0 0 310.0799 149.9404 L 310.0802 150.0004 A 1.17 1.17 0.0 0 0 311.2542 151.1663 L 326.3541 151.1136 A 1.17 1.17 0.0 0 0 327.5201 149.9396 L 327.5198 149.8796 Z M 246.39 162.20 Q 247.45 162.18 248.05 160.82 A 0.98 0.96 53.8 0 0 248.12 160.32 L 247.30 153.69 A 0.61 0.60 1.2 0 0 246.78 153.16 Q 246.59 153.14 246.30 153.14 Q 246.01 153.14 245.82 153.17 A 0.61 0.60 -2.4 0 0 245.31 153.71 L 244.63 160.36 A 0.98 0.96 -55.0 0 0 244.71 160.85 Q 245.33 162.21 246.39 162.20 Z M 319.9892 154.2448 A 1.08 1.08 0.0 0 0 318.8813 153.1934 L 318.2615 153.2097 A 1.08 1.08 0.0 0 0 317.2102 154.3176 L 317.3908 161.2152 A 1.08 1.08 0.0 0 0 318.4987 162.2666 L 319.1185 162.2503 A 1.08 1.08 0.0 0 0 320.1698 161.1424 L 319.9892 154.2448 Z"
/>
  <path fill="#f9f8f3" d="M 247.37 94.64 A 0.71 0.71 0.0 0 1 246.00 94.93 Q 245.48 93.60 244.73 89.04 Q 244.35 86.71 245.77 86.14 A 1.82 1.80 86.3 0 1 248.17 88.28 Q 247.24 92.10 247.37 94.64 Z"
/>
  <path fill="#f9f8f3" d="M 319.74 86.13 A 0.71 0.71 0.0 0 1 320.45 86.84 L 320.45 86.97 A 8.22 1.17 -89.6 0 1 319.22 95.18 L 317.98 95.18 A 8.22 1.17 -89.6 0 1 316.87 86.95 L 316.87 86.82 A 0.71 0.71 0.0 0 1 317.58 86.11 L 319.74 86.13 Z"
/>
  <path fill="#f9f8f3" d="M 282.51 91.09 Q 290.05 91.07 294.64 92.53 Q 295.20 92.71 295.19 93.71 A 0.91 0.91 0.0 0 1 294.15 94.59 Q 288.37 93.71 282.52 93.72 Q 276.67 93.73 270.89 94.63 A 0.91 0.91 0.0 0 1 269.84 93.76 Q 269.83 92.76 270.39 92.58 Q 274.98 91.10 282.51 91.09 Z"
/>
  <path fill="#f9f8f3" d="M 281.04 146.02 C 272.94 143.19 263.78 143.45 255.12 144.07 A 0.48 0.48 0.0 0 1 254.60 143.59 L 254.60 105.05 A 0.43 0.43 0.0 0 1 255.00 104.62 C 263.06 103.90 273.63 102.96 280.57 106.37 A 1.76 1.75 -77.1 0 1 281.55 107.95 L 281.55 145.65 A 0.39 0.38 -80.4 0 1 281.04 146.02 Z M 276.64 110.47 L 259.47 110.05 A 0.28 0.28 0.0 0 0 259.18 110.32 L 259.16 111.15 A 0.85 0.73 1.4 0 0 259.99 111.90 L 276.03 112.30 A 0.85 0.73 1.4 0 0 276.89 111.59 L 276.91 110.76 A 0.28 0.28 0.0 0 0 276.64 110.47 Z M 276.6883 116.0280 A 0.27 0.27 0.0 0 0 276.4226 115.7538 L 259.4047 115.4864 A 0.27 0.27 0.0 0 0 259.1305 115.7522 L 259.1117 116.9520 A 0.27 0.27 0.0 0 0 259.3774 117.2262 L 276.3953 117.4936 A 0.27 0.27 0.0 0 0 276.6695 117.2278 L 276.6883 116.0280 Z M 276.7500 121.2461 A 0.27 0.27 0.0 0 0 276.4857 120.9705 L 259.2695 120.6099 A 0.27 0.27 0.0 0 0 258.9939 120.8742 L 258.9700 122.0139 A 0.27 0.27 0.0 0 0 259.2343 122.2895 L 276.4505 122.6501 A 0.27 0.27 0.0 0 0 276.7261 122.3858 L 276.7500 121.2461 Z M 276.5676 126.3372 A 0.27 0.27 0.0 0 0 276.3018 126.0630 L 259.3839 125.7972 A 0.27 0.27 0.0 0 0 259.1097 126.0629 L 259.0924 127.1628 A 0.27 0.27 0.0 0 0 259.3582 127.4370 L 276.2761 127.7028 A 0.27 0.27 0.0 0 0 276.5503 127.4371 L 276.5676 126.3372 Z M 276.6893 131.4798 A 0.27 0.27 0.0 0 0 276.4245 131.2047 L 259.2877 130.8756 A 0.27 0.27 0.0 0 0 259.0126 131.1404 L 258.9907 132.2802 A 0.27 0.27 0.0 0 0 259.2555 132.5553 L 276.3923 132.8844 A 0.27 0.27 0.0 0 0 276.6674 132.6196 L 276.6893 131.4798 Z M 276.7572 136.6340 A 0.27 0.27 0.0 0 0 276.4910 136.3603 L 259.2727 136.1199 A 0.27 0.27 0.0 0 0 258.9990 136.3861 L 258.9828 137.5460 A 0.27 0.27 0.0 0 0 259.2490 137.8197 L 276.4673 138.0601 A 0.27 0.27 0.0 0 0 276.7410 137.7939 L 276.7572 136.6340 Z"
/>
  <path fill="#f9f8f3" d="M 283.49 145.69 L 283.53 107.90 A 1.77 1.75 77.1 0 1 284.51 106.32 C 291.47 102.91 302.06 103.86 310.14 104.59 A 0.43 0.43 0.0 0 1 310.54 105.02 L 310.51 143.65 A 0.48 0.48 0.0 0 1 309.99 144.13 C 301.31 143.50 292.12 143.23 284.00 146.06 A 0.39 0.38 80.5 0 1 283.49 145.69 Z M 288.02 112.26 L 305.68 111.86 A 0.13 0.13 0.0 0 0 305.81 111.73 L 305.80 111.60 A 3.37 1.54 -1.3 0 0 302.40 110.13 L 291.22 110.39 A 3.37 1.54 -1.3 0 0 287.89 112.00 L 287.89 112.13 A 0.13 0.13 0.0 0 0 288.02 112.26 Z M 305.5439 115.8300 A 0.27 0.27 0.0 0 0 305.2711 115.5628 L 288.6120 115.7373 A 0.27 0.27 0.0 0 0 288.3448 116.0101 L 288.3561 117.0900 A 0.27 0.27 0.0 0 0 288.6289 117.3572 L 305.2880 117.1827 A 0.27 0.27 0.0 0 0 305.5552 116.9099 L 305.5439 115.8300 Z M 305.6440 120.9893 A 0.26 0.26 0.0 0 0 305.3813 120.7321 L 288.5822 120.9080 A 0.26 0.26 0.0 0 0 288.3249 121.1707 L 288.3360 122.2307 A 0.26 0.26 0.0 0 0 288.5987 122.4879 L 305.3978 122.3120 A 0.26 0.26 0.0 0 0 305.6551 122.0493 L 305.6440 120.9893 Z M 305.6518 126.1789 A 0.26 0.26 0.0 0 0 305.3881 125.9225 L 288.5498 126.1576 A 0.26 0.26 0.0 0 0 288.2934 126.4212 L 288.3082 127.4811 A 0.26 0.26 0.0 0 0 288.5719 127.7375 L 305.4102 127.5024 A 0.26 0.26 0.0 0 0 305.6666 127.2388 L 305.6518 126.1789 Z M 305.7001 131.2945 A 0.27 0.27 0.0 0 0 305.4259 131.0288 L 288.7080 131.2914 A 0.27 0.27 0.0 0 0 288.4423 131.5656 L 288.4599 132.6855 A 0.27 0.27 0.0 0 0 288.7341 132.9512 L 305.4520 132.6886 A 0.27 0.27 0.0 0 0 305.7177 132.4144 L 305.7001 131.2945 Z M 305.7319 136.4725 A 0.27 0.27 0.0 0 0 305.4586 136.2059 L 288.3999 136.4143 A 0.27 0.27 0.0 0 0 288.1332 136.6876 L 288.1481 137.9075 A 0.27 0.27 0.0 0 0 288.4214 138.1741 L 305.4801 137.9657 A 0.27 0.27 0.0 0 0 305.7468 137.6924 L 305.7319 136.4725 Z"
/>
  <path fill="#9c814a" d="M 276.64 110.47 A 0.28 0.28 0.0 0 1 276.91 110.76 L 276.89 111.59 A 0.85 0.73 1.4 0 1 276.03 112.30 L 259.99 111.90 A 0.85 0.73 1.4 0 1 259.16 111.15 L 259.18 110.32 A 0.28 0.28 0.0 0 1 259.47 110.05 L 276.64 110.47 Z"
/>
  <path fill="#9c814a" d="M 288.02 112.26 A 0.13 0.13 0.0 0 1 287.89 112.13 L 287.89 112.00 A 3.37 1.54 -1.3 0 1 291.22 110.39 L 302.40 110.13 A 3.37 1.54 -1.3 0 1 305.80 111.60 L 305.81 111.73 A 0.13 0.13 0.0 0 1 305.68 111.86 L 288.02 112.26 Z"
/>
  <path fill="#f9f8f3" d="M 246.30 153.14 Q 246.59 153.14 246.78 153.16 A 0.61 0.60 1.2 0 1 247.30 153.69 L 248.12 160.32 A 0.98 0.96 53.8 0 1 248.05 160.82 Q 247.45 162.18 246.39 162.20 Q 245.33 162.21 244.71 160.85 A 0.98 0.96 -55.0 0 1 244.63 160.36 L 245.31 153.71 A 0.61 0.60 -2.4 0 1 245.82 153.17 Q 246.01 153.14 246.30 153.14 Z"
/>
  </g>
</svg>
