<svg xmlns="http://www.w3.org/2000/svg" viewBox="936.50 1107.34 238.11 249.76">
  <g fill="none" stroke-width="2.00" stroke-linecap="butt">
  <path stroke="#8a8f9e" vector-effect="non-scaling-stroke" d="M 1145.92 1180.99 C 1119.24 1135.51 1064.45 1115.34 1015.07 1134.86 C 989.37 1145.02 967.62 1166.05 956.40 1191.35 C 944.50 1218.20 944.96 1248.80 957.25 1275.89 Q 966.19 1295.59 980.79 1309.62 C 1011.12 1338.76 1056.00 1349.10 1095.06 1331.28 Q 1122.25 1318.88 1140.07 1294.35 C 1163.97 1261.45 1166.61 1216.25 1145.92 1180.99"
/>
  <path stroke="#8a8f9e" vector-effect="non-scaling-stroke" d="M 1138.37 1179.24 C 1110.86 1137.51 1058.00 1121.14 1012.23 1142.07 C 988.41 1152.96 968.86 1173.95 959.50 1198.45 C 949.57 1224.45 951.52 1253.40 964.50 1278.43 Q 973.94 1296.63 988.45 1309.19 C 1018.61 1335.26 1061.60 1342.82 1097.69 1324.02 Q 1122.81 1310.93 1138.46 1286.83 C 1159.45 1254.50 1159.71 1211.59 1138.37 1179.24"
/>
  <path stroke="#8a8f9e" vector-effect="non-scaling-stroke" d="M 1055.7788 1148.7569 A 2.07 2.07 0.0 0 0 1053.6979 1146.6978 L 1052.8180 1146.7024 A 2.07 2.07 0.0 0 0 1050.7588 1148.7832 L 1050.8212 1160.7031 A 2.07 2.07 0.0 0 0 1052.9021 1162.7622 L 1053.7820 1162.7576 A 2.07 2.07 0.0 0 0 1055.8412 1160.6768 L 1055.7788 1148.7569"
/>
  <path stroke="#8a8f9e" vector-effect="non-scaling-stroke" d="M 1011.0052 1159.4940 A 2.47 2.47 0.0 0 0 1007.7044 1158.3510 L 1007.3266 1158.5344 A 2.47 2.47 0.0 0 0 1006.1836 1161.8352 L 1009.3548 1168.3660 A 2.47 2.47 0.0 0 0 1012.6556 1169.5090 L 1013.0334 1169.3256 A 2.47 2.47 0.0 0 0 1014.1764 1166.0248 L 1011.0052 1159.4940"
/>
  <path stroke="#8a8f9e" vector-effect="non-scaling-stroke" d="M 1098.5019 1161.9945 A 2.56 2.56 0.0 0 0 1097.4858 1158.5197 L 1097.2753 1158.4044 A 2.56 2.56 0.0 0 0 1093.8004 1159.4205 L 1090.4581 1165.5255 A 2.56 2.56 0.0 0 0 1091.4742 1169.0003 L 1091.6847 1169.1156 A 2.56 2.56 0.0 0 0 1095.1596 1168.0995 L 1098.5019 1161.9945"
/>
  <path stroke="#dec393" vector-effect="non-scaling-stroke" d="M 995.4636 1182.0245 A 1.43 1.43 0.0 0 0 994.0237 1180.6045 L 992.4237 1180.6157 A 1.43 1.43 0.0 0 0 991.0037 1182.0557 L 991.0564 1189.5955 A 1.43 1.43 0.0 0 0 992.4963 1191.0155 L 994.0963 1191.0043 A 1.43 1.43 0.0 0 0 995.5163 1189.5643 L 995.4636 1182.0245"
/>
  <path stroke="#8a8f9e" vector-effect="non-scaling-stroke" d="M 1130.3687 1188.8823 A 2.57 2.57 0.0 0 0 1126.8647 1187.9171 L 1120.4478 1191.5624 A 2.57 2.57 0.0 0 0 1119.4826 1195.0664 L 1119.5913 1195.2577 A 2.57 2.57 0.0 0 0 1123.0953 1196.2229 L 1129.5122 1192.5776 A 2.57 2.57 0.0 0 0 1130.4774 1189.0736 L 1130.3687 1188.8823"
/>
  <path stroke="#dec393" vector-effect="non-scaling-stroke" d="M 1014.9963 1191.8702 A 1.51 1.51 0.0 0 0 1014.9106 1189.7364 L 1013.5731 1188.5022 A 1.51 1.51 0.0 0 0 1011.4393 1188.5879 L 1006.5837 1193.8498 A 1.51 1.51 0.0 0 0 1006.6694 1195.9836 L 1008.0069 1197.2178 A 1.51 1.51 0.0 0 0 1010.1407 1197.1321 L 1014.9963 1191.8702"
/>
  <path stroke="#8a8f9e" vector-effect="non-scaling-stroke" d="M 1058.79 1229.86 Q 1056.31 1228.88 1056.34 1225.53 Q 1056.54 1205.20 1056.39 1192.56 A 2.87 2.87 0.0 0 0 1053.50 1189.73 L 1053.39 1189.72 A 2.95 2.95 0.0 0 0 1050.42 1192.69 L 1050.60 1228.01 A 2.40 2.39 -18.6 0 1 1049.65 1229.92 Q 1046.31 1232.45 1046.35 1235.45 C 1046.42 1241.27 1050.53 1245.80 1056.56 1244.67 C 1060.61 1243.92 1062.67 1239.12 1062.42 1235.30 A 1.07 1.07 0.0 0 1 1062.91 1234.33 L 1098.33 1210.92 A 2.86 2.86 0.0 0 0 1099.12 1206.94 L 1098.93 1206.67 A 2.80 2.80 0.0 0 0 1095.04 1205.92 L 1059.74 1229.76 A 1.03 1.02 -50.9 0 1 1058.79 1229.86"
/>
  <path stroke="#dec393" vector-effect="non-scaling-stroke" d="M 981.1796 1196.3206 A 1.87 1.87 0.0 0 0 980.8298 1193.6993 L 976.4605 1190.3587 A 1.87 1.87 0.0 0 0 973.8392 1190.7085 L 973.2804 1191.4394 A 1.87 1.87 0.0 0 0 973.6302 1194.0607 L 977.9995 1197.4013 A 1.87 1.87 0.0 0 0 980.6208 1197.0515 L 981.1796 1196.3206"
/>
  <path stroke="#dec393" vector-effect="non-scaling-stroke" d="M 1011.00 1209.63 A 16.62 16.62 0.0 0 0 994.38 1193.01 A 16.62 16.62 0.0 0 0 977.76 1209.63 A 16.62 16.62 0.0 0 0 994.38 1226.25 A 16.62 16.62 0.0 0 0 1011.00 1209.63"
/>
  <path stroke="#dec393" vector-effect="non-scaling-stroke" d="M 976.2611 1209.2859 A 1.51 1.51 0.0 0 0 974.7723 1207.7550 L 966.9331 1207.6455 A 1.51 1.51 0.0 0 0 965.4021 1209.1343 L 965.3789 1210.7941 A 1.51 1.51 0.0 0 0 966.8677 1212.3250 L 974.7069 1212.4345 A 1.51 1.51 0.0 0 0 976.2379 1210.9457 L 976.2611 1209.2859"
/>
  <path stroke="#dec393" vector-effect="non-scaling-stroke" d="M 1022.9479 1209.0452 A 1.39 1.39 0.0 0 0 1021.5268 1207.6871 L 1013.2889 1207.8741 A 1.39 1.39 0.0 0 0 1011.9308 1209.2952 L 1011.9721 1211.1148 A 1.39 1.39 0.0 0 0 1013.3932 1212.4729 L 1021.6311 1212.2859 A 1.39 1.39 0.0 0 0 1022.9892 1210.8648 L 1022.9479 1209.0452"
/>
  <path stroke="#dec393" vector-effect="non-scaling-stroke" d="M 979.4685 1220.4521 A 1.60 1.60 0.0 0 0 977.2198 1220.1999 L 973.0153 1223.5564 A 1.60 1.60 0.0 0 0 972.7630 1225.8050 L 973.6115 1226.8679 A 1.60 1.60 0.0 0 0 975.8602 1227.1201 L 980.0647 1223.7636 A 1.60 1.60 0.0 0 0 980.3170 1221.5150 L 979.4685 1220.4521"
/>
  <path stroke="#dec393" vector-effect="non-scaling-stroke" d="M 1011.4731 1221.6512 A 2.06 2.06 0.0 0 0 1008.5613 1221.5597 L 1007.8760 1222.2032 A 2.06 2.06 0.0 0 0 1007.7845 1225.1150 L 1010.4269 1227.9288 A 2.06 2.06 0.0 0 0 1013.3387 1228.0203 L 1014.0240 1227.3768 A 2.06 2.06 0.0 0 0 1014.1155 1224.4650 L 1011.4731 1221.6512"
/>
  <path stroke="#dec393" vector-effect="non-scaling-stroke" d="M 996.08 1228.89 A 1.61 1.61 0.0 0 0 994.47 1227.28 L 993.07 1227.28 A 1.61 1.61 0.0 0 0 991.46 1228.89 L 991.46 1234.81 A 1.61 1.61 0.0 0 0 993.07 1236.42 L 994.47 1236.42 A 1.61 1.61 0.0 0 0 996.08 1234.81 L 996.08 1228.89"
/>
  <path stroke="#8a8f9e" vector-effect="non-scaling-stroke" d="M 979.3183 1237.5128 A 2.07 2.07 0.0 0 0 977.2411 1235.4501 L 965.8212 1235.4899 A 2.07 2.07 0.0 0 0 963.7584 1237.5672 L 963.7617 1238.5072 A 2.07 2.07 0.0 0 0 965.8389 1240.5699 L 977.2588 1240.5301 A 2.07 2.07 0.0 0 0 979.3216 1238.4528 L 979.3183 1237.5128"
/>
  <path stroke="#8a8f9e" vector-effect="non-scaling-stroke" d="M 1142.80 1237.49 A 1.94 1.94 0.0 0 0 1140.86 1235.55 L 1128.62 1235.55 A 1.94 1.94 0.0 0 0 1126.68 1237.49 L 1126.68 1238.69 A 1.94 1.94 0.0 0 0 1128.62 1240.63 L 1140.86 1240.63 A 1.94 1.94 0.0 0 0 1142.80 1238.69 L 1142.80 1237.49"
/>
  <path stroke="#dec393" vector-effect="non-scaling-stroke" d="M 1122.81 1294.64 Q 1122.43 1294.49 1117.02 1293.88 C 1107.91 1292.86 1100.69 1287.70 1098.64 1278.95 C 1095.64 1266.14 1103.86 1257.71 1115.80 1254.82 A 1.82 1.78 -31.6 0 0 1116.58 1251.69 C 1114.57 1250.03 1107.26 1252.46 1104.63 1253.67 C 1094.13 1258.50 1090.26 1269.66 1093.00 1280.79 Q 1094.86 1288.32 1101.38 1293.61 Q 1110.49 1301.01 1121.47 1297.73 Q 1122.86 1297.31 1123.40 1296.49 A 1.26 1.26 0.0 0 0 1122.81 1294.64"
/>
  <path stroke="#8a8f9e" vector-effect="non-scaling-stroke" d="M 988.9911 1275.3097 A 2.48 2.48 0.0 0 0 985.5519 1274.6225 L 978.8962 1279.0613 A 2.48 2.48 0.0 0 0 978.2090 1282.5005 L 978.3089 1282.6503 A 2.48 2.48 0.0 0 0 981.7481 1283.3375 L 988.4038 1278.8987 A 2.48 2.48 0.0 0 0 989.0910 1275.4595 L 988.9911 1275.3097"
/>
  <path stroke="#8a8f9e" vector-effect="non-scaling-stroke" d="M 1015.7259 1305.8443 A 2.54 2.54 0.0 0 0 1014.8386 1302.3635 L 1014.6666 1302.2614 A 2.54 2.54 0.0 0 0 1011.1858 1303.1487 L 1007.7141 1308.9957 A 2.54 2.54 0.0 0 0 1008.6014 1312.4765 L 1008.7734 1312.5786 A 2.54 2.54 0.0 0 0 1012.2542 1311.6913 L 1015.7259 1305.8443"
/>
  <path stroke="#8a8f9e" vector-effect="non-scaling-stroke" d="M 1092.5688 1304.2524 A 2.46 2.46 0.0 0 0 1089.1874 1303.4343 L 1088.9996 1303.5489 A 2.46 2.46 0.0 0 0 1088.1816 1306.9304 L 1091.8912 1313.0076 A 2.46 2.46 0.0 0 0 1095.2726 1313.8257 L 1095.4604 1313.7111 A 2.46 2.46 0.0 0 0 1096.2784 1310.3296 L 1092.5688 1304.2524"
/>
  <path stroke="#8a8f9e" vector-effect="non-scaling-stroke" d="M 1054.6781 1312.5478 A 2.43 2.43 0.0 0 0 1052.2270 1310.1391 L 1051.9670 1310.1414 A 2.43 2.43 0.0 0 0 1049.5583 1312.5925 L 1049.6419 1322.1722 A 2.43 2.43 0.0 0 0 1052.0930 1324.5809 L 1052.3530 1324.5786 A 2.43 2.43 0.0 0 0 1054.7617 1322.1275 L 1054.6781 1312.5478"
/>
  <path stroke="#dec393" vector-effect="non-scaling-stroke" d="M 1003.4205 1203.4845 A 11.09 10.87 -34.4 0 0 988.1288 1200.7810 A 11.09 10.87 -34.4 0 0 985.1195 1216.0155 A 11.09 10.87 -34.4 0 0 1000.4112 1218.7190 A 11.09 10.87 -34.4 0 0 1003.4205 1203.4845"
/>
  <path fill="#152142" d="M 1015.07 1134.86 C 1064.45 1115.34 1119.24 1135.51 1145.92 1180.99 C 1166.61 1216.25 1163.97 1261.45 1140.07 1294.35 Q 1122.25 1318.88 1095.06 1331.28 C 1056.00 1349.10 1011.12 1338.76 980.79 1309.62 Q 966.19 1295.59 957.25 1275.89 C 944.96 1248.80 944.50 1218.20 956.40 1191.35 C 967.62 1166.05 989.37 1145.02 1015.07 1134.86 Z M 1138.37 1179.24 C 1110.86 1137.51 1058.00 1121.14 1012.23 1142.07 C 988.41 1152.96 968.86 1173.95 959.50 1198.45 C 949.57 1224.45 951.52 1253.40 964.50 1278.43 Q 973.94 1296.63 988.45 1309.19 C 1018.61 1335.26 1061.60 1342.82 1097.69 1324.02 Q 1122.81 1310.93 1138.46 1286.83 C 1159.45 1254.50 1159.71 1211.59 1138.37 1179.24 Z"
/>
  <path fill="#fefdf9" d="M 1138.37 1179.24 C 1159.71 1211.59 1159.45 1254.50 1138.46 1286.83 Q 1122.81 1310.93 1097.69 1324.02 C 1061.60 1342.82 1018.61 1335.26 988.45 1309.19 Q 973.94 1296.63 964.50 1278.43 C 951.52 1253.40 949.57 1224.45 959.50 1198.45 C 968.86 1173.95 988.41 1152.96 1012.23 1142.07 C 1058.00 1121.14 1110.86 1137.51 1138.37 1179.24 Z M 1055.7788 1148.7569 A 2.07 2.07 0.0 0 0 1053.6979 1146.6978 L 1052.8180 1146.7024 A 2.07 2.07 0.0 0 0 1050.7588 1148.7832 L 1050.8212 1160.7031 A 2.07 2.07 0.0 0 0 1052.9021 1162.7622 L 1053.7820 1162.7576 A 2.07 2.07 0.0 0 0 1055.8412 1160.6768 L 1055.7788 1148.7569 Z M 1011.0052 1159.4940 A 2.47 2.47 0.0 0 0 1007.7044 1158.3510 L 1007.3266 1158.5344 A 2.47 2.47 0.0 0 0 1006.1836 1161.8352 L 1009.3548 1168.3660 A 2.47 2.47 0.0 0 0 1012.6556 1169.5090 L 1013.0334 1169.3256 A 2.47 2.47 0.0 0 0 1014.1764 1166.0248 L 1011.0052 1159.4940 Z M 1098.5019 1161.9945 A 2.56 2.56 0.0 0 0 1097.4858 1158.5197 L 1097.2753 1158.4044 A 2.56 2.56 0.0 0 0 1093.8004 1159.4205 L 1090.4581 1165.5255 A 2.56 2.56 0.0 0 0 1091.4742 1169.0003 L 1091.6847 1169.1156 A 2.56 2.56 0.0 0 0 1095.1596 1168.0995 L 1098.5019 1161.9945 Z M 995.4636 1182.0245 A 1.43 1.43 0.0 0 0 994.0237 1180.6045 L 992.4237 1180.6157 A 1.43 1.43 0.0 0 0 991.0037 1182.0557 L 991.0564 1189.5955 A 1.43 1.43 0.0 0 0 992.4963 1191.0155 L 994.0963 1191.0043 A 1.43 1.43 0.0 0 0 995.5163 1189.5643 L 995.4636 1182.0245 Z M 1130.3687 1188.8823 A 2.57 2.57 0.0 0 0 1126.8647 1187.9171 L 1120.4478 1191.5624 A 2.57 2.57 0.0 0 0 1119.4826 1195.0664 L 1119.5913 1195.2577 A 2.57 2.57 0.0 0 0 1123.0953 1196.2229 L 1129.5122 1192.5776 A 2.57 2.57 0.0 0 0 1130.4774 1189.0736 L 1130.3687 1188.8823 Z M 1014.9963 1191.8702 A 1.51 1.51 0.0 0 0 1014.9106 1189.7364 L 1013.5731 1188.5022 A 1.51 1.51 0.0 0 0 1011.4393 1188.5879 L 1006.5837 1193.8498 A 1.51 1.51 0.0 0 0 1006.6694 1195.9836 L 1008.0069 1197.2178 A 1.51 1.51 0.0 0 0 1010.1407 1197.1321 L 1014.9963 1191.8702 Z M 1058.79 1229.86 Q 1056.31 1228.88 1056.34 1225.53 Q 1056.54 1205.20 1056.39 1192.56 A 2.87 2.87 0.0 0 0 1053.50 1189.73 L 1053.39 1189.72 A 2.95 2.95 0.0 0 0 1050.42 1192.69 L 1050.60 1228.01 A 2.40 2.39 -18.6 0 1 1049.65 1229.92 Q 1046.31 1232.45 1046.35 1235.45 C 1046.42 1241.27 1050.53 1245.80 1056.56 1244.67 C 1060.61 1243.92 1062.67 1239.12 1062.42 1235.30 A 1.07 1.07 0.0 0 1 1062.91 1234.33 L 1098.33 1210.92 A 2.86 2.86 0.0 0 0 1099.12 1206.94 L 1098.93 1206.67 A 2.80 2.80 0.0 0 0 1095.04 1205.92 L 1059.74 1229.76 A 1.03 1.02 -50.9 0 1 1058.79 1229.86 Z M 981.1796 1196.3206 A 1.87 1.87 0.0 0 0 980.8298 1193.6993 L 976.4605 1190.3587 A 1.87 1.87 0.0 0 0 973.8392 1190.7085 L 973.2804 1191.4394 A 1.87 1.87 0.0 0 0 973.6302 1194.0607 L 977.9995 1197.4013 A 1.87 1.87 0.0 0 0 980.6208 1197.0515 L 981.1796 1196.3206 Z M 1011.00 1209.63 A 16.62 16.62 0.0 0 0 994.38 1193.01 A 16.62 16.62 0.0 0 0 977.76 1209.63 A 16.62 16.62 0.0 0 0 994.38 1226.25 A 16.62 16.62 0.0 0 0 1011.00 1209.63 Z M 976.2611 1209.2859 A 1.51 1.51 0.0 0 0 974.7723 1207.7550 L 966.9331 1207.6455 A 1.51 1.51 0.0 0 0 965.4021 1209.1343 L 965.3789 1210.7941 A 1.51 1.51 0.0 0 0 966.8677 1212.3250 L 974.7069 1212.4345 A 1.51 1.51 0.0 0 0 976.2379 1210.9457 L 976.2611 1209.2859 Z M 1022.9479 1209.0452 A 1.39 1.39 0.0 0 0 1021.5268 1207.6871 L 1013.2889 1207.8741 A 1.39 1.39 0.0 0 0 1011.9308 1209.2952 L 1011.9721 1211.1148 A 1.39 1.39 0.0 0 0 1013.3932 1212.4729 L 1021.6311 1212.2859 A 1.39 1.39 0.0 0 0 1022.9892 1210.8648 L 1022.9479 1209.0452 Z M 979.4685 1220.4521 A 1.60 1.60 0.0 0 0 977.2198 1220.1999 L 973.0153 1223.5564 A 1.60 1.60 0.0 0 0 972.7630 1225.8050 L 973.6115 1226.8679 A 1.60 1.60 0.0 0 0 975.8602 1227.1201 L 980.0647 1223.7636 A 1.60 1.60 0.0 0 0 980.3170 1221.5150 L 979.4685 1220.4521 Z M 1011.4731 1221.6512 A 2.06 2.06 0.0 0 0 1008.5613 1221.5597 L 1007.8760 1222.2032 A 2.06 2.06 0.0 0 0 1007.7845 1225.1150 L 1010.4269 1227.9288 A 2.06 2.06 0.0 0 0 1013.3387 1228.0203 L 1014.0240 1227.3768 A 2.06 2.06 0.0 0 0 1014.1155 1224.4650 L 1011.4731 1221.6512 Z M 996.08 1228.89 A 1.61 1.61 0.0 0 0 994.47 1227.28 L 993.07 1227.28 A 1.61 1.61 0.0 0 0 991.46 1228.89 L 991.46 1234.81 A 1.61 1.61 0.0 0 0 993.07 1236.42 L 994.47 1236.42 A 1.61 1.61 0.0 0 0 996.08 1234.81 L 996.08 1228.89 Z M 979.3183 1237.5128 A 2.07 2.07 0.0 0 0 977.2411 1235.4501 L 965.8212 1235.4899 A 2.07 2.07 0.0 0 0 963.7584 1237.5672 L 963.7617 1238.5072 A 2.07 2.07 0.0 0 0 965.8389 1240.5699 L 977.2588 1240.5301 A 2.07 2.07 0.0 0 0 979.3216 1238.4528 L 979.3183 1237.5128 Z M 1142.80 1237.49 A 1.94 1.94 0.0 0 0 1140.86 1235.55 L 1128.62 1235.55 A 1.94 1.94 0.0 0 0 1126.68 1237.49 L 1126.68 1238.69 A 1.94 1.94 0.0 0 0 1128.62 1240.63 L 1140.86 1240.63 A 1.94 1.94 0.0 0 0 1142.80 1238.69 L 1142.80 1237.49 Z M 1122.81 1294.64 Q 1122.43 1294.49 1117.02 1293.88 C 1107.91 1292.86 1100.69 1287.70 1098.64 1278.95 C 1095.64 1266.14 1103.86 1257.71 1115.80 1254.82 A 1.82 1.78 -31.6 0 0 1116.58 1251.69 C 1114.57 1250.03 1107.26 1252.46 1104.63 1253.67 C 1094.13 1258.50 1090.26 1269.66 1093.00 1280.79 Q 1094.86 1288.32 1101.38 1293.61 Q 1110.49 1301.01 1121.47 1297.73 Q 1122.86 1297.31 1123.40 1296.49 A 1.26 1.26 0.0 0 0 1122.81 1294.64 Z M 988.9911 1275.3097 A 2.48 2.48 0.0 0 0 985.5519 1274.6225 L 978.8962 1279.0613 A 2.48 2.48 0.0 0 0 978.2090 1282.5005 L 978.3089 1282.6503 A 2.48 2.48 0.0 0 0 981.7481 1283.3375 L 988.4038 1278.8987 A 2.48 2.48 0.0 0 0 989.0910 1275.4595 L 988.9911 1275.3097 Z M 1015.7259 1305.8443 A 2.54 2.54 0.0 0 0 1014.8386 1302.3635 L 1014.6666 1302.2614 A 2.54 2.54 0.0 0 0 1011.1858 1303.1487 L 1007.7141 1308.9957 A 2.54 2.54 0.0 0 0 1008.6014 1312.4765 L 1008.7734 1312.5786 A 2.54 2.54 0.0 0 0 1012.2542 1311.6913 L 1015.7259 1305.8443 Z M 1092.5688 1304.2524 A 2.46 2.46 0.0 0 0 1089.1874 1303.4343 L 1088.9996 1303.5489 A 2.46 2.46 0.0 0 0 1088.1816 1306.9304 L 1091.8912 1313.0076 A 2.46 2.46 0.0 0 0 1095.2726 1313.8257 L 1095.4604 1313.7111 A 2.46 2.46 0.0 0 0 1096.2784 1310.3296 L 1092.5688 1304.2524 Z M 1054.6781 1312.5478 A 2.43 2.43 0.0 0 0 1052.2270 1310.1391 L 1051.9670 1310.1414 A 2.43 2.43 0.0 0 0 1049.5583 1312.5925 L 1049.6419 1322.1722 A 2.43 2.43 0.0 0 0 1052.0930 1324.5809 L 1052.3530 1324.5786 A 2.43 2.43 0.0 0 0 1054.7617 1322.1275 L 1054.6781 1312.5478 Z"
/>
  <path fill="#152142" d="M 1059.74 1229.76 L 1095.04 1205.92 A 2.80 2.80 0.0 0 1 1098.93 1206.67 L 1099.12 1206.94 A 2.86 2.86 0.0 0 1 1098.33 1210.92 L 1062.91 1234.33 A 1.07 1.07 0.0 0 0 1062.42 1235.30 C 1062.67 1239.12 1060.61 1243.92 1056.56 1244.67 C 1050.53 1245.80 1046.42 1241.27 1046.35 1235.45 Q 1046.31 1232.45 1049.65 1229.92 A 2.40 2.39 -18.6 0 0 1050.60 1228.01 L 1050.42 1192.69 A 2.95 2.95 0.0 0 1 1053.39 1189.72 L 1053.50 1189.73 A 2.87 2.87 0.0 0 1 1056.39 1192.56 Q 1056.54 1205.20 1056.34 1225.53 Q 1056.31 1228.88 1058.79 1229.86 A 1.03 1.02 -50.9 0 0 1059.74 1229.76 Z"
/>
  <path fill="#be882c" d="M 1011.00 1209.63 A 16.62 16.62 0.0 0 1 994.38 1226.25 A 16.62 16.62 0.0 0 1 977.76 1209.63 A 16.62 16.62 0.0 0 1 994.38 1193.01 A 16.62 16.62 0.0 0 1 1011.00 1209.63 Z M 1003.4205 1203.4845 A 11.09 10.87 -34.4 0 0 988.1288 1200.7810 A 11.09 10.87 -34.4 0 0 985.1195 1216.0155 A 11.09 10.87 -34.4 0 0 1000.4112 1218.7190 A 11.09 10.87 -34.4 0 0 1003.4205 1203.4845 Z"
/>
  <path fill="#be882c" d="M 1122.81 1294.64 A 1.26 1.26 0.0 0 1 1123.40 1296.49 Q 1122.86 1297.31 1121.47 1297.73 Q 1110.49 1301.01 1101.38 1293.61 Q 1094.86 1288.32 1093.00 1280.79 C 1090.26 1269.66 1094.13 1258.50 1104.63 1253.67 C 1107.26 1252.46 1114.57 1250.03 1116.58 1251.69 A 1.82 1.78 -31.6 0 1 1115.80 1254.82 C 1103.86 1257.71 1095.64 1266.14 1098.64 1278.95 C 1100.69 1287.70 1107.91 1292.86 1117.02 1293.88 Q 1122.43 1294.49 1122.81 1294.64 Z"
/>
  </g>
</svg>
